<svg width="193" height="100" viewBox="0 0 193 100" fill="none" xmlns="http://www.w3.org/2000/svg">
<g clip-path="url(#clip0_71_171)">
<path d="M46.4037 98.302L41.6539 90.7641L46.4059 99.1232L46.4085 99.9821C46.7474 99.9781 47.0828 99.9651 47.4148 99.9431L47.0274 88.9096L47.0325 88.8243L47.0238 88.808L46.9869 87.7654L51.9533 79.5039L46.9818 86.9847L46.9669 87.2055L46.6742 78.8692L50.9438 70.3216L46.6408 77.4044L46.4407 60.1257L46.4398 60.0682L46.4391 60.1248L46.3416 73.7479L42.2619 68.2971L46.3452 74.9213L46.3642 82.3827L42.5787 75.1764L46.3663 83.4797L46.3767 87.6287L40.8781 77.5949L46.3811 89.076L46.4037 98.302Z" fill="#E2E2E2"/>
<path d="M87.1641 98.302L82.4142 90.7642L87.1663 99.1232L87.1689 99.9821C87.5077 99.9782 87.8432 99.9652 88.1752 99.9431L87.7878 88.9096L87.7929 88.8243L87.7841 88.8081L87.7473 87.7654L92.7137 79.504L87.7421 86.9847L87.7273 87.2055L87.4346 78.8693L91.7041 70.3217L87.4012 77.4045L87.2011 60.1257L87.2002 60.0682L87.1995 60.1248L87.102 73.7479L83.0222 68.2971L87.1056 74.9213L87.1246 82.3828L83.3391 75.1764L87.1266 83.4797L87.1371 87.6287L81.6384 77.5949L87.1415 89.0761L87.1641 98.302Z" fill="#E2E2E2"/>
<path d="M5.6047 98.7868L2.17483 93.3438L5.60629 99.3798L5.60813 100C5.85282 99.9971 6.09504 99.9878 6.33479 99.9719L6.05504 92.0046L6.05872 91.943L6.05242 91.9313L6.02578 91.1784L9.61201 85.2128L6.02208 90.6146L6.01134 90.7741L5.80001 84.7545L8.88302 78.5823L5.77592 83.6968L5.63139 71.2199L5.63073 71.1784L5.63023 71.2192L5.55986 81.0564L2.61388 77.1204L5.56246 81.9037L5.57615 87.2916L2.8427 82.0879L5.57765 88.0837L5.58522 91.0796L1.61462 83.8343L5.58833 92.1248L5.6047 98.7868Z" fill="#E2E2E2"/>
<path d="M186.297 98.302L181.547 90.7641L186.299 99.1232L186.302 99.9821C186.641 99.9781 186.976 99.9651 187.308 99.9431L186.921 88.9096L186.926 88.8243L186.917 88.808L186.88 87.7654L191.846 79.5039L186.875 86.9847L186.86 87.2055L186.567 78.8692L190.837 70.3216L186.534 77.4044L186.334 60.1257L186.333 60.0682L186.332 60.1248L186.235 73.7479L182.155 68.2971L186.238 74.9213L186.257 82.3827L182.472 75.1764L186.259 83.4797L186.27 87.6287L180.771 77.5949L186.274 89.0761L186.297 98.302Z" fill="#E2E2E2"/>
<path d="M57.4809 86.9214H83.1038V85.8357H57.4809V86.9214Z" fill="#1F7A3A"/>
<path d="M56.178 85.8357H81.8009V84.75H56.178V85.8357Z" fill="#1F7A3A"/>
<path d="M57.698 84.75H83.3209V83.6643H57.698V84.75Z" fill="#1F7A3A"/>
<path d="M60.3037 83.6643H85.9266V82.5786H60.3037V83.6643Z" fill="#1F7A3A"/>
<path d="M38.5023 84.0971H39.392V77.7807H38.5023V84.0971Z" fill="#3F3D56"/>
<path d="M38.5005 77.7006L38.8351 78.5249L71.7559 65.1628L71.4213 64.3385L38.5005 77.7006Z" fill="#3F3D56"/>
<path d="M22.0442 93.5272H29.7839V90.5024H22.0442V93.5272Z" fill="#3F3D56"/>
<path d="M22.7559 96.5519H60.921V93.1713H22.7559V96.5519Z" fill="#3F3D56"/>
<path d="M29.0277 94.8616H38.1909V83.3409H31.3407L29.0277 89.1514V94.8616Z" fill="#E2E2E2"/>
<path d="M32.8532 87.967H36.7676V84.0526H32.8532V87.967Z" fill="white"/>
<path d="M29.9174 88.0114H32.4084V84.0972H31.3407L29.9174 88.0114Z" fill="white"/>
<path d="M35.7 91.8813H36.5896V90.1911H35.7V91.8813Z" fill="#3F3D56"/>
<path d="M31.6521 88.2784H31.6076C31.3835 88.2784 31.1685 88.1893 31.01 88.0308C30.8515 87.8723 30.7625 87.6573 30.7625 87.4332C30.7625 87.209 30.8515 86.9941 31.01 86.8356C31.1685 86.6771 31.3835 86.5881 31.6076 86.5881H31.6521V88.2784Z" fill="#3F3D56"/>
<path d="M64.7463 94.8616H64.7019C64.4777 94.8616 64.2627 94.7726 64.1042 94.6141C63.9457 94.4556 63.8567 94.2406 63.8567 94.0164C63.8567 93.7923 63.9457 93.5773 64.1042 93.4188C64.2627 93.2603 64.4777 93.1713 64.7019 93.1713H64.7463V94.8616V94.8616Z" fill="#3F3D56"/>
<path d="M25.4692 93.1585C24.8076 93.167 24.1564 93.3245 23.5641 93.6194C22.9718 93.9142 22.4535 94.3388 22.048 94.8616H20.3093L21.9996 90.1531L29.8728 88.6003L29.6504 94.8616H28.8904C28.4848 94.3388 27.9666 93.9142 27.3743 93.6194C26.7819 93.3245 26.1308 93.167 25.4692 93.1585Z" fill="#E2E2E2"/>
<path d="M25.3803 99.8435C27.5175 99.8435 29.2501 98.1109 29.2501 95.9736C29.2501 93.8364 27.5175 92.1038 25.3803 92.1038C23.243 92.1038 21.5104 93.8364 21.5104 95.9736C21.5104 98.1109 23.243 99.8435 25.3803 99.8435Z" fill="#3F3D56"/>
<path d="M25.3803 98.0104C26.5052 98.0104 27.4171 97.0985 27.4171 95.9736C27.4171 94.8488 26.5052 93.9369 25.3803 93.9369C24.2554 93.9369 23.3435 94.8488 23.3435 95.9736C23.3435 97.0985 24.2554 98.0104 25.3803 98.0104Z" fill="#E2E2E2"/>
<path d="M60.3427 99.7991C62.2098 99.7991 63.7233 98.2855 63.7233 96.4185C63.7233 94.5514 62.2098 93.0379 60.3427 93.0379C58.4757 93.0379 56.9622 94.5514 56.9622 96.4185C56.9622 98.2855 58.4757 99.7991 60.3427 99.7991Z" fill="#3F3D56"/>
<path d="M60.3427 98.1977C61.3254 98.1977 62.122 97.4011 62.122 96.4184C62.122 95.4358 61.3254 94.6392 60.3427 94.6392C59.3601 94.6392 58.5635 95.4358 58.5635 96.4184C58.5635 97.4011 59.3601 98.1977 60.3427 98.1977Z" fill="#E2E2E2"/>
<path d="M37.924 95.2175H39.7922V81.7396H37.924V95.2175Z" fill="#3F3D56"/>
<path d="M37.9241 93.5716H64.7909V92.771H37.9241V93.5716Z" fill="#3F3D56"/>
<path d="M31.1184 88.5452H32.0081V88.1894H31.1184V88.5452Z" fill="#3F3D56"/>
<path d="M70.44 86.9148C70.4316 86.9055 70.4252 86.8945 70.4213 86.8826C70.4174 86.8707 70.416 86.8581 70.4174 86.8456L71.6443 75.2432C71.6466 75.2214 71.6569 75.2012 71.6731 75.1865C71.6894 75.1718 71.7105 75.1637 71.7324 75.1636H71.7328C71.7546 75.1636 71.7757 75.1716 71.792 75.1861C71.8083 75.2007 71.8187 75.2207 71.8212 75.2424L73.1481 86.8207C73.1496 86.8331 73.1484 86.8457 73.1446 86.8576C73.1409 86.8695 73.1347 86.8804 73.1264 86.8898C73.1182 86.8991 73.108 86.9066 73.0967 86.9118C73.0853 86.917 73.073 86.9197 73.0606 86.9198L70.5067 86.9439H70.5058C70.4934 86.9439 70.4812 86.9413 70.4698 86.9363C70.4585 86.9313 70.4483 86.9239 70.44 86.9148ZM71.7363 76.0649L70.6048 86.765L72.9601 86.7429L71.7363 76.0649Z" fill="#3F3D56"/>
<path d="M22.016 90.2218L22.0576 90.2375C22.2672 90.3168 22.4368 90.4761 22.529 90.6805C22.6212 90.8848 22.6284 91.1173 22.5491 91.327C22.4698 91.5366 22.3105 91.7062 22.1062 91.7984C21.9019 91.8906 21.6693 91.8978 21.4596 91.8185L21.418 91.8028L22.016 90.2218Z" fill="#3F3D56"/>
<path d="M71.3296 77.3359H72.2192V64.3473H71.3296V77.3359Z" fill="#3F3D56"/>
<path d="M38.9471 79.2041C39.635 79.2041 40.1926 78.6465 40.1926 77.9586C40.1926 77.2708 39.635 76.7132 38.9471 76.7132C38.2593 76.7132 37.7017 77.2708 37.7017 77.9586C37.7017 78.6465 38.2593 79.2041 38.9471 79.2041Z" fill="#3F3D56"/>
<path d="M40.7608 92.7843H66.3837V91.6986H40.7608V92.7843Z" fill="#1F7A3A"/>
<path d="M42.2808 91.6986H67.9037V90.6128H42.2808V91.6986Z" fill="#1F7A3A"/>
<path d="M41.1951 90.83H66.818V89.7443H41.1951V90.83Z" fill="#1F7A3A"/>
<path d="M42.7151 89.7443H68.338V88.6586H42.7151V89.7443Z" fill="#1F7A3A"/>
<path d="M83.022 26.5441C83.8385 26.5431 84.6279 26.8372 85.2448 27.3723C85.7321 27.2392 86.2431 27.2167 86.7403 27.3066C87.1519 26.7093 87.7437 26.2592 88.4292 26.0222C89.1148 25.7852 89.8582 25.7736 90.5508 25.9892C91.2434 26.2047 91.8489 26.6361 92.2789 27.2203C92.7089 27.8045 92.9408 28.5109 92.9407 29.2363H79.6957C79.8581 28.4746 80.277 27.7916 80.8824 27.3016C81.4878 26.8116 82.2431 26.5442 83.022 26.5441Z" fill="#E2E2E2"/>
<path d="M63.0956 37.2597C63.8676 37.2588 64.6139 37.5368 65.197 38.0427C65.6578 37.9168 66.1409 37.8956 66.6109 37.9805C67 37.4158 67.5595 36.9904 68.2076 36.7663C68.8558 36.5422 69.5586 36.5313 70.2134 36.7351C70.8682 36.9389 71.4406 37.3467 71.8472 37.899C72.2537 38.4513 72.4729 39.1191 72.4728 39.8049H59.9509C60.1045 39.0848 60.5005 38.4391 61.0729 37.9758C61.6452 37.5126 62.3592 37.2598 63.0956 37.2597Z" fill="#E2E2E2"/>
<path d="M43.1733 19.5859C43.9765 19.585 44.753 19.8743 45.3598 20.4006C45.8392 20.2697 46.3418 20.2476 46.8308 20.336C47.2357 19.7484 47.8178 19.3058 48.4922 19.0726C49.1665 18.8395 49.8978 18.8281 50.5791 19.0401C51.2604 19.2522 51.856 19.6765 52.2789 20.2511C52.7019 20.8258 52.93 21.5206 52.93 22.2342H39.9014C40.0611 21.4849 40.4732 20.8131 41.0687 20.3311C41.6642 19.8491 42.4071 19.586 43.1733 19.5859Z" fill="#E2E2E2"/>
<path d="M129.2 53.2404V80.3628H139.748V52.8636L137.299 52.9511V47.4015H135.523L135.23 35.1104C135.947 34.6434 136.451 33.5343 136.451 32.2393C136.452 31.8675 136.409 31.4969 136.323 31.1353C136.662 30.7684 136.87 30.2993 136.914 29.8015C136.958 29.3037 136.835 28.8054 136.566 28.3846C136.791 28.5816 137.053 28.7318 137.337 28.8265C137.621 28.9213 137.921 28.9587 138.219 28.9367C138.518 28.9146 138.809 28.8335 139.076 28.698C139.343 28.5625 139.58 28.3753 139.774 28.1474C139.968 27.9195 140.115 27.6553 140.206 27.3702C140.297 27.0851 140.33 26.7847 140.304 26.4866C140.278 26.1884 140.193 25.8984 140.054 25.6334C139.915 25.3683 139.725 25.1335 139.494 24.9426C139.882 24.7996 140.223 24.5531 140.48 24.23C140.737 23.9068 140.901 23.5193 140.954 23.1096C141.006 22.6999 140.946 22.2836 140.778 21.9059C140.611 21.5283 140.343 21.2037 140.004 20.9676C139.665 20.7314 139.268 20.5925 138.856 20.5662C138.444 20.5398 138.032 20.627 137.666 20.8181C137.3 21.0092 136.993 21.297 136.779 21.6503C136.565 22.0035 136.451 22.4087 136.451 22.8218C136.451 22.8549 136.453 22.8877 136.454 22.9204C136.144 22.8256 135.816 22.7987 135.495 22.8415C135.173 22.8843 134.864 22.9959 134.59 23.1685C134.315 23.3412 134.081 23.571 133.903 23.8422C133.724 24.1135 133.607 24.4199 133.558 24.7406C133.276 24.5729 132.961 24.4686 132.635 24.4348C132.308 24.4011 131.979 24.4387 131.668 24.5452C131.358 24.6516 131.075 24.8243 130.838 25.0512C130.601 25.2782 130.417 25.5539 130.297 25.8594C130.178 26.1648 130.126 26.4926 130.146 26.82C130.166 27.1473 130.257 27.4665 130.412 27.7552C130.568 28.0439 130.784 28.2954 131.047 28.492C131.309 28.6887 131.611 28.8258 131.932 28.894C131.932 28.9104 131.931 28.9267 131.931 28.9432C132.141 29.5767 132.408 30.1897 132.729 30.7747C132.572 31.2469 132.493 31.7416 132.496 32.2393C132.496 33.5343 133 34.6434 133.717 35.1104L133.424 47.4015H131.649V53.1529L129.2 53.2404ZM135.786 27.342L135.792 27.3422C135.825 27.3422 135.857 27.3411 135.889 27.3397C135.91 27.4065 135.933 27.4719 135.959 27.5359C135.905 27.4681 135.848 27.4033 135.786 27.342Z" fill="#E2E2E2"/>
<path d="M123.392 99.6687H155.412V62.6265L123.392 62.6265V99.6687Z" fill="#3F3D56"/>
<path d="M135.086 99.6687H143.719V92.1347H135.086V99.6687Z" fill="#E2E2E2"/>
<path d="M112.721 13.8873C112.721 13.9147 112.719 13.9418 112.719 13.9693C112.719 14.4731 112.82 14.9718 113.016 15.4358C113.212 15.8997 113.5 16.3195 113.861 16.67C113.918 16.7906 113.981 16.908 114.05 17.0219C113.788 17.8089 113.657 18.6334 113.661 19.4629C113.661 22.3235 115.137 24.6425 116.957 24.6425C118.778 24.6425 120.253 22.3235 120.253 19.4629C120.255 18.8432 120.183 18.2256 120.038 17.6229C120.604 17.0113 120.95 16.2294 121.023 15.3999C121.097 14.5703 120.893 13.7398 120.444 13.0385C120.819 13.3666 121.256 13.617 121.73 13.7749C122.203 13.9328 122.703 13.9952 123.2 13.9584C123.697 13.9216 124.183 13.7863 124.627 13.5605C125.072 13.3347 125.467 13.0228 125.791 12.6429C126.114 12.263 126.358 11.8227 126.51 11.3476C126.662 10.8724 126.718 10.3719 126.674 9.87497C126.631 9.37807 126.489 8.89472 126.258 8.45299C126.026 8.01125 125.709 7.61992 125.325 7.30172C125.971 7.06336 126.539 6.65257 126.968 6.11397C127.397 5.57537 127.67 4.92954 127.757 4.24667C127.845 3.56379 127.744 2.86997 127.465 2.24057C127.186 1.61117 126.74 1.07026 126.175 0.676601C125.61 0.282944 124.948 0.0515916 124.261 0.007674C123.574 -0.0362436 122.888 0.108954 122.278 0.427494C121.667 0.746035 121.156 1.22574 120.799 1.81449C120.442 2.40324 120.253 3.07854 120.253 3.76701C120.253 3.82216 120.255 3.87688 120.257 3.93145C119.74 3.77345 119.195 3.7286 118.659 3.79995C118.123 3.8713 117.608 4.05717 117.15 4.34495C116.693 4.63273 116.302 5.01567 116.005 5.46777C115.708 5.91987 115.512 6.43055 115.43 6.96513C114.961 6.68561 114.436 6.51169 113.892 6.45543C113.348 6.39917 112.799 6.46192 112.282 6.63933C111.765 6.81673 111.292 7.10454 110.898 7.48278C110.503 7.86101 110.195 8.32061 109.996 8.82966C109.797 9.3387 109.711 9.88501 109.744 10.4306C109.777 10.9763 109.929 11.5082 110.188 11.9894C110.447 12.4706 110.808 12.8897 111.246 13.2174C111.683 13.5452 112.187 13.7738 112.721 13.8873ZM119.155 11.301C119.209 11.301 119.263 11.2992 119.317 11.2969C119.35 11.4083 119.389 11.5173 119.433 11.6239C119.343 11.5108 119.247 11.4029 119.145 11.3008L119.155 11.301Z" fill="#E2E2E2"/>
<path d="M115.073 50.3837H118.841L118.706 44.7337V44.7315L118.213 24.0139C117.835 24.245 117.4 24.3673 116.957 24.3673C116.514 24.3673 116.079 24.245 115.701 24.0139L115.208 44.7315V44.7337L115.073 50.3837Z" fill="#1F7A3A"/>
<path d="M108.168 54.4639V99.6687H125.746V53.8363L121.666 53.9818V44.7337H112.248V54.3184L108.168 54.4639Z" fill="#1F7A3A"/>
<path d="M157.611 13.8873C157.611 13.9147 157.609 13.9418 157.609 13.9693C157.609 14.4731 157.71 14.9718 157.906 15.4358C158.102 15.8997 158.39 16.3195 158.752 16.67C158.808 16.7906 158.871 16.908 158.94 17.0219C158.678 17.8089 158.547 18.6334 158.551 19.4629C158.551 22.3235 160.027 24.6425 161.847 24.6425C163.668 24.6425 165.143 22.3235 165.143 19.4629C165.145 18.8432 165.073 18.2256 164.929 17.6229C165.494 17.0113 165.84 16.2294 165.914 15.3999C165.987 14.5703 165.783 13.7398 165.334 13.0385C165.71 13.3667 166.147 13.617 166.62 13.7749C167.093 13.9328 167.593 13.9952 168.09 13.9584C168.588 13.9216 169.073 13.7864 169.517 13.5606C169.962 13.3347 170.358 13.0228 170.681 12.643C171.004 12.2631 171.249 11.8228 171.4 11.3476C171.552 10.8724 171.608 10.3719 171.564 9.87498C171.521 9.37807 171.38 8.89472 171.148 8.45299C170.916 8.01125 170.599 7.61992 170.215 7.30172C170.861 7.06336 171.429 6.65257 171.858 6.11397C172.287 5.57537 172.56 4.92955 172.648 4.24667C172.735 3.56379 172.634 2.86997 172.355 2.24057C172.076 1.61117 171.63 1.07026 171.065 0.676601C170.5 0.282944 169.838 0.0515917 169.151 0.00767402C168.464 -0.0362436 167.778 0.108954 167.168 0.427494C166.557 0.746035 166.046 1.22574 165.689 1.81449C165.332 2.40324 165.143 3.07854 165.143 3.76701C165.143 3.82216 165.145 3.87688 165.148 3.93145C164.63 3.77345 164.085 3.7286 163.549 3.79995C163.013 3.8713 162.499 4.05717 162.041 4.34495C161.583 4.63273 161.192 5.01567 160.895 5.46777C160.598 5.91987 160.402 6.43055 160.32 6.96513C159.851 6.68561 159.326 6.51169 158.782 6.45543C158.238 6.39917 157.689 6.46192 157.172 6.63933C156.655 6.81673 156.182 7.10454 155.788 7.48278C155.393 7.86101 155.085 8.32061 154.886 8.82966C154.687 9.3387 154.601 9.88501 154.634 10.4306C154.667 10.9763 154.819 11.5082 155.078 11.9894C155.337 12.4706 155.698 12.8897 156.136 13.2174C156.573 13.5452 157.077 13.7738 157.611 13.8873ZM164.045 11.301C164.099 11.301 164.153 11.2992 164.207 11.2969C164.241 11.4083 164.279 11.5173 164.323 11.6239C164.233 11.5108 164.137 11.4029 164.035 11.3008L164.045 11.301Z" fill="#E2E2E2"/>
<path d="M159.964 50.3837H163.731L163.103 24.0147C162.291 24.3063 161.403 24.3063 160.592 24.0147L159.964 50.3837Z" fill="#1F7A3A"/>
<path d="M153.058 54.4639V99.6687H170.638V53.8363L169.194 53.8884L166.555 53.9818V44.7337H157.138V54.3184L153.058 54.4639Z" fill="#1F7A3A"/>
<path d="M144.179 71.4401H148.522V67.0972H144.179V71.4401Z" fill="white"/>
<path d="M137.231 71.4401H141.574V67.0972H137.231V71.4401Z" fill="white"/>
<path d="M130.282 71.4401H134.625V67.0972H130.282V71.4401Z" fill="white"/>
<path d="M144.179 78.3887H148.522V74.0458H144.179V78.3887Z" fill="white"/>
<path d="M137.231 78.3887H141.574V74.0458H137.231V78.3887Z" fill="white"/>
<path d="M130.282 78.3887H134.625V74.0458H130.282V78.3887Z" fill="white"/>
<path d="M144.179 85.3373H148.522V80.9944H144.179V85.3373Z" fill="white"/>
<path d="M137.231 85.3373H141.574V80.9944H137.231V85.3373Z" fill="white"/>
<path d="M130.282 85.3373H134.625V80.9944H130.282V85.3373Z" fill="white"/>
<path d="M114.786 69.703H119.129V65.3601H114.786V69.703Z" fill="white"/>
<path d="M114.786 76.6516H119.129V72.3087H114.786V76.6516Z" fill="white"/>
<path d="M114.786 83.6001H119.129V79.2573H114.786V83.6001Z" fill="white"/>
<path d="M114.786 90.5487H119.129V86.2058H114.786V90.5487Z" fill="white"/>
<path d="M159.64 69.703H163.982V65.3601H159.64V69.703Z" fill="white"/>
<path d="M159.64 76.6516H163.982V72.3087H159.64V76.6516Z" fill="white"/>
<path d="M159.64 83.6001H163.982V79.2573H159.64V83.6001Z" fill="white"/>
<path d="M159.64 90.5487H163.982V86.2058H159.64V90.5487Z" fill="white"/>
<path d="M192.823 99.5157H0V99.95H192.823V99.5157Z" fill="#3F3D56"/>
</g>
<defs>
<clipPath id="clip0_71_171">
<rect width="192.823" height="100" fill="white"/>
</clipPath>
</defs>
</svg>

