<svg width="136" height="100" viewBox="0 0 136 100" fill="none" xmlns="http://www.w3.org/2000/svg">
<path d="M92.9795 6.8403C91.4512 6.83917 89.9435 7.19245 88.5751 7.87233C87.2067 8.55222 86.0149 9.54016 85.0934 10.7584C84.1044 10.3331 83.0252 10.1599 81.9526 10.2543C80.88 10.3487 79.8477 10.7078 78.9483 11.2992C78.0489 11.8907 77.3106 12.6961 76.7996 13.643C76.2886 14.59 76.021 15.6489 76.0208 16.7248H102.872C102.872 15.4267 102.616 14.1414 102.119 12.9421C101.622 11.7429 100.893 10.6533 99.9746 9.7354C99.056 8.81754 97.9654 8.08945 96.7652 7.59271C95.565 7.09597 94.2786 6.8403 92.9795 6.8403Z" fill="#E6E6E6"/>
<path d="M130.072 0H12.5539C10.9824 0.00222323 9.47579 0.627001 8.36452 1.73736C7.25325 2.84772 6.62796 4.35306 6.62573 5.92334V94.0767C6.62796 95.6469 7.25325 97.1523 8.36452 98.2626C9.47579 99.373 10.9824 99.9978 12.5539 100H130.072C131.644 99.9978 133.15 99.373 134.261 98.2626C135.373 97.1523 135.998 95.6469 136 94.0767V5.92334C135.998 4.35306 135.373 2.84772 134.261 1.73736C133.15 0.627001 131.644 0.00222323 130.072 0ZM135.303 94.0767C135.301 95.4623 134.749 96.7907 133.769 97.7705C132.788 98.7503 131.459 99.3015 130.072 99.3031H12.5539C11.1672 99.3015 9.83768 98.7503 8.85708 97.7705C7.87649 96.7907 7.32485 95.4623 7.32316 94.0767V5.92334C7.32485 4.53771 7.87649 3.20932 8.85708 2.22953C9.83768 1.24974 11.1672 0.698546 12.5539 0.69686H130.072C131.459 0.698546 132.788 1.24974 133.769 2.22953C134.749 3.20932 135.301 4.53771 135.303 5.92334V94.0767Z" fill="#3F3D56"/>
<path d="M26.3282 63.4147C40.8689 63.4147 52.6565 51.6368 52.6565 37.108C52.6565 22.5793 40.8689 10.8014 26.3282 10.8014C11.7876 10.8014 0 22.5793 0 37.108C0 51.6368 11.7876 63.4147 26.3282 63.4147Z" fill="#1F7A3A"/>
<path d="M136 74.5889V81.8816H6.62573V74.554L7.32317 73.5505L48.3395 14.5366C48.5255 14.2688 48.7737 14.0501 49.0627 13.899C49.3518 13.7479 49.6732 13.669 49.9994 13.669C50.3256 13.669 50.647 13.7479 50.936 13.899C51.2251 14.0501 51.4732 14.2688 51.6593 14.5366L79.1661 54.108L98.7467 26.1847C98.933 25.9184 99.1808 25.701 99.4692 25.5508C99.7575 25.4007 100.078 25.3223 100.403 25.3223C100.728 25.3223 101.049 25.4007 101.337 25.5508C101.625 25.701 101.873 25.9184 102.059 26.1847L135.303 73.5924L136 74.5889Z" fill="#3F3D56"/>
<path d="M35.0466 90.2434H14.4722C14.3799 90.2431 14.2914 90.2063 14.2263 90.1411C14.1611 90.0758 14.1245 89.9874 14.1245 89.8952C14.1245 89.8031 14.1611 89.7147 14.2263 89.6494C14.2914 89.5842 14.3799 89.5474 14.4722 89.5471H35.0466C35.139 89.5471 35.2277 89.5838 35.2931 89.649C35.3585 89.7143 35.3953 89.8029 35.3953 89.8952C35.3953 89.9876 35.3585 90.0761 35.2931 90.1414C35.2277 90.2067 35.139 90.2434 35.0466 90.2434Z" fill="#3F3D56"/>
<path d="M66.0821 90.2434H45.5077C45.4619 90.2435 45.4164 90.2346 45.374 90.2172C45.3315 90.1998 45.293 90.1742 45.2605 90.1418C45.228 90.1095 45.2022 90.071 45.1846 90.0287C45.167 89.9864 45.158 89.9411 45.158 89.8952C45.158 89.8494 45.167 89.8041 45.1846 89.7618C45.2022 89.7194 45.228 89.681 45.2605 89.6487C45.293 89.6163 45.3315 89.5907 45.374 89.5733C45.4164 89.5558 45.4619 89.5469 45.5077 89.5471H66.0821C66.1746 89.5471 66.2633 89.5838 66.3287 89.649C66.3941 89.7143 66.4309 89.8029 66.4309 89.8952C66.4309 89.9876 66.3941 90.0761 66.3287 90.1414C66.2633 90.2067 66.1746 90.2434 66.0821 90.2434Z" fill="#3F3D56"/>
<path d="M97.1178 90.2434H76.5435C76.4512 90.2431 76.3627 90.2063 76.2976 90.1411C76.2324 90.0758 76.1958 89.9874 76.1958 89.8952C76.1958 89.8031 76.2324 89.7147 76.2976 89.6494C76.3627 89.5842 76.4512 89.5474 76.5435 89.5471H97.1178C97.2103 89.5471 97.299 89.5838 97.3644 89.649C97.4298 89.7143 97.4666 89.8029 97.4666 89.8952C97.4666 89.9876 97.4298 90.0761 97.3644 90.1414C97.299 90.2067 97.2103 90.2434 97.1178 90.2434Z" fill="#3F3D56"/>
<path d="M128.154 90.2434H107.58C107.487 90.2431 107.399 90.2063 107.334 90.1411C107.269 90.0758 107.232 89.9874 107.232 89.8952C107.232 89.8031 107.269 89.7147 107.334 89.6494C107.399 89.5842 107.487 89.5474 107.58 89.5471H128.154C128.246 89.5471 128.335 89.5838 128.401 89.649C128.466 89.7143 128.503 89.8029 128.503 89.8952C128.503 89.9876 128.466 90.0761 128.401 90.1414C128.335 90.2067 128.246 90.2434 128.154 90.2434Z" fill="#3F3D56"/>
<path d="M71.8362 23.3449C69.9507 23.3435 68.0906 23.7794 66.4023 24.6182C64.7139 25.457 63.2435 26.6759 62.1067 28.1789C60.8864 27.6543 59.5549 27.4406 58.2316 27.557C56.9083 27.6735 55.6347 28.1165 54.525 28.8462C53.4154 29.5759 52.5044 30.5696 51.874 31.7379C51.2436 32.9063 50.9134 34.2127 50.9131 35.5401H84.0413C84.0413 33.9386 83.7257 32.3528 83.1123 30.8732C82.4989 29.3936 81.5999 28.0492 80.4665 26.9168C79.3332 25.7844 77.9877 24.8861 76.5069 24.2732C75.0261 23.6604 73.439 23.3449 71.8362 23.3449Z" fill="#CCCCCC"/>
</svg>
