<svg width="14" height="24" viewBox="0 0 14 24" fill="none" xmlns="http://www.w3.org/2000/svg">
<path d="M11.0066 0.628662H2.72231C1.29328 0.628662 0.133484 1.78846 0.133484 3.21749V20.8215C0.133484 22.2505 1.29328 23.4103 2.72231 23.4103H11.0066C12.4356 23.4103 13.5954 22.2505 13.5954 20.8215V3.21749C13.5954 1.78846 12.4356 0.628662 11.0066 0.628662ZM6.86443 22.3748C6.00494 22.3748 5.31114 21.681 5.31114 20.8215C5.31114 19.962 6.00494 19.2682 6.86443 19.2682C7.72392 19.2682 8.41773 19.962 8.41773 20.8215C8.41773 21.681 7.72392 22.3748 6.86443 22.3748ZM11.5243 18.2327H2.20455V3.73525H11.5243V18.2327Z" fill="#006838"/>
</svg>
