<svg width="53" height="53" viewBox="0 0 53 53" fill="none" xmlns="http://www.w3.org/2000/svg">
<path d="M26.3567 4.76149C14.4889 4.76149 4.83374 14.4167 4.83374 26.2844C4.83374 38.1522 14.4889 47.8073 26.3567 47.8073C38.2244 47.8073 47.8796 38.1522 47.8796 26.2844C47.8796 14.4167 38.2244 4.76149 26.3567 4.76149ZM26.3567 43.5028C16.8629 43.5028 9.13832 35.7782 9.13832 26.2844C9.13832 16.7907 16.8629 9.06607 26.3567 9.06607C35.8504 9.06607 43.575 16.7907 43.575 26.2844C43.575 35.7782 35.8504 43.5028 26.3567 43.5028Z" fill="#404040"/>
<path d="M22.0499 29.7001L17.1018 24.7606L14.0627 27.8082L22.0542 35.7825L36.4875 21.3492L33.4441 18.3059L22.0499 29.7001Z" fill="#404040"/>
</svg>
