<svg width="80" height="70" viewBox="0 0 80 70" fill="none" xmlns="http://www.w3.org/2000/svg">
<g clip-path="url(#clip0_8_335)">
<path d="M71.6433 36.4128C71.6536 44.9056 68.3709 53.0718 62.4852 59.1945C62.1304 59.566 61.766 59.9286 61.392 60.2822C60.8222 60.8242 60.2333 61.3451 59.6252 61.8451C53.9369 66.5316 46.8357 69.1651 39.4672 69.3208C39.2217 69.3263 38.9752 69.3291 38.7279 69.3291C32.8513 69.3291 25.46 66.1903 18.7524 61.8451C18.1974 61.4857 17.6474 61.1179 17.1023 60.7417C16.8476 60.5675 16.594 60.3909 16.3417 60.2118C13.7547 58.385 11.2991 56.3789 8.993 54.2083C7.48313 52.7913 6.06727 51.2773 4.75443 49.676C-0.399493 43.3186 -1.53626 37.5903 5.81152 36.4128C6.68147 36.2738 7.52579 36.1252 8.34448 35.9671C9.53036 35.7392 10.6653 35.4931 11.7492 35.2287C13.2093 34.8739 14.5811 34.4891 15.8646 34.0744C16.2963 33.9354 16.7182 33.7936 17.1301 33.6491C23.2207 31.5099 27.2972 28.7203 30.0719 25.6936C30.5426 25.1812 30.9765 24.6627 31.3736 24.138C31.9812 23.3394 32.5332 22.4999 33.0255 21.6255C33.705 20.4105 34.2758 19.1378 34.7311 17.8223L34.7561 17.7501C36.9639 11.3815 36.2922 5.4744 38.7279 3.49732C49.1395 -4.95481 62.1017 7.08181 68.1858 21.2762C68.4924 21.9914 68.7808 22.711 69.0511 23.4348C69.1724 23.7582 69.2895 24.0821 69.4022 24.4067C69.6987 25.2526 69.9676 26.1006 70.2091 26.9508C70.3018 27.275 70.3901 27.599 70.4741 27.9226C70.564 28.2719 70.6501 28.6203 70.7298 28.9686C71.3218 31.5192 71.6433 34.0345 71.6433 36.4128Z" fill="#F2F2F2"/>
<path d="M39.4672 69.3208C39.2217 69.3263 38.9753 69.3291 38.7279 69.3291C32.8513 69.3291 25.46 66.1902 18.7524 61.8451C18.1974 61.4856 17.6474 61.1178 17.1024 60.7417L17.5804 57.8326L32.0527 55.9111L39.3162 61.4653L39.4672 69.3208Z" fill="#2F2E41"/>
<path d="M40.1639 17.3748H38.1016C38.0378 17.3748 37.9765 17.4002 37.9313 17.4454C37.8862 17.4905 37.8608 17.5518 37.8608 17.6157V19.6789C37.8608 19.7105 37.867 19.7417 37.8792 19.7709C37.8913 19.8001 37.9091 19.8265 37.9314 19.8488C37.9538 19.8711 37.9804 19.8888 38.0096 19.9008C38.0388 19.9128 38.0701 19.919 38.1016 19.9189H40.1639C40.2277 19.9189 40.2888 19.8936 40.334 19.8487C40.3791 19.8037 40.4046 19.7426 40.4048 19.6789V17.6157C40.4046 17.5518 40.3792 17.4907 40.3341 17.4456C40.2889 17.4004 40.2278 17.375 40.1639 17.3748Z" fill="white"/>
<path d="M40.1639 20.8907H38.1016C38.0378 20.8908 37.9765 20.9161 37.9313 20.9613C37.8862 21.0065 37.8608 21.0677 37.8608 21.1316V23.1948C37.8608 23.2264 37.867 23.2577 37.8792 23.2869C37.8913 23.316 37.9091 23.3425 37.9314 23.3648C37.9538 23.3871 37.9804 23.4047 38.0096 23.4167C38.0388 23.4288 38.0701 23.4349 38.1016 23.4348H40.1639C40.2277 23.4348 40.2888 23.4096 40.334 23.3646C40.3791 23.3196 40.4046 23.2586 40.4048 23.1948V21.1316C40.4046 21.0678 40.3792 21.0066 40.3341 20.9615C40.2889 20.9164 40.2278 20.8909 40.1639 20.8907Z" fill="#E6E6E6"/>
<path d="M40.1639 24.4067H38.1016C38.0378 24.4067 37.9765 24.4321 37.9313 24.4773C37.8862 24.5224 37.8608 24.5837 37.8608 24.6476V26.7099C37.8607 26.7415 37.8669 26.7729 37.879 26.8021C37.891 26.8314 37.9088 26.8579 37.9312 26.8803C37.9535 26.9027 37.9801 26.9204 38.0094 26.9325C38.0386 26.9446 38.07 26.9508 38.1016 26.9507H40.1639C40.2278 26.9507 40.2891 26.9253 40.3342 26.8802C40.3794 26.835 40.4048 26.7737 40.4048 26.7099V24.6476C40.4046 24.5837 40.3792 24.5226 40.3341 24.4774C40.2889 24.4323 40.2278 24.4068 40.1639 24.4067Z" fill="#E6E6E6"/>
<path d="M40.4011 28.1209C40.3908 28.0654 40.3615 28.0152 40.3182 27.979C40.2749 27.9429 40.2204 27.9229 40.1639 27.9226H38.1016C38.0378 27.9226 37.9765 27.948 37.9313 27.9932C37.8862 28.0384 37.8608 28.0996 37.8608 28.1635V30.2258C37.8607 30.2575 37.8669 30.2888 37.879 30.3181C37.891 30.3473 37.9088 30.3739 37.9312 30.3963C37.9535 30.4187 37.9801 30.4364 38.0094 30.4485C38.0386 30.4606 38.07 30.4668 38.1016 30.4667H40.1639C40.2278 30.4667 40.2891 30.4413 40.3342 30.3961C40.3794 30.3509 40.4048 30.2897 40.4048 30.2258V28.1635C40.405 28.1492 40.4038 28.1349 40.4011 28.1209Z" fill="#E6E6E6"/>
<path d="M40.2575 31.4571C40.2278 31.4448 40.196 31.4385 40.1639 31.4385H38.1016C38.07 31.4385 38.0386 31.4447 38.0094 31.4567C37.9801 31.4688 37.9535 31.4866 37.9312 31.509C37.9088 31.5313 37.8911 31.5579 37.879 31.5872C37.8669 31.6164 37.8607 31.6478 37.8608 31.6794V33.7417C37.8606 33.7734 37.8668 33.8048 37.8788 33.8341C37.8909 33.8634 37.9086 33.89 37.931 33.9124C37.9534 33.9348 37.98 33.9525 38.0093 33.9646C38.0386 33.9766 38.07 33.9828 38.1016 33.9826H40.1639C40.2278 33.9826 40.2891 33.9572 40.3342 33.912C40.3794 33.8669 40.4048 33.8056 40.4048 33.7417V31.6794C40.4047 31.632 40.3907 31.5857 40.3645 31.5462C40.3383 31.5066 40.3011 31.4757 40.2575 31.4571Z" fill="#E6E6E6"/>
<path d="M44.4961 17.3748H42.4338C42.3699 17.3748 42.3086 17.4002 42.2635 17.4454C42.2183 17.4905 42.1929 17.5518 42.1929 17.6157V19.6789C42.1929 19.7105 42.1992 19.7417 42.2113 19.7709C42.2234 19.8001 42.2412 19.8265 42.2636 19.8488C42.2859 19.8711 42.3125 19.8888 42.3417 19.9008C42.3709 19.9128 42.4022 19.919 42.4338 19.9189H44.4961C44.5598 19.9189 44.621 19.8936 44.6661 19.8487C44.7113 19.8037 44.7367 19.7426 44.737 19.6789V17.6157C44.7368 17.5518 44.7113 17.4907 44.6662 17.4456C44.6211 17.4004 44.5599 17.375 44.4961 17.3748Z" fill="#E6E6E6"/>
<path d="M44.4961 20.8907H42.4338C42.3699 20.8908 42.3086 20.9161 42.2635 20.9613C42.2183 21.0065 42.1929 21.0677 42.1929 21.1316V23.1948C42.1929 23.2264 42.1992 23.2577 42.2113 23.2869C42.2234 23.316 42.2412 23.3425 42.2636 23.3648C42.2859 23.3871 42.3125 23.4047 42.3417 23.4167C42.3709 23.4288 42.4022 23.4349 42.4338 23.4348H44.4961C44.5598 23.4348 44.621 23.4096 44.6661 23.3646C44.7113 23.3196 44.7367 23.2586 44.737 23.1948V21.1316C44.7368 21.0678 44.7113 21.0066 44.6662 20.9615C44.6211 20.9164 44.5599 20.8909 44.4961 20.8907Z" fill="#1F7A3A"/>
<path d="M44.4961 24.4067H42.4338C42.3699 24.4067 42.3086 24.4321 42.2635 24.4773C42.2183 24.5224 42.1929 24.5837 42.1929 24.6476V26.7099C42.1928 26.7415 42.199 26.7729 42.2111 26.8021C42.2232 26.8314 42.2409 26.8579 42.2633 26.8803C42.2857 26.9027 42.3123 26.9204 42.3415 26.9325C42.3708 26.9446 42.4021 26.9508 42.4338 26.9507H44.4961C44.56 26.9507 44.6212 26.9253 44.6664 26.8802C44.7115 26.835 44.7369 26.7737 44.737 26.7099V24.6476C44.7368 24.5837 44.7113 24.5226 44.6662 24.4774C44.6211 24.4323 44.5599 24.4068 44.4961 24.4067Z" fill="#1F7A3A"/>
<path d="M44.4961 27.9226H42.4338C42.3833 27.9226 42.3341 27.9386 42.2931 27.9682C42.2522 27.9978 42.2217 28.0396 42.2059 28.0875C42.1973 28.1119 42.1929 28.1376 42.1929 28.1635V30.2258C42.1928 30.2575 42.199 30.2888 42.2111 30.3181C42.2232 30.3473 42.2409 30.3739 42.2633 30.3963C42.2857 30.4187 42.3123 30.4364 42.3415 30.4485C42.3708 30.4606 42.4021 30.4667 42.4338 30.4667H44.4961C44.56 30.4667 44.6212 30.4413 44.6664 30.3961C44.7115 30.3509 44.7369 30.2897 44.737 30.2258V28.1635C44.7368 28.0997 44.7113 28.0385 44.6662 27.9934C44.6211 27.9482 44.5599 27.9228 44.4961 27.9226Z" fill="#1F7A3A"/>
<path d="M44.4961 31.4385H42.4338C42.4021 31.4385 42.3708 31.4447 42.3415 31.4567C42.3123 31.4688 42.2857 31.4866 42.2633 31.509C42.2409 31.5313 42.2232 31.5579 42.2111 31.5872C42.199 31.6164 42.1928 31.6478 42.1929 31.6794V33.7417C42.1928 33.7734 42.199 33.8047 42.2111 33.834C42.2232 33.8632 42.2409 33.8898 42.2633 33.9122C42.2857 33.9346 42.3123 33.9523 42.3415 33.9644C42.3708 33.9765 42.4021 33.9827 42.4338 33.9826H44.4961C44.56 33.9826 44.6212 33.9572 44.6664 33.912C44.7116 33.8669 44.7369 33.8056 44.737 33.7417V31.6794C44.7369 31.6155 44.7116 31.5543 44.6664 31.5091C44.6212 31.464 44.56 31.4386 44.4961 31.4385Z" fill="#E6E6E6"/>
<path d="M48.8282 17.3748H46.7659C46.702 17.3748 46.6408 17.4002 46.5956 17.4454C46.5505 17.4905 46.5251 17.5518 46.5251 17.6157V19.6789C46.5251 19.7105 46.5313 19.7417 46.5435 19.7709C46.5556 19.8001 46.5734 19.8265 46.5957 19.8488C46.6181 19.8711 46.6446 19.8888 46.6739 19.9008C46.7031 19.9128 46.7343 19.919 46.7659 19.9189H48.8282C48.892 19.9189 48.9531 19.8936 48.9983 19.8487C49.0434 19.8037 49.0689 19.7426 49.0691 19.6789V17.6157C49.0689 17.5518 49.0435 17.4907 48.9984 17.4456C48.9532 17.4004 48.8921 17.375 48.8282 17.3748Z" fill="#1F7A3A"/>
<path d="M48.8282 20.8907H46.7659C46.702 20.8908 46.6408 20.9161 46.5956 20.9613C46.5505 21.0065 46.5251 21.0677 46.5251 21.1316V23.1948C46.5251 23.2264 46.5313 23.2577 46.5435 23.2869C46.5556 23.316 46.5734 23.3425 46.5957 23.3648C46.6181 23.3871 46.6446 23.4047 46.6739 23.4167C46.7031 23.4288 46.7343 23.4349 46.7659 23.4348H48.8282C48.892 23.4348 48.9531 23.4096 48.9983 23.3646C49.0434 23.3196 49.0689 23.2586 49.0691 23.1948V21.1316C49.0689 21.0678 49.0435 21.0066 48.9984 20.9615C48.9532 20.9164 48.8921 20.8909 48.8282 20.8907Z" fill="#1F7A3A"/>
<path d="M48.8282 24.4067H46.7659C46.702 24.4067 46.6408 24.4321 46.5956 24.4773C46.5505 24.5224 46.5251 24.5837 46.5251 24.6476V26.7099C46.525 26.7415 46.5312 26.7729 46.5433 26.8021C46.5553 26.8314 46.5731 26.8579 46.5955 26.8803C46.6178 26.9027 46.6444 26.9204 46.6737 26.9325C46.7029 26.9446 46.7343 26.9508 46.7659 26.9507H48.8282C48.8921 26.9507 48.9534 26.9253 48.9985 26.8802C49.0437 26.835 49.0691 26.7737 49.0691 26.7099V24.6476C49.0689 24.5837 49.0435 24.5226 48.9984 24.4774C48.9532 24.4323 48.8921 24.4068 48.8282 24.4067Z" fill="#E6E6E6"/>
<path d="M48.8282 27.9226H46.7659C46.702 27.9226 46.6408 27.948 46.5956 27.9932C46.5505 28.0384 46.5251 28.0996 46.5251 28.1635V30.2258C46.525 30.2575 46.5312 30.2888 46.5433 30.3181C46.5553 30.3473 46.5731 30.3739 46.5955 30.3963C46.6178 30.4187 46.6444 30.4364 46.6737 30.4485C46.7029 30.4606 46.7343 30.4668 46.7659 30.4667H48.8282C48.8921 30.4667 48.9534 30.4413 48.9985 30.3961C49.0437 30.3509 49.0691 30.2897 49.0691 30.2258V28.1635C49.0689 28.0997 49.0435 28.0385 48.9984 27.9934C48.9532 27.9482 48.8921 27.9228 48.8282 27.9226Z" fill="#1F7A3A"/>
<path d="M48.8282 31.4385H46.7659C46.7343 31.4385 46.7029 31.4447 46.6737 31.4567C46.6444 31.4688 46.6178 31.4866 46.5955 31.509C46.5731 31.5313 46.5553 31.5579 46.5433 31.5872C46.5312 31.6164 46.525 31.6478 46.5251 31.6794V33.7417C46.525 33.7734 46.5312 33.8047 46.5433 33.834C46.5553 33.8632 46.5731 33.8898 46.5955 33.9122C46.6178 33.9346 46.6444 33.9523 46.6737 33.9644C46.7029 33.9765 46.7343 33.9827 46.7659 33.9826H48.8282C48.8921 33.9826 48.9534 33.9572 48.9985 33.912C49.0437 33.8669 49.0691 33.8056 49.0691 33.7417V31.6794C49.0691 31.6155 49.0437 31.5543 48.9985 31.5091C48.9534 31.464 48.8921 31.4386 48.8282 31.4385Z" fill="#1F7A3A"/>
<path d="M53.1604 17.3748H51.0981C51.0342 17.3748 50.9729 17.4002 50.9278 17.4454C50.8826 17.4905 50.8572 17.5518 50.8572 17.6157V19.6789C50.8572 19.7105 50.8635 19.7418 50.8756 19.7709C50.8877 19.8001 50.9055 19.8265 50.9279 19.8488C50.9502 19.8711 50.9768 19.8888 51.006 19.9008C51.0352 19.9128 51.0665 19.919 51.0981 19.9189H53.1604C53.2241 19.9189 53.2853 19.8936 53.3304 19.8487C53.3756 19.8037 53.401 19.7426 53.4013 19.6789V17.6157C53.4011 17.5518 53.3756 17.4907 53.3305 17.4456C53.2854 17.4004 53.2242 17.375 53.1604 17.3748Z" fill="#1F7A3A"/>
<path d="M53.1604 20.8907H51.0981C51.0342 20.8908 50.9729 20.9161 50.9278 20.9613C50.8826 21.0065 50.8572 21.0677 50.8572 21.1316V23.1948C50.8572 23.2264 50.8635 23.2577 50.8756 23.2869C50.8877 23.316 50.9055 23.3425 50.9279 23.3648C50.9502 23.3871 50.9768 23.4047 51.006 23.4167C51.0352 23.4288 51.0665 23.4349 51.0981 23.4348H53.1604C53.2241 23.4348 53.2853 23.4096 53.3304 23.3646C53.3756 23.3196 53.401 23.2586 53.4013 23.1948V21.1316C53.4011 21.0678 53.3756 21.0066 53.3305 20.9615C53.2854 20.9164 53.2242 20.8909 53.1604 20.8907Z" fill="white"/>
<path d="M53.1604 24.4067H51.0981C51.0342 24.4067 50.9729 24.4321 50.9278 24.4773C50.8826 24.5224 50.8572 24.5837 50.8572 24.6476V26.7099C50.8571 26.7415 50.8633 26.7729 50.8754 26.8021C50.8875 26.8314 50.9052 26.8579 50.9276 26.8803C50.95 26.9027 50.9766 26.9204 51.0058 26.9325C51.0351 26.9446 51.0664 26.9508 51.0981 26.9507H53.1604C53.2243 26.9507 53.2855 26.9253 53.3307 26.8802C53.3758 26.835 53.4012 26.7737 53.4013 26.7099V24.6476C53.4011 24.5837 53.3756 24.5226 53.3305 24.4774C53.2854 24.4323 53.2242 24.4068 53.1604 24.4067Z" fill="white"/>
<path d="M53.1604 27.9226H51.0981C51.0342 27.9226 50.9729 27.948 50.9278 27.9932C50.8826 28.0384 50.8572 28.0996 50.8572 28.1635V30.2258C50.8571 30.2575 50.8633 30.2888 50.8754 30.3181C50.8875 30.3473 50.9052 30.3739 50.9276 30.3963C50.95 30.4187 50.9766 30.4364 51.0058 30.4485C51.0351 30.4606 51.0664 30.4668 51.0981 30.4667H53.1604C53.2243 30.4667 53.2855 30.4413 53.3307 30.3961C53.3758 30.3509 53.4012 30.2897 53.4013 30.2258V28.1635C53.4011 28.0997 53.3756 28.0385 53.3305 27.9934C53.2854 27.9482 53.2242 27.9228 53.1604 27.9226Z" fill="#E6E6E6"/>
<path d="M53.1604 31.4385H51.0981C51.0664 31.4385 51.0351 31.4447 51.0058 31.4567C50.9766 31.4688 50.95 31.4866 50.9276 31.509C50.9052 31.5313 50.8875 31.5579 50.8754 31.5872C50.8633 31.6164 50.8571 31.6478 50.8572 31.6794V33.7417C50.8571 33.7734 50.8633 33.8047 50.8754 33.834C50.8875 33.8632 50.9052 33.8898 50.9276 33.9122C50.95 33.9346 50.9766 33.9523 51.0058 33.9644C51.0351 33.9765 51.0664 33.9827 51.0981 33.9826H53.1604C53.2243 33.9826 53.2855 33.9572 53.3307 33.912C53.3759 33.8669 53.4012 33.8056 53.4013 33.7417V31.6794C53.4012 31.6155 53.3758 31.5543 53.3307 31.5091C53.2855 31.464 53.2243 31.4386 53.1604 31.4385Z" fill="#1F7A3A"/>
<path d="M57.4925 17.3748H55.4293C55.3656 17.375 55.3045 17.4005 55.2595 17.4456C55.2146 17.4908 55.1893 17.5519 55.1893 17.6157V19.6789C55.1894 19.7425 55.2146 19.8036 55.2596 19.8486C55.3046 19.8936 55.3657 19.9189 55.4293 19.9189H57.4925C57.5563 19.9189 57.6174 19.8936 57.6626 19.8487C57.7077 19.8037 57.7332 19.7426 57.7334 19.6789V17.6157C57.7332 17.5518 57.7078 17.4907 57.6627 17.4456C57.6175 17.4004 57.5564 17.375 57.4925 17.3748Z" fill="white"/>
<path d="M57.4925 20.8907H55.4293C55.3656 20.891 55.3045 20.9164 55.2595 20.9616C55.2146 21.0067 55.1893 21.0679 55.1893 21.1316V23.1948C55.1894 23.2585 55.2146 23.3195 55.2596 23.3645C55.3046 23.4095 55.3657 23.4348 55.4293 23.4348H57.4925C57.5563 23.4348 57.6174 23.4096 57.6626 23.3646C57.7077 23.3196 57.7332 23.2586 57.7334 23.1948V21.1316C57.7332 21.0678 57.7078 21.0066 57.6627 20.9615C57.6175 20.9164 57.5564 20.8909 57.4925 20.8907Z" fill="white"/>
<path d="M57.4925 24.4067H55.4293C55.3656 24.4069 55.3045 24.4324 55.2596 24.4775C55.2146 24.5227 55.1893 24.5838 55.1893 24.6476V26.7099C55.1893 26.7414 55.1954 26.7727 55.2074 26.8019C55.2194 26.8311 55.2371 26.8577 55.2594 26.8801C55.2817 26.9024 55.3081 26.9202 55.3373 26.9323C55.3665 26.9444 55.3977 26.9507 55.4293 26.9507H57.4925C57.5564 26.9507 57.6177 26.9253 57.6628 26.8802C57.708 26.835 57.7334 26.7737 57.7334 26.7099V24.6476C57.7332 24.5837 57.7078 24.5226 57.6627 24.4774C57.6175 24.4323 57.5564 24.4068 57.4925 24.4067Z" fill="white"/>
<path d="M57.4925 27.9226H55.4293C55.3656 27.9228 55.3045 27.9483 55.2596 27.9935C55.2146 28.0386 55.1893 28.0998 55.1893 28.1635V30.2258C55.1893 30.2574 55.1954 30.2887 55.2074 30.3179C55.2194 30.3471 55.2371 30.3736 55.2594 30.396C55.2817 30.4184 55.3081 30.4361 55.3373 30.4483C55.3665 30.4604 55.3977 30.4667 55.4293 30.4667H57.4925C57.5564 30.4667 57.6177 30.4413 57.6628 30.3961C57.708 30.3509 57.7334 30.2897 57.7334 30.2258V28.1635C57.7332 28.0997 57.7078 28.0385 57.6627 27.9934C57.6175 27.9482 57.5564 27.9228 57.4925 27.9226Z" fill="#1F7A3A"/>
<path d="M57.4925 31.4385H55.4293C55.3977 31.4386 55.3665 31.4448 55.3373 31.457C55.3081 31.4691 55.2817 31.4868 55.2594 31.5092C55.2371 31.5316 55.2194 31.5581 55.2074 31.5873C55.1954 31.6166 55.1893 31.6478 55.1893 31.6794V33.7417C55.1893 33.7733 55.1954 33.8046 55.2074 33.8338C55.2194 33.863 55.2371 33.8896 55.2594 33.9119C55.2817 33.9343 55.3081 33.9521 55.3373 33.9642C55.3665 33.9763 55.3977 33.9826 55.4293 33.9826H57.4925C57.5564 33.9826 57.6177 33.9572 57.6628 33.912C57.708 33.8669 57.7334 33.8056 57.7334 33.7417V31.6794C57.7334 31.6155 57.708 31.5543 57.6628 31.5091C57.6177 31.464 57.5564 31.4386 57.4925 31.4385Z" fill="#E6E6E6"/>
<path d="M61.8247 17.3748H59.7615C59.6977 17.375 59.6367 17.4005 59.5917 17.4456C59.5467 17.4908 59.5215 17.5519 59.5215 17.6157V19.6789C59.5215 19.7425 59.5468 19.8036 59.5918 19.8486C59.6368 19.8936 59.6978 19.9189 59.7615 19.9189H61.8247C61.8884 19.9189 61.9496 19.8936 61.9947 19.8487C62.0399 19.8037 62.0654 19.7426 62.0656 19.6789V17.6157C62.0654 17.5518 62.04 17.4907 61.9948 17.4456C61.9497 17.4004 61.8885 17.375 61.8247 17.3748Z" fill="white"/>
<path d="M61.8247 20.8907H59.7615C59.6977 20.891 59.6367 20.9164 59.5917 20.9616C59.5467 21.0067 59.5215 21.0679 59.5215 21.1316V23.1948C59.5215 23.2585 59.5468 23.3195 59.5918 23.3645C59.6368 23.4095 59.6978 23.4348 59.7615 23.4348H61.8247C61.8884 23.4348 61.9496 23.4096 61.9947 23.3646C62.0399 23.3196 62.0654 23.2586 62.0656 23.1948V21.1316C62.0654 21.0678 62.04 21.0066 61.9948 20.9615C61.9497 20.9164 61.8885 20.8909 61.8247 20.8907Z" fill="white"/>
<path d="M61.8247 24.4067H59.7615C59.6977 24.4069 59.6367 24.4324 59.5917 24.4775C59.5467 24.5227 59.5215 24.5838 59.5215 24.6476V26.7099C59.5214 26.7414 59.5276 26.7727 59.5396 26.8019C59.5516 26.8311 59.5692 26.8577 59.5915 26.8801C59.6138 26.9024 59.6403 26.9202 59.6695 26.9323C59.6986 26.9444 59.7299 26.9507 59.7615 26.9507H61.8247C61.8886 26.9507 61.9498 26.9253 61.995 26.8802C62.0402 26.835 62.0656 26.7737 62.0656 26.7099V24.6476C62.0654 24.5837 62.04 24.5226 61.9948 24.4774C61.9497 24.4323 61.8885 24.4069 61.8247 24.4067Z" fill="#1F7A3A"/>
<path d="M61.8247 27.9226H59.7615C59.6977 27.9228 59.6367 27.9483 59.5917 27.9935C59.5467 28.0386 59.5215 28.0998 59.5215 28.1635V30.2258C59.5214 30.2574 59.5276 30.2887 59.5396 30.3179C59.5516 30.3471 59.5692 30.3736 59.5915 30.396C59.6138 30.4184 59.6403 30.4361 59.6695 30.4483C59.6986 30.4604 59.7299 30.4667 59.7615 30.4667H61.8247C61.8886 30.4667 61.9498 30.4413 61.995 30.3961C62.0402 30.3509 62.0656 30.2897 62.0656 30.2258V28.1635C62.0654 28.0997 62.04 28.0385 61.9948 27.9934C61.9497 27.9482 61.8885 27.9228 61.8247 27.9226Z" fill="#E6E6E6"/>
<path d="M61.8247 31.4385H59.7615C59.7299 31.4386 59.6986 31.4448 59.6695 31.457C59.6403 31.4691 59.6138 31.4868 59.5915 31.5092C59.5692 31.5316 59.5516 31.5581 59.5396 31.5873C59.5276 31.6166 59.5214 31.6478 59.5215 31.6794V33.7417C59.5214 33.7733 59.5276 33.8046 59.5396 33.8338C59.5516 33.863 59.5692 33.8896 59.5915 33.9119C59.6138 33.9343 59.6403 33.9521 59.6695 33.9642C59.6986 33.9763 59.7299 33.9826 59.7615 33.9826H61.8247C61.8886 33.9826 61.9498 33.9572 61.995 33.912C62.0402 33.8669 62.0656 33.8056 62.0656 33.7417V31.6794C62.0656 31.6155 62.0402 31.5543 61.995 31.5091C61.9498 31.464 61.8886 31.4386 61.8247 31.4385Z" fill="white"/>
<path d="M66.1568 17.3748H64.0936C64.0298 17.375 63.9688 17.4005 63.9238 17.4456C63.8788 17.4908 63.8536 17.5519 63.8536 17.6157V19.6789C63.8536 19.7425 63.8789 19.8036 63.9239 19.8486C63.9689 19.8936 64.0299 19.9189 64.0936 19.9189H66.1568C66.2205 19.9189 66.2817 19.8936 66.3268 19.8487C66.372 19.8037 66.3975 19.7426 66.3977 19.6789V17.6157C66.3975 17.5518 66.3721 17.4907 66.3269 17.4456C66.2818 17.4004 66.2206 17.375 66.1568 17.3748Z" fill="#1F7A3A"/>
<path d="M66.1568 20.8907H64.0936C64.0298 20.891 63.9688 20.9164 63.9238 20.9616C63.8788 21.0067 63.8536 21.0679 63.8536 21.1316V23.1948C63.8536 23.2585 63.8789 23.3195 63.9239 23.3645C63.9689 23.4095 64.0299 23.4348 64.0936 23.4348H66.1568C66.2205 23.4348 66.2817 23.4096 66.3268 23.3646C66.372 23.3196 66.3975 23.2586 66.3977 23.1948V21.1316C66.3975 21.0678 66.3721 21.0066 66.3269 20.9615C66.2818 20.9164 66.2206 20.8909 66.1568 20.8907Z" fill="#1F7A3A"/>
<path d="M66.1568 24.4067H64.0936C64.0298 24.4069 63.9688 24.4324 63.9238 24.4775C63.8788 24.5227 63.8536 24.5838 63.8536 24.6476V26.7099C63.8535 26.7414 63.8597 26.7727 63.8717 26.8019C63.8837 26.8311 63.9014 26.8577 63.9237 26.8801C63.9459 26.9024 63.9724 26.9202 64.0016 26.9323C64.0307 26.9444 64.062 26.9507 64.0936 26.9507H66.1568C66.2207 26.9507 66.2819 26.9253 66.3271 26.8802C66.3723 26.835 66.3977 26.7737 66.3977 26.7099V24.6476C66.3975 24.5837 66.3721 24.5226 66.3269 24.4774C66.2818 24.4323 66.2206 24.4069 66.1568 24.4067Z" fill="#E6E6E6"/>
<path d="M66.1568 27.9226H64.0936C64.0298 27.9228 63.9688 27.9483 63.9238 27.9935C63.8788 28.0386 63.8536 28.0998 63.8536 28.1635V30.2258C63.8535 30.2574 63.8597 30.2887 63.8717 30.3179C63.8837 30.3471 63.9014 30.3736 63.9237 30.396C63.9459 30.4184 63.9724 30.4361 64.0016 30.4483C64.0307 30.4604 64.062 30.4667 64.0936 30.4667H66.1568C66.2207 30.4667 66.2819 30.4413 66.3271 30.3961C66.3723 30.3509 66.3977 30.2897 66.3977 30.2258V28.1635C66.3975 28.0997 66.3721 28.0385 66.3269 27.9934C66.2818 27.9482 66.2206 27.9228 66.1568 27.9226Z" fill="white"/>
<path d="M66.1568 31.4385H64.0936C64.062 31.4386 64.0307 31.4448 64.0016 31.457C63.9724 31.4691 63.9459 31.4868 63.9237 31.5092C63.9014 31.5316 63.8837 31.5581 63.8717 31.5873C63.8597 31.6166 63.8535 31.6478 63.8536 31.6794V33.7417C63.8535 33.7733 63.8597 33.8046 63.8717 33.8338C63.8837 33.863 63.9014 33.8896 63.9237 33.9119C63.9459 33.9343 63.9724 33.9521 64.0016 33.9642C64.0307 33.9763 64.062 33.9826 64.0936 33.9826H66.1568C66.2207 33.9826 66.2819 33.9572 66.3271 33.912C66.3723 33.8669 66.3977 33.8056 66.3977 33.7417V31.6794C66.3977 31.6155 66.3723 31.5543 66.3271 31.5091C66.2819 31.464 66.2207 31.4386 66.1568 31.4385Z" fill="#1F7A3A"/>
<path d="M70.489 17.3748H68.4257C68.362 17.375 68.301 17.4005 68.256 17.4456C68.211 17.4908 68.1858 17.5519 68.1858 17.6157V19.6789C68.1858 19.7425 68.2111 19.8036 68.2561 19.8486C68.3011 19.8936 68.3621 19.9189 68.4257 19.9189H70.489C70.5527 19.9189 70.6139 19.8936 70.659 19.8487C70.7042 19.8037 70.7296 19.7426 70.7299 19.6789V17.6157C70.7297 17.5518 70.7042 17.4907 70.6591 17.4456C70.614 17.4004 70.5528 17.375 70.489 17.3748Z" fill="#1F7A3A"/>
<path d="M70.489 20.8907H68.4257C68.362 20.891 68.301 20.9164 68.256 20.9616C68.211 21.0067 68.1858 21.0679 68.1858 21.1316V23.1948C68.1858 23.2585 68.2111 23.3195 68.2561 23.3645C68.3011 23.4095 68.3621 23.4348 68.4257 23.4348H70.489C70.5527 23.4348 70.6139 23.4096 70.659 23.3646C70.7042 23.3196 70.7296 23.2586 70.7299 23.1948V21.1316C70.7297 21.0678 70.7042 21.0066 70.6591 20.9615C70.614 20.9164 70.5528 20.8909 70.489 20.8907Z" fill="#1F7A3A"/>
<path d="M70.489 24.4067H68.4257C68.362 24.4069 68.301 24.4324 68.256 24.4775C68.211 24.5227 68.1858 24.5838 68.1858 24.6476V26.7099C68.1857 26.7414 68.1918 26.7727 68.2039 26.8019C68.2159 26.8311 68.2335 26.8577 68.2558 26.8801C68.2781 26.9024 68.3046 26.9202 68.3337 26.9323C68.3629 26.9444 68.3942 26.9507 68.4257 26.9507H70.489C70.5529 26.9507 70.6141 26.9253 70.6593 26.8802C70.7044 26.835 70.7298 26.7737 70.7299 26.7099V24.6476C70.7297 24.5837 70.7042 24.5226 70.6591 24.4774C70.614 24.4323 70.5528 24.4069 70.489 24.4067Z" fill="#E6E6E6"/>
<path d="M70.489 27.9226H68.4257C68.362 27.9228 68.301 27.9483 68.256 27.9935C68.211 28.0386 68.1858 28.0998 68.1858 28.1635V30.2258C68.1857 30.2574 68.1918 30.2887 68.2039 30.3179C68.2159 30.3471 68.2335 30.3736 68.2558 30.396C68.2781 30.4184 68.3046 30.4361 68.3337 30.4483C68.3629 30.4604 68.3942 30.4667 68.4257 30.4667H70.489C70.5529 30.4667 70.6141 30.4413 70.6593 30.3961C70.7044 30.3509 70.7298 30.2897 70.7299 30.2258V28.1635C70.7297 28.0997 70.7042 28.0385 70.6591 27.9934C70.614 27.9482 70.5528 27.9228 70.489 27.9226Z" fill="#1F7A3A"/>
<path d="M70.489 31.4385H68.4257C68.3942 31.4386 68.3629 31.4448 68.3337 31.457C68.3046 31.4691 68.2781 31.4868 68.2558 31.5092C68.2335 31.5316 68.2159 31.5581 68.2039 31.5873C68.1918 31.6166 68.1857 31.6478 68.1858 31.6794V33.7417C68.1857 33.7733 68.1918 33.8046 68.2039 33.8338C68.2159 33.863 68.2335 33.8896 68.2558 33.9119C68.2781 33.9343 68.3046 33.9521 68.3337 33.9642C68.3629 33.9763 68.3942 33.9826 68.4257 33.9826H70.489C70.5529 33.9826 70.6141 33.9572 70.6593 33.912C70.7044 33.8669 70.7298 33.8056 70.7299 33.7417V31.6794C70.7298 31.6155 70.7044 31.5543 70.6593 31.5091C70.6141 31.464 70.5529 31.4386 70.489 31.4385Z" fill="#1F7A3A"/>
<path d="M74.8211 17.3748H72.7579C72.6941 17.375 72.6331 17.4005 72.5881 17.4456C72.5431 17.4908 72.5179 17.5519 72.5179 17.6157V19.6789C72.5179 19.7425 72.5432 19.8036 72.5882 19.8486C72.6332 19.8936 72.6942 19.9189 72.7579 19.9189H74.8211C74.8848 19.9189 74.946 19.8936 74.9911 19.8487C75.0363 19.8037 75.0618 19.7426 75.062 19.6789V17.6157C75.0618 17.5518 75.0364 17.4907 74.9912 17.4456C74.9461 17.4004 74.8849 17.375 74.8211 17.3748Z" fill="#E6E6E6"/>
<path d="M74.8211 20.8907H72.7579C72.6941 20.891 72.6331 20.9164 72.5881 20.9616C72.5431 21.0067 72.5179 21.0679 72.5179 21.1316V23.1948C72.5179 23.2585 72.5432 23.3195 72.5882 23.3645C72.6332 23.4095 72.6942 23.4348 72.7579 23.4348H74.8211C74.8848 23.4348 74.946 23.4096 74.9911 23.3646C75.0363 23.3196 75.0618 23.2586 75.062 23.1948V21.1316C75.0618 21.0678 75.0364 21.0066 74.9912 20.9615C74.9461 20.9164 74.8849 20.8909 74.8211 20.8907Z" fill="#1F7A3A"/>
<path d="M74.8211 24.4067H72.7579C72.6941 24.4069 72.6331 24.4324 72.5881 24.4775C72.5431 24.5227 72.5179 24.5838 72.5179 24.6476V26.7099C72.5178 26.7414 72.524 26.7727 72.536 26.8019C72.548 26.8311 72.5657 26.8577 72.5879 26.8801C72.6102 26.9024 72.6367 26.9202 72.6659 26.9323C72.695 26.9444 72.7263 26.9507 72.7579 26.9507H74.8211C74.885 26.9507 74.9462 26.9253 74.9914 26.8802C75.0366 26.835 75.062 26.7737 75.062 26.7099V24.6476C75.0618 24.5837 75.0364 24.5226 74.9912 24.4774C74.9461 24.4323 74.8849 24.4069 74.8211 24.4067Z" fill="#1F7A3A"/>
<path d="M74.8211 27.9226H72.7579C72.6941 27.9228 72.6331 27.9483 72.5881 27.9935C72.5431 28.0386 72.5179 28.0998 72.5179 28.1635V30.2258C72.5178 30.2574 72.524 30.2887 72.536 30.3179C72.548 30.3471 72.5657 30.3736 72.5879 30.396C72.6102 30.4184 72.6367 30.4361 72.6659 30.4483C72.695 30.4604 72.7263 30.4667 72.7579 30.4667H74.8211C74.885 30.4667 74.9462 30.4413 74.9914 30.3961C75.0366 30.3509 75.062 30.2897 75.062 30.2258V28.1635C75.0618 28.0997 75.0364 28.0385 74.9912 27.9934C74.9461 27.9482 74.8849 27.9228 74.8211 27.9226Z" fill="#1F7A3A"/>
<path d="M74.8211 31.4385H72.7579C72.7263 31.4386 72.695 31.4448 72.6659 31.457C72.6367 31.4691 72.6102 31.4868 72.5879 31.5092C72.5657 31.5316 72.548 31.5581 72.536 31.5873C72.524 31.6166 72.5178 31.6478 72.5179 31.6794V33.7417C72.5178 33.7733 72.524 33.8046 72.536 33.8338C72.548 33.863 72.5657 33.8896 72.5879 33.9119C72.6102 33.9343 72.6367 33.9521 72.6659 33.9642C72.695 33.9763 72.7263 33.9826 72.7579 33.9826H74.8211C74.885 33.9826 74.9462 33.9572 74.9914 33.912C75.0366 33.8669 75.062 33.8056 75.062 33.7417V31.6794C75.062 31.6155 75.0366 31.5543 74.9914 31.5091C74.9462 31.464 74.885 31.4386 74.8211 31.4385Z" fill="#E6E6E6"/>
<path d="M79.1532 17.3748H77.09C77.0263 17.375 76.9652 17.4005 76.9202 17.4456C76.8753 17.4908 76.85 17.5519 76.85 17.6157V19.6789C76.8501 19.7425 76.8753 19.8036 76.9203 19.8486C76.9653 19.8936 77.0264 19.9189 77.09 19.9189H79.1532C79.217 19.9189 79.2781 19.8936 79.3233 19.8487C79.3684 19.8037 79.3939 19.7426 79.3941 19.6789V17.6157C79.3939 17.5518 79.3685 17.4907 79.3234 17.4456C79.2782 17.4004 79.2171 17.375 79.1532 17.3748Z" fill="#E6E6E6"/>
<path d="M79.1532 20.8907H77.09C77.0263 20.891 76.9652 20.9164 76.9202 20.9616C76.8753 21.0067 76.85 21.0679 76.85 21.1316V23.1948C76.8501 23.2585 76.8753 23.3195 76.9203 23.3645C76.9653 23.4095 77.0264 23.4348 77.09 23.4348H79.1532C79.217 23.4348 79.2781 23.4096 79.3233 23.3646C79.3684 23.3196 79.3939 23.2586 79.3941 23.1948V21.1316C79.3939 21.0678 79.3685 21.0066 79.3234 20.9615C79.2782 20.9164 79.2171 20.8909 79.1532 20.8907Z" fill="#E6E6E6"/>
<path d="M79.1532 24.4067H77.09C77.0263 24.4069 76.9652 24.4324 76.9202 24.4775C76.8753 24.5227 76.85 24.5838 76.85 24.6476V26.7099C76.85 26.7414 76.8561 26.7727 76.8681 26.8019C76.8801 26.8311 76.8978 26.8577 76.9201 26.8801C76.9424 26.9024 76.9688 26.9202 76.998 26.9323C77.0272 26.9444 77.0584 26.9507 77.09 26.9507H79.1532C79.2171 26.9507 79.2784 26.9253 79.3235 26.8802C79.3687 26.835 79.3941 26.7737 79.3941 26.7099V24.6476C79.3939 24.5837 79.3685 24.5226 79.3234 24.4774C79.2782 24.4323 79.2171 24.4069 79.1532 24.4067Z" fill="#1F7A3A"/>
<path d="M79.1532 27.9226H77.09C77.0263 27.9228 76.9652 27.9483 76.9202 27.9935C76.8753 28.0386 76.85 28.0998 76.85 28.1635V30.2258C76.85 30.2574 76.8561 30.2887 76.8681 30.3179C76.8801 30.3471 76.8978 30.3736 76.9201 30.396C76.9424 30.4184 76.9688 30.4361 76.998 30.4483C77.0272 30.4604 77.0584 30.4667 77.09 30.4667H79.1532C79.2171 30.4667 79.2784 30.4413 79.3235 30.3961C79.3687 30.3509 79.3941 30.2897 79.3941 30.2258V28.1635C79.3939 28.0997 79.3685 28.0385 79.3234 27.9934C79.2782 27.9482 79.2171 27.9228 79.1532 27.9226Z" fill="#E6E6E6"/>
<path d="M79.1532 31.4385H77.09C77.0584 31.4386 77.0272 31.4448 76.998 31.457C76.9688 31.4691 76.9424 31.4868 76.9201 31.5092C76.8978 31.5316 76.8801 31.5581 76.8681 31.5873C76.8561 31.6166 76.85 31.6478 76.85 31.6794V33.7417C76.85 33.7733 76.8561 33.8046 76.8681 33.8338C76.8801 33.863 76.8978 33.8896 76.9201 33.9119C76.9424 33.9343 76.9688 33.9521 76.998 33.9642C77.0272 33.9763 77.0584 33.9826 77.09 33.9826H79.1532C79.2171 33.9826 79.2784 33.9572 79.3235 33.912C79.3687 33.8669 79.3941 33.8056 79.3941 33.7417V31.6794C79.3941 31.6155 79.3687 31.5543 79.3235 31.5091C79.2784 31.464 79.2171 31.4386 79.1532 31.4385Z" fill="#E6E6E6"/>
<path d="M31.7329 61.8452H31.6754L31.7245 61.8388L31.7329 61.8452Z" fill="#2F2E41"/>
<path d="M26.7966 23.3973C30.2924 23.3973 33.1263 20.5634 33.1263 17.0675C33.1263 13.5717 30.2924 10.7377 26.7966 10.7377C23.3007 10.7377 20.4668 13.5717 20.4668 17.0675C20.4668 20.5634 23.3007 23.3973 26.7966 23.3973Z" fill="#FFB6B6"/>
<path d="M32.3398 12.4266C32.3398 12.4266 33.9953 9.26175 30.3531 8.97403C30.3531 8.97403 27.248 6.15736 24.0831 8.4591C24.0831 8.4591 22.3568 8.4591 21.4128 10.4126C21.4128 10.4126 20.0551 9.89768 19.7567 11.2758C19.7567 11.2758 18.7632 14.1529 19.7567 16.7424C20.7502 19.3319 21.0802 19.6196 21.0802 19.6196C21.0802 19.6196 19.4477 14.1906 23.4214 13.9029C27.3951 13.6152 31.8417 11.1319 32.1729 14.2968C32.504 17.4617 33.0024 18.2415 33.0024 18.2415C33.0024 18.2415 36.1477 13.7214 32.3398 12.4266Z" fill="#2F2E41"/>
<path d="M43.1703 32.667L43.1499 32.7745L42.9211 33.9826L41.3396 42.3393L41.246 42.8313L41.0496 43.8717L40.781 45.291L40.1852 48.4364L40.0148 49.3378L39.9508 49.676L39.9286 49.7946L39.7517 50.7275L39.6979 51.0092L39.2662 54.2083L38.8891 56.996L40.151 58.2578L39.3987 59.0101L38.9049 61.8386L38.9058 61.8451H18.7524C17.9371 61.317 17.1336 60.7726 16.3418 60.2117L16.5076 58.9703C16.5076 58.9703 17.0783 56.7533 16.8383 56.4883C16.5993 56.2233 16.0749 55.7499 16.0749 55.7499L16.7355 54.2083L16.8272 53.9942L16.6734 50.8044L16.6697 50.7275L16.6188 49.676L16.6123 49.5407L16.6021 49.3378L16.4066 45.291L16.4029 45.2243L16.3436 43.9977L16.288 42.8313L16.2639 42.3393L16.0258 37.417L15.8646 34.0743L15.7238 31.1643L16.2899 30.9725L22.3443 28.9148L24.8523 25.6546L30.072 25.6935L32.6272 25.713L36.8907 29.6671L37.8608 30.1304L37.8682 30.1341L38.5639 30.4667L40.3279 31.3088L42.1929 32.2001L43.1499 32.6568L43.1703 32.667Z" fill="#CACACA"/>
<path d="M25.5268 52.349C25.1443 52.4971 24.7339 52.5597 24.3247 52.5321C23.9154 52.5045 23.5171 52.3876 23.158 52.1895C22.7988 51.9913 22.4874 51.7169 22.2458 51.3854C22.0041 51.0539 21.8381 50.6735 21.7594 50.2709L11.8871 48.8703L15.319 44.9882L24.1678 46.9134C24.8528 46.826 25.5462 46.993 26.1164 47.3826C26.6866 47.7723 27.0941 48.3576 27.2616 49.0276C27.4291 49.6976 27.345 50.4057 27.0253 51.0179C26.7056 51.6301 26.1724 52.1037 25.5268 52.349V52.349Z" fill="#FFB6B6"/>
<path d="M21.1251 45.291C20.9422 45.0592 20.6833 44.8994 20.3941 44.8398L16.3436 43.9977L15.9276 43.9115C15.6859 43.8611 15.4575 43.7601 15.2575 43.6153C15.0574 43.4705 14.8902 43.2851 14.7668 43.0712C14.6387 42.8467 14.5613 42.5969 14.5398 42.3393C14.5205 42.1051 14.5485 41.8694 14.6222 41.6463L16.0258 37.417L16.9366 34.6728C17.0469 34.3419 17.1121 33.9975 17.1302 33.6491C17.1809 32.6849 16.8826 31.7347 16.2899 30.9725C15.7688 30.3026 15.046 29.8181 14.2284 29.5905C13.4107 29.363 12.5415 29.4044 11.7493 29.7088C11.7261 29.7172 11.702 29.7264 11.6789 29.7357C11.1107 29.9626 10.6031 30.3185 10.1961 30.7753C9.78914 31.2321 9.494 31.7773 9.33399 32.3678L8.34452 35.9671L6.30352 43.3871C6.09921 44.1306 6.05793 44.9094 6.18252 45.6702C6.3071 46.4311 6.59461 47.156 7.02536 47.7955C7.45611 48.4349 8.01993 48.9737 8.67823 49.375C9.33653 49.7764 10.0738 50.0307 10.8395 50.1207L16.6734 50.8044L19.3732 51.1213C19.6853 51.1588 20.0002 51.0773 20.255 50.8931C20.5098 50.7088 20.6858 50.4354 20.748 50.1272C20.7524 50.1104 20.7558 50.0934 20.7582 50.0762L20.8231 49.676L21.3725 46.3055L21.378 46.2712C21.4067 46.0992 21.3989 45.9232 21.3554 45.7543C21.3118 45.5855 21.2334 45.4277 21.1251 45.291Z" fill="#CACACA"/>
<path d="M31.815 52.457C32.2146 52.5498 32.6297 52.5538 33.031 52.4688C33.4323 52.3838 33.8101 52.2118 34.1377 51.9651C34.4654 51.7183 34.7349 51.4026 34.9274 51.0404C35.1199 50.6781 35.2306 50.2781 35.2517 49.8685L44.8278 47.0896L40.8828 43.7303L32.394 46.8841C31.7034 46.8942 31.0406 47.1573 30.531 47.6234C30.0214 48.0896 29.7005 48.7265 29.6292 49.4134C29.5578 50.1004 29.7409 50.7896 30.1438 51.3506C30.5467 51.9115 31.1413 52.3052 31.815 52.457V52.457Z" fill="#FFB6B6"/>
<path d="M49.5824 40.8737L45.0279 30.3916C44.6553 29.5311 43.99 28.8303 43.1499 28.4136C42.8902 28.2858 42.6175 28.1864 42.3365 28.1172C42.2929 28.106 42.2494 28.0959 42.2059 28.0875C41.6099 27.9575 40.9918 27.9689 40.4011 28.1209C39.8611 28.2596 39.3565 28.5106 38.92 28.8575C38.4836 29.2044 38.1252 29.6393 37.8681 30.1341C37.8653 30.1382 37.8629 30.1425 37.8607 30.147C37.5737 30.7024 37.421 31.3175 37.415 31.9426C37.4091 32.5678 37.55 33.1856 37.8265 33.7464L37.883 33.8594L41.1015 40.3233C41.2114 40.5444 41.2733 40.7861 41.2832 41.0328C41.2931 41.2795 41.2507 41.5254 41.1589 41.7545C41.067 41.9837 40.9277 42.1908 40.7502 42.3623C40.5727 42.5338 40.3609 42.6658 40.1287 42.7497L39.9027 42.8313L35.8373 44.2997C35.5323 44.4086 35.2814 44.6315 35.1374 44.9217C34.9935 45.2118 34.9677 45.5465 35.0656 45.8552L35.0758 45.8877L36.2153 49.5342C36.2209 49.5509 36.2264 49.5676 36.2329 49.5843C36.2429 49.6157 36.2553 49.6464 36.27 49.676C36.3911 49.9476 36.6052 50.1671 36.8737 50.295C37.1422 50.4229 37.4475 50.4507 37.7347 50.3736L39.9286 49.7946L40.3761 49.676L46.0414 48.1797C46.7869 47.9828 47.4809 47.627 48.0761 47.1369C48.6713 46.6467 49.1535 46.0338 49.4898 45.3399C49.8261 44.6461 50.0085 43.8878 50.0244 43.1169C50.0404 42.346 49.8896 41.5808 49.5824 40.8736L49.5824 40.8737Z" fill="#CACACA"/>
<path d="M4.75447 49.676C6.06731 51.2773 7.48317 52.7912 8.99305 54.2082H50.8665C51.2699 54.2089 51.6566 54.3695 51.9418 54.6548C52.227 54.9402 52.3873 55.327 52.3877 55.7304L52.4479 66.3412C55.0239 65.1577 57.4363 63.6465 59.6253 61.8451C60.233 61.3457 60.8219 60.8247 61.392 60.2821C61.7654 59.9282 62.1298 59.5657 62.4853 59.1945C65.1501 56.4183 67.308 53.1968 68.8612 49.676H4.75447Z" fill="#3F3D56"/>
<path d="M62.4853 59.1945C62.1304 59.566 61.766 59.9285 61.392 60.2821H52.4785V59.1945H62.4853Z" fill="white"/>
<path d="M43.0869 24.4067C43.0429 24.3254 42.9777 24.2575 42.8983 24.2102C42.8189 24.1629 42.7282 24.138 42.6358 24.138H12.2625C12.1264 24.1384 11.9959 24.1927 11.8997 24.289C11.8035 24.3854 11.7494 24.516 11.7493 24.6522V42.8313H43.1499V24.6522C43.1504 24.5663 43.1287 24.4817 43.0869 24.4067Z" fill="#3F3D56"/>
<path d="M11.7218 42.3391V44.5824C11.7218 44.6754 11.7401 44.7675 11.7757 44.8534C11.8113 44.9393 11.8634 45.0174 11.9292 45.0832C11.9949 45.1489 12.073 45.2011 12.1589 45.2367C12.2449 45.2723 12.3369 45.2906 12.4299 45.2906H24.0197V49.7179H23.8657C23.8537 49.7179 23.8417 49.7202 23.8305 49.7249C23.8194 49.7295 23.8092 49.7363 23.8007 49.7448C23.7922 49.7533 23.7854 49.7635 23.7808 49.7746C23.7761 49.7858 23.7737 49.7978 23.7737 49.8098V50.1178C23.7737 50.1299 23.7761 50.1418 23.7807 50.153C23.7854 50.1642 23.7921 50.1743 23.8007 50.1828C23.8092 50.1914 23.8194 50.1982 23.8305 50.2028C23.8417 50.2074 23.8537 50.2098 23.8657 50.2098H31.0605C31.0726 50.2098 31.0846 50.2074 31.0957 50.2028C31.1069 50.1982 31.117 50.1914 31.1256 50.1828C31.1341 50.1743 31.1409 50.1642 31.1455 50.153C31.1501 50.1418 31.1525 50.1299 31.1525 50.1178V49.8098C31.1525 49.7978 31.1501 49.7858 31.1455 49.7746C31.1409 49.7635 31.1341 49.7533 31.1256 49.7448C31.117 49.7363 31.1069 49.7295 31.0957 49.7249C31.0846 49.7202 31.0726 49.7179 31.0605 49.7179H30.9066V45.2906H42.4963C42.5893 45.2906 42.6814 45.2723 42.7673 45.2367C42.8533 45.2011 42.9313 45.1489 42.9971 45.0832C43.0628 45.0174 43.115 44.9393 43.1506 44.8534C43.1862 44.7675 43.2045 44.6754 43.2045 44.5824V42.3391H11.7218Z" fill="#3F3D56"/>
<path d="M27.0827 35.9004C28.6846 35.9004 29.9832 34.6019 29.9832 33C29.9832 31.3982 28.6846 30.0996 27.0827 30.0996C25.4809 30.0996 24.1823 31.3982 24.1823 33C24.1823 34.6019 25.4809 35.9004 27.0827 35.9004Z" fill="#1F7A3A"/>
<path d="M34.4727 16.7217H34.0094C34.0094 13.2196 30.5435 10.9248 27.0471 10.9229C26.5385 10.9214 26.031 10.9708 25.5323 11.0702C24.9709 11.1823 24.3881 11.3167 23.8156 11.4918C21.5578 12.1838 19.4639 13.5216 19.4639 16.7217C19.4635 17.3431 19.5426 17.9621 19.6993 18.5635L19.2509 18.6802C19.0845 18.0406 19.0005 17.3825 19.0007 16.7217C19.0007 13.9256 20.1486 12.005 22.1312 10.8599C23.1735 10.2577 24.4455 9.86952 25.9029 9.68052C26.5093 9.59984 27.1224 9.58122 27.7326 9.62493C31.7535 9.91399 34.4727 12.9973 34.4727 16.7217Z" fill="#1F7A3A"/>
<path d="M35.2444 16.9783L35.0619 15.6293C35.0169 15.2887 34.8528 14.9749 34.5987 14.7436C34.4355 14.5929 34.2402 14.4811 34.0276 14.4169C33.8149 14.3527 33.5904 14.3377 33.3711 14.3731L33.0811 14.4129C33.0018 14.4233 32.9253 14.4494 32.8561 14.4897C32.7869 14.5299 32.7264 14.5835 32.6781 14.6473C32.6294 14.7109 32.5937 14.7835 32.5732 14.8609C32.5527 14.9384 32.5477 15.0191 32.5586 15.0985L32.9801 18.2058C32.9975 18.3325 33.0543 18.4505 33.1424 18.5431C33.2305 18.6357 33.3455 18.6982 33.4712 18.7219C33.5084 18.7293 33.5462 18.7331 33.5842 18.733C33.6115 18.733 33.6387 18.7311 33.6657 18.7274L33.99 18.6839C34.1877 18.6577 34.3779 18.5913 34.549 18.4888C34.7201 18.3864 34.8685 18.2501 34.985 18.0882C35.01 18.053 35.0341 18.0168 35.0563 17.9798C35.23 17.6766 35.2962 17.3238 35.2444 16.9783Z" fill="#1F7A3A"/>
<path d="M32.894 14.4694C32.8089 14.5107 32.7349 14.5717 32.6781 14.6473C32.6294 14.7109 32.5937 14.7835 32.5732 14.8609C32.5527 14.9384 32.5477 15.0191 32.5586 15.0985L32.9801 18.2058C32.9975 18.3325 33.0543 18.4505 33.1424 18.5431C33.2305 18.6357 33.3455 18.6983 33.4712 18.7219L32.894 14.4694Z" fill="white"/>
<path d="M35.2444 16.9783L35.0619 15.6293C35.0169 15.2887 34.8528 14.9749 34.5987 14.7436L35.0184 17.8353C35.0247 17.8849 35.0374 17.9335 35.0564 17.9798C35.23 17.6766 35.2963 17.3238 35.2444 16.9783Z" fill="#3F3D56"/>
<path d="M33.8019 17.9502C33.9287 17.933 33.9924 17.6313 33.9442 17.2764C33.8961 16.9215 33.7543 16.6477 33.6276 16.6649C33.5008 16.6821 33.4371 16.9838 33.4852 17.3387C33.5334 17.6936 33.6752 17.9674 33.8019 17.9502Z" fill="#3F3D56"/>
<path d="M33.524 16.2826C33.6507 16.2654 33.7145 15.9637 33.6663 15.6088C33.6182 15.2539 33.4764 14.9801 33.3496 14.9973C33.2229 15.0145 33.1591 15.3161 33.2073 15.6711C33.2554 16.026 33.3972 16.2998 33.524 16.2826Z" fill="#3F3D56"/>
<path d="M35.2843 16.9311C35.411 16.9139 35.4748 16.6122 35.4266 16.2573C35.3785 15.9024 35.2367 15.6286 35.1099 15.6458C34.9832 15.663 34.9194 15.9647 34.9676 16.3196C35.0157 16.6745 35.1575 16.9483 35.2843 16.9311Z" fill="#3F3D56"/>
<path d="M27.0471 10.9229C26.5385 10.9214 26.031 10.9708 25.5323 11.0702C24.9709 11.1823 24.3881 11.3167 23.8156 11.4918C22.9215 11.4482 22.2637 11.2166 22.1312 10.8599C23.1735 10.2577 24.4455 9.86952 25.9029 9.68052C26.5093 9.59984 27.1224 9.58122 27.7326 9.62493C27.7972 9.6628 27.8531 9.71392 27.8965 9.77491C27.94 9.83591 27.97 9.90541 27.9846 9.97884C28.0282 10.3013 27.6604 10.644 27.0471 10.9229Z" fill="#3F3D56"/>
<path d="M21.1325 19.9365L20.4191 16.9709C20.3937 16.8639 20.3372 16.7668 20.2568 16.6918C20.1763 16.6168 20.0755 16.5672 19.967 16.5493C19.9364 16.5446 19.9054 16.5421 19.8744 16.5419C19.8307 16.5421 19.7871 16.5474 19.7447 16.5577L19.4686 16.6244C19.1131 16.7103 18.8063 16.9338 18.6154 17.2458C18.4245 17.5577 18.3652 17.9327 18.4504 18.2883L18.77 19.6187C18.843 19.9319 19.0168 20.2125 19.2648 20.4173C19.3049 20.4498 19.347 20.4798 19.3908 20.5072C19.5461 20.6045 19.7193 20.6697 19.9002 20.699C20.0811 20.7283 20.2661 20.721 20.4442 20.6777L20.7193 20.611C20.7921 20.594 20.8605 20.5621 20.9204 20.5174C21.0093 20.4525 21.077 20.3626 21.1148 20.2592C21.1526 20.1558 21.1587 20.0434 21.1325 19.9365Z" fill="#1F7A3A"/>
<path d="M19.637 19.3847C19.7613 19.3548 19.7942 19.0482 19.7104 18.7C19.6266 18.3518 19.4579 18.0937 19.3335 18.1237C19.2091 18.1536 19.1763 18.4601 19.2601 18.8084C19.3439 19.1566 19.5126 19.4146 19.637 19.3847Z" fill="#3F3D56"/>
<path d="M18.7105 19.6626C18.8349 19.6327 18.8678 19.3261 18.784 18.9779C18.7002 18.6297 18.5314 18.3716 18.4071 18.4016C18.2827 18.4315 18.2498 18.7381 18.3336 19.0863C18.4174 19.4345 18.5862 19.6926 18.7105 19.6626Z" fill="#3F3D56"/>
<path d="M21.1779 19.9254L20.4645 16.9597C20.4367 16.844 20.3754 16.739 20.2882 16.6579C20.2011 16.5768 20.0919 16.5233 19.9744 16.5039L20.9481 20.5544C21.0443 20.484 21.1174 20.3867 21.1583 20.2747C21.1992 20.1627 21.206 20.0412 21.1779 19.9254Z" fill="white"/>
<path d="M18.6116 17.7009C18.5919 17.6185 18.555 17.5411 18.5032 17.4739C18.4029 17.7336 18.3845 18.0178 18.4504 18.2883L18.77 19.6187C18.843 19.9319 19.0168 20.2125 19.2647 20.4173L18.6116 17.7009Z" fill="#3F3D56"/>
</g>
<defs>
<clipPath id="clip0_8_335">
<rect width="78.7993" height="68.6352" fill="white" transform="translate(0.594788 0.693909)"/>
</clipPath>
</defs>
</svg>
