<svg width="100" height="88" viewBox="0 0 100 88" fill="none" xmlns="http://www.w3.org/2000/svg">
<g clip-path="url(#clip0_8_335)">
<path d="M90.1639 45.3289C90.1769 56.1067 86.011 66.4699 78.5418 74.24C78.0915 74.7115 77.6291 75.1716 77.1545 75.6203C76.4314 76.3081 75.684 76.9692 74.9123 77.6037C67.6937 83.5511 58.6819 86.8931 49.3309 87.0907C49.0193 87.0977 48.7066 87.1013 48.3927 87.1013C40.935 87.1013 31.5551 83.1179 23.0428 77.6037C22.3386 77.1476 21.6406 76.6808 20.9489 76.2034C20.6255 75.9824 20.3038 75.7582 19.9836 75.5309C16.7005 73.2127 13.5842 70.6669 10.6577 67.9122C8.74163 66.114 6.94483 64.1927 5.27878 62.1606C-1.26179 54.0927 -2.7044 46.8232 6.62028 45.3289C7.72429 45.1525 8.79577 44.964 9.83472 44.7634C11.3397 44.4741 12.7799 44.1618 14.1555 43.8263C16.0085 43.376 17.7493 42.8877 19.3781 42.3613C19.926 42.185 20.4613 42.0051 20.9841 41.8217C28.7134 39.1069 33.8866 35.5668 37.4079 31.7257C38.0051 31.0755 38.5558 30.4175 39.0598 29.7517C39.8309 28.7382 40.5313 27.6728 41.1561 26.5631C42.0184 25.0213 42.7427 23.4062 43.3206 21.7367L43.3523 21.645C46.1541 13.5631 45.3017 6.06667 48.3927 3.55767C61.6055 -7.16849 78.0551 8.10655 85.7761 26.1199C86.1652 27.0275 86.5313 27.9407 86.8742 28.8593C87.0282 29.2696 87.1768 29.6807 87.3198 30.0926C87.696 31.1661 88.0374 32.2422 88.3439 33.3212C88.4614 33.7327 88.5735 34.1438 88.6801 34.5545C88.7942 34.9978 88.9035 35.4398 89.0046 35.8819C89.7559 39.1187 90.1639 42.3108 90.1639 45.3289Z" fill="#F2F2F2"/>
<path d="M49.3309 87.0907C49.0193 87.0978 48.7066 87.1013 48.3927 87.1013C40.935 87.1013 31.5551 83.1179 23.0428 77.6038C22.3386 77.1476 21.6406 76.6808 20.9489 76.2035L21.5555 72.5117L39.9215 70.0732L49.1392 77.1217L49.3309 87.0907Z" fill="#2F2E41"/>
<path d="M50.215 21.1689H47.5979C47.5168 21.1689 47.4391 21.2012 47.3818 21.2585C47.3245 21.3158 47.2922 21.3935 47.2922 21.4746V24.0929C47.2922 24.133 47.3002 24.1727 47.3156 24.2097C47.331 24.2467 47.3535 24.2803 47.3819 24.3086C47.4103 24.3369 47.444 24.3593 47.481 24.3745C47.5181 24.3898 47.5578 24.3976 47.5979 24.3974H50.215C50.2959 24.3975 50.3735 24.3654 50.4308 24.3084C50.4881 24.2513 50.5205 24.1738 50.5207 24.0929V21.4746C50.5205 21.3936 50.4882 21.316 50.4309 21.2587C50.3737 21.2014 50.296 21.1691 50.215 21.1689V21.1689Z" fill="white"/>
<path d="M50.215 25.6308H47.5979C47.5168 25.6308 47.4391 25.663 47.3818 25.7204C47.3245 25.7777 47.2922 25.8554 47.2922 25.9365V28.5548C47.2922 28.5949 47.3002 28.6346 47.3156 28.6716C47.331 28.7086 47.3535 28.7422 47.3819 28.7705C47.4103 28.7987 47.444 28.8212 47.481 28.8364C47.5181 28.8517 47.5578 28.8594 47.5979 28.8593H50.215C50.2959 28.8594 50.3735 28.8273 50.4308 28.7702C50.4881 28.7132 50.5205 28.6357 50.5207 28.5548V25.9365C50.5205 25.8555 50.4882 25.7779 50.4309 25.7206C50.3737 25.6633 50.296 25.631 50.215 25.6308Z" fill="#E6E6E6"/>
<path d="M50.215 30.0927H47.5979C47.5168 30.0927 47.4391 30.1249 47.3818 30.1822C47.3244 30.2396 47.2922 30.3173 47.2922 30.3984V33.0155C47.2921 33.0557 47.3 33.0955 47.3153 33.1326C47.3306 33.1697 47.3532 33.2034 47.3816 33.2318C47.41 33.2603 47.4437 33.2828 47.4808 33.2981C47.5179 33.3134 47.5577 33.3213 47.5979 33.3212H50.215C50.2961 33.3212 50.3738 33.289 50.4312 33.2316C50.4885 33.1743 50.5207 33.0966 50.5207 33.0155V30.3984C50.5205 30.3174 50.4882 30.2397 50.4309 30.1825C50.3737 30.1252 50.296 30.0929 50.215 30.0927V30.0927Z" fill="#E6E6E6"/>
<path d="M50.516 34.8062C50.503 34.7357 50.4658 34.6721 50.4108 34.6262C50.3559 34.5802 50.2867 34.5549 50.215 34.5545H47.5979C47.5168 34.5546 47.4391 34.5868 47.3818 34.6441C47.3245 34.7014 47.2922 34.7792 47.2922 34.8602V37.4774C47.2921 37.5176 47.3 37.5574 47.3153 37.5945C47.3306 37.6316 47.3531 37.6653 47.3815 37.6937C47.4099 37.7221 47.4437 37.7446 47.4808 37.76C47.5179 37.7753 47.5577 37.7832 47.5979 37.7831H50.215C50.2961 37.7831 50.3738 37.7508 50.4312 37.6935C50.4885 37.6362 50.5207 37.5585 50.5207 37.4774V34.8602C50.521 34.8421 50.5194 34.824 50.516 34.8062V34.8062Z" fill="#E6E6E6"/>
<path d="M50.3338 39.0399C50.2961 39.0244 50.2558 39.0164 50.215 39.0164H47.5979C47.5577 39.0163 47.5179 39.0242 47.4808 39.0395C47.4437 39.0549 47.41 39.0774 47.3816 39.1058C47.3532 39.1342 47.3306 39.1679 47.3153 39.205C47.3 39.2422 47.2921 39.282 47.2922 39.3221V41.9393C47.292 41.9795 47.2998 42.0193 47.3151 42.0565C47.3304 42.0936 47.3529 42.1274 47.3813 42.1558C47.4097 42.1843 47.4435 42.2068 47.4807 42.2221C47.5178 42.2374 47.5577 42.2452 47.5979 42.245H50.215C50.2961 42.2449 50.3738 42.2127 50.4312 42.1554C50.4885 42.0981 50.5207 42.0203 50.5207 41.9393V39.3221C50.5206 39.262 50.5028 39.2032 50.4696 39.153C50.4363 39.1028 50.3891 39.0635 50.3338 39.0399Z" fill="#E6E6E6"/>
<path d="M55.7127 21.1689H53.0956C53.0145 21.1689 52.9368 21.2012 52.8795 21.2585C52.8221 21.3158 52.7899 21.3935 52.7899 21.4746V24.0929C52.7899 24.133 52.7979 24.1727 52.8133 24.2097C52.8286 24.2467 52.8512 24.2803 52.8796 24.3086C52.908 24.3369 52.9417 24.3593 52.9787 24.3745C53.0158 24.3898 53.0555 24.3976 53.0956 24.3974H55.7127C55.7936 24.3975 55.8712 24.3654 55.9285 24.3084C55.9858 24.2513 56.0181 24.1738 56.0184 24.0929V21.4746C56.0182 21.3936 55.9859 21.316 55.9286 21.2587C55.8713 21.2014 55.7937 21.1691 55.7127 21.1689V21.1689Z" fill="#E6E6E6"/>
<path d="M55.7127 25.6308H53.0956C53.0145 25.6308 52.9368 25.663 52.8795 25.7204C52.8221 25.7777 52.7899 25.8554 52.7899 25.9365V28.5548C52.7899 28.5949 52.7979 28.6346 52.8133 28.6716C52.8286 28.7086 52.8512 28.7422 52.8796 28.7705C52.908 28.7987 52.9417 28.8212 52.9787 28.8364C53.0158 28.8517 53.0555 28.8594 53.0956 28.8593H55.7127C55.7936 28.8594 55.8712 28.8273 55.9285 28.7702C55.9858 28.7132 56.0181 28.6357 56.0184 28.5548V25.9365C56.0182 25.8555 55.9859 25.7779 55.9286 25.7206C55.8713 25.6633 55.7937 25.631 55.7127 25.6308Z" fill="#1F7A3A"/>
<path d="M55.7127 30.0927H53.0956C53.0145 30.0927 52.9368 30.1249 52.8795 30.1822C52.8221 30.2396 52.7899 30.3173 52.7899 30.3984V33.0155C52.7898 33.0557 52.7977 33.0955 52.813 33.1326C52.8283 33.1697 52.8508 33.2034 52.8792 33.2318C52.9076 33.2603 52.9414 33.2828 52.9785 33.2981C53.0156 33.3134 53.0554 33.3213 53.0956 33.3212H55.7127C55.7938 33.3212 55.8715 33.289 55.9288 33.2316C55.9862 33.1743 56.0184 33.0966 56.0184 33.0155V30.3984C56.0182 30.3174 55.9859 30.2397 55.9286 30.1825C55.8713 30.1252 55.7937 30.0929 55.7127 30.0927V30.0927Z" fill="#1F7A3A"/>
<path d="M55.7127 34.5545H53.0956C53.0315 34.5546 52.969 34.5748 52.9171 34.6124C52.8652 34.65 52.8264 34.703 52.8063 34.7638C52.7955 34.7948 52.7899 34.8274 52.7899 34.8602V37.4774C52.7898 37.5176 52.7977 37.5574 52.813 37.5945C52.8283 37.6316 52.8508 37.6653 52.8792 37.6937C52.9076 37.7221 52.9414 37.7446 52.9785 37.76C53.0156 37.7753 53.0554 37.7832 53.0956 37.7831H55.7127C55.7938 37.7831 55.8715 37.7508 55.9288 37.6935C55.9862 37.6362 56.0184 37.5585 56.0184 37.4774V34.8602C56.0182 34.7792 55.9859 34.7016 55.9286 34.6443C55.8713 34.5871 55.7937 34.5548 55.7127 34.5545V34.5545Z" fill="#1F7A3A"/>
<path d="M55.7127 39.0164H53.0956C53.0554 39.0163 53.0156 39.0242 52.9785 39.0395C52.9414 39.0549 52.9076 39.0774 52.8792 39.1058C52.8508 39.1342 52.8283 39.1679 52.813 39.205C52.7977 39.2422 52.7898 39.282 52.7899 39.3221V41.9393C52.7898 41.9794 52.7977 42.0192 52.813 42.0564C52.8283 42.0935 52.8508 42.1272 52.8792 42.1556C52.9076 42.184 52.9414 42.2065 52.9785 42.2219C53.0156 42.2372 53.0554 42.2451 53.0956 42.245H55.7127C55.7938 42.2449 55.8715 42.2127 55.9288 42.1554C55.9862 42.0981 56.0184 42.0203 56.0184 41.9393V39.3221C56.0184 39.2411 55.9862 39.1633 55.9288 39.106C55.8715 39.0487 55.7938 39.0165 55.7127 39.0164V39.0164Z" fill="#E6E6E6"/>
<path d="M61.2104 21.1689H58.5933C58.5122 21.1689 58.4345 21.2012 58.3772 21.2585C58.3199 21.3158 58.2876 21.3935 58.2876 21.4746V24.0929C58.2876 24.133 58.2956 24.1727 58.311 24.2097C58.3264 24.2467 58.3489 24.2803 58.3773 24.3086C58.4057 24.3369 58.4394 24.3593 58.4764 24.3745C58.5135 24.3898 58.5532 24.3976 58.5933 24.3974H61.2104C61.2913 24.3975 61.3689 24.3654 61.4262 24.3084C61.4835 24.2513 61.5159 24.1738 61.5161 24.0929V21.4746C61.5159 21.3936 61.4836 21.316 61.4263 21.2587C61.3691 21.2014 61.2914 21.1691 61.2104 21.1689V21.1689Z" fill="#1F7A3A"/>
<path d="M61.2104 25.6308H58.5933C58.5122 25.6308 58.4345 25.663 58.3772 25.7204C58.3198 25.7777 58.2876 25.8554 58.2876 25.9365V28.5548C58.2876 28.5949 58.2956 28.6346 58.311 28.6716C58.3264 28.7086 58.3489 28.7422 58.3773 28.7705C58.4057 28.7987 58.4394 28.8212 58.4764 28.8364C58.5135 28.8517 58.5532 28.8594 58.5933 28.8593H61.2104C61.2913 28.8594 61.3689 28.8273 61.4262 28.7702C61.4835 28.7132 61.5159 28.6357 61.5161 28.5548V25.9365C61.5159 25.8555 61.4836 25.7779 61.4263 25.7206C61.3691 25.6633 61.2914 25.631 61.2104 25.6308Z" fill="#1F7A3A"/>
<path d="M61.2104 30.0927H58.5933C58.5122 30.0927 58.4345 30.1249 58.3772 30.1822C58.3198 30.2396 58.2876 30.3173 58.2876 30.3984V33.0155C58.2875 33.0557 58.2954 33.0955 58.3107 33.1326C58.326 33.1697 58.3485 33.2034 58.3769 33.2318C58.4053 33.2603 58.4391 33.2828 58.4762 33.2981C58.5133 33.3134 58.5531 33.3213 58.5933 33.3212H61.2104C61.2915 33.3212 61.3692 33.289 61.4266 33.2316C61.4839 33.1743 61.5161 33.0966 61.5161 33.0155V30.3984C61.5159 30.3174 61.4836 30.2397 61.4263 30.1825C61.3691 30.1252 61.2914 30.0929 61.2104 30.0927V30.0927Z" fill="#E6E6E6"/>
<path d="M61.2104 34.5545H58.5933C58.5122 34.5546 58.4345 34.5868 58.3772 34.6441C58.3199 34.7014 58.2876 34.7792 58.2876 34.8602V37.4774C58.2875 37.5176 58.2954 37.5574 58.3107 37.5945C58.326 37.6316 58.3485 37.6653 58.3769 37.6937C58.4053 37.7221 58.4391 37.7446 58.4762 37.76C58.5133 37.7753 58.5531 37.7832 58.5933 37.7831H61.2104C61.2915 37.7831 61.3692 37.7508 61.4266 37.6935C61.4839 37.6362 61.5161 37.5585 61.5161 37.4774V34.8602C61.5159 34.7792 61.4836 34.7016 61.4263 34.6443C61.3691 34.5871 61.2914 34.5548 61.2104 34.5545V34.5545Z" fill="#1F7A3A"/>
<path d="M61.2104 39.0164H58.5933C58.5531 39.0163 58.5133 39.0242 58.4762 39.0395C58.4391 39.0549 58.4053 39.0774 58.3769 39.1058C58.3485 39.1342 58.326 39.1679 58.3107 39.205C58.2954 39.2422 58.2875 39.282 58.2876 39.3221V41.9393C58.2875 41.9794 58.2954 42.0192 58.3107 42.0564C58.326 42.0935 58.3485 42.1272 58.3769 42.1556C58.4053 42.184 58.4391 42.2065 58.4762 42.2219C58.5133 42.2372 58.5531 42.2451 58.5933 42.245H61.2104C61.2915 42.2449 61.3692 42.2127 61.4266 42.1554C61.4839 42.0981 61.5161 42.0203 61.5161 41.9393V39.3221C61.5161 39.2411 61.4839 39.1633 61.4266 39.106C61.3692 39.0487 61.2915 39.0165 61.2104 39.0164V39.0164Z" fill="#1F7A3A"/>
<path d="M66.7081 21.1689H64.091C64.0099 21.1689 63.9322 21.2012 63.8749 21.2585C63.8175 21.3158 63.7853 21.3935 63.7853 21.4746V24.0929C63.7853 24.133 63.7933 24.1727 63.8087 24.2097C63.824 24.2467 63.8466 24.2803 63.875 24.3086C63.9034 24.3369 63.9371 24.3593 63.9741 24.3745C64.0112 24.3898 64.0509 24.3976 64.091 24.3974H66.7081C66.789 24.3975 66.8666 24.3654 66.9239 24.3084C66.9812 24.2513 67.0135 24.1738 67.0138 24.0929V21.4746C67.0136 21.3936 66.9813 21.316 66.924 21.2587C66.8667 21.2014 66.7891 21.1691 66.7081 21.1689V21.1689Z" fill="#1F7A3A"/>
<path d="M66.7081 25.6308H64.091C64.0099 25.6308 63.9322 25.663 63.8748 25.7204C63.8175 25.7777 63.7853 25.8554 63.7853 25.9365V28.5548C63.7853 28.5949 63.7933 28.6346 63.8087 28.6716C63.824 28.7086 63.8466 28.7422 63.875 28.7705C63.9034 28.7987 63.9371 28.8212 63.9741 28.8364C64.0112 28.8517 64.0509 28.8594 64.091 28.8593H66.7081C66.789 28.8594 66.8666 28.8273 66.9239 28.7702C66.9812 28.7132 67.0136 28.6357 67.0138 28.5548V25.9365C67.0136 25.8555 66.9813 25.7779 66.924 25.7206C66.8668 25.6633 66.7891 25.631 66.7081 25.6308V25.6308Z" fill="white"/>
<path d="M66.7081 30.0927H64.091C64.0099 30.0927 63.9322 30.1249 63.8749 30.1822C63.8175 30.2396 63.7853 30.3173 63.7853 30.3984V33.0155C63.7852 33.0557 63.7931 33.0955 63.8084 33.1326C63.8237 33.1697 63.8462 33.2034 63.8746 33.2318C63.903 33.2603 63.9368 33.2828 63.9739 33.2981C64.011 33.3134 64.0508 33.3213 64.091 33.3212H66.7081C66.7892 33.3212 66.8669 33.289 66.9242 33.2316C66.9816 33.1743 67.0138 33.0966 67.0138 33.0155V30.3984C67.0136 30.3174 66.9813 30.2397 66.924 30.1825C66.8668 30.1252 66.7891 30.0929 66.7081 30.0927V30.0927Z" fill="white"/>
<path d="M66.7081 34.5545H64.091C64.0099 34.5546 63.9322 34.5868 63.8749 34.6441C63.8175 34.7014 63.7853 34.7792 63.7853 34.8602V37.4774C63.7852 37.5176 63.7931 37.5574 63.8084 37.5945C63.8237 37.6316 63.8462 37.6653 63.8746 37.6937C63.903 37.7221 63.9368 37.7447 63.9739 37.76C64.011 37.7753 64.0508 37.7832 64.091 37.7831H66.7081C66.7892 37.7831 66.8669 37.7508 66.9242 37.6935C66.9816 37.6362 67.0138 37.5585 67.0138 37.4774V34.8602C67.0136 34.7792 66.9813 34.7016 66.924 34.6443C66.8668 34.5871 66.7891 34.5548 66.7081 34.5545V34.5545Z" fill="#E6E6E6"/>
<path d="M66.7081 39.0164H64.091C64.0508 39.0163 64.011 39.0242 63.9739 39.0395C63.9368 39.0549 63.903 39.0774 63.8746 39.1058C63.8462 39.1342 63.8237 39.1679 63.8084 39.205C63.7931 39.2422 63.7852 39.282 63.7853 39.3221V41.9393C63.7852 41.9794 63.7931 42.0192 63.8084 42.0564C63.8237 42.0935 63.8462 42.1272 63.8746 42.1556C63.903 42.184 63.9368 42.2065 63.9739 42.2219C64.011 42.2372 64.0508 42.2451 64.091 42.245H66.7081C66.7892 42.2449 66.8669 42.2127 66.9243 42.1554C66.9816 42.0981 67.0138 42.0203 67.0138 41.9393V39.3221C67.0138 39.2411 66.9816 39.1633 66.9242 39.106C66.8669 39.0487 66.7892 39.0165 66.7081 39.0164V39.0164Z" fill="#1F7A3A"/>
<path d="M72.2058 21.1689H69.5875C69.5066 21.1692 69.4291 21.2015 69.372 21.2588C69.315 21.3161 69.2829 21.3937 69.283 21.4746V24.0929C69.283 24.1737 69.3151 24.2511 69.3722 24.3082C69.4293 24.3653 69.5067 24.3974 69.5875 24.3974H72.2058C72.2867 24.3975 72.3643 24.3654 72.4216 24.3084C72.4789 24.2513 72.5112 24.1738 72.5115 24.0929V21.4746C72.5113 21.3936 72.479 21.316 72.4217 21.2587C72.3644 21.2014 72.2868 21.1691 72.2058 21.1689Z" fill="white"/>
<path d="M72.2058 25.6308H69.5875C69.5066 25.6311 69.4291 25.6634 69.372 25.7207C69.315 25.778 69.2829 25.8556 69.283 25.9365V28.5548C69.283 28.6356 69.3151 28.713 69.3722 28.7701C69.4293 28.8272 69.5067 28.8593 69.5875 28.8593H72.2058C72.2867 28.8594 72.3643 28.8273 72.4216 28.7702C72.4789 28.7132 72.5112 28.6357 72.5115 28.5548V25.9365C72.5113 25.8555 72.479 25.7779 72.4217 25.7206C72.3644 25.6633 72.2868 25.631 72.2058 25.6308V25.6308Z" fill="white"/>
<path d="M72.2058 30.0927H69.5875C69.5066 30.0929 69.4291 30.1253 69.3721 30.1826C69.315 30.2399 69.2829 30.3175 69.283 30.3984V33.0155C69.2828 33.0556 69.2906 33.0953 69.3059 33.1324C69.3211 33.1694 69.3436 33.2031 69.3718 33.2315C69.4001 33.2599 69.4337 33.2824 69.4707 33.2978C69.5077 33.3132 69.5474 33.3212 69.5875 33.3212H72.2058C72.2869 33.3212 72.3646 33.289 72.4219 33.2316C72.4793 33.1743 72.5115 33.0966 72.5115 33.0155V30.3984C72.5113 30.3174 72.479 30.2397 72.4217 30.1825C72.3644 30.1252 72.2868 30.0929 72.2058 30.0927V30.0927Z" fill="white"/>
<path d="M72.2058 34.5545H69.5875C69.5066 34.5548 69.4291 34.5872 69.3721 34.6445C69.315 34.7018 69.2829 34.7794 69.283 34.8602V37.4774C69.2828 37.5175 69.2906 37.5572 69.3059 37.5942C69.3211 37.6313 69.3435 37.665 69.3718 37.6934C69.4001 37.7218 69.4337 37.7443 69.4707 37.7597C69.5077 37.7751 69.5474 37.7831 69.5875 37.7831H72.2058C72.2869 37.7831 72.3646 37.7508 72.4219 37.6935C72.4793 37.6362 72.5115 37.5585 72.5115 37.4774V34.8602C72.5113 34.7792 72.479 34.7016 72.4217 34.6443C72.3644 34.5871 72.2868 34.5548 72.2058 34.5545V34.5545Z" fill="#1F7A3A"/>
<path d="M72.2058 39.0164H69.5875C69.5474 39.0165 69.5077 39.0244 69.4707 39.0398C69.4337 39.0552 69.4001 39.0777 69.3718 39.1061C69.3435 39.1345 69.3211 39.1682 69.3059 39.2053C69.2906 39.2423 69.2828 39.282 69.283 39.3221V41.9393C69.2828 41.9794 69.2906 42.0191 69.3059 42.0561C69.3211 42.0932 69.3435 42.1269 69.3718 42.1553C69.4001 42.1837 69.4337 42.2062 69.4707 42.2216C69.5077 42.237 69.5474 42.2449 69.5875 42.245H72.2058C72.2869 42.2449 72.3646 42.2127 72.4219 42.1554C72.4793 42.0981 72.5115 42.0203 72.5115 41.9393V39.3221C72.5115 39.2411 72.4793 39.1633 72.4219 39.106C72.3646 39.0487 72.2869 39.0165 72.2058 39.0164V39.0164Z" fill="#E6E6E6"/>
<path d="M77.7035 21.1689H75.0852C75.0043 21.1692 74.9268 21.2015 74.8698 21.2588C74.8127 21.3161 74.7806 21.3937 74.7807 21.4746V24.0929C74.7807 24.1737 74.8128 24.2511 74.8699 24.3082C74.927 24.3653 75.0044 24.3974 75.0852 24.3974H77.7035C77.7844 24.3975 77.862 24.3654 77.9193 24.3084C77.9766 24.2513 78.0089 24.1738 78.0092 24.0929V21.4746C78.009 21.3936 77.9767 21.316 77.9194 21.2587C77.8621 21.2014 77.7845 21.1691 77.7035 21.1689V21.1689Z" fill="white"/>
<path d="M77.7035 25.6308H75.0852C75.0043 25.6311 74.9268 25.6634 74.8698 25.7207C74.8127 25.778 74.7806 25.8556 74.7807 25.9365V28.5548C74.7807 28.6356 74.8128 28.713 74.8699 28.7701C74.927 28.8272 75.0044 28.8593 75.0852 28.8593H77.7035C77.7844 28.8594 77.862 28.8273 77.9193 28.7702C77.9766 28.7132 78.0089 28.6357 78.0092 28.5548V25.9365C78.009 25.8555 77.9767 25.7779 77.9194 25.7206C77.8621 25.6633 77.7845 25.631 77.7035 25.6308V25.6308Z" fill="white"/>
<path d="M77.7035 30.0927H75.0852C75.0043 30.0929 74.9268 30.1253 74.8698 30.1826C74.8127 30.2399 74.7806 30.3175 74.7807 30.3984V33.0155C74.7806 33.0556 74.7884 33.0953 74.8036 33.1324C74.8189 33.1694 74.8413 33.2031 74.8695 33.2315C74.8978 33.2599 74.9314 33.2824 74.9684 33.2978C75.0054 33.3132 75.0451 33.3212 75.0852 33.3212H77.7035C77.7846 33.3212 77.8623 33.2889 77.9196 33.2316C77.977 33.1743 78.0092 33.0966 78.0092 33.0155V30.3984C78.009 30.3174 77.9767 30.2397 77.9194 30.1825C77.8621 30.1252 77.7845 30.0929 77.7035 30.0927V30.0927Z" fill="#1F7A3A"/>
<path d="M77.7035 34.5545H75.0852C75.0043 34.5548 74.9268 34.5872 74.8698 34.6445C74.8127 34.7018 74.7806 34.7794 74.7807 34.8602V37.4774C74.7806 37.5175 74.7884 37.5572 74.8036 37.5942C74.8188 37.6313 74.8413 37.665 74.8695 37.6934C74.8978 37.7218 74.9314 37.7443 74.9684 37.7597C75.0054 37.7751 75.0451 37.7831 75.0852 37.7831H77.7035C77.7846 37.7831 77.8623 37.7508 77.9196 37.6935C77.977 37.6362 78.0092 37.5585 78.0092 37.4774V34.8602C78.009 34.7792 77.9767 34.7016 77.9194 34.6443C77.8621 34.5871 77.7845 34.5548 77.7035 34.5545V34.5545Z" fill="#E6E6E6"/>
<path d="M77.7035 39.0164H75.0852C75.0451 39.0165 75.0054 39.0244 74.9684 39.0398C74.9314 39.0552 74.8978 39.0777 74.8695 39.1061C74.8413 39.1345 74.8188 39.1682 74.8036 39.2053C74.7884 39.2423 74.7806 39.282 74.7807 39.3221V41.9393C74.7806 41.9794 74.7884 42.0191 74.8036 42.0561C74.8188 42.0932 74.8413 42.1269 74.8695 42.1553C74.8978 42.1837 74.9314 42.2062 74.9684 42.2216C75.0054 42.237 75.0451 42.2449 75.0852 42.245H77.7035C77.7846 42.2449 77.8623 42.2127 77.9196 42.1554C77.977 42.0981 78.0092 42.0203 78.0092 41.9393V39.3221C78.0092 39.2411 77.977 39.1633 77.9196 39.106C77.8623 39.0487 77.7846 39.0165 77.7035 39.0164Z" fill="white"/>
<path d="M83.2012 21.1689H80.5829C80.502 21.1692 80.4245 21.2015 80.3674 21.2588C80.3104 21.3161 80.2783 21.3937 80.2784 21.4746V24.0929C80.2784 24.1737 80.3105 24.2511 80.3676 24.3082C80.4247 24.3653 80.5021 24.3974 80.5829 24.3974H83.2012C83.2821 24.3975 83.3597 24.3654 83.417 24.3084C83.4743 24.2513 83.5066 24.1738 83.5069 24.0929V21.4746C83.5067 21.3936 83.4744 21.316 83.4171 21.2587C83.3598 21.2014 83.2822 21.1691 83.2012 21.1689V21.1689Z" fill="#1F7A3A"/>
<path d="M83.2012 25.6308H80.5829C80.502 25.6311 80.4245 25.6634 80.3674 25.7207C80.3104 25.778 80.2783 25.8556 80.2784 25.9365V28.5548C80.2784 28.6356 80.3105 28.713 80.3676 28.7701C80.4247 28.8272 80.5021 28.8593 80.5829 28.8593H83.2012C83.2821 28.8594 83.3597 28.8273 83.417 28.7702C83.4743 28.7132 83.5066 28.6357 83.5069 28.5548V25.9365C83.5067 25.8555 83.4744 25.7779 83.4171 25.7206C83.3598 25.6633 83.2822 25.631 83.2012 25.6308Z" fill="#1F7A3A"/>
<path d="M83.2012 30.0927H80.5829C80.502 30.0929 80.4245 30.1253 80.3674 30.1826C80.3104 30.2399 80.2783 30.3175 80.2784 30.3984V33.0155C80.2782 33.0556 80.286 33.0953 80.3013 33.1324C80.3165 33.1694 80.3389 33.2031 80.3672 33.2315C80.3955 33.2599 80.4291 33.2824 80.4661 33.2978C80.5031 33.3132 80.5428 33.3212 80.5829 33.3212H83.2012C83.2823 33.3212 83.36 33.2889 83.4173 33.2316C83.4746 33.1743 83.5069 33.0966 83.5069 33.0155V30.3984C83.5067 30.3174 83.4744 30.2397 83.4171 30.1825C83.3598 30.1252 83.2822 30.0929 83.2012 30.0927V30.0927Z" fill="#E6E6E6"/>
<path d="M83.2012 34.5545H80.5829C80.502 34.5548 80.4245 34.5872 80.3674 34.6445C80.3104 34.7018 80.2783 34.7794 80.2784 34.8602V37.4774C80.2782 37.5175 80.286 37.5572 80.3013 37.5942C80.3165 37.6313 80.3389 37.665 80.3672 37.6934C80.3955 37.7218 80.4291 37.7443 80.4661 37.7597C80.5031 37.7751 80.5428 37.7831 80.5829 37.7831H83.2012C83.2823 37.7831 83.36 37.7508 83.4173 37.6935C83.4746 37.6362 83.5069 37.5585 83.5069 37.4774V34.8602C83.5067 34.7792 83.4744 34.7016 83.4171 34.6443C83.3598 34.5871 83.2822 34.5548 83.2012 34.5545V34.5545Z" fill="white"/>
<path d="M83.2012 39.0164H80.5829C80.5428 39.0165 80.5031 39.0244 80.4661 39.0398C80.4291 39.0552 80.3955 39.0777 80.3672 39.1061C80.3389 39.1345 80.3165 39.1682 80.3013 39.2053C80.286 39.2423 80.2782 39.282 80.2784 39.3221V41.9393C80.2782 41.9794 80.286 42.0191 80.3013 42.0561C80.3165 42.0932 80.3389 42.1269 80.3672 42.1553C80.3955 42.1837 80.4291 42.2062 80.4661 42.2216C80.5031 42.237 80.5428 42.2449 80.5829 42.245H83.2012C83.2823 42.2449 83.36 42.2127 83.4173 42.1554C83.4746 42.0981 83.5069 42.0203 83.5069 41.9393V39.3221C83.5069 39.2411 83.4746 39.1633 83.4173 39.106C83.36 39.0487 83.2823 39.0165 83.2012 39.0164Z" fill="#1F7A3A"/>
<path d="M88.6989 21.1689H86.0806C85.9997 21.1692 85.9222 21.2015 85.8652 21.2588C85.8081 21.3161 85.776 21.3937 85.7761 21.4746V24.0929C85.7761 24.1737 85.8082 24.2511 85.8653 24.3082C85.9224 24.3653 85.9998 24.3974 86.0806 24.3974H88.6989C88.7798 24.3975 88.8574 24.3654 88.9147 24.3084C88.972 24.2513 89.0043 24.1738 89.0046 24.0929V21.4746C89.0044 21.3936 88.9721 21.316 88.9148 21.2587C88.8575 21.2014 88.7799 21.1691 88.6989 21.1689Z" fill="#1F7A3A"/>
<path d="M88.6989 25.6308H86.0806C85.9997 25.6311 85.9222 25.6634 85.8651 25.7207C85.8081 25.778 85.776 25.8556 85.7761 25.9365V28.5548C85.7761 28.6356 85.8082 28.713 85.8653 28.7701C85.9224 28.8272 85.9998 28.8593 86.0806 28.8593H88.6989C88.7798 28.8594 88.8574 28.8273 88.9147 28.7702C88.972 28.7132 89.0043 28.6357 89.0046 28.5548V25.9365C89.0044 25.8555 88.9721 25.7779 88.9148 25.7206C88.8575 25.6633 88.7799 25.631 88.6989 25.6308V25.6308Z" fill="#1F7A3A"/>
<path d="M88.6989 30.0927H86.0806C85.9997 30.0929 85.9222 30.1253 85.8651 30.1826C85.8081 30.2399 85.776 30.3175 85.7761 30.3984V33.0155C85.776 33.0556 85.7837 33.0953 85.799 33.1324C85.8142 33.1694 85.8366 33.2031 85.8649 33.2315C85.8932 33.2599 85.9268 33.2824 85.9638 33.2978C86.0008 33.3132 86.0405 33.3212 86.0806 33.3212H88.6989C88.78 33.3212 88.8577 33.2889 88.915 33.2316C88.9723 33.1743 89.0046 33.0966 89.0046 33.0155V30.3984C89.0044 30.3174 88.9721 30.2397 88.9148 30.1825C88.8575 30.1252 88.7799 30.0929 88.6989 30.0927Z" fill="#E6E6E6"/>
<path d="M88.6989 34.5545H86.0806C85.9997 34.5548 85.9222 34.5872 85.8652 34.6445C85.8081 34.7018 85.776 34.7794 85.7761 34.8602V37.4774C85.776 37.5175 85.7837 37.5572 85.799 37.5942C85.8142 37.6313 85.8366 37.665 85.8649 37.6934C85.8932 37.7218 85.9268 37.7443 85.9638 37.7597C86.0008 37.7751 86.0405 37.7831 86.0806 37.7831H88.6989C88.78 37.7831 88.8577 37.7508 88.915 37.6935C88.9724 37.6362 89.0046 37.5585 89.0046 37.4774V34.8602C89.0044 34.7792 88.9721 34.7016 88.9148 34.6443C88.8575 34.5871 88.7799 34.5548 88.6989 34.5545V34.5545Z" fill="#1F7A3A"/>
<path d="M88.6989 39.0164H86.0806C86.0405 39.0165 86.0008 39.0244 85.9638 39.0398C85.9268 39.0552 85.8932 39.0777 85.8649 39.1061C85.8366 39.1345 85.8142 39.1682 85.799 39.2053C85.7837 39.2423 85.776 39.282 85.7761 39.3221V41.9393C85.776 41.9794 85.7837 42.0191 85.799 42.0561C85.8142 42.0932 85.8366 42.1269 85.8649 42.1553C85.8932 42.1837 85.9268 42.2062 85.9638 42.2216C86.0008 42.237 86.0405 42.2449 86.0806 42.245H88.6989C88.78 42.2449 88.8577 42.2127 88.915 42.1554C88.9724 42.0981 89.0046 42.0203 89.0046 41.9393V39.3221C89.0046 39.2411 88.9724 39.1633 88.915 39.106C88.8577 39.0487 88.78 39.0165 88.6989 39.0164V39.0164Z" fill="#1F7A3A"/>
<path d="M94.1966 21.1689H91.5783C91.4974 21.1692 91.4199 21.2015 91.3628 21.2588C91.3058 21.3161 91.2737 21.3937 91.2738 21.4746V24.0929C91.2738 24.1737 91.3059 24.2511 91.363 24.3082C91.4201 24.3653 91.4975 24.3974 91.5783 24.3974H94.1966C94.2775 24.3975 94.3551 24.3654 94.4124 24.3084C94.4697 24.2513 94.502 24.1738 94.5023 24.0929V21.4746C94.5021 21.3936 94.4698 21.316 94.4125 21.2587C94.3552 21.2014 94.2776 21.1691 94.1966 21.1689V21.1689Z" fill="#E6E6E6"/>
<path d="M94.1966 25.6308H91.5783C91.4974 25.6311 91.4199 25.6634 91.3628 25.7207C91.3058 25.778 91.2737 25.8556 91.2738 25.9365V28.5548C91.2738 28.6356 91.3059 28.713 91.363 28.7701C91.4201 28.8272 91.4975 28.8593 91.5783 28.8593H94.1966C94.2775 28.8594 94.3551 28.8273 94.4124 28.7702C94.4697 28.7132 94.502 28.6357 94.5023 28.5548V25.9365C94.5021 25.8555 94.4698 25.7779 94.4125 25.7206C94.3552 25.6633 94.2776 25.631 94.1966 25.6308V25.6308Z" fill="#1F7A3A"/>
<path d="M94.1966 30.0927H91.5783C91.4974 30.0929 91.4199 30.1253 91.3628 30.1826C91.3058 30.2399 91.2737 30.3175 91.2738 30.3984V33.0155C91.2736 33.0556 91.2814 33.0953 91.2967 33.1324C91.3119 33.1694 91.3343 33.2031 91.3626 33.2315C91.3909 33.2599 91.4245 33.2824 91.4615 33.2978C91.4985 33.3132 91.5382 33.3212 91.5783 33.3212H94.1966C94.2777 33.3212 94.3554 33.2889 94.4127 33.2316C94.47 33.1743 94.5023 33.0966 94.5023 33.0155V30.3984C94.5021 30.3174 94.4698 30.2397 94.4125 30.1825C94.3552 30.1252 94.2776 30.0929 94.1966 30.0927V30.0927Z" fill="#1F7A3A"/>
<path d="M94.1966 34.5545H91.5783C91.4974 34.5548 91.4199 34.5872 91.3628 34.6445C91.3058 34.7018 91.2737 34.7794 91.2738 34.8602V37.4774C91.2736 37.5175 91.2814 37.5572 91.2967 37.5942C91.3119 37.6313 91.3343 37.665 91.3626 37.6934C91.3909 37.7218 91.4245 37.7443 91.4615 37.7597C91.4985 37.7751 91.5382 37.7831 91.5783 37.7831H94.1966C94.2777 37.7831 94.3554 37.7508 94.4127 37.6935C94.47 37.6362 94.5023 37.5585 94.5023 37.4774V34.8602C94.5021 34.7792 94.4698 34.7016 94.4125 34.6443C94.3552 34.5871 94.2776 34.5548 94.1966 34.5545V34.5545Z" fill="#1F7A3A"/>
<path d="M94.1966 39.0164H91.5783C91.5382 39.0165 91.4985 39.0244 91.4615 39.0398C91.4245 39.0552 91.3909 39.0777 91.3626 39.1061C91.3343 39.1345 91.3119 39.1682 91.2967 39.2053C91.2814 39.2423 91.2736 39.282 91.2738 39.3221V41.9393C91.2736 41.9794 91.2814 42.0191 91.2967 42.0561C91.3119 42.0932 91.3343 42.1269 91.3626 42.1553C91.3909 42.1837 91.4245 42.2062 91.4615 42.2216C91.4985 42.237 91.5382 42.2449 91.5783 42.245H94.1966C94.2777 42.2449 94.3554 42.2127 94.4127 42.1554C94.47 42.0981 94.5023 42.0203 94.5023 41.9393V39.3221C94.5023 39.2411 94.47 39.1633 94.4127 39.106C94.3554 39.0487 94.2777 39.0165 94.1966 39.0164V39.0164Z" fill="#E6E6E6"/>
<path d="M99.6943 21.1689H97.076C96.9951 21.1692 96.9176 21.2015 96.8605 21.2588C96.8035 21.3161 96.7714 21.3937 96.7714 21.4746V24.0929C96.7715 24.1737 96.8035 24.2511 96.8607 24.3082C96.9178 24.3653 96.9952 24.3974 97.076 24.3974H99.6943C99.7752 24.3975 99.8528 24.3654 99.9101 24.3084C99.9674 24.2513 99.9997 24.1738 100 24.0929V21.4746C99.9998 21.3936 99.9675 21.316 99.9102 21.2587C99.8529 21.2014 99.7753 21.1691 99.6943 21.1689V21.1689Z" fill="#E6E6E6"/>
<path d="M99.6943 25.6308H97.076C96.9951 25.6311 96.9176 25.6634 96.8605 25.7207C96.8034 25.778 96.7714 25.8556 96.7714 25.9365V28.5548C96.7715 28.6356 96.8035 28.713 96.8607 28.7701C96.9178 28.8272 96.9952 28.8593 97.076 28.8593H99.6943C99.7752 28.8594 99.8528 28.8273 99.9101 28.7702C99.9674 28.7132 99.9997 28.6357 100 28.5548V25.9365C99.9998 25.8555 99.9675 25.7779 99.9102 25.7206C99.8529 25.6633 99.7753 25.631 99.6943 25.6308V25.6308Z" fill="#E6E6E6"/>
<path d="M99.6943 30.0927H97.076C96.9951 30.0929 96.9176 30.1253 96.8605 30.1826C96.8034 30.2399 96.7714 30.3175 96.7714 30.3984V33.0155C96.7713 33.0556 96.7791 33.0953 96.7944 33.1324C96.8096 33.1694 96.832 33.2031 96.8603 33.2315C96.8886 33.2599 96.9222 33.2824 96.9592 33.2978C96.9962 33.3132 97.0359 33.3212 97.076 33.3212H99.6943C99.7754 33.3212 99.8531 33.2889 99.9104 33.2316C99.9677 33.1743 100 33.0966 100 33.0155V30.3984C99.9998 30.3174 99.9675 30.2397 99.9102 30.1825C99.8529 30.1252 99.7753 30.0929 99.6943 30.0927V30.0927Z" fill="#1F7A3A"/>
<path d="M99.6943 34.5545H97.076C96.9951 34.5548 96.9176 34.5872 96.8605 34.6445C96.8035 34.7018 96.7714 34.7794 96.7714 34.8602V37.4774C96.7713 37.5175 96.7791 37.5572 96.7944 37.5942C96.8096 37.6313 96.832 37.665 96.8603 37.6934C96.8886 37.7218 96.9222 37.7443 96.9592 37.7597C96.9962 37.7751 97.0359 37.7831 97.076 37.7831H99.6943C99.7754 37.7831 99.8531 37.7508 99.9104 37.6935C99.9677 37.6362 100 37.5585 100 37.4774V34.8602C99.9998 34.7792 99.9675 34.7016 99.9102 34.6443C99.8529 34.5871 99.7753 34.5548 99.6943 34.5545V34.5545Z" fill="#E6E6E6"/>
<path d="M99.6943 39.0164H97.076C97.0359 39.0165 96.9962 39.0244 96.9592 39.0398C96.9222 39.0552 96.8886 39.0777 96.8603 39.1061C96.832 39.1345 96.8096 39.1682 96.7944 39.2053C96.7791 39.2423 96.7713 39.282 96.7714 39.3221V41.9393C96.7713 41.9794 96.7791 42.0191 96.7944 42.0561C96.8096 42.0932 96.832 42.1269 96.8603 42.1553C96.8886 42.1837 96.9222 42.2062 96.9592 42.2216C96.9962 42.237 97.0359 42.2449 97.076 42.245H99.6943C99.7754 42.2449 99.8531 42.2127 99.9104 42.1554C99.9677 42.0981 100 42.0203 100 41.9393V39.3221C100 39.2411 99.9677 39.1633 99.9104 39.106C99.8531 39.0487 99.7754 39.0165 99.6943 39.0164V39.0164Z" fill="#E6E6E6"/>
<path d="M39.5156 77.6039H39.4427L39.505 77.5957L39.5156 77.6039Z" fill="#2F2E41"/>
<path d="M33.2512 28.8117C37.6876 28.8117 41.284 25.2153 41.284 20.7789C41.284 16.3426 37.6876 12.7462 33.2512 12.7462C28.8148 12.7462 25.2184 16.3426 25.2184 20.7789C25.2184 25.2153 28.8148 28.8117 33.2512 28.8117Z" fill="#FFB6B6"/>
<path d="M40.2858 14.8894C40.2858 14.8894 42.3867 10.8731 37.7646 10.5079C37.7646 10.5079 33.8241 6.93345 29.8078 9.85445C29.8078 9.85445 27.617 9.85445 26.419 12.3336C26.419 12.3336 24.696 11.6801 24.3173 13.4289C24.3173 13.4289 23.0566 17.0802 24.3173 20.3663C25.5781 23.6525 25.9969 24.0176 25.9969 24.0176C25.9969 24.0176 23.9252 17.128 28.968 16.7629C34.0107 16.3978 39.6537 13.2464 40.074 17.2628C40.4943 21.2791 41.1267 22.2687 41.1267 22.2687C41.1267 22.2687 45.1182 16.5325 40.2858 14.8894Z" fill="#2F2E41"/>
<path d="M54.0303 40.5754L54.0044 40.7118L53.714 42.245L51.707 52.85L51.5883 53.4743L51.339 54.7947L50.9981 56.5959L50.2421 60.5875L50.0257 61.7315L49.9446 62.1606L49.9164 62.3111L49.6918 63.4951L49.6236 63.8525L49.0758 67.9123L48.5972 71.45L50.1986 73.0513L49.2439 74.006L48.6172 77.5955L48.6184 77.6038H23.0428C22.0082 76.9336 20.9884 76.2427 19.9836 75.531L20.194 73.9555C20.194 73.9555 20.9183 71.142 20.6138 70.8057C20.3104 70.4695 19.645 69.8687 19.645 69.8687L20.4833 67.9123L20.5997 67.6407L20.4045 63.5926L20.3998 63.4951L20.3351 62.1606L20.3269 61.9889L20.314 61.7315L20.0659 56.5959L20.0612 56.5112L19.986 54.9546L19.9154 53.4743L19.8848 52.85L19.5827 46.6034L19.3781 42.3614L19.1994 38.6684L19.9178 38.425L27.6011 35.8137L30.7838 31.6764L37.4079 31.7257L40.6505 31.7504L46.0612 36.7684L47.2922 37.3563L47.3016 37.361L48.1846 37.7831L50.4231 38.8518L52.7899 39.9829L54.0044 40.5625L54.0303 40.5754Z" fill="#CACACA"/>
<path d="M31.6398 65.5527C31.1544 65.7408 30.6337 65.8201 30.1143 65.7851C29.5949 65.7502 29.0895 65.6017 28.6337 65.3503C28.1779 65.0989 27.7827 64.7506 27.4761 64.3299C27.1694 63.9092 26.9588 63.4265 26.8589 62.9156L14.3305 61.1381L18.6857 56.2116L29.9152 58.6548C30.7846 58.5439 31.6644 58.7557 32.3881 59.2502C33.1117 59.7447 33.6288 60.4874 33.8414 61.3377C34.054 62.188 33.9473 63.0867 33.5415 63.8635C33.1358 64.6404 32.4591 65.2414 31.6398 65.5527V65.5527Z" fill="#FFB6B6"/>
<path d="M26.0539 56.5959C25.8218 56.3017 25.4933 56.0989 25.1262 56.0233L19.986 54.9546L19.4581 54.8452C19.1513 54.7812 18.8614 54.6531 18.6076 54.4694C18.3537 54.2856 18.1415 54.0503 17.9849 53.7788C17.8224 53.4939 17.7241 53.1769 17.6968 52.85C17.6723 52.5528 17.7079 52.2537 17.8014 51.9706L19.5827 46.6034L20.7384 43.1209C20.8785 42.7009 20.9611 42.2639 20.9841 41.8217C21.0485 40.5981 20.6699 39.3923 19.9177 38.4251C19.2564 37.5749 18.3392 36.96 17.3016 36.6712C16.2639 36.3824 15.1609 36.4351 14.1555 36.8213C14.1261 36.8319 14.0955 36.8437 14.0662 36.8554C13.3451 37.1434 12.7009 37.595 12.1845 38.1747C11.668 38.7544 11.2934 39.4463 11.0904 40.1957L9.83472 44.7634L7.24459 54.1798C6.98531 55.1232 6.93293 56.1115 7.09103 57.0771C7.24914 58.0427 7.61399 58.9627 8.16063 59.7741C8.70727 60.5856 9.42279 61.2694 10.2582 61.7787C11.0936 62.288 12.0292 62.6108 13.0009 62.7249L20.4045 63.5926L23.8306 63.9947C24.2267 64.0423 24.6263 63.9389 24.9496 63.7051C25.273 63.4714 25.4964 63.1243 25.5753 62.7332C25.5809 62.7119 25.5852 62.6903 25.5883 62.6685L25.6706 62.1606L26.3678 57.8833L26.3748 57.8398C26.4112 57.6215 26.4014 57.3981 26.3461 57.1839C26.2908 56.9696 26.1913 56.7693 26.0539 56.5959Z" fill="#CACACA"/>
<path d="M39.6199 65.6898C40.127 65.8076 40.6537 65.8127 41.163 65.7048C41.6723 65.5969 42.1517 65.3787 42.5675 65.0655C42.9833 64.7523 43.3254 64.3518 43.5696 63.8921C43.8139 63.4324 43.9544 62.9247 43.9812 62.4048L56.1338 58.8784L51.1273 54.6153L40.3546 58.6176C39.4783 58.6304 38.637 58.9642 37.9904 59.5558C37.3437 60.1474 36.9365 60.9557 36.846 61.8274C36.7554 62.6992 36.9878 63.5738 37.499 64.2857C38.0103 64.9976 38.7649 65.4972 39.6199 65.6899V65.6898Z" fill="#FFB6B6"/>
<path d="M62.1675 50.99L56.3876 37.6879C55.9148 36.5958 55.0705 35.7064 54.0044 35.1777C53.6749 35.0154 53.3288 34.8893 52.9721 34.8015C52.9169 34.7873 52.8616 34.7744 52.8063 34.7638C52.0501 34.5988 51.2657 34.6133 50.516 34.8062C49.8308 34.9822 49.1903 35.3007 48.6365 35.7409C48.0826 36.1811 47.6278 36.7332 47.3016 37.361C47.298 37.3662 47.2949 37.3717 47.2922 37.3775C46.9279 38.0823 46.7341 38.8628 46.7266 39.6561C46.719 40.4495 46.8978 41.2336 47.2487 41.9452L47.3204 42.0886L51.4049 50.2916C51.5443 50.5722 51.6229 50.879 51.6355 51.192C51.648 51.505 51.5942 51.8171 51.4777 52.1079C51.3611 52.3987 51.1844 52.6615 50.9591 52.8792C50.7338 53.0968 50.465 53.2644 50.1704 53.3709L49.8835 53.4743L44.7244 55.3379C44.3373 55.476 44.0189 55.759 43.8362 56.1272C43.6535 56.4954 43.6208 56.9201 43.745 57.3119L43.7579 57.3531L45.2041 61.9807C45.2111 62.0019 45.2182 62.023 45.2264 62.0442C45.2391 62.0841 45.2549 62.123 45.2734 62.1606C45.4271 62.5053 45.6988 62.7838 46.0396 62.9461C46.3803 63.1084 46.7678 63.1438 47.1323 63.0459L49.9164 62.3111L50.4843 62.1606L57.6738 60.2618C58.6198 60.0118 59.5007 59.5604 60.256 58.9384C61.0113 58.3163 61.6233 57.5384 62.05 56.6579C62.4768 55.7774 62.7082 54.8151 62.7285 53.8368C62.7487 52.8585 62.5574 51.8875 62.1675 50.99L62.1675 50.99Z" fill="#CACACA"/>
<path d="M5.27878 62.1606C6.94483 64.1927 8.74163 66.114 10.6577 67.9123H63.797C64.309 67.9131 64.7998 68.1169 65.1617 68.479C65.5236 68.8411 65.7271 69.332 65.7276 69.844L65.804 83.3096C69.0731 81.8076 72.1345 79.8898 74.9124 77.6038C75.6836 76.9701 76.431 76.3089 77.1545 75.6203C77.6283 75.1712 78.0907 74.7111 78.5418 74.24C81.9237 70.717 84.6622 66.6287 86.6332 62.1606H5.27878Z" fill="#3F3D56"/>
<path d="M78.5418 74.24C78.0915 74.7115 77.6291 75.1716 77.1545 75.6203H65.8428V74.24H78.5418Z" fill="white"/>
<path d="M53.9245 30.0927C53.8686 29.9895 53.7859 29.9034 53.6851 29.8434C53.5843 29.7834 53.4692 29.7517 53.3519 29.7517H14.8069C14.6341 29.7522 14.4685 29.8211 14.3464 29.9434C14.2243 30.0657 14.1557 30.2314 14.1555 30.4042V53.4743H54.0044V30.4042C54.005 30.2952 53.9775 30.1879 53.9245 30.0927V30.0927Z" fill="#3F3D56"/>
<path d="M14.1206 52.8497V55.6966C14.1206 55.8146 14.1439 55.9315 14.189 56.0405C14.2342 56.1496 14.3004 56.2487 14.3838 56.3321C14.4673 56.4156 14.5664 56.4818 14.6754 56.5269C14.7844 56.5721 14.9013 56.5953 15.0193 56.5953H29.7273V62.2137H29.5319C29.5165 62.2137 29.5014 62.2168 29.4872 62.2226C29.473 62.2285 29.4602 62.2371 29.4493 62.2479C29.4385 62.2588 29.4299 62.2716 29.424 62.2858C29.4181 62.3 29.4151 62.3151 29.4151 62.3305V62.7213C29.4151 62.7366 29.4181 62.7518 29.424 62.7659C29.4299 62.7801 29.4385 62.793 29.4493 62.8038C29.4602 62.8147 29.473 62.8233 29.4872 62.8291C29.5014 62.835 29.5165 62.838 29.5319 62.838H38.6624C38.6777 62.838 38.6929 62.835 38.7071 62.8291C38.7212 62.8233 38.7341 62.8147 38.7449 62.8038C38.7558 62.793 38.7644 62.7801 38.7702 62.7659C38.7761 62.7518 38.7791 62.7366 38.7791 62.7213V62.3305C38.7791 62.3151 38.7761 62.3 38.7702 62.2858C38.7644 62.2716 38.7558 62.2588 38.7449 62.2479C38.7341 62.2371 38.7212 62.2285 38.7071 62.2226C38.6929 62.2168 38.6777 62.2137 38.6624 62.2137H38.467V56.5953H53.1749C53.293 56.5953 53.4098 56.5721 53.5189 56.5269C53.6279 56.4818 53.727 56.4156 53.8104 56.3321C53.8939 56.2487 53.9601 56.1496 54.0052 56.0405C54.0504 55.9315 54.0736 55.8146 54.0736 55.6966V52.8497H14.1206Z" fill="#3F3D56"/>
<path d="M33.6144 44.6788C35.6472 44.6788 37.2951 43.0309 37.2951 40.998C37.2951 38.9652 35.6472 37.3172 33.6144 37.3172C31.5815 37.3172 29.9336 38.9652 29.9336 40.998C29.9336 43.0309 31.5815 44.6788 33.6144 44.6788Z" fill="#1F7A3A"/>
<path d="M42.9926 20.34H42.4047C42.4047 15.8958 38.0063 12.9835 33.5691 12.9811C32.9237 12.9793 32.2797 13.0419 31.6468 13.1681C30.9343 13.3103 30.1948 13.4808 29.4682 13.703C26.6029 14.5813 23.9458 16.2791 23.9458 20.34C23.9452 21.1287 24.0455 21.9142 24.2444 22.6774L23.6754 22.8255C23.4643 22.0139 23.3576 21.1786 23.3579 20.34C23.3579 16.7917 24.8147 14.3544 27.3307 12.9012C28.6534 12.137 30.2677 11.6443 32.1171 11.4045C32.8867 11.3021 33.6647 11.2785 34.4391 11.334C39.5418 11.7008 42.9926 15.6136 42.9926 20.34Z" fill="#1F7A3A"/>
<path d="M43.9719 20.6657L43.7403 18.9538C43.6832 18.5215 43.4749 18.1234 43.1524 17.8298C42.9454 17.6385 42.6976 17.4967 42.4277 17.4152C42.1578 17.3338 41.8729 17.3147 41.5946 17.3595L41.2266 17.4101C41.1259 17.4234 41.0288 17.4565 40.9411 17.5075C40.8533 17.5586 40.7765 17.6266 40.7152 17.7076C40.6533 17.7883 40.6081 17.8804 40.5821 17.9787C40.556 18.077 40.5497 18.1794 40.5635 18.2801L41.0985 22.2235C41.1205 22.3843 41.1925 22.534 41.3044 22.6515C41.4162 22.769 41.5622 22.8484 41.7216 22.8784C41.7688 22.8879 41.8169 22.8926 41.865 22.8925C41.8996 22.8925 41.9342 22.8902 41.9685 22.8855L42.38 22.8302C42.6309 22.7969 42.8723 22.7127 43.0895 22.5827C43.3066 22.4527 43.4949 22.2796 43.6427 22.0742C43.6745 22.0295 43.705 21.9837 43.7333 21.9366C43.9536 21.5519 44.0377 21.1041 43.9719 20.6657Z" fill="#1F7A3A"/>
<path d="M40.9891 17.4818C40.8812 17.5343 40.7873 17.6116 40.7152 17.7076C40.6533 17.7883 40.6081 17.8804 40.5821 17.9787C40.556 18.077 40.5497 18.1794 40.5635 18.2801L41.0985 22.2235C41.1205 22.3843 41.1925 22.534 41.3044 22.6515C41.4162 22.769 41.5622 22.8484 41.7216 22.8784L40.9891 17.4818Z" fill="white"/>
<path d="M43.9719 20.6657L43.7403 18.9538C43.6832 18.5215 43.4749 18.1234 43.1525 17.8298L43.6851 21.7532C43.693 21.8162 43.7092 21.8779 43.7333 21.9366C43.9536 21.5519 44.0377 21.1041 43.9719 20.6657V20.6657Z" fill="#3F3D56"/>
<path d="M42.1414 21.8991C42.3022 21.8773 42.3831 21.4945 42.322 21.0441C42.2609 20.5936 42.081 20.2462 41.9201 20.268C41.7592 20.2899 41.6784 20.6727 41.7395 21.1231C41.8006 21.5735 41.9805 21.9209 42.1414 21.8991Z" fill="#3F3D56"/>
<path d="M41.7886 19.7828C41.9495 19.761 42.0304 19.3782 41.9693 18.9278C41.9082 18.4773 41.7282 18.1299 41.5674 18.1517C41.4065 18.1735 41.3256 18.5564 41.3867 19.0068C41.4478 19.4572 41.6278 19.8046 41.7886 19.7828Z" fill="#3F3D56"/>
<path d="M44.0225 20.6058C44.1834 20.584 44.2643 20.2012 44.2032 19.7508C44.1421 19.3003 43.9621 18.9529 43.8013 18.9747C43.6404 18.9966 43.5595 19.3794 43.6206 19.8298C43.6817 20.2802 43.8617 20.6276 44.0225 20.6058Z" fill="#3F3D56"/>
<path d="M33.5691 12.9811C32.9237 12.9793 32.2797 13.0419 31.6468 13.1681C30.9343 13.3103 30.1948 13.4808 29.4682 13.703C28.3336 13.6478 27.4988 13.3538 27.3307 12.9012C28.6534 12.137 30.2677 11.6443 32.1171 11.4045C32.8867 11.3021 33.6647 11.2785 34.4391 11.334C34.5211 11.382 34.592 11.4469 34.6471 11.5243C34.7022 11.6017 34.7403 11.6899 34.7589 11.7831C34.8142 12.1922 34.3474 12.6272 33.5691 12.9811Z" fill="#3F3D56"/>
<path d="M26.0633 24.4198L25.158 20.6563C25.1257 20.5205 25.054 20.3973 24.9519 20.3021C24.8498 20.2069 24.7219 20.144 24.5842 20.1213C24.5453 20.1153 24.506 20.1121 24.4666 20.1119C24.4112 20.1121 24.3559 20.1188 24.302 20.1319L23.9517 20.2166C23.5006 20.3257 23.1112 20.6093 22.8689 21.0051C22.6267 21.401 22.5514 21.8768 22.6595 22.3282L23.0652 24.0165C23.1578 24.414 23.3784 24.7701 23.693 25.03C23.744 25.0711 23.7974 25.1092 23.8529 25.144C24.05 25.2676 24.2698 25.3503 24.4994 25.3875C24.729 25.4246 24.9637 25.4154 25.1897 25.3604L25.5389 25.2757C25.6312 25.2542 25.7181 25.2137 25.794 25.157C25.9069 25.0746 25.9928 24.9606 26.0408 24.8293C26.0887 24.6981 26.0966 24.5555 26.0633 24.4198Z" fill="#1F7A3A"/>
<path d="M24.1654 23.7195C24.3232 23.6816 24.3649 23.2925 24.2586 22.8506C24.1522 22.4087 23.9381 22.0812 23.7803 22.1192C23.6224 22.1572 23.5807 22.5462 23.687 22.9881C23.7934 23.4301 24.0075 23.7575 24.1654 23.7195Z" fill="#3F3D56"/>
<path d="M22.9897 24.0723C23.1475 24.0343 23.1892 23.6452 23.0829 23.2033C22.9765 22.7614 22.7624 22.4339 22.6045 22.4719C22.4467 22.5099 22.405 22.8989 22.5113 23.3409C22.6177 23.7828 22.8318 24.1102 22.9897 24.0723Z" fill="#3F3D56"/>
<path d="M26.1209 24.4057L25.2156 20.6422C25.1803 20.4953 25.1025 20.362 24.9918 20.2591C24.8812 20.1562 24.7427 20.0883 24.5936 20.0637L25.8293 25.204C25.9513 25.1146 26.0442 24.9911 26.0961 24.849C26.1479 24.7069 26.1566 24.5527 26.1209 24.4057V24.4057Z" fill="white"/>
<path d="M22.8641 21.5828C22.8391 21.4781 22.7922 21.3799 22.7266 21.2947C22.5993 21.6243 22.5759 21.9849 22.6595 22.3282L23.0652 24.0165C23.1578 24.414 23.3784 24.7701 23.693 25.03L22.8641 21.5828Z" fill="#3F3D56"/>
</g>
<defs>
<clipPath id="clip0_8_335">
<rect width="100" height="87.1013" fill="white"/>
</clipPath>
</defs>
</svg>
