<svg width="100" height="73" viewBox="0 0 100 73" fill="none" xmlns="http://www.w3.org/2000/svg">
<g clip-path="url(#clip0_8_336)">
<path opacity="0.1" d="M98.3056 58.128C95.8288 63.2393 90.7968 66.657 85.5839 68.911C81.4102 70.7037 76.9983 71.881 72.4863 72.4061C71.6222 72.5087 70.7552 72.5883 69.8855 72.6449C67.663 72.7897 65.4334 72.7872 63.2113 72.6374C61.8747 72.5485 60.5427 72.4065 59.2154 72.2112C54.6034 71.5384 50.107 70.2291 45.8549 68.3207C44.6276 67.768 43.4253 67.1646 42.2478 66.5106C40.2811 65.4205 38.3967 64.1882 36.6097 62.8234C36.2143 62.5212 35.8238 62.2125 35.4384 61.8973L35.2799 61.7677C34.9768 61.5178 34.6765 61.2623 34.3716 61.0142C33.8647 60.5897 33.3267 60.2037 32.762 59.8598C32.7238 59.8374 32.6855 59.815 32.6464 59.7935C32.5419 59.7329 32.4356 59.676 32.3274 59.622C32.1046 59.5096 31.8761 59.4088 31.643 59.3198C30.5659 58.9095 29.4123 58.7603 28.2429 58.7855C28.0489 58.7855 27.855 58.7985 27.6601 58.8116C27.3878 58.8302 27.1145 58.8582 26.8422 58.8936L26.7415 58.9076C25.8738 59.0304 25.0159 59.2146 24.1742 59.4588C22.8743 59.8318 21.5976 60.298 20.3126 60.7186C19.7671 60.8986 19.2206 61.0702 18.6695 61.2241L18.5482 61.2576C17.7644 61.4781 16.9665 61.6451 16.16 61.7575C14.3273 61.9918 12.4659 61.8419 10.6944 61.3173L10.6328 61.2996L10.5191 61.266L10.3633 61.2175C10.1022 61.1355 9.84327 61.0456 9.58651 60.948L9.43078 60.8883C9.1821 60.7926 8.93871 60.6897 8.7006 60.5797L8.54487 60.5088C8.29619 60.3932 8.0528 60.271 7.81469 60.1423C7.72889 60.0975 7.64403 60.0491 7.5601 60.0034C7.30645 59.8616 7.05777 59.713 6.81407 59.5576C6.55545 59.3929 6.30242 59.221 6.05498 59.0419C5.94059 58.9598 5.82744 58.8756 5.71554 58.7892C5.07045 58.2958 4.46637 57.751 3.90921 57.16C3.87843 57.1293 3.84953 57.0976 3.82062 57.0668C3.67234 56.9064 3.52687 56.7432 3.38605 56.5763C3.33383 56.5147 3.28161 56.4532 3.23032 56.3898C3.06308 56.1859 2.90175 55.9773 2.74633 55.764C2.72302 55.7333 2.70064 55.7016 2.67826 55.6708C2.04109 54.7896 1.51285 53.8346 1.10506 52.8265C1.092 52.7958 1.07988 52.764 1.06869 52.7333C0.944352 52.4131 0.830893 52.0876 0.728314 51.7569C0.686349 51.6189 0.64625 51.4771 0.610813 51.3391C0.59869 51.2981 0.5875 51.2561 0.577242 51.2151C0.0624796 49.1887 0.00372982 47.0821 0.00372982 44.9876C0.00372982 44.7433 0.00372982 44.4993 0.00372982 44.2556C0.0186505 40.8676 0.0708725 37.4219 0.570714 34.0806C0.570714 34.0573 0.577242 34.034 0.580972 34.0116C0.748266 32.8868 0.975823 31.7717 1.26266 30.6712C1.56286 29.5166 1.94652 28.3852 2.41062 27.2861C3.56044 24.5818 5.23248 22.1208 7.08917 19.8398C9.32727 17.0953 11.8918 14.5625 14.7481 12.4727C15.1584 12.1724 15.5744 11.8809 15.9959 11.598L16.1908 11.4702C16.2588 11.4245 16.3269 11.377 16.395 11.3369C16.5349 11.2436 16.6748 11.156 16.8165 11.0674L16.975 10.9685L17.2772 10.782L17.3704 10.7289L17.5318 10.6356L17.6912 10.5424C17.8777 10.4323 18.0664 10.3248 18.2573 10.2197C19.0723 9.76525 19.9066 9.34996 20.7602 8.97383C21.012 8.86255 21.2653 8.75531 21.5202 8.65211C22.6775 8.18079 23.8662 7.79097 25.0779 7.4855C25.5255 7.37235 25.9759 7.27288 26.4291 7.18709C26.9638 7.08389 27.5012 6.9984 28.0415 6.93064C28.9012 6.82247 29.7658 6.75804 30.6321 6.7376C36.7234 6.58933 42.8763 8.57191 47.65 12.372C49.5524 13.8865 51.2617 15.6797 53.3982 16.8407C55.2633 17.8516 57.4463 18.2703 59.4438 17.4749C61.0944 16.8174 62.1687 16.491 64.0226 16.5908C67.8588 16.8069 71.6407 17.5978 75.242 18.9371C75.3875 18.9902 75.533 19.0453 75.6775 19.1003C85.0691 22.6952 93.144 29.8338 97.3385 39.0072C97.4492 39.2497 97.5571 39.494 97.6621 39.7402C100.164 45.5826 101.067 52.4321 98.3056 58.128Z" fill="#1F7A3A"/>
<path opacity="0.1" d="M18.6667 25.8677V61.2259L18.5454 61.2595C17.7616 61.48 16.9637 61.647 16.1572 61.7593C14.3245 61.9936 12.4631 61.8437 10.6916 61.3192L10.63 61.3015L10.5163 61.2679L10.3605 61.2194C10.0994 61.1373 9.84047 61.0475 9.58372 60.9499L9.42798 60.8902C9.1793 60.7945 8.93591 60.6916 8.6978 60.5815L8.54207 60.5107C8.29339 60.395 8.05 60.2729 7.81189 60.1442C7.7261 60.0994 7.64123 60.0509 7.5573 60.0052C7.30365 59.8635 7.05498 59.7149 6.81127 59.5595C6.55265 59.3947 6.29962 59.2228 6.05219 59.0438C5.93779 58.9617 5.82465 58.8775 5.71274 58.7911C5.06765 58.2976 4.46357 57.7528 3.90641 57.1619C3.87564 57.1311 3.84673 57.0994 3.81782 57.0687C3.66955 56.9083 3.52407 56.7451 3.38326 56.5781C3.33103 56.5166 3.27881 56.455 3.22752 56.3916C3.06029 56.1877 2.89896 55.9791 2.74353 55.7659C2.72022 55.7351 2.69784 55.7034 2.67546 55.6726C2.03829 54.7915 1.51005 53.8364 1.10226 52.8284C1.08921 52.7976 1.07708 52.7659 1.06589 52.7351C0.941555 52.415 0.828096 52.0895 0.725516 51.7588C0.683552 51.6208 0.643453 51.479 0.608016 51.341C0.595893 51.3 0.584703 51.258 0.574445 51.217C0.0596825 49.1906 0.000932693 47.084 0.000932693 44.9895C0.000932693 44.7451 0.000932693 44.5011 0.000932693 44.2574C0.0158533 40.8695 0.0680754 37.4238 0.567917 34.0825C0.567917 34.0592 0.574445 34.0359 0.578175 34.0135C0.745469 32.8886 0.973025 31.7736 1.25986 30.6731H10.783V25.8677H12.6816V22.0079H16.768V25.8677H18.6667Z" fill="#1F7A3A"/>
<path opacity="0.1" d="M98.3056 58.128C95.8288 63.2393 90.7968 66.657 85.5839 68.911C81.4102 70.7037 76.9983 71.881 72.4863 72.4061C71.6222 72.5087 70.7552 72.5883 69.8855 72.6449C67.663 72.7897 65.4334 72.7872 63.2113 72.6374C61.8747 72.5485 60.5427 72.4065 59.2154 72.2112C54.6034 71.5384 50.107 70.2291 45.8549 68.3207C44.6276 67.768 43.4253 67.1646 42.2478 66.5106C40.2811 65.4205 38.3967 64.1882 36.6097 62.8234C36.2143 62.5212 35.8238 62.2125 35.4384 61.8973L35.2799 61.7677C34.9768 61.5178 34.6765 61.2623 34.3716 61.0142C33.8647 60.5896 33.3267 60.2037 32.762 59.8597C32.7238 59.8374 32.6855 59.815 32.6464 59.7935C32.5419 59.7329 32.4356 59.676 32.3274 59.6219C32.1046 59.5096 31.8761 59.4088 31.643 59.3198V44.8552H48.95V48.0752H56.5455V24.5211H65.4858V33.9398H69.9079V28.3632H73.5616V22.4061H75.2401V18.9371C75.3856 18.9902 75.5311 19.0453 75.6756 19.1003V22.4061H77.3094V28.3669H80.9603V33.9435H86.3439V55.1896H94.9009V39.7383H97.6584C100.164 45.5826 101.067 52.4321 98.3056 58.128Z" fill="#1F7A3A"/>
<path opacity="0.1" d="M63.2132 28.0657H59.2172V32.0617H63.2132V28.0657Z" fill="#1F7A3A"/>
<path opacity="0.1" d="M63.2132 36.3485H59.2172V40.3445H63.2132V36.3485Z" fill="#1F7A3A"/>
<path opacity="0.1" d="M63.2132 44.6323H59.2172V48.6282H63.2132V44.6323Z" fill="#1F7A3A"/>
<path opacity="0.1" d="M63.2132 52.916H59.2172V56.912H63.2132V52.916Z" fill="#1F7A3A"/>
<path opacity="0.1" d="M63.2132 61.1989H59.2172V65.1948H63.2132V61.1989Z" fill="#1F7A3A"/>
<path opacity="0.1" d="M63.2132 69.4808V72.6365C61.8765 72.5476 60.5445 72.4055 59.2172 72.2103V69.4808H63.2132Z" fill="#1F7A3A"/>
<path opacity="0.1" d="M46.9478 50.0196H32.9606V51.8297H46.9478V50.0196Z" fill="#1F7A3A"/>
<path opacity="0.1" d="M46.9478 55.5169H32.9606V57.327H46.9478V55.5169Z" fill="#1F7A3A"/>
<path opacity="0.1" d="M46.9478 61.0142V62.8234H36.6115C36.2161 62.5212 35.8257 62.2125 35.4403 61.8973L35.2817 61.7677C34.9786 61.5178 34.6784 61.2623 34.3734 61.0142H46.9478Z" fill="#1F7A3A"/>
<path opacity="0.1" d="M46.9478 66.5106V68.3207H45.8567C44.6295 67.768 43.4272 67.1646 42.2497 66.5106H46.9478Z" fill="#1F7A3A"/>
<path opacity="0.1" d="M72.4882 38.886H69.8874V41.4868H72.4882V38.886Z" fill="#1F7A3A"/>
<path opacity="0.1" d="M16.1628 26.7648H13.5619V29.3657H16.1628V26.7648Z" fill="#1F7A3A"/>
<path opacity="0.1" d="M16.1628 32.8077H13.5619V35.4085H16.1628V32.8077Z" fill="#1F7A3A"/>
<path opacity="0.1" d="M16.1628 38.8496H13.5619V41.4505H16.1628V38.8496Z" fill="#1F7A3A"/>
<path opacity="0.1" d="M16.1628 44.8925H13.5619V47.4933H16.1628V44.8925Z" fill="#1F7A3A"/>
<path opacity="0.1" d="M16.1628 50.9353H13.5619V53.5362H16.1628V50.9353Z" fill="#1F7A3A"/>
<path opacity="0.1" d="M16.1628 56.9773H13.5619V59.5781H16.1628V56.9773Z" fill="#1F7A3A"/>
<path opacity="0.1" d="M82.4188 38.886H79.818V41.4868H82.4188V38.886Z" fill="#1F7A3A"/>
<path opacity="0.1" d="M72.4882 45.3019H69.8874V47.9027H72.4882V45.3019Z" fill="#1F7A3A"/>
<path opacity="0.1" d="M82.4188 45.3019H79.818V47.9027H82.4188V45.3019Z" fill="#1F7A3A"/>
<path opacity="0.1" d="M72.4882 51.7187H69.8874V54.3195H72.4882V51.7187Z" fill="#1F7A3A"/>
<path opacity="0.1" d="M82.4188 51.7187H79.818V54.3195H82.4188V51.7187Z" fill="#1F7A3A"/>
<path opacity="0.1" d="M72.4882 58.1355H69.8874V60.7363H72.4882V58.1355Z" fill="#1F7A3A"/>
<path opacity="0.1" d="M82.4188 58.1355H79.818V60.7363H82.4188V58.1355Z" fill="#1F7A3A"/>
<path opacity="0.1" d="M72.4882 64.5514H69.8874V67.1522H72.4882V64.5514Z" fill="#1F7A3A"/>
<path opacity="0.1" d="M82.4188 64.5514H79.818V67.1522H82.4188V64.5514Z" fill="#1F7A3A"/>
<path opacity="0.1" d="M69.8874 72.6449V70.9672H72.4882V72.4061L69.8874 72.6449Z" fill="#1F7A3A"/>
<path opacity="0.1" d="M0.56885 34.0144V35.5065H10.5163V34.0144H0.56885ZM1.45476 35.4132H0.724584V34.1077H1.45476V35.4132ZM2.34068 35.4132H1.6105V34.1077H2.34068V35.4132ZM3.22659 35.4132H2.49641V34.1077H3.22659V35.4132ZM4.1125 35.4132H3.38232V34.1077H4.1125V35.4132ZM4.99841 35.4132H4.26824V34.1077H4.99841V35.4132ZM5.88433 35.4132H5.15415V34.1077H5.88433V35.4132ZM6.77024 35.4132H6.04006V34.1077H6.77024V35.4132ZM7.65615 35.4132H6.92598V34.1077H7.65615V35.4132ZM8.54207 35.4132H7.81189V34.1077H8.54207V35.4132ZM9.42798 35.4132H8.6978V34.1077H9.42798V35.4132ZM10.3605 35.4132H9.58371V34.1077H10.3605V35.4132Z" fill="#1F7A3A"/>
<path opacity="0.1" d="M0.56885 38.347V39.8344H10.5163V38.347H0.56885ZM1.45476 39.7411H0.724584V38.4402H1.45476V39.7411ZM2.34068 39.7411H1.6105V38.4402H2.34068V39.7411ZM3.22659 39.7411H2.49641V38.4402H3.22659V39.7411ZM4.1125 39.7411H3.38232V38.4402H4.1125V39.7411ZM4.99841 39.7411H4.26824V38.4402H4.99841V39.7411ZM5.88433 39.7411H5.15415V38.4402H5.88433V39.7411ZM6.77024 39.7411H6.04006V38.4402H6.77024V39.7411ZM7.65615 39.7411H6.92598V38.4402H7.65615V39.7411ZM8.54207 39.7411H7.81189V38.4402H8.54207V39.7411ZM9.42798 39.7411H8.6978V38.4402H9.42798V39.7411ZM10.3605 39.7411H9.58371V38.4402H10.3605V39.7411Z" fill="#1F7A3A"/>
<path opacity="0.1" d="M0.56885 42.6786V44.166H10.5163V42.6786H0.56885ZM1.45476 44.0728H0.724584V42.7719H1.45476V44.0728ZM2.34068 44.0728H1.6105V42.7719H2.34068V44.0728ZM3.22659 44.0728H2.49641V42.7719H3.22659V44.0728ZM4.1125 44.0728H3.38232V42.7719H4.1125V44.0728ZM4.99841 44.0728H4.26824V42.7719H4.99841V44.0728ZM5.88433 44.0728H5.15415V42.7719H5.88433V44.0728ZM6.77024 44.0728H6.04006V42.7719H6.77024V44.0728ZM7.65615 44.0728H6.92598V42.7719H7.65615V44.0728ZM8.54207 44.0728H7.81189V42.7719H8.54207V44.0728ZM9.42798 44.0728H8.6978V42.7719H9.42798V44.0728ZM10.3605 44.0728H9.58371V42.7719H10.3605V44.0728Z" fill="#1F7A3A"/>
<path opacity="0.1" d="M0.56885 47.0065V48.4986H10.5163V47.0065H0.56885ZM1.45476 48.4054H0.724584V47.0998H1.45476V48.4054ZM2.34068 48.4054H1.6105V47.0998H2.34068V48.4054ZM3.22659 48.4054H2.49641V47.0998H3.22659V48.4054ZM4.1125 48.4054H3.38232V47.0998H4.1125V48.4054ZM4.99841 48.4054H4.26824V47.0998H4.99841V48.4054ZM5.88433 48.4054H5.15415V47.0998H5.88433V48.4054ZM6.77024 48.4054H6.04006V47.0998H6.77024V48.4054ZM7.65615 48.4054H6.92598V47.0998H7.65615V48.4054ZM8.54207 48.4054H7.81189V47.0998H8.54207V48.4054ZM9.42798 48.4054H8.6978V47.0998H9.42798V48.4054ZM10.3605 48.4054H9.58371V47.0998H10.3605V48.4054Z" fill="#1F7A3A"/>
<path opacity="0.1" d="M0.607083 51.3419C0.64252 51.4818 0.682619 51.6217 0.724584 51.7597V51.4352H1.45476V52.7407H1.06496C1.07615 52.7715 1.08827 52.8032 1.10133 52.834H10.52V51.3419H0.607083ZM2.34068 52.7407H1.6105V51.4352H2.34068V52.7407ZM3.22659 52.7407H2.49641V51.4352H3.22659V52.7407ZM4.1125 52.7407H3.38232V51.4352H4.1125V52.7407ZM4.99841 52.7407H4.26824V51.4352H4.99841V52.7407ZM5.88433 52.7407H5.15415V51.4352H5.88433V52.7407ZM6.77024 52.7407H6.04006V51.4352H6.77024V52.7407ZM7.65615 52.7407H6.92598V51.4352H7.65615V52.7407ZM8.54207 52.7407H7.81189V51.4352H8.54207V52.7407ZM9.42798 52.7407H8.6978V51.4352H9.42798V52.7407ZM10.3605 52.7407H9.58371V51.4352H10.3605V52.7407Z" fill="#1F7A3A"/>
<path opacity="0.1" d="M2.67453 55.6736C2.69691 55.7044 2.71929 55.7361 2.7426 55.7668H3.22659V56.3926C3.27788 56.4551 3.3301 56.5166 3.38232 56.5791V55.7678H4.1125V57.0733H3.81689C3.8458 57.1041 3.87471 57.1358 3.90548 57.1666H10.5163V55.6745L2.67453 55.6736ZM4.99842 57.0724H4.26824V55.7668H4.99842V57.0724ZM5.88433 57.0724H5.15415V55.7668H5.88433V57.0724ZM6.77024 57.0724H6.04006V55.7668H6.77024V57.0724ZM7.65615 57.0724H6.92598V55.7668H7.65615V57.0724ZM8.54207 57.0724H7.81189V55.7668H8.54207V57.0724ZM9.42798 57.0724H8.6978V55.7668H9.42798V57.0724ZM10.3605 57.0724H9.58372V55.7668H10.3605V57.0724Z" fill="#1F7A3A"/>
<path opacity="0.1" d="M7.5573 60.0052C7.64123 60.0528 7.7261 60.0985 7.81189 60.1442V60.0985H8.54207V60.5107L8.6978 60.5815V60.0985H9.42798V60.8902L9.58371 60.9499V60.0985H10.3605V61.2175L10.5163 61.266V60.0052H7.5573Z" fill="#1F7A3A"/>
<path opacity="0.1" d="M38.2304 21.0978C38.2304 21.0978 36.0072 20.9635 36.2721 22.5208C36.2585 22.6 36.2703 22.6814 36.3058 22.7534C36.3413 22.8255 36.3987 22.8844 36.4698 22.9218C36.4698 22.9218 36.4698 22.8062 36.6973 22.8454C36.7771 22.8585 36.8582 22.8622 36.9388 22.8566C37.0479 22.8494 37.1517 22.8068 37.2345 22.7353V22.7353C37.2345 22.7353 37.8593 22.477 38.1027 21.4559C38.1027 21.4559 38.2817 21.233 38.2752 21.1761L37.9022 21.3365C37.9022 21.3365 38.0309 21.607 37.9301 21.8317C37.9301 21.8317 37.918 21.3468 37.8453 21.358C37.8313 21.358 37.6504 21.4512 37.6504 21.4512C37.6504 21.4512 37.8714 21.9231 37.7045 22.2653C37.7045 22.2653 37.7679 21.6853 37.5823 21.4857L37.3119 21.6415C37.3119 21.6415 37.5702 22.1282 37.3949 22.5255C37.3949 22.5255 37.4406 21.9166 37.2568 21.6797L37.0172 21.8662C37.0172 21.8662 37.2596 22.3455 37.1104 22.6756C37.1104 22.6756 37.0909 21.966 36.964 21.9119C36.873 21.9886 36.7919 22.0763 36.7225 22.173C36.7225 22.173 36.8885 22.5208 36.7859 22.7045C36.7859 22.7045 36.7225 22.2327 36.6703 22.2299C36.6703 22.2299 36.4623 22.5432 36.4409 22.7577C36.4505 22.5587 36.5122 22.3658 36.6199 22.1982C36.4998 22.2209 36.3889 22.2783 36.301 22.3632C36.301 22.3632 36.3336 22.1422 36.674 22.1226C36.674 22.1226 36.8465 21.8858 36.8932 21.8709C36.8932 21.8709 36.5565 21.8429 36.3523 21.9333C36.3523 21.9333 36.5323 21.7245 36.9547 21.8196L37.1906 21.6265C37.1906 21.6265 36.7477 21.5659 36.5602 21.6331C36.5602 21.6331 36.7757 21.4466 37.254 21.5827L37.5114 21.4288C37.3137 21.3855 37.1112 21.368 36.909 21.3766C36.909 21.3766 37.1459 21.2489 37.587 21.3878L37.7735 21.3048C37.7735 21.3048 37.4937 21.2507 37.4163 21.2423C37.3389 21.2339 37.3305 21.2116 37.3305 21.2116C37.5057 21.1823 37.6855 21.2024 37.8499 21.2694C37.8499 21.2694 38.2369 21.122 38.2304 21.0978Z" fill="#1F7A3A"/>
<path opacity="0.1" d="M32.3946 28.6765C32.3946 28.6765 31.6346 30.7692 33.2031 30.9603C33.2749 30.9957 33.3561 31.0074 33.435 30.9938C33.5138 30.9803 33.5864 30.9421 33.6423 30.8848C33.6423 30.8848 33.5332 30.8484 33.6339 30.6442C33.6692 30.5716 33.6961 30.4953 33.7141 30.4167C33.7377 30.3098 33.7259 30.1982 33.6805 30.0987V30.0987C33.6805 30.0987 33.6106 29.4263 32.7004 28.9031C32.7004 28.9031 32.5382 28.6672 32.4813 28.6579L32.5279 29.0635C32.5279 29.0635 32.8235 29.0169 33.011 29.1773C33.011 29.1773 32.5447 29.0514 32.5326 29.1242C32.5326 29.1381 32.5671 29.3377 32.5671 29.3377C32.5671 29.3377 33.0819 29.2594 33.3626 29.5168C33.3626 29.5168 32.8235 29.2911 32.5802 29.4132L32.6529 29.7098C32.6529 29.7098 33.1928 29.6016 33.5239 29.8814C33.5239 29.8814 32.9532 29.666 32.6734 29.7741L32.7844 30.0539C32.7844 30.0539 33.3131 29.9607 33.5873 30.1929C33.5873 30.1929 32.9009 30.0063 32.8142 30.1164C32.862 30.225 32.9227 30.3274 32.9951 30.4213C32.9951 30.4213 33.3765 30.3616 33.523 30.5146C33.523 30.5146 33.052 30.4409 33.0352 30.4894C33.0352 30.4894 33.2768 30.7785 33.4763 30.8624C33.2889 30.7961 33.1221 30.682 32.9923 30.5314C32.98 30.6533 33.0036 30.7762 33.0604 30.8848C33.0604 30.8848 32.8571 30.7915 32.9345 30.4605C32.9345 30.4605 32.7555 30.2283 32.7555 30.1807C32.7555 30.1807 32.6324 30.495 32.6622 30.7169C32.6622 30.7169 32.513 30.4847 32.7238 30.1071L32.6063 29.8273C32.6063 29.8273 32.4198 30.2348 32.4328 30.4344C32.4328 30.4344 32.3172 30.1742 32.582 29.7536L32.5083 29.4636C32.4108 29.6398 32.3365 29.8278 32.2873 30.0231C32.2873 30.0231 32.2314 29.7592 32.4897 29.3759L32.4627 29.1764C32.4627 29.1764 32.3321 29.4263 32.3013 29.5018C32.2705 29.5774 32.2472 29.5746 32.2472 29.5746C32.2687 29.3982 32.3388 29.2313 32.4496 29.0925C32.4496 29.0925 32.4198 28.6765 32.3946 28.6765Z" fill="#1F7A3A"/>
<path opacity="0.1" d="M47.1315 26.9122C47.1315 26.9122 46.3724 29.0085 47.94 29.195C48.0121 29.2303 48.0935 29.2419 48.1725 29.2282C48.2516 29.2145 48.3242 29.1761 48.3802 29.1186C48.3802 29.1186 48.2701 29.0822 48.3718 28.8789C48.4074 28.8062 48.434 28.7295 48.4511 28.6504C48.4749 28.5437 48.4635 28.4321 48.4184 28.3324C48.4184 28.3324 48.3485 27.6601 47.4383 27.1369C47.4383 27.1369 47.2751 26.9019 47.2182 26.8926L47.2658 27.2973C47.2658 27.2973 47.5614 27.2516 47.7488 27.412C47.7488 27.412 47.2826 27.2861 47.2695 27.3579C47.2695 27.3729 47.304 27.5715 47.304 27.5715C47.304 27.5715 47.8188 27.4941 48.1004 27.7505C48.1004 27.7505 47.5614 27.5258 47.3171 27.647L47.3908 27.9445C47.3908 27.9445 47.9307 27.8354 48.2617 28.1161C48.2617 28.1161 47.6901 27.8997 47.4103 28.0079L47.5213 28.2877C47.5213 28.2877 48.0501 28.1944 48.3242 28.4266C48.3242 28.4266 47.6388 28.2401 47.5512 28.3511C47.6004 28.4601 47.6631 28.5625 47.7377 28.656C47.7377 28.656 48.1181 28.5954 48.2655 28.7493C48.2655 28.7493 47.7945 28.6756 47.7778 28.725C47.7778 28.725 48.0184 29.0132 48.2179 29.0981C48.0306 29.032 47.864 28.9178 47.7349 28.767C47.7225 28.8888 47.7458 29.0116 47.802 29.1204C47.802 29.1204 47.5996 29.0272 47.677 28.6971C47.677 28.6971 47.498 28.4639 47.4971 28.4173C47.4971 28.4173 47.3749 28.7325 47.4038 28.9535C47.4038 28.9535 47.2546 28.7222 47.4654 28.3436L47.3479 28.0639C47.3479 28.0639 47.1614 28.4714 47.1744 28.67C47.1744 28.67 47.0588 28.4108 47.3236 27.9902L47.249 27.6992C47.1514 27.8754 47.0771 28.0635 47.028 28.2588C47.028 28.2588 46.973 27.9949 47.2313 27.6116L47.2042 27.412C47.2042 27.412 47.0737 27.6619 47.042 27.7375C47.0103 27.813 46.9879 27.8102 46.9879 27.8102C47.01 27.6339 47.0803 27.467 47.1912 27.3281C47.1912 27.3281 47.1576 26.9131 47.1315 26.9122Z" fill="#1F7A3A"/>
<path opacity="0.1" d="M26.0654 44.0224C26.0654 44.0224 25.3054 46.116 26.8739 46.3071C26.9458 46.3425 27.0271 46.3542 27.106 46.3404C27.1849 46.3267 27.2575 46.2882 27.3132 46.2307C27.3132 46.2307 27.2041 46.1943 27.3048 45.991C27.3406 45.9184 27.3675 45.8416 27.385 45.7625C27.409 45.6557 27.3972 45.544 27.3514 45.4445V45.4445C27.3514 45.4445 27.2815 44.7722 26.3713 44.25C26.3713 44.25 26.209 44.014 26.1522 44.0047L26.1988 44.4094C26.1988 44.4094 26.4953 44.3637 26.6818 44.5241C26.6818 44.5241 26.2156 44.3982 26.2034 44.47C26.2034 44.485 26.2379 44.6836 26.2379 44.6836C26.2379 44.6836 26.7527 44.6062 27.0334 44.8626C27.0334 44.8626 26.4944 44.6379 26.251 44.7591L26.3237 45.0566C26.3237 45.0566 26.8637 44.9475 27.1947 45.2282C27.1947 45.2282 26.624 45.0118 26.3443 45.12L26.4552 45.3998C26.4552 45.3998 26.984 45.3065 27.2581 45.5387C27.2581 45.5387 26.5727 45.3522 26.4851 45.4632C26.5328 45.5718 26.5936 45.6742 26.666 45.7681C26.666 45.7681 27.0474 45.7075 27.1947 45.8614C27.1947 45.8614 26.7229 45.7877 26.7061 45.8371C26.7061 45.8371 26.9476 46.1253 27.1472 46.2102C26.9597 46.1444 26.7928 46.0305 26.6632 45.88C26.6508 46.0017 26.6745 46.1242 26.7313 46.2325C26.7313 46.2325 26.528 46.1393 26.6054 45.8092C26.6054 45.8092 26.4273 45.576 26.4263 45.5294C26.4263 45.5294 26.3032 45.8446 26.3331 46.0656C26.3331 46.0656 26.1839 45.8343 26.3946 45.4557L26.2771 45.176C26.2771 45.176 26.0906 45.5835 26.1046 45.7821C26.1046 45.7821 25.989 45.5229 26.2538 45.1023L26.1792 44.8123C26.0814 44.9883 26.0071 45.1764 25.9582 45.3718C25.9582 45.3718 25.9022 45.107 26.1605 44.7246L26.1335 44.5241C26.1335 44.5241 26.0029 44.774 25.9722 44.8496C25.9414 44.9251 25.9181 44.9223 25.9181 44.9223C25.9396 44.7458 26.01 44.5788 26.1214 44.4402C26.1214 44.4402 26.0906 44.0224 26.0654 44.0224Z" fill="#1F7A3A"/>
<path opacity="0.1" d="M23.0496 24.2908C23.0496 24.2908 22.2905 26.3834 23.8581 26.5746C23.9301 26.6099 24.0114 26.6215 24.0904 26.608C24.1694 26.5944 24.2421 26.5563 24.2983 26.4991C24.2983 26.4991 24.1882 26.4627 24.2899 26.2585C24.325 26.1856 24.3516 26.109 24.3691 26.03C24.393 25.9236 24.3816 25.8123 24.3365 25.7129C24.3365 25.7129 24.2666 25.0406 23.3555 24.5174C23.3555 24.5174 23.1932 24.2815 23.1363 24.2722L23.1839 24.6778C23.1839 24.6778 23.4795 24.6312 23.666 24.7916C23.666 24.7916 23.1997 24.6657 23.1876 24.7384C23.1876 24.7524 23.2221 24.952 23.2221 24.952C23.2221 24.952 23.7369 24.8736 24.0185 25.131C24.0185 25.131 23.4795 24.9054 23.2352 25.0275L23.3079 25.3241C23.3079 25.3241 23.8478 25.215 24.1798 25.4956C24.1798 25.4956 23.6082 25.2793 23.3284 25.3884L23.4394 25.6682C23.4394 25.6682 23.9681 25.5749 24.2423 25.808C24.2423 25.808 23.5569 25.6215 23.4692 25.7316C23.517 25.8402 23.5777 25.9426 23.6501 26.0365C23.6501 26.0365 24.0316 25.9768 24.1789 26.1298C24.1789 26.1298 23.708 26.0561 23.6912 26.1046C23.6912 26.1046 23.9318 26.3937 24.1313 26.4776C23.9441 26.4111 23.7773 26.297 23.6474 26.1466C23.635 26.2685 23.6587 26.3914 23.7154 26.5C23.7154 26.5 23.5121 26.4067 23.5905 26.0757C23.5905 26.0757 23.4114 25.8435 23.4105 25.7959C23.4105 25.7959 23.2883 26.1102 23.3172 26.3321C23.3172 26.3321 23.1671 26.0999 23.3788 25.7223L23.2603 25.4425C23.2603 25.4425 23.0738 25.85 23.0878 26.0496C23.0878 26.0496 22.9722 25.7894 23.237 25.3688L23.1624 25.0788C23.0648 25.255 22.9905 25.443 22.9414 25.6383C22.9414 25.6383 22.8864 25.3744 23.1438 24.9911L23.1177 24.7916C23.1177 24.7916 22.9862 25.0415 22.9554 25.1161C22.9246 25.1907 22.9013 25.1898 22.9013 25.1898C22.9229 25.0133 22.9933 24.8463 23.1046 24.7077C23.1046 24.7077 23.0757 24.2908 23.0496 24.2908Z" fill="#1F7A3A"/>
<path opacity="0.1" d="M28.6859 35.6864C28.6859 35.6864 29.2724 37.8313 30.6638 37.0853C30.7429 37.0727 30.8159 37.0354 30.8725 36.9788C30.9291 36.9222 30.9664 36.8491 30.979 36.7701C30.979 36.7701 30.8689 36.8036 30.8344 36.5789C30.8213 36.4991 30.7988 36.4212 30.7673 36.3467C30.726 36.2454 30.6521 36.1608 30.5575 36.1061C30.5575 36.1061 30.1127 35.5969 29.0654 35.6939C29.0654 35.6939 28.7968 35.596 28.7446 35.6212L29.0169 35.9242C29.0169 35.9242 29.2323 35.7163 29.4776 35.7377C29.4776 35.7377 29.0216 35.9056 29.0552 35.9699C29.0626 35.983 29.2062 36.1247 29.2062 36.1247C29.2062 36.1247 29.5792 35.7638 29.9597 35.8114C29.9597 35.8114 29.3899 35.9382 29.2612 36.1788L29.4916 36.3793C29.4916 36.3793 29.8702 35.9793 30.3029 36.0166C30.3029 36.0166 29.7107 36.1695 29.5447 36.4194L29.7984 36.5863C29.7984 36.5863 30.1714 36.2031 30.5351 36.2376C30.5351 36.2376 29.8693 36.4828 29.859 36.6208C29.9609 36.6821 30.0698 36.7307 30.1835 36.7654C30.1835 36.7654 30.4633 36.4968 30.6675 36.5351C30.6675 36.5351 30.2395 36.7467 30.2544 36.7962C30.2544 36.7962 30.6181 36.8894 30.8279 36.8447C30.6369 36.8988 30.435 36.902 30.2423 36.854C30.3023 36.9607 30.3925 37.0473 30.5015 37.103C30.5015 37.103 30.2814 37.1431 30.1546 36.8288C30.1546 36.8288 29.8749 36.7421 29.845 36.7029C29.845 36.7029 29.9271 37.0312 30.0781 37.1953C30.0781 37.1953 29.8226 37.0918 29.7769 36.6609L29.5186 36.4996C29.5186 36.4996 29.6035 36.9388 29.7266 37.0946C29.7266 37.0946 29.4823 36.9491 29.4561 36.453L29.2286 36.259C29.2508 36.4603 29.299 36.6578 29.3722 36.8465C29.3722 36.8465 29.1754 36.66 29.1652 36.2012L29.0281 36.0529C29.0281 36.0529 29.0654 36.3327 29.0831 36.412C29.1008 36.4912 29.0831 36.5052 29.0831 36.5052C28.9991 36.3486 28.9604 36.1716 28.9712 35.9942C28.9712 35.9942 28.7073 35.6725 28.6859 35.6864Z" fill="#1F7A3A"/>
<path opacity="0.1" d="M44.5987 37.6019C44.5987 37.6019 45.1853 39.7467 46.5757 39.0007C46.655 38.9884 46.7284 38.9513 46.7852 38.8946C46.842 38.838 46.8793 38.7647 46.8918 38.6855C46.8918 38.6855 46.7809 38.7191 46.7464 38.499C46.734 38.4191 46.7117 38.3412 46.6802 38.2668C46.6382 38.1657 46.5641 38.0811 46.4694 38.0262V38.0262C46.4694 38.0262 46.0246 37.517 44.9773 37.6149C44.9773 37.6149 44.7088 37.5161 44.6575 37.5413L44.9288 37.8443C44.9288 37.8443 45.1443 37.6364 45.3895 37.6578C45.3895 37.6578 44.9335 37.8257 44.968 37.89C44.9745 37.9031 45.1191 38.0448 45.1191 38.0448C45.1191 38.0448 45.4921 37.6839 45.8726 37.7315C45.8726 37.7315 45.3019 37.8583 45.1732 38.0989L45.4044 38.2994C45.4044 38.2994 45.7775 37.8994 46.2148 37.9367C46.2148 37.9367 45.6236 38.0896 45.4576 38.3395L45.7113 38.5064C45.7113 38.5064 46.0843 38.1232 46.447 38.1577C46.447 38.1577 45.7812 38.4029 45.7719 38.5409C45.8734 38.6022 45.9821 38.6508 46.0955 38.6855C46.0955 38.6855 46.3752 38.4169 46.5794 38.4551C46.5794 38.4551 46.1523 38.6668 46.1663 38.7163C46.1663 38.7163 46.53 38.8095 46.7408 38.7648C46.5494 38.8189 46.3472 38.8221 46.1542 38.7741C46.2145 38.8806 46.3046 38.9671 46.4135 39.0231C46.4135 39.0231 46.1934 39.0632 46.0665 38.7489C46.0665 38.7489 45.7868 38.6622 45.7579 38.623C45.7579 38.623 45.839 38.9513 45.9901 39.1154C45.9901 39.1154 45.7346 39.0119 45.6889 38.581L45.4306 38.4178C45.4306 38.4178 45.5154 38.8571 45.6394 39.0128C45.6394 39.0128 45.3951 38.8673 45.369 38.3712L45.1405 38.1773C45.1627 38.3786 45.2113 38.5761 45.2851 38.7648C45.2851 38.7648 45.0874 38.5782 45.0771 38.1194L44.94 37.9712C44.94 37.9712 44.9773 38.2509 44.9951 38.3302C45.0128 38.4095 44.9951 38.4234 44.9951 38.4234C44.9111 38.2668 44.8723 38.0898 44.8832 37.9124C44.8832 37.9124 44.6202 37.5879 44.5987 37.6019Z" fill="#1F7A3A"/>
<path d="M38.6286 59.1417C38.6286 59.1417 43.4666 57.5125 42.4651 51.7401L36.3196 50.1445L34.8929 54.8809L38.6286 59.1417Z" fill="#CED7E7"/>
<path opacity="0.1" d="M34.8929 54.8809L38.6277 59.1417C38.6277 59.1417 43.4657 57.5126 42.4641 51.7401L34.8929 54.8809Z" fill="black"/>
<path d="M14.5635 12.2359C14.5635 12.2359 15.2163 13.298 16.1087 12.7674C17.0011 12.2368 16.1451 10.7708 16.1451 10.7708C16.1451 10.7708 14.4357 10.5368 14.5635 12.2359Z" fill="#FED253"/>
<path opacity="0.1" d="M16.1087 12.7674C16.0034 12.8355 15.8854 12.8814 15.7617 12.9023C15.6381 12.9231 15.5115 12.9185 15.3897 12.8886C15.0624 12.8056 14.8106 12.5539 14.6754 12.3888C14.635 12.3404 14.5977 12.2897 14.5635 12.2368C14.5178 11.6306 14.7062 11.2697 14.9673 11.0571C15.3263 10.7652 15.8233 10.7531 16.0378 10.7624C16.104 10.7624 16.1423 10.7718 16.1423 10.7718L16.16 10.8016C16.1852 10.8492 16.2402 10.9546 16.2989 11.0954C16.4985 11.557 16.7363 12.3935 16.1087 12.7674Z" fill="black"/>
<path d="M39.1042 51.4688L42.4613 51.7401L48.7094 51.7914L43.7865 57.8529C43.7865 57.8529 42.2245 57.9378 41.9028 58.1579C41.581 58.3779 37.0638 58.2604 37.0638 58.2604L36.3346 55.1532L39.1042 51.4688Z" fill="#FFA2A2"/>
<path opacity="0.05" d="M39.1042 51.4688L42.4613 51.7401L48.7094 51.7914L43.7865 57.8529C43.7865 57.8529 42.2245 57.9378 41.9028 58.1579C41.581 58.3779 37.0638 58.2604 37.0638 58.2604L36.3346 55.1532L39.1042 51.4688Z" fill="black"/>
<path d="M35.7088 35.1717L36.4894 36.4959L36.6591 38.8049C36.6591 38.8049 37.2028 40.7734 37.6103 41.3507C38.0178 41.9279 38.1875 43.4564 38.1875 43.4564C38.1875 43.4564 38.3572 44.8822 38.5605 45.1872C38.7638 45.4921 39.0361 47.705 39.0361 47.705C39.0361 47.705 40.8359 51.3037 42.4651 51.7448C42.4651 51.7448 34.3846 54.3932 38.6286 59.1464C38.6286 59.1464 35.6072 59.8924 34.8938 59.0447C34.1804 58.197 32.3134 45.6339 32.3134 45.6339L32.8907 35.0402L35.7088 35.1717Z" fill="#CED7E7"/>
<path opacity="0.05" d="M35.7088 35.1717L36.4894 36.4959L36.6591 38.8049C36.6591 38.8049 37.2028 40.7734 37.6103 41.3507C38.0178 41.9279 38.1875 43.4564 38.1875 43.4564C38.1875 43.4564 38.3572 44.8822 38.5605 45.1872C38.7638 45.4921 39.0361 47.705 39.0361 47.705C39.0361 47.705 40.8359 51.3037 42.4651 51.7448C42.4651 51.7448 34.3846 54.3932 38.6286 59.1464C38.6286 59.1464 35.6072 59.8924 34.8938 59.0447C34.1804 58.197 32.3134 45.6339 32.3134 45.6339L32.8907 35.0402L35.7088 35.1717Z" fill="black"/>
<path d="M25.905 22.2663C25.6783 23.4425 25.7456 24.6566 26.1009 25.8006L24.8438 29.3993C24.8438 29.3993 15.2694 24.0689 16.0845 22.7782C16.5461 22.0462 16.6048 20.1093 16.5675 18.5706C16.5405 17.4012 16.4575 16.4631 16.4575 16.4631C16.4575 16.4631 28.2075 17.6185 26.6436 20.3005C26.2897 20.91 26.0401 21.5744 25.905 22.2663V22.2663Z" fill="#FFA2A2"/>
<path opacity="0.1" d="M26.6436 20.3005C26.2897 20.91 26.0401 21.5744 25.905 22.2663C24.1613 22.8241 22.2782 22.7608 20.5759 22.087C18.8736 21.4133 17.4572 20.1707 16.5675 18.5706C16.5405 17.4012 16.4575 16.4631 16.4575 16.4631C16.4575 16.4631 28.2047 17.6185 26.6436 20.3005Z" fill="black"/>
<path d="M31.3968 14.528C31.3976 15.7729 31.1046 17.0003 30.5418 18.1106C29.9789 19.2209 29.162 20.1827 28.1574 20.9179C27.1529 21.653 25.989 22.1407 24.7605 22.3414C23.5319 22.5421 22.2734 22.45 21.0871 22.0727C19.9008 21.6954 18.8203 21.0435 17.9334 20.17C17.0465 19.2965 16.3783 18.2261 15.983 17.0457C15.5876 15.8653 15.4764 14.6083 15.6584 13.3768C15.8403 12.1454 16.3103 10.9742 17.03 9.9586C17.142 9.80131 17.2598 9.64775 17.3835 9.49792C18.0884 8.64112 18.9656 7.94214 19.9582 7.44633V7.44633C20.4967 7.17692 21.0647 6.971 21.6508 6.83272C22.709 6.58203 23.8074 6.55176 24.8778 6.74381C25.9482 6.93585 26.9677 7.3461 27.8727 7.94903C28.7778 8.55196 29.5491 9.33467 30.1387 10.2485C30.7282 11.1623 31.1235 12.1876 31.2998 13.2607C31.3656 13.6799 31.3981 14.1037 31.3968 14.528Z" fill="#FFA2A2"/>
<path d="M34.5198 47.056C34.4014 47.6882 34.5497 48.8437 34.7744 50.0196C34.7837 50.0709 34.794 50.1222 34.8043 50.1735C34.8145 50.2247 34.8294 50.304 34.8425 50.3684C34.946 50.8738 35.0588 51.3746 35.1689 51.8296C35.2789 52.2847 35.3778 52.6745 35.4617 52.9953C35.5885 53.4756 35.6753 53.7777 35.6753 53.7777C35.6753 53.7777 35.6864 54.0743 35.7014 54.5461C35.7098 54.8184 35.7191 55.1504 35.7284 55.5169C35.7284 55.6232 35.7349 55.7314 35.7377 55.8433C35.7424 56.0382 35.7471 56.2406 35.7517 56.4476C35.7517 56.5147 35.7517 56.5819 35.7564 56.6499C35.7564 56.8728 35.7648 57.1004 35.7685 57.327C35.7732 57.6384 35.7769 57.9499 35.7788 58.2521C35.7788 58.3677 35.7788 58.4815 35.7788 58.5934C35.7788 58.8824 35.7788 59.1594 35.7788 59.414C35.7685 60.1367 35.7396 60.6823 35.6781 60.8399C35.6566 60.8939 35.637 60.9527 35.6184 61.0142C35.5375 61.3037 35.4789 61.5989 35.4431 61.8973L35.2845 61.7677C34.9814 61.5178 34.6812 61.2623 34.3762 61.0142C33.8694 60.5897 33.3313 60.2037 32.7667 59.8598C32.7284 59.8374 32.6902 59.815 32.651 59.7935C32.5466 59.7329 32.4403 59.676 32.3321 59.622C32.1092 59.5096 31.8808 59.4088 31.6476 59.3198C30.5705 58.9095 29.417 58.7603 28.2476 58.7855C27.7813 58.9636 27.4782 59.0913 27.4782 59.0913L26.8851 59.2704L26.7863 59.3002C26.1438 59.4961 25.2401 59.774 24.9147 59.8896C24.3887 60.0761 19.8221 61.0264 19.8221 61.0264C19.4049 61.1402 18.9787 61.2182 18.5482 61.2595C17.7644 61.48 16.9665 61.647 16.16 61.7593C14.3273 61.9936 12.4659 61.8437 10.6944 61.3192C10.6415 61.3223 10.5884 61.3208 10.5358 61.3145C10.5685 61.3145 10.6002 61.3071 10.6291 61.3015L10.5153 61.2679L10.3596 61.2194C10.0985 61.1373 9.83954 61.0475 9.58278 60.9499L9.42705 60.8902C9.17837 60.7945 8.93498 60.6916 8.69687 60.5815L8.54113 60.5107C8.29246 60.395 8.04906 60.2729 7.81096 60.1442C7.72516 60.0994 7.6403 60.0509 7.55637 60.0052C7.30272 59.8635 7.05404 59.7149 6.81034 59.5595C6.76931 59.2079 6.74786 58.9729 6.74786 58.9729L6.38417 57.1619L6.36552 57.0687L6.10441 55.7631L6.08576 55.6698L5.51784 52.8293L5.49919 52.7361L5.23808 51.4305L5.21943 51.3373L4.64405 48.4986L4.6254 48.4054L4.36429 47.0998L4.34564 47.0066L3.77492 44.1623L3.75627 44.069L3.49516 42.7682L3.47651 42.6749L3.373 42.162L3.21726 41.3852C3.21726 41.3852 2.72022 40.6746 2.1607 39.8344L2.09822 39.7411C1.93875 39.5052 1.77462 39.2599 1.61516 39.0193C1.56201 38.9401 1.51072 38.8617 1.45943 38.7843C1.38171 38.6668 1.30649 38.5521 1.23375 38.4402L1.18339 38.3628L1.17314 38.347C0.369287 37.103 0.907362 36.5621 0.907362 36.5621C0.907362 36.5621 1.24494 36.1052 1.68044 35.5009C1.70189 35.4701 1.72427 35.4393 1.74758 35.4076C1.93409 35.1465 2.13925 34.8611 2.34068 34.5758L2.49641 34.3538C2.55516 34.2708 2.61298 34.1879 2.66893 34.1058C2.69131 34.075 2.71276 34.0433 2.73328 34.0125C3.16318 33.3915 3.51754 32.8497 3.59028 32.6576C3.70405 32.3545 4.42957 31.4583 5.15228 30.6722C5.72207 30.0511 6.28905 29.499 6.54363 29.3666C7.12088 29.0617 7.35867 28.076 7.35867 28.076C7.35867 28.076 8.61481 27.6358 8.78453 27.2964C8.95425 26.9569 11.3313 25.4313 11.3313 25.4313C11.3313 25.4313 12.2927 24.8121 12.6816 24.4391C12.7367 24.3903 12.7847 24.3341 12.8243 24.2722C12.9595 24.0297 13.8426 23.8301 14.2017 23.7583C14.2949 23.7397 14.3527 23.7294 14.3527 23.7294C14.4977 23.466 14.6809 23.2256 14.8964 23.016C15.0428 22.8864 15.2256 22.4397 15.3795 22.007C15.5464 21.5352 15.676 21.081 15.676 21.081C15.9483 20.1643 16.491 20.4357 16.491 20.4357C16.4903 20.5609 16.5022 20.6859 16.5265 20.8087C16.7531 21.9277 17.984 22.394 18.6303 22.9172C19.3437 23.4935 20.4637 24.9883 21.3468 25.2933C22.0779 25.546 22.9256 26.4991 23.1941 26.8171L23.2147 26.8413C23.2594 26.8935 23.2818 26.9234 23.2818 26.9234C23.2818 26.9234 23.7826 26.8973 24.0875 26.8917H24.1985C24.2605 26.8854 24.3194 26.8615 24.3682 26.8227C24.6713 26.6166 25.1226 26.0123 25.3194 25.8733C25.5563 25.7027 25.795 22.9526 25.795 22.9526L25.8071 22.947C26.6529 22.5507 27.5603 26.5177 27.5603 26.5177C27.5603 26.5177 29.1559 26.9933 29.292 27.3328C29.3181 27.3999 29.4384 27.5193 29.6193 27.6638C30.4431 28.2933 31.3198 28.8503 32.2398 29.3284C32.2603 29.3386 32.2799 29.3489 32.3004 29.3573C32.3189 29.3673 32.3379 29.3763 32.3573 29.3843C32.3918 29.4011 32.4254 29.416 32.4571 29.43C32.5074 29.4524 32.554 29.4711 32.5969 29.486L32.6529 29.5056C32.7865 29.55 32.9124 29.6152 33.0259 29.6986C33.0595 29.7229 33.093 29.748 33.1257 29.7751C33.2527 29.8808 33.3695 29.9982 33.4745 30.1257C33.4903 30.1444 33.5052 30.1639 33.5202 30.1826C33.591 30.2712 33.6544 30.3588 33.7067 30.44C33.7924 30.5651 33.8705 30.6953 33.9407 30.8298C33.9407 30.8298 35.3321 33.2068 35.7741 33.4773C36.2161 33.7477 36.4875 36.4996 36.4875 36.4996L34.9954 42.0305C34.9954 42.0305 34.9255 43.4293 34.7949 44.8561C34.7222 45.6562 34.6299 46.4703 34.5198 47.056Z" fill="#CED7E7"/>
<path d="M23.2818 27.0912C23.2818 27.0912 22.2812 27.634 21.4997 27.6852C21.3974 27.69 21.2949 27.6841 21.1938 27.6675C20.3751 27.5435 19.174 26.8702 19.174 26.8702L20.583 25.325L22.297 26.1745L22.9274 26.7611L23.2818 27.0912Z" fill="#63667E"/>
<path opacity="0.1" d="M31.296 13.2607C31.2606 13.3109 31.2203 13.3574 31.1757 13.3997C30.6852 13.8659 29.8142 13.6729 29.1456 13.5647C28.5646 13.4697 27.997 13.3057 27.4549 13.0761C26.983 12.8746 26.417 12.6285 25.9927 12.9175C25.8295 13.0276 25.7176 13.2038 25.5479 13.3008C25.3781 13.3978 25.1618 13.4043 24.9613 13.4071C24.3085 13.4071 23.6557 13.4146 23.0188 13.2672C22.0686 13.0453 21.0857 12.4867 20.182 12.8551C19.4752 13.1423 19.0919 13.9116 18.9007 14.6511C18.8075 15.0139 18.7385 15.3972 18.5277 15.7049C18.317 16.0126 17.9094 16.2309 17.5625 16.0863C17.0506 15.8728 16.975 15.0036 16.3577 14.9598C15.6797 14.9122 15.6881 15.6126 15.8858 16.119C16.1786 16.865 16.5619 17.611 16.5787 18.3888C15.8501 17.0837 15.5058 15.5991 15.5857 14.1066C15.6655 12.6141 16.1663 11.1747 17.03 9.95486C17.1804 9.86178 17.298 9.72425 17.3667 9.56133C17.3736 9.5393 17.3792 9.51688 17.3835 9.49419C17.4348 9.23401 17.2902 8.96078 17.2818 8.68847C17.2492 8.02357 17.9691 7.5601 18.6294 7.47617C19.0686 7.42022 19.5181 7.46312 19.9582 7.44913C20.1799 7.44424 20.4004 7.41485 20.6157 7.36147C20.987 7.2502 21.3347 7.0716 21.6415 6.83458C22.6997 6.58389 23.7981 6.55363 24.8685 6.74567C25.9389 6.93772 26.9584 7.34796 27.8634 7.95089C28.7684 8.55382 29.5398 9.33653 30.1293 10.2503C30.7189 11.1641 31.1141 12.1895 31.2904 13.2626L31.296 13.2607Z" fill="black"/>
<path d="M31.4555 12.7115C31.409 12.8959 31.3122 13.0638 31.1757 13.1964C30.6852 13.6626 29.8142 13.4687 29.1456 13.3605C28.5646 13.2676 27.9969 13.1048 27.4549 12.8756C26.983 12.6751 26.417 12.4289 25.9927 12.718C25.8295 12.828 25.7176 13.0043 25.5479 13.1013C25.3781 13.1982 25.1618 13.2048 24.9613 13.2066C24.3085 13.2113 23.6557 13.215 23.0188 13.0677C22.0686 12.8448 21.0857 12.2871 20.182 12.6546C19.4752 12.9418 19.0919 13.7121 18.9007 14.4516C18.8075 14.8143 18.7385 15.1976 18.5277 15.5044C18.317 15.8112 17.9094 16.0313 17.5625 15.8868C17.0506 15.6732 16.975 14.8041 16.3577 14.7602C15.6797 14.7127 15.6881 15.413 15.8858 15.9194C16.2327 16.8025 16.7046 17.681 16.5498 18.6172C16.3959 18.6172 16.1413 18.6116 15.9903 18.6079C16.1078 18.4074 15.884 18.1687 15.6611 18.1006C15.4382 18.0325 15.178 18.0335 15.0083 17.8712C14.8386 17.7089 14.8376 17.4581 14.8554 17.2333C14.894 16.753 15.0116 16.2823 15.2032 15.8401C15.3254 15.5604 15.483 15.2573 15.3897 14.9645C15.3337 14.8317 15.2663 14.7041 15.1883 14.5831C14.9943 14.21 15.04 13.7438 15.206 13.3586C15.2769 13.1945 15.3282 13.0397 15.3869 12.8924C15.4611 12.6829 15.5685 12.4868 15.7049 12.3114C15.9185 12.0456 16.1273 11.6456 15.8914 11.3984C15.8317 11.336 15.9511 11.2931 15.9129 11.2119C15.9061 11.1981 15.9014 11.1833 15.8989 11.1681C15.8879 11.0699 15.9117 10.9709 15.966 10.8883C15.977 10.8669 15.9892 10.846 16.0024 10.8259C16.0131 10.8045 16.0253 10.784 16.0388 10.7643C16.2453 10.4195 16.5197 10.1203 16.8454 9.88492C17.0478 9.73852 17.2846 9.5977 17.3648 9.36084C17.4581 9.08108 17.294 8.7836 17.28 8.48798C17.2473 7.82308 17.9672 7.35961 18.6275 7.27568C19.2877 7.19175 19.9722 7.3307 20.6157 7.16004C21.5286 6.91945 22.1702 6.11373 22.9992 5.66145C23.4528 5.41895 23.9557 5.28331 24.4697 5.26488C24.9836 5.24646 25.495 5.34574 25.9647 5.55514C26.9327 5.99717 27.6629 6.89054 28.6737 7.22625C29.0318 7.34562 29.4198 7.39318 29.7424 7.59088C30.1154 7.82028 30.3421 8.22127 30.536 8.61667C30.8316 9.21629 30.8913 9.81872 31.0955 10.4538C31.2578 10.9573 31.4826 11.6157 31.5012 12.1958C31.5117 12.369 31.4963 12.5428 31.4555 12.7115V12.7115Z" fill="#896363"/>
<g opacity="0.1">
<path d="M16.0126 11.543C16.0276 11.4833 16.029 11.421 16.0169 11.3607C16.0048 11.3004 15.9795 11.2435 15.9427 11.1942C15.9669 11.267 15.8616 11.3089 15.9194 11.3695C15.9655 11.418 15.9977 11.4779 16.0126 11.543Z" fill="black"/>
<path d="M15.9399 10.9807C15.9289 11.0132 15.9223 11.0471 15.9203 11.0814C15.938 11.0515 15.9623 11.0208 15.9399 10.9807Z" fill="black"/>
<path d="M31.2019 12.9688C30.7104 13.4351 29.8403 13.2421 29.1699 13.133C28.5892 13.0395 28.0221 12.8757 27.481 12.6452C27.0082 12.4438 26.4431 12.1976 26.0179 12.4867C25.8556 12.5967 25.7437 12.773 25.573 12.87C25.4024 12.967 25.187 12.9735 24.9865 12.9754C24.3337 12.9754 23.6809 12.9838 23.0431 12.8355C22.0937 12.6135 21.1108 12.0568 20.2072 12.4233C19.5003 12.7115 19.1171 13.4808 18.9259 14.2203C18.8326 14.5831 18.7646 14.9663 18.5529 15.2741C18.3412 15.5818 17.9337 15.8 17.5877 15.6564C17.0757 15.4419 17.0002 14.5737 16.3829 14.5299C15.9007 14.4954 15.7665 14.8404 15.7991 15.2237C15.8271 14.9309 15.9856 14.7052 16.3829 14.7332C17.0002 14.777 17.0757 15.6462 17.5877 15.8597C17.9337 16.0043 18.3421 15.787 18.5529 15.4774C18.7636 15.1678 18.8326 14.7864 18.9259 14.4245C19.1171 13.685 19.5003 12.9147 20.2072 12.6275C21.1108 12.2601 22.0937 12.814 23.0431 13.0397C23.6772 13.188 24.3356 13.1833 24.9865 13.1787C25.187 13.1787 25.3987 13.1731 25.573 13.0742C25.7474 12.9754 25.8528 12.801 26.0179 12.69C26.4431 12.4018 27.0082 12.648 27.481 12.8485C28.0222 13.0789 28.5893 13.2429 29.1699 13.3372C29.8403 13.4454 30.7104 13.6403 31.2019 13.1721C31.4686 12.9175 31.5488 12.5492 31.531 12.1463C31.5161 12.4662 31.4229 12.7562 31.2019 12.9688Z" fill="black"/>
<path d="M17.3126 8.31919C17.3074 8.36563 17.3056 8.41237 17.307 8.45907C17.3163 8.65304 17.39 8.84701 17.4133 9.03631C17.4478 8.80411 17.3406 8.56165 17.3126 8.31919Z" fill="black"/>
<path d="M15.4177 14.9356C15.4254 14.9635 15.4313 14.9918 15.4354 15.0204C15.4505 14.9242 15.4445 14.8259 15.4177 14.7323C15.3621 14.5991 15.2947 14.4711 15.2163 14.3499C15.1462 14.212 15.1046 14.0613 15.0941 13.907C15.0751 14.1298 15.1174 14.3536 15.2163 14.5542C15.2949 14.6749 15.3623 14.8026 15.4177 14.9356Z" fill="black"/>
<path d="M16.575 18.3841L16.0294 18.3757C16.0422 18.4087 16.0473 18.4441 16.0443 18.4793C16.0414 18.5145 16.0306 18.5486 16.0126 18.579C16.1665 18.579 16.422 18.5846 16.5722 18.5883C16.5983 18.4287 16.6073 18.2668 16.5992 18.1053C16.5971 18.1986 16.589 18.2918 16.575 18.3841Z" fill="black"/>
<path d="M15.6825 17.8684C15.4596 17.8013 15.2004 17.8003 15.0344 17.6371C14.9367 17.5302 14.8816 17.3912 14.8796 17.2464C14.8656 17.4609 14.8796 17.6922 15.0344 17.8414C15.2004 18.0046 15.4596 18.0055 15.6825 18.0726C15.755 18.0937 15.8225 18.1294 15.8807 18.1775C15.9389 18.2256 15.9867 18.2851 16.021 18.3524C16.1152 18.1594 15.8989 17.9327 15.6825 17.8684Z" fill="black"/>
</g>
<path opacity="0.1" d="M32.6482 59.7935C32.5438 59.7329 32.4375 59.676 32.3293 59.622C32.1065 59.5096 31.878 59.4088 31.6448 59.3198C30.5677 58.9095 29.4142 58.7603 28.2448 58.7855C27.7785 58.9636 27.4754 59.0913 27.4754 59.0913L26.8823 59.2704L26.7835 59.3002C26.777 59.2349 26.7695 59.1697 26.763 59.1035C26.7564 59.0372 26.749 58.9738 26.7415 58.9086C26.5326 56.9306 26.3685 54.8986 26.3685 54.8986V53.1436V52.9394L26.3573 47.7684L26.2641 46.0638L26.2202 45.3093L26.2118 45.1657L26.1951 44.871L26.1857 44.6957C26.1651 44.6402 26.1477 44.5835 26.1335 44.526C26.127 44.5027 26.1204 44.4766 26.1149 44.4495C26.0915 44.3563 26.0664 44.236 26.0402 44.1054C25.8696 43.2475 25.656 41.8011 25.643 41.5074C25.6262 41.1157 25.2868 38.7732 25.2868 38.7732C25.2523 37.4835 24.1677 35.0551 23.8945 34.5972C23.6212 34.1394 23.3163 31.3884 23.4189 31.2401C23.472 31.1608 23.5065 30.6918 23.528 30.2591C23.528 30.2096 23.5326 30.1611 23.5345 30.1136C23.5485 29.7751 23.555 29.4925 23.555 29.4925L24.6219 29.2818L24.9081 29.2258L24.9305 29.2211L24.9399 29.2398C24.9706 29.2967 25.0667 29.4785 25.1795 29.7173C25.1926 29.7424 25.2047 29.7695 25.2177 29.7965C25.2233 29.8096 25.2299 29.8226 25.2364 29.8357C25.4453 30.2926 25.6868 30.8941 25.6766 31.2401C25.6598 31.8518 26.3564 33.329 26.3564 33.329C26.4235 33.6684 27.9007 37.0461 27.9007 37.0461C27.9007 37.0461 29.1064 40.3566 29.0384 40.9003C28.9703 41.4439 29.6156 45.0426 29.6156 45.0426L30.2777 48.7439C30.5994 49.4731 31.0237 51.1536 31.0237 51.1536L31.1851 52.1066L31.2158 52.2885L31.6457 54.8315L31.8565 56.0774C31.8565 56.0774 31.9451 56.7395 32.0794 57.4762C32.0906 57.5424 32.1036 57.6095 32.1167 57.6767C32.1994 58.1616 32.3169 58.64 32.4682 59.1081C32.5433 59.3324 32.6034 59.5613 32.6482 59.7935V59.7935Z" fill="black"/>
<path d="M32.7639 59.8598C32.7256 59.8374 32.6874 59.815 32.6482 59.7935C32.5438 59.7329 32.4375 59.676 32.3293 59.622C32.1065 59.5096 31.878 59.4088 31.6448 59.3198C30.5677 58.9095 29.4142 58.7603 28.2448 58.7855C27.7785 58.9636 27.4754 59.0913 27.4754 59.0913L26.8823 59.2704C26.8749 59.2051 26.8683 59.1398 26.8609 59.0736C26.8534 59.0074 26.8478 58.9543 26.8422 58.8946C26.6333 56.9213 26.4692 54.8986 26.4692 54.8986V53.1268V52.9226L26.458 47.7647L26.3648 46.1365L26.3461 45.7989L26.3331 45.5704L26.3163 45.2683L26.2995 44.9615L26.2874 44.7405V44.692C26.2874 44.6873 26.2874 44.6817 26.2808 44.6761C26.2631 44.6258 26.2417 44.5493 26.2184 44.4523L26.2072 44.4057C26.2025 44.3842 26.1969 44.3609 26.1923 44.3376C26.0169 43.5422 25.7596 41.8272 25.7456 41.5055C25.7288 41.1138 25.3893 38.7713 25.3893 38.7713C25.3548 37.4816 24.2703 35.0533 23.9971 34.5954C23.7238 34.1375 23.4198 31.3865 23.5215 31.2382C23.5802 31.145 23.6147 30.5789 23.6371 30.1117C23.6371 30.0744 23.6371 30.0381 23.6371 30.0036C23.6492 29.7154 23.6539 29.4907 23.6539 29.4907L24.6461 29.2948L24.8979 29.2454L24.9371 29.2379L25.0303 29.2193C25.0303 29.2193 25.1525 29.445 25.2989 29.7555L25.3175 29.7947C25.5311 30.2553 25.7838 30.882 25.7763 31.2382C25.7596 31.85 26.4562 33.3271 26.4562 33.3271C26.5233 33.6666 28.0004 37.0442 28.0004 37.0442C28.0004 37.0442 29.2062 40.3547 29.1381 40.8984C29.0701 41.4421 29.7154 45.0408 29.7154 45.0408L30.3775 48.742C30.6992 49.4713 31.1235 51.1517 31.1235 51.1517L31.2737 52.0395L31.3044 52.2195L31.6429 54.2263L31.9554 56.0755C31.9554 56.0755 32.0486 56.7348 32.1773 57.4743C32.1894 57.5415 32.2015 57.6086 32.2146 57.6767C32.2972 58.1638 32.4147 58.6444 32.5662 59.1147C32.6488 59.3583 32.7149 59.6072 32.7639 59.8598V59.8598Z" fill="#63667E"/>
<path d="M31.9227 11.9654C31.9227 11.9654 31.5665 12.4242 31.2448 12.4242C30.923 12.4242 29.6706 12.3729 29.0179 12.1696C28.3651 11.9664 25.1646 11.8125 25.1646 11.8125C25.1646 11.8125 20.6325 11.8293 20.4795 11.6763C20.3266 11.5234 17.6614 10.7084 17.39 10.7596C17.3331 10.7708 17.1942 10.7951 17.0086 10.8259L16.796 10.8604C16.4743 10.9116 16.0723 10.9713 15.7049 11.0152C15.2508 11.0683 14.8516 11.0954 14.7248 11.0487V10.658C14.7248 10.658 15.2508 9.89331 15.2843 9.67417C15.3179 9.45502 15.7599 6.27786 16.9144 5.14109C17.3914 4.22935 18.1632 3.50616 19.104 3.0895C20.666 2.40968 22.228 1.83337 22.228 1.83337L22.5013 1.7942L23.3825 1.66365C23.4093 1.63698 23.4383 1.61265 23.4692 1.59091C23.7136 1.4044 24.454 0.998747 25.4192 1.87067L25.5898 2.14297C25.5898 2.14297 28.56 2.83865 29.9345 5.26605C31.3091 7.69345 31.3781 10.0705 31.4798 11.1569C31.4798 11.1569 31.4117 11.4628 31.5478 11.5812C31.5971 11.6248 31.6441 11.6708 31.6886 11.7192C31.7008 11.7314 31.7129 11.7435 31.7241 11.7565C31.7632 11.7957 31.7996 11.8367 31.8295 11.8703C31.833 11.8729 31.8362 11.8761 31.8388 11.8796C31.8461 11.8885 31.8539 11.8969 31.8621 11.9048L31.9227 11.9654Z" fill="#FED253"/>
<path opacity="0.05" d="M31.9227 11.9654C31.9227 11.9654 31.5665 12.4242 31.2448 12.4242C30.923 12.4242 29.6706 12.3729 29.0179 12.1696C28.3651 11.9664 25.1646 11.8125 25.1646 11.8125C25.1646 11.8125 20.6325 11.8293 20.4795 11.6763C20.3266 11.5234 17.6614 10.7084 17.39 10.7596C17.3331 10.7708 17.1942 10.7951 17.0086 10.8259L16.9601 10.5274L16.948 10.4538C16.948 10.4538 22.0919 9.35058 25.5208 9.92875C28.9498 10.5069 31.4798 11.1504 31.4798 11.1504C31.4798 11.1504 31.4117 11.4563 31.5478 11.5747C31.5971 11.6182 31.6441 11.6643 31.6886 11.7127C31.7008 11.7248 31.7129 11.7369 31.7241 11.75C31.7632 11.7892 31.7996 11.8302 31.8295 11.8638C31.833 11.8664 31.8362 11.8695 31.8388 11.8731C31.8461 11.8819 31.8539 11.8903 31.8621 11.8983L31.9227 11.9654Z" fill="black"/>
<path opacity="0.1" d="M31.4555 12.7115C30.8205 12.7609 29.6501 12.6061 29.1381 12.5305C28.9927 12.5091 28.85 12.483 28.7064 12.4513C28.1571 12.3319 26.4683 11.9971 25.4425 12.1519C24.2031 12.3384 20.7061 11.999 20.7061 11.999C20.7061 11.999 18.5501 11.5579 17.6838 11.2017C17.3658 11.0702 16.8342 11.0291 16.3055 11.0944C16.1706 11.1112 16.0368 11.1352 15.9045 11.1662C15.1827 11.3369 14.5737 11.7258 14.6791 12.3888C14.6388 12.3404 14.6014 12.2897 14.5672 12.2368C14.5215 11.6306 14.7099 11.2697 14.971 11.0571L15.0325 11.0319C15.3515 10.9413 15.6761 10.8718 16.0043 10.824C16.0555 10.8156 16.1087 10.8081 16.1628 10.8016C17.0907 10.6766 18.4326 10.6487 19.5647 11.2185C19.5647 11.2185 20.6166 11.7118 21.33 11.7118C22.0434 11.7118 27.8484 11.7631 29.2072 12.1529C29.4776 12.231 29.7535 12.2893 30.0325 12.3272C30.5278 12.3911 31.0312 12.3436 31.5059 12.1883C31.5156 12.3642 31.4986 12.5406 31.4555 12.7115V12.7115Z" fill="black"/>
<path opacity="0.1" d="M31.9227 11.9654C31.9227 11.9654 31.5665 12.4242 31.2448 12.4242C30.923 12.4242 29.6706 12.3729 29.0179 12.1696C28.3651 11.9664 25.1646 11.8125 25.1646 11.8125C25.1646 11.8125 20.6325 11.8293 20.4795 11.6763C20.3266 11.5234 17.6614 10.7084 17.39 10.7596C17.3331 10.7708 17.1942 10.7951 17.0086 10.8259L16.796 10.8604C16.4267 10.8585 16.0591 10.9106 15.7049 11.0152C15.2508 11.0683 14.8516 11.0954 14.7248 11.0487V10.9713C14.8226 10.9146 14.9245 10.8653 15.0297 10.824C15.659 10.6478 16.307 10.547 16.9601 10.5237C17.7742 10.4939 18.7263 10.589 19.5628 11.0105C19.5628 11.0105 20.6147 11.5038 21.3281 11.5038C22.0415 11.5038 27.8466 11.5542 29.2053 11.9449C29.4759 12.0223 29.7517 12.0803 30.0306 12.1184C30.6425 12.1955 31.2639 12.1062 31.8295 11.86C31.833 11.8627 31.8362 11.8658 31.8388 11.8694C31.8461 11.8782 31.8539 11.8866 31.8621 11.8945L31.9227 11.9654Z" fill="black"/>
<path d="M14.6922 12.3729C14.6922 12.3729 13.5545 11.5066 15.0316 10.9294C15.0316 10.9294 17.612 10.132 19.5647 11.1159C19.5647 11.1159 20.6166 11.6073 21.33 11.6073C22.0434 11.6073 27.8484 11.6586 29.2072 12.0493C29.4777 12.1269 29.7536 12.1848 30.0325 12.2228C30.7553 12.3104 31.4875 12.1713 32.1279 11.8246C32.2211 11.7733 32.3051 11.7472 32.3302 11.777C32.4151 11.8796 32.348 12.4737 31.601 12.5921C31.0181 12.6853 29.6939 12.5091 29.1372 12.428C28.9927 12.4065 28.8491 12.3795 28.7064 12.3487C28.1571 12.2293 26.4683 11.8945 25.4378 12.0493C24.1994 12.2359 20.7015 11.8964 20.7015 11.8964C20.7015 11.8964 18.5464 11.4553 17.68 11.0982C16.8137 10.741 14.3695 11.0487 14.6922 12.3729Z" fill="#FED253"/>
<path opacity="0.1" d="M24.2833 3.27042C24.1901 3.13613 22.9918 2.17655 22.5031 1.78861L23.3844 1.65806C23.4112 1.63139 23.4402 1.60706 23.4711 1.58532C24.1118 2.25768 24.2833 3.27042 24.2833 3.27042Z" fill="black"/>
<path opacity="0.1" d="M20.3965 8.41711L20.0058 8.99435L21.4997 8.94399L21.5333 8.29868L20.3965 8.41711Z" fill="black"/>
<path opacity="0.1" d="M29.5121 9.11372L29.6818 9.63967L30.633 9.79261L30.2255 9.16407L29.5121 9.11372Z" fill="black"/>
<path opacity="0.1" d="M13.1815 26.7704C13.2831 26.9402 16.6272 31.3399 17.5103 31.2177C18.3934 31.0956 13.1815 26.7704 13.1815 26.7704Z" fill="black"/>
<path opacity="0.1" d="M24.3859 30.7915C24.3859 30.7915 25.201 31.573 25.0816 31.878C24.9622 32.1829 24.3859 30.7915 24.3859 30.7915Z" fill="black"/>
<path opacity="0.1" d="M15.4904 36.1564C15.4904 36.1564 14.777 39.5005 15.151 39.6068C15.5249 39.7132 15.4904 36.1564 15.4904 36.1564Z" fill="black"/>
<path opacity="0.1" d="M24.6573 49.143C24.7757 49.4824 25.7605 51.6898 25.9815 51.8082C26.2025 51.9266 24.6573 49.143 24.6573 49.143Z" fill="black"/>
<path opacity="0.1" d="M36.0996 40.0778C36.0651 40.1962 35.2164 40.8928 35.403 41.1474C35.5895 41.402 36.0996 40.0778 36.0996 40.0778Z" fill="black"/>
<path opacity="0.1" d="M29.5121 46.2736C29.4953 46.3594 29.3256 48.1387 29.6482 48.4809C29.9709 48.8231 29.5121 46.2736 29.5121 46.2736Z" fill="black"/>
<path opacity="0.1" d="M38.2108 55.5169C37.9646 55.654 37.7101 55.7864 37.4508 55.9132C37.171 56.0494 36.8913 56.179 36.6059 56.3012C36.4922 56.3506 36.3784 56.3991 36.2656 56.4457C36.094 56.5166 35.9242 56.5847 35.7564 56.6499C35.2463 56.8495 34.7548 57.023 34.3175 57.1694C34.1478 57.2263 33.9855 57.2785 33.8344 57.327C33.0735 57.5685 32.568 57.7 32.568 57.7C32.4526 57.6753 32.3344 57.6656 32.2165 57.6711C32.1838 57.6711 32.1503 57.6711 32.1157 57.6711C31.9578 57.6825 31.8006 57.7025 31.6448 57.7308C30.6032 57.9173 29.1316 58.4404 28.2448 58.7827C27.7785 58.9608 27.4754 59.0885 27.4754 59.0885L26.8823 59.2676L26.7835 59.2974C26.141 59.4933 25.2373 59.7712 24.9119 59.8868C24.3859 60.0733 19.8193 61.0236 19.8193 61.0236C19.4021 61.1374 18.9759 61.2154 18.5454 61.2567C17.4846 61.354 16.4184 61.3783 15.3543 61.3294C14.2856 61.3984 12.5567 61.1634 11.5504 61.0049L11.39 60.9797C11.0012 60.9163 10.7541 60.8706 10.7541 60.8706L10.8846 60.6906L13.5619 56.9968L13.5778 56.9745L16.0723 53.5343L16.1656 53.4094L16.3922 53.097C16.3922 53.097 16.5283 52.9105 17.0524 52.8983C17.114 52.8983 17.1811 52.8983 17.2548 52.8983C17.695 52.9337 18.1293 53.0223 18.5482 53.1622L18.6695 53.1986C20.4758 53.7162 23.2678 53.5865 23.2678 53.5865C23.2678 53.5865 25.0051 53.3068 26.3704 53.1389L26.472 53.1259C26.9181 53.0628 27.3673 53.0239 27.8177 53.0093C28.6495 53.0261 30.4493 52.585 30.4493 52.585C30.8363 52.502 30.9995 52.4321 31.2177 52.2763C31.2466 52.2558 31.2774 52.2334 31.311 52.2092C31.4042 52.1392 31.5115 52.0535 31.6495 51.9471C31.9013 51.7541 32.2547 51.4921 32.8105 51.1246C32.859 51.0929 32.9103 51.0612 32.9653 51.0314C33.0203 51.0015 33.0903 50.9614 33.1574 50.9279C33.6957 50.673 34.2631 50.4851 34.8472 50.3684C35.3316 50.2642 35.8232 50.1966 36.3178 50.166H36.3914C37.7903 50.0914 39.2189 50.3311 40.0545 51.1172C40.2006 51.2553 40.3279 51.4121 40.4331 51.5835C40.4841 51.6648 40.5296 51.7496 40.5692 51.8371C40.6454 52.0041 40.7021 52.1793 40.738 52.3593C40.7449 52.3929 40.7504 52.4265 40.7548 52.46C40.7548 52.4703 40.7548 52.4796 40.7548 52.4899C40.7548 52.5169 40.7604 52.544 40.7623 52.571C40.8369 53.6873 39.6786 54.6963 38.2108 55.5169Z" fill="black"/>
<path d="M10.7541 60.6701C10.7541 60.6701 13.7755 61.2297 15.3543 61.128C15.3543 61.128 18.2573 61.2809 19.8193 60.8231C19.8193 60.8231 24.3887 59.8719 24.9119 59.6854C25.435 59.4989 27.4754 58.8871 27.4754 58.8871C27.4754 58.8871 31.448 57.2235 32.568 57.4948C32.568 57.4948 41.3619 55.2204 40.7334 52.1477C40.1048 49.0749 34.5543 49.7715 32.8068 50.9251C31.0592 52.0786 31.3147 52.1989 30.4474 52.3854C30.4474 52.3854 28.6476 52.8265 27.8158 52.8098C26.984 52.793 23.2659 53.387 23.2659 53.387C23.2659 53.387 20.3462 53.5231 18.5473 52.9627C16.7484 52.4022 16.3913 52.8946 16.3913 52.8946L10.7541 60.6701Z" fill="#FFA2A2"/>
<path opacity="0.1" d="M17.3061 52.695C17.3065 52.6988 17.3065 52.7025 17.3061 52.7062C17.2996 52.7755 17.2816 52.8433 17.2529 52.9067C16.8948 53.7852 14.8619 56.1548 14.8619 56.1548C14.7692 56.4362 14.6574 56.7111 14.5271 56.9773C14.247 57.5463 13.9243 58.0934 13.5619 58.6139C13.0247 59.3926 12.4382 60.1361 11.806 60.8398H11.8013C11.7208 60.8995 11.6371 60.9546 11.5504 61.0049C11.3313 61.1355 11.0021 61.2968 10.6916 61.3164C10.6387 61.3195 10.5856 61.318 10.533 61.3117C10.5657 61.3117 10.5974 61.3042 10.6263 61.2987L10.5125 61.2651L10.3568 61.2166C10.0957 61.1345 9.83674 61.0447 9.57998 60.9471L9.42425 60.8874C9.17557 60.7917 8.93218 60.6888 8.69407 60.5787L8.53834 60.5079C8.28966 60.3922 8.04627 60.2701 7.80816 60.1414C7.72236 60.0966 7.6375 60.0481 7.55357 60.0024C7.29992 59.8607 7.05125 59.7121 6.80754 59.5567C6.54892 59.3919 6.29589 59.22 6.04845 59.041C5.86195 58.695 5.70808 58.3882 5.62415 58.2231C5.47121 57.9163 5.45816 57.4771 5.47681 57.1591C5.47681 57.1265 5.47681 57.0957 5.4824 57.0659C5.49826 56.8663 5.5225 56.7292 5.5225 56.7292C5.38432 56.5445 5.25966 56.35 5.14949 56.1473C5.08619 56.0467 5.05019 55.9313 5.04504 55.8125C5.04926 55.7649 5.04484 55.7168 5.03199 55.6708C4.96018 55.3761 4.65151 54.8697 4.36615 54.5517C4.15353 54.3177 4.14048 53.4429 4.16099 52.8228C4.17312 52.4498 4.19643 52.1756 4.19643 52.1756C4.15464 52.1486 4.12337 52.1082 4.10784 52.0609C4.03285 51.8568 3.98215 51.6446 3.95677 51.4286C3.95677 51.3979 3.94837 51.3671 3.94371 51.3354C3.88403 50.9074 3.85699 50.4775 3.85699 50.4775C3.16691 49.9748 2.83865 49.1906 2.68571 48.4911L2.66613 48.3979C2.58214 47.968 2.54648 47.5301 2.55982 47.0923C2.55982 47.0504 2.55982 47.0187 2.55982 46.9991C2.55982 46.9795 2.55982 46.9758 2.55982 46.9758C2.55982 46.9758 2.65121 44.955 2.90673 44.166C2.91699 44.1325 2.92818 44.1017 2.93937 44.0728C2.95819 44.0232 2.98259 43.976 3.0121 43.932C3.10536 43.8079 3.17157 43.5739 3.22659 43.2969C3.26482 43.1048 3.29653 42.8912 3.31984 42.6786C3.34129 42.5014 3.35808 42.3252 3.37113 42.162C3.4075 41.7256 3.41869 41.3852 3.41869 41.3852L3.24617 40.5347C3.19861 40.3025 3.16224 40.0684 3.13706 39.8344C3.13706 39.8036 3.1296 39.7728 3.12587 39.7411C3.08226 39.3089 3.07446 38.8738 3.10256 38.4402C3.10256 38.4085 3.10256 38.3778 3.10816 38.347C3.18097 37.3595 3.43912 36.3946 3.86911 35.5027L3.91574 35.4095C3.9779 35.2851 4.04318 35.163 4.11157 35.043C4.16099 34.9544 4.21322 34.8667 4.2673 34.78C4.41069 34.5478 4.56633 34.3233 4.73357 34.1076C4.75782 34.0759 4.783 34.0452 4.80818 34.0144C5.09916 33.6536 5.42255 33.3203 5.77429 33.0184C6.71615 32.209 7.58062 31.8574 8.36582 31.8304C11.7994 31.7092 13.7251 37.7819 14.0366 38.8459C14.0664 38.9485 14.0814 39.0044 14.0814 39.0044C14.0814 39.0044 15.4727 40.3967 15.0652 41.0075C14.9862 41.142 14.9381 41.2923 14.9244 41.4477C14.8125 42.2692 15.1333 43.6224 15.1333 43.6224C15.1333 43.6224 15.247 43.9954 15.579 44.8887L15.6769 45.1499C15.8849 45.7094 15.9334 46.6484 15.814 47.4896C15.6993 48.2953 15.4298 49.0078 14.998 49.1906C14.1149 49.5636 14.3527 49.9366 14.556 50.2434C14.6768 50.4633 14.7776 50.6936 14.8572 50.9316C14.985 51.2757 15.1034 51.6375 15.1482 51.7784C15.1612 51.8175 15.1678 51.839 15.1678 51.839C15.2915 51.7911 15.42 51.7567 15.551 51.7364C15.718 51.7131 15.883 51.7299 15.9147 51.8725C15.9315 51.949 16.0276 52.0395 16.1628 52.1299C16.5638 52.406 17.3061 52.695 17.3061 52.695Z" fill="black"/>
<path d="M17.1028 52.695C17.0971 52.766 17.0791 52.8354 17.0496 52.9002C16.6934 53.7796 14.6586 56.1548 14.6586 56.1548C14.5655 56.4361 14.4537 56.7109 14.3238 56.9773C14.0988 57.4368 13.8443 57.8813 13.5619 58.308C12.9774 59.1898 12.3297 60.0282 11.6241 60.8165L11.6027 60.8398C11.6027 60.8398 11.5206 60.9023 11.39 60.9825C11.1568 61.1314 10.8997 61.2393 10.63 61.3015L10.5163 61.2679L10.3605 61.2194C10.0994 61.1373 9.84047 61.0475 9.58371 60.9499L9.42798 60.8902C9.1793 60.7945 8.93591 60.6916 8.6978 60.5815L8.54207 60.5107C8.29339 60.395 8.05 60.2729 7.81189 60.1442C7.72609 60.0994 7.64123 60.0509 7.5573 60.0052C7.30365 59.8635 7.05498 59.7149 6.81127 59.5595C6.55265 59.3947 6.29962 59.2228 6.05218 59.0438C5.93779 58.9617 5.82464 58.8775 5.71274 58.7911C5.58685 58.5523 5.48613 58.3509 5.42365 58.2259C5.27072 57.9191 5.25766 57.4799 5.27631 57.1619C5.27631 57.1293 5.27631 57.0985 5.28191 57.0687C5.29776 56.8691 5.32201 56.732 5.32201 56.732C5.32201 56.732 5.24647 56.6304 5.15508 56.4923C5.10379 56.4159 5.04877 56.3273 4.99935 56.2396C4.90609 56.0755 4.83335 55.9095 4.84734 55.8153C4.84923 55.7992 4.84923 55.7829 4.84734 55.7668C4.84594 55.7353 4.84125 55.7041 4.83336 55.6736C4.76155 55.3789 4.45195 54.8725 4.16659 54.5545C3.95397 54.3205 3.94091 53.4457 3.9605 52.8256C3.9605 52.7939 3.9605 52.7631 3.9605 52.7323C3.97355 52.4106 3.99314 52.1784 3.99314 52.1784C3.88776 52.1327 3.80663 51.7942 3.75441 51.4324L3.74042 51.3391C3.68074 50.9111 3.65369 50.4812 3.65369 50.4812C2.96361 49.9786 2.63536 49.1943 2.48335 48.4949C2.37746 48.005 2.3367 47.5033 2.36212 47.0028C2.36212 46.9879 2.36212 46.9795 2.36212 46.9795C2.36212 46.9795 2.44232 44.9484 2.69784 44.1586C2.7081 44.125 2.71929 44.0942 2.73048 44.0653C2.75285 44.0169 2.7807 43.9712 2.81347 43.9292C2.95522 43.7315 3.04941 43.2559 3.11095 42.7691L3.12214 42.6758C3.19954 42.0231 3.22099 41.3824 3.22099 41.3824L3.04754 40.5319C3.00029 40.2988 2.96392 40.0653 2.93843 39.8316C2.93377 39.8008 2.93097 39.7691 2.92724 39.7383C2.88364 39.3061 2.87584 38.871 2.90393 38.4374C2.90393 38.4057 2.90393 38.375 2.91046 38.3442C2.98283 37.3567 3.241 36.3917 3.67141 35.4999C3.68633 35.4682 3.70125 35.4375 3.71804 35.4067C3.83794 35.1645 3.97119 34.9291 4.11716 34.7017C4.16752 34.6224 4.21881 34.5441 4.2729 34.4667C4.35776 34.3436 4.44635 34.2224 4.53867 34.1049L4.61328 34.0116C4.90177 33.6522 5.22233 33.3198 5.57099 33.0184C6.59679 32.1391 7.52933 31.7996 8.36861 31.8304C11.6745 31.9488 13.5302 37.8033 13.8352 38.8459C13.865 38.9485 13.8799 39.0044 13.8799 39.0044C13.8799 39.0044 15.2722 40.3967 14.8647 41.0075C14.7857 41.142 14.7376 41.2923 14.7239 41.4477C14.611 42.2692 14.9328 43.6224 14.9328 43.6224C14.9328 43.6224 15.0465 43.9954 15.3785 44.8887C15.4084 44.9717 15.441 45.0585 15.4718 45.1499C15.6797 45.7094 15.7282 46.6485 15.6089 47.4896C15.4942 48.2962 15.2256 49.0078 14.7929 49.1906C13.9107 49.5636 14.1476 49.9366 14.3518 50.2434C14.4726 50.4633 14.5734 50.6937 14.653 50.9316C14.8143 51.3708 14.9626 51.839 14.9626 51.839C15.0236 51.8154 15.0859 51.7952 15.1491 51.7784C15.2788 51.7357 15.4162 51.7214 15.552 51.7364C15.5895 51.7393 15.6252 51.754 15.6539 51.7785C15.6825 51.803 15.7027 51.8359 15.7114 51.8725C15.7366 51.9844 15.9296 52.1234 16.1637 52.2549C16.4676 52.4203 16.7812 52.5673 17.1028 52.695V52.695Z" fill="#CED7E7"/>
<path opacity="0.1" d="M4.82869 43.7277C5.15135 43.711 8.61481 42.37 9.3282 42.8278C10.0416 43.2857 14.4572 46.2568 14.4572 46.2568C14.4572 46.2568 11.6903 42.6413 9.27971 41.7927C6.86909 40.9441 4.82869 43.7277 4.82869 43.7277Z" fill="black"/>
<path opacity="0.1" d="M9.80752 49.1943C9.80752 49.1943 13.271 49.89 13.7969 50.3656L9.80752 49.1943Z" fill="black"/>
<path opacity="0.1" d="M9.14076 54.3736C9.0904 54.4249 7.8352 57.2421 7.93592 57.2421C8.03663 57.2421 9.10719 55.5635 9.10719 55.5635L9.14076 54.3736Z" fill="black"/>
<path opacity="0.1" d="M11.501 50.9932C11.501 50.9932 10.4827 51.3503 10.6011 51.3839C10.7195 51.4175 11.4665 51.1461 11.501 50.9932Z" fill="black"/>
<path opacity="0.1" d="M10.4827 55.2549C10.6524 55.6111 11.1951 56.6807 11.3145 56.511C11.4339 56.3413 10.4827 55.2549 10.4827 55.2549Z" fill="black"/>
<path opacity="0.1" d="M23.1951 27.0194L23.0496 27.2264C23.0496 27.2264 21.8942 26.4123 21.4195 26.0048C20.9449 25.5973 19.8239 27.4642 18.9408 27.9734C18.0577 28.4826 16.5647 28.6187 16.5647 28.6187C16.5647 28.6187 15.4102 27.4642 15.4457 27.1267C15.4811 26.7891 14.9029 26.6856 14.8684 26.4478C14.8339 26.21 14.6306 25.5311 14.3593 25.1916C14.2156 25.0126 14.1951 24.4521 14.2082 23.9644C14.3014 23.9458 14.3593 23.9355 14.3593 23.9355C14.5042 23.6721 14.6874 23.4317 14.9029 23.2221C15.2088 22.9507 15.6835 21.2871 15.6835 21.2871C15.9548 20.3704 16.4976 20.6418 16.4976 20.6418C16.4976 22.0341 17.9244 22.5432 18.6368 23.1205C19.3493 23.6977 20.4702 25.1916 21.3533 25.4975C22.0779 25.7446 22.9256 26.7005 23.1951 27.0194Z" fill="black"/>
<path d="M23.1951 26.8152L23.0496 27.0232C23.0496 27.0232 21.8895 26.2109 21.4148 25.8006C20.9402 25.3903 19.8193 27.26 18.9362 27.7692C18.053 28.2784 16.56 28.4154 16.56 28.4154C16.56 28.4154 15.4056 27.26 15.441 26.9234C15.4764 26.5867 14.8983 26.4823 14.8638 26.2435C14.8293 26.0048 14.626 25.3269 14.3546 24.9874C14.211 24.8084 14.1905 24.2479 14.2035 23.7602L14.3546 23.7322C14.4995 23.4688 14.6827 23.2284 14.8983 23.0188C15.2041 22.7465 15.6788 21.0838 15.6788 21.0838C15.9502 20.1671 16.4929 20.4376 16.4929 20.4376C16.4929 21.8298 17.9197 22.3399 18.6322 22.9172C19.3446 23.4944 20.4655 24.9874 21.3486 25.2933C22.0779 25.5441 22.9256 26.4963 23.1951 26.8152Z" fill="#CED7E7"/>
<path opacity="0.1" d="M23.2818 27.0912C23.2818 27.0912 22.2812 27.634 21.4997 27.6852C21.3974 27.69 21.2949 27.6841 21.1938 27.6675C21.1938 27.6675 22.0564 27.0231 22.8575 26.8917L23.2818 27.0912Z" fill="black"/>
<path opacity="0.1" d="M25.3194 29.8581C25.3194 29.8581 24.0577 29.3666 23.6408 30.1061C23.6548 29.7667 23.6604 29.4851 23.6604 29.4851L25.0359 29.2128C25.0359 29.2128 25.1683 29.458 25.3231 29.7881C25.3194 29.832 25.3194 29.8581 25.3194 29.8581Z" fill="black"/>
<path d="M21.1938 27.6675C21.1938 27.6675 22.7055 26.7602 23.4319 26.8366C24.1938 26.9159 25.67 26.9719 25.67 26.9719C25.67 26.9719 25.1609 28.1263 25.2289 28.3641C25.297 28.6019 25.3138 29.7564 25.3138 29.7564C25.3138 29.7564 23.7863 29.1624 23.5317 30.2656C23.5317 30.2656 22.6999 29.0262 22.1394 28.6523C21.7675 28.3836 21.4472 28.05 21.1938 27.6675Z" fill="#63667E"/>
<path opacity="0.1" d="M29.7331 28.7213C29.292 28.7213 27.73 27.7356 27.3906 27.0912C27.0511 26.4468 26.5755 27.1584 26.1344 27.3971C25.8547 27.55 24.7459 27.2302 24.1481 26.998C24.4512 26.7919 25.1226 26.2118 25.3194 26.0729C25.5563 25.9022 25.795 23.1522 25.795 23.1522C26.6436 22.7111 27.5603 26.7173 27.5603 26.7173C27.5603 26.7173 29.1568 27.1929 29.292 27.5323C29.3181 27.5995 29.4384 27.7188 29.6193 27.8634C29.8058 28.3334 29.9084 28.7213 29.7331 28.7213Z" fill="black"/>
<path d="M29.7331 28.5171C29.292 28.5171 27.73 27.5323 27.3906 26.8879C27.0511 26.2435 26.5755 26.9551 26.1344 27.1929C25.8547 27.3458 24.966 27.0502 24.3682 26.8199C24.6713 26.6147 25.1226 26.0104 25.3194 25.8705C25.5563 25.7008 25.795 22.9507 25.795 22.9507C26.6436 22.5097 27.5603 26.5158 27.5603 26.5158C27.5603 26.5158 29.1568 26.9914 29.292 27.3309C29.3181 27.398 29.4384 27.5174 29.6193 27.6619C29.8059 28.1291 29.9084 28.5171 29.7331 28.5171Z" fill="#CED7E7"/>
<path d="M35.7657 58.2623L50.5288 45.9528C50.6761 45.8283 50.8638 45.762 51.0566 45.7663L56.5642 45.9108C56.5642 45.9108 56.9456 46.1906 56.386 46.8023L42.4595 58.2306C42.309 58.3536 42.1222 58.4238 41.9279 58.4302L35.9056 58.6297C35.8623 58.6311 35.8198 58.6189 35.7837 58.5949C35.7477 58.5709 35.7201 58.5363 35.7047 58.4959C35.6893 58.4554 35.6869 58.4112 35.6979 58.3693C35.7088 58.3275 35.7325 58.2901 35.7657 58.2623Z" fill="#1F7A3A"/>
<path d="M42.9071 56.7479C42.9071 56.7479 46.1318 61.3658 49.7146 57.0705C53.2975 52.7752 52.2614 50.5185 51.175 50.3991C50.0886 50.2798 43.9758 54.9826 42.9071 56.7479Z" fill="#FFA2A2"/>
<path opacity="0.1" d="M64.6567 5.0982C64.6567 5.0982 68.8131 -2.96827 73.7257 1.19179C73.7257 1.19179 74.7981 1.58252 74.717 2.71649C74.717 2.71649 74.3039 2.48988 73.9756 3.35621C73.855 3.66361 73.6985 3.95566 73.5093 4.22627C73.2579 4.59184 72.8947 4.86604 72.4742 5.00774V5.00774C72.4742 5.00774 70.2697 6.65927 66.1861 5.38542C66.1861 5.38542 65.0316 5.55141 64.8451 5.4078L66.187 4.42677C66.187 4.42677 66.8687 5.43858 67.8656 5.55421C67.8656 5.55421 66.187 4.50044 66.3791 4.27197C66.4183 4.22534 67.114 3.78425 67.114 3.78425C67.114 3.78425 68.3067 5.53836 69.8528 5.66798C69.8528 5.66798 67.6866 4.68042 67.376 3.61639L68.4643 3.00931C68.4643 3.00931 69.6337 4.92568 71.3897 5.14016C71.3897 5.14016 69.1609 4.02951 68.7114 2.89274L69.8631 2.44326C69.8631 2.44326 71.0409 4.28969 72.5022 4.45848C72.5022 4.45848 70.0571 2.91512 70.1335 2.35746C70.1335 2.35746 71.2162 2.00869 71.5482 2.05439C71.5482 2.05439 72.4239 3.35994 73.2818 3.38326C73.2818 3.38326 71.7571 2.17842 71.8578 1.99284C71.8578 1.99284 73.389 1.91358 74.1892 2.28379C74.1892 2.28379 73.0515 1.6506 71.8578 1.75318C71.8578 1.75318 72.3977 1.11812 73.1018 0.978237C73.1018 0.978237 72.2579 0.631333 71.4867 1.77649C71.4867 1.77649 70.2958 1.8856 70.1485 2.01802C70.1485 2.01802 70.7509 0.779606 71.4922 0.252721C71.4922 0.252721 70.3872 0.447623 69.8398 2.12619L68.6722 2.55237C68.6722 2.55237 69.3819 0.873793 70.0076 0.355301C70.0076 0.355301 68.911 0.728317 68.3869 2.68665L67.3126 3.27042C67.3126 3.27042 67.8134 1.77836 68.385 1.05004C68.385 1.05004 67.4422 1.61516 67.0105 3.44854L66.339 3.92133C66.339 3.92133 66.7242 2.83772 66.8631 2.53651C67.0021 2.2353 66.9321 2.17282 66.9321 2.17282C66.4654 2.72462 66.161 3.39513 66.0527 4.10971C66.0527 4.10971 64.7341 5.1728 64.6567 5.0982Z" fill="#1F7A3A"/>
<path opacity="0.1" d="M81.8462 9.41213C81.8462 9.41213 83.7244 5.76683 85.9438 7.64683C85.9438 7.64683 86.4287 7.82308 86.3914 8.33504C86.3914 8.33504 86.2049 8.2334 86.0567 8.62506C86.0029 8.76379 85.9328 8.8956 85.8478 9.01766C85.7343 9.18244 85.5708 9.30635 85.3815 9.37109V9.37109C85.3815 9.37109 84.3846 10.1171 82.5391 9.54175C82.5391 9.54175 82.0178 9.61635 81.9339 9.55201L82.5401 9.10812C82.5401 9.10812 82.8478 9.56599 83.2991 9.61728C83.2991 9.61728 82.5419 9.14169 82.6277 9.03818C82.6445 9.01766 82.9588 8.8181 82.9588 8.8181C82.9588 8.8181 83.4978 9.61076 84.1972 9.66951C84.1972 9.66951 83.218 9.22282 83.0781 8.73697L83.5705 8.46373C83.5705 8.46373 84.0983 9.33006 84.8919 9.42705C84.8919 9.42705 83.8848 8.92534 83.6796 8.41151L84.2 8.20822C84.2 8.20822 84.7315 9.04284 85.3918 9.11931C85.3918 9.11931 84.2867 8.42177 84.3221 8.16998C84.3221 8.16998 84.8108 8.01238 84.9609 8.0329C84.9609 8.0329 85.3563 8.6232 85.7443 8.63252C85.7443 8.63252 85.0551 8.08885 85.1008 8.00492C85.1008 8.00492 85.7928 7.96949 86.1527 8.13641C86.1527 8.13641 85.6389 7.85012 85.1008 7.89675C85.2492 7.72793 85.4437 7.60608 85.6603 7.54611C85.6603 7.54611 85.2789 7.38945 84.9302 7.90701C84.9302 7.90701 84.3921 7.95643 84.3259 8.01611C84.3259 8.01611 84.5982 7.45659 84.933 7.21879C84.933 7.21879 84.4331 7.30645 84.1869 8.06554L83.6647 8.26137C83.6647 8.26137 83.9846 7.50322 84.268 7.26822C84.268 7.26822 83.7719 7.43701 83.5351 8.32105L83.0502 8.58403C83.0502 8.58403 83.2758 7.90887 83.5341 7.58062C83.5341 7.58062 83.108 7.83613 82.914 8.66423L82.61 8.87778C82.61 8.87778 82.7844 8.3882 82.8469 8.25205C82.9093 8.1159 82.8776 8.08792 82.8776 8.08792C82.6667 8.33813 82.5292 8.64186 82.4804 8.96544C82.4804 8.96544 81.8789 9.4457 81.8462 9.41213Z" fill="#1F7A3A"/>
<path opacity="0.1" d="M61.4954 13.6533C61.4954 13.6533 63.3736 10.008 65.5986 11.888C65.5986 11.888 66.0826 12.0643 66.0462 12.5772C66.0462 12.5772 65.8597 12.4746 65.7114 12.8663C65.6574 13.0048 65.5873 13.1366 65.5025 13.2589C65.3879 13.4244 65.2226 13.5484 65.0316 13.6123V13.6123C65.0316 13.6123 64.0357 14.3583 62.1902 13.7829C62.1902 13.7829 61.6689 13.8585 61.5849 13.7932L62.1911 13.3493C62.1911 13.3493 62.4988 13.8072 62.9492 13.8594C62.9492 13.8594 62.192 13.3829 62.2778 13.2794C62.2955 13.2589 62.6098 13.0593 62.6098 13.0593C62.6098 13.0593 63.1488 13.852 63.8473 13.9107C63.8473 13.9107 62.8691 13.464 62.7282 12.9782L63.2206 12.7059C63.2206 12.7059 63.7494 13.5713 64.543 13.6682C64.543 13.6682 63.5358 13.1665 63.3307 12.6527L63.851 12.4494C63.851 12.4494 64.3835 13.284 65.0437 13.3605C65.0437 13.3605 63.9387 12.663 63.9732 12.4112C63.9732 12.4112 64.4628 12.2536 64.6129 12.2741C64.6129 12.2741 65.0083 12.8644 65.3962 12.8747C65.3962 12.8747 64.7071 12.33 64.7528 12.2461C64.7528 12.2461 65.4438 12.2107 65.8047 12.3776C65.8047 12.3776 65.2899 12.0913 64.7519 12.1379C64.9003 11.9691 65.0947 11.8473 65.3114 11.7873C65.3114 11.7873 64.9309 11.6306 64.5821 12.1482C64.5821 12.1482 64.0441 12.1976 63.9778 12.2573C63.9778 12.2573 64.2492 11.6978 64.5849 11.46C64.5849 11.46 64.0851 11.5476 63.8389 12.3067L63.3101 12.5026C63.3101 12.5026 63.6309 11.7444 63.9135 11.5103C63.9135 11.5103 63.4183 11.6782 63.1815 12.5622L62.6956 12.8252C62.6956 12.8252 62.9222 12.1501 63.1805 11.8218C63.1805 11.8218 62.7543 12.0773 62.5594 12.9054L62.2554 13.119C62.2554 13.119 62.4298 12.6294 62.4923 12.4932C62.5548 12.3571 62.524 12.3291 62.524 12.3291C62.3127 12.5791 62.1751 12.8829 62.1267 13.2066C62.1267 13.2066 61.5281 13.6869 61.4954 13.6533Z" fill="#1F7A3A"/>
</g>
<defs>
<clipPath id="clip0_8_336">
<rect width="100" height="72.7512" fill="white"/>
</clipPath>
</defs>
</svg>
