<svg width="80" height="59" viewBox="0 0 80 59" fill="none" xmlns="http://www.w3.org/2000/svg">
<g clip-path="url(#clip0_8_336)">
<path opacity="0.1" d="M77.8919 46.8023C75.9401 50.83 71.975 53.5231 67.8672 55.2992C64.5784 56.7119 61.1019 57.6396 57.5465 58.0534C56.8655 58.1342 56.1824 58.1969 55.497 58.2415C53.7457 58.3557 51.9888 58.3537 50.2378 58.2356C49.1845 58.1656 48.135 58.0536 47.089 57.8998C43.4548 57.3696 39.9117 56.3379 36.5611 54.8341C35.594 54.3986 34.6466 53.9231 33.7187 53.4078C32.169 52.5488 30.6841 51.5777 29.2759 50.5022C28.9643 50.2641 28.6567 50.0209 28.353 49.7725L28.228 49.6704C27.9892 49.4735 27.7526 49.2721 27.5123 49.0767C27.1129 48.7421 26.6889 48.438 26.244 48.1669C26.2138 48.1493 26.1837 48.1317 26.1529 48.1148C26.0706 48.067 25.9868 48.0222 25.9015 47.9795C25.7259 47.891 25.5459 47.8115 25.3622 47.7415C24.5134 47.4181 23.6044 47.3006 22.683 47.3204C22.5301 47.3204 22.3773 47.3307 22.2237 47.341C22.0091 47.3557 21.7938 47.3777 21.5792 47.4056L21.4999 47.4167C20.8161 47.5134 20.1401 47.6585 19.4769 47.8509C18.4525 48.1449 17.4465 48.5123 16.4339 48.8437C16.004 48.9855 15.5734 49.1207 15.1391 49.242L15.0436 49.2684C14.4259 49.4422 13.7972 49.5738 13.1617 49.6623C11.7176 49.8469 10.2508 49.7288 8.85483 49.3155L8.80633 49.3015L8.71668 49.2751L8.59397 49.2368C8.38821 49.1722 8.18417 49.1014 7.98185 49.0245L7.85913 48.9774C7.66317 48.902 7.47138 48.8209 7.28375 48.7342L7.16104 48.6784C6.96508 48.5873 6.77329 48.491 6.58566 48.3896C6.51806 48.3543 6.45118 48.3161 6.38505 48.2801C6.18517 48.1684 5.98922 48.0513 5.79718 47.9288C5.59339 47.799 5.394 47.6636 5.19903 47.5225C5.10889 47.4578 5.01973 47.3914 4.93155 47.3233C4.42322 46.9345 3.94721 46.5052 3.50817 46.0396C3.48392 46.0153 3.46114 45.9903 3.43836 45.9661C3.32152 45.8397 3.20689 45.7111 3.09593 45.5796C3.05478 45.5311 3.01363 45.4826 2.97321 45.4326C2.84143 45.2719 2.7143 45.1076 2.59183 44.9395C2.57346 44.9153 2.55582 44.8903 2.53819 44.866C2.0361 44.1717 1.61986 43.4191 1.29852 42.6248C1.28823 42.6005 1.27868 42.5756 1.26986 42.5513C1.17188 42.299 1.08248 42.0426 1.00165 41.7819C0.968579 41.6732 0.936981 41.5615 0.909057 41.4527C0.899504 41.4204 0.890686 41.3873 0.882603 41.355C0.476974 39.7582 0.430679 38.0982 0.430679 36.4478C0.430679 36.2552 0.430679 36.063 0.430679 35.8709C0.442437 33.2013 0.483587 30.4861 0.877459 27.8531C0.877459 27.8348 0.882603 27.8164 0.885542 27.7988C1.01737 26.9124 1.19668 26.0337 1.42271 25.1666C1.65926 24.2567 1.96159 23.3652 2.32729 22.4991C3.23334 20.3681 4.5509 18.4289 6.01396 16.6315C7.77756 14.4688 9.79836 12.473 12.0492 10.8263C12.3725 10.5897 12.7002 10.3599 13.0324 10.137L13.186 10.0363C13.2396 10.0003 13.2932 9.96284 13.3469 9.93124C13.4571 9.85776 13.5673 9.78868 13.679 9.71888L13.8039 9.64098L14.042 9.49402L14.1155 9.45213L14.2426 9.37865L14.3683 9.30516C14.5153 9.21845 14.6639 9.1337 14.8143 9.05091C15.4566 8.6928 16.114 8.36555 16.7866 8.06917C16.985 7.98148 17.1847 7.89697 17.3855 7.81565C18.2974 7.44426 19.2342 7.13708 20.1889 6.89637C20.5417 6.80721 20.8966 6.72883 21.2537 6.66123C21.675 6.5799 22.0985 6.51254 22.5242 6.45915C23.2017 6.37391 23.883 6.32314 24.5656 6.30703C29.3656 6.1902 34.214 7.75246 37.9756 10.7469C39.4747 11.9403 40.8216 13.3534 42.5051 14.2682C43.9748 15.0648 45.6951 15.3947 47.2691 14.7679C48.5697 14.2499 49.4163 13.9927 50.8771 14.0713C53.9 14.2416 56.8801 14.8648 59.7179 15.9201C59.8326 15.962 59.9472 16.0054 60.0611 16.0487C67.4616 18.8815 73.8246 24.5067 77.1298 31.7353C77.217 31.9263 77.302 32.1189 77.3848 32.3129C79.3564 36.9166 80.0677 42.314 77.8919 46.8023Z" fill="#1F7A3A"/>
<path opacity="0.1" d="M15.1369 21.3815V49.2435L15.0414 49.2699C14.4237 49.4437 13.795 49.5753 13.1595 49.6638C11.7154 49.8484 10.2486 49.7303 8.85263 49.3169L8.80413 49.303L8.71448 49.2765L8.59176 49.2383C8.38601 49.1737 8.18197 49.1029 7.97964 49.026L7.85692 48.9789C7.66097 48.9035 7.46918 48.8224 7.28155 48.7357L7.15883 48.6798C6.96287 48.5887 6.77108 48.4925 6.58346 48.3911C6.51585 48.3558 6.44898 48.3176 6.38284 48.2816C6.18297 48.1699 5.98701 48.0528 5.79498 47.9303C5.59118 47.8005 5.3918 47.665 5.19682 47.524C5.10668 47.4593 5.01752 47.3929 4.92934 47.3248C4.42101 46.936 3.945 46.5067 3.50596 46.0411C3.48172 46.0168 3.45893 45.9918 3.43615 45.9676C3.31932 45.8412 3.20468 45.7126 3.09372 45.581C3.05257 45.5325 3.01142 45.484 2.971 45.4341C2.83922 45.2734 2.7121 45.109 2.58962 44.941C2.57125 44.9168 2.55362 44.8918 2.53598 44.8675C2.0339 44.1732 1.61765 43.4206 1.29631 42.6263C1.28603 42.602 1.27647 42.577 1.26766 42.5528C1.16968 42.3005 1.08027 42.044 0.999441 41.7834C0.966374 41.6747 0.934776 41.563 0.906852 41.4542C0.897299 41.4219 0.888481 41.3888 0.880398 41.3565C0.474769 39.7597 0.428474 38.0997 0.428474 36.4492C0.428474 36.2567 0.428474 36.0644 0.428474 35.8724C0.440232 33.2027 0.481382 30.4875 0.875254 27.8546C0.875254 27.8362 0.880398 27.8179 0.883337 27.8002C1.01516 26.9139 1.19448 26.0352 1.4205 25.1681H8.92464V21.3815H10.4208V18.34H13.6408V21.3815H15.1369Z" fill="#1F7A3A"/>
<path opacity="0.1" d="M77.8919 46.8023C75.9401 50.83 71.975 53.5231 67.8673 55.2992C64.5784 56.7118 61.1019 57.6396 57.5465 58.0534C56.8655 58.1342 56.1824 58.1969 55.497 58.2415C53.7457 58.3557 51.9888 58.3537 50.2378 58.2356C49.1845 58.1656 48.135 58.0536 47.089 57.8998C43.4548 57.3696 39.9117 56.3379 36.5611 54.8341C35.594 54.3986 34.6466 53.9231 33.7187 53.4078C32.169 52.5488 30.6841 51.5777 29.2759 50.5022C28.9643 50.2641 28.6567 50.0209 28.3529 49.7725L28.228 49.6704C27.9892 49.4735 27.7526 49.2721 27.5123 49.0766C27.1129 48.7421 26.6889 48.438 26.244 48.1669C26.2138 48.1493 26.1837 48.1316 26.1529 48.1147C26.0705 48.067 25.9868 48.0222 25.9015 47.9795C25.7259 47.891 25.5459 47.8115 25.3622 47.7414V36.3434H39V38.8808H44.9852V20.3203H52.0301V27.7422H55.5147V23.3479H58.3937V18.6537H59.7165V15.9201C59.8311 15.962 59.9457 16.0054 60.0596 16.0487V18.6537H61.3471V23.3508H64.2239V27.7451H68.4661V44.4869H75.209V32.3114H77.3819C79.3564 36.9166 80.0677 42.314 77.8919 46.8023Z" fill="#1F7A3A"/>
<path opacity="0.1" d="M50.2393 23.1134H47.0905V26.2622H50.2393V23.1134Z" fill="#1F7A3A"/>
<path opacity="0.1" d="M50.2393 29.6402H47.0905V32.789H50.2393V29.6402Z" fill="#1F7A3A"/>
<path opacity="0.1" d="M50.2393 36.1678H47.0905V39.3165H50.2393V36.1678Z" fill="#1F7A3A"/>
<path opacity="0.1" d="M50.2393 42.6953H47.0905V45.8441H50.2393V42.6953Z" fill="#1F7A3A"/>
<path opacity="0.1" d="M50.2393 49.2222H47.0905V52.3709H50.2393V49.2222Z" fill="#1F7A3A"/>
<path opacity="0.1" d="M50.2393 55.7482V58.2349C49.186 58.1649 48.1364 58.0529 47.0905 57.8991V55.7482H50.2393Z" fill="#1F7A3A"/>
<path opacity="0.1" d="M37.4223 40.4129H26.4005V41.8393H37.4223V40.4129Z" fill="#1F7A3A"/>
<path opacity="0.1" d="M37.4223 44.7448H26.4005V46.1711H37.4223V44.7448Z" fill="#1F7A3A"/>
<path opacity="0.1" d="M37.4223 49.0766V50.5022H29.2774C28.9658 50.2641 28.6582 50.0209 28.3544 49.7725L28.2295 49.6704C27.9907 49.4735 27.7541 49.2721 27.5138 49.0766H37.4223Z" fill="#1F7A3A"/>
<path opacity="0.1" d="M37.4223 53.4078V54.8341H36.5625C35.5955 54.3986 34.6481 53.9231 33.7202 53.4078H37.4223Z" fill="#1F7A3A"/>
<path opacity="0.1" d="M57.548 31.6397H55.4985V33.6892H57.548V31.6397Z" fill="#1F7A3A"/>
<path opacity="0.1" d="M13.1639 22.0883H11.1144V24.1378H13.1639V22.0883Z" fill="#1F7A3A"/>
<path opacity="0.1" d="M13.1639 26.8501H11.1144V28.8995H13.1639V26.8501Z" fill="#1F7A3A"/>
<path opacity="0.1" d="M13.1639 31.6111H11.1144V33.6605H13.1639V31.6111Z" fill="#1F7A3A"/>
<path opacity="0.1" d="M13.1639 36.3728H11.1144V38.4223H13.1639V36.3728Z" fill="#1F7A3A"/>
<path opacity="0.1" d="M13.1639 41.1345H11.1144V43.184H13.1639V41.1345Z" fill="#1F7A3A"/>
<path opacity="0.1" d="M13.1639 45.8955H11.1144V47.945H13.1639V45.8955Z" fill="#1F7A3A"/>
<path opacity="0.1" d="M65.3732 31.6397H63.3238V33.6892H65.3732V31.6397Z" fill="#1F7A3A"/>
<path opacity="0.1" d="M57.548 36.6954H55.4985V38.7449H57.548V36.6954Z" fill="#1F7A3A"/>
<path opacity="0.1" d="M65.3732 36.6954H63.3238V38.7449H65.3732V36.6954Z" fill="#1F7A3A"/>
<path opacity="0.1" d="M57.548 41.7518H55.4985V43.8013H57.548V41.7518Z" fill="#1F7A3A"/>
<path opacity="0.1" d="M65.3732 41.7518H63.3238V43.8013H65.3732V41.7518Z" fill="#1F7A3A"/>
<path opacity="0.1" d="M57.548 46.8082H55.4985V48.8577H57.548V46.8082Z" fill="#1F7A3A"/>
<path opacity="0.1" d="M65.3732 46.8082H63.3238V48.8577H65.3732V46.8082Z" fill="#1F7A3A"/>
<path opacity="0.1" d="M57.548 51.8639H55.4985V53.9133H57.548V51.8639Z" fill="#1F7A3A"/>
<path opacity="0.1" d="M65.3732 51.8639H63.3238V53.9133H65.3732V51.8639Z" fill="#1F7A3A"/>
<path opacity="0.1" d="M55.4985 58.2415V56.9195H57.548V58.0534L55.4985 58.2415Z" fill="#1F7A3A"/>
<path opacity="0.1" d="M0.875992 27.801V28.9767H8.71448V27.801H0.875992ZM1.57409 28.9032H0.998709V27.8744H1.57409V28.9032ZM2.27218 28.9032H1.6968V27.8744H2.27218V28.9032ZM2.97027 28.9032H2.3949V27.8744H2.97027V28.9032ZM3.66837 28.9032H3.09299V27.8744H3.66837V28.9032ZM4.36646 28.9032H3.79108V27.8744H4.36646V28.9032ZM5.06455 28.9032H4.48918V27.8744H5.06455V28.9032ZM5.76265 28.9032H5.18727V27.8744H5.76265V28.9032ZM6.46074 28.9032H5.88536V27.8744H6.46074V28.9032ZM7.15883 28.9032H6.58346V27.8744H7.15883V28.9032ZM7.85693 28.9032H7.28155V27.8744H7.85693V28.9032ZM8.59176 28.9032H7.97964V27.8744H8.59176V28.9032Z" fill="#1F7A3A"/>
<path opacity="0.1" d="M0.875992 31.215V32.3871H8.71448V31.215H0.875992ZM1.57409 32.3136H0.998709V31.2885H1.57409V32.3136ZM2.27218 32.3136H1.6968V31.2885H2.27218V32.3136ZM2.97027 32.3136H2.3949V31.2885H2.97027V32.3136ZM3.66837 32.3136H3.09299V31.2885H3.66837V32.3136ZM4.36646 32.3136H3.79108V31.2885H4.36646V32.3136ZM5.06455 32.3136H4.48918V31.2885H5.06455V32.3136ZM5.76265 32.3136H5.18727V31.2885H5.76265V32.3136ZM6.46074 32.3136H5.88536V31.2885H6.46074V32.3136ZM7.15883 32.3136H6.58346V31.2885H7.15883V32.3136ZM7.85693 32.3136H7.28155V31.2885H7.85693V32.3136ZM8.59176 32.3136H7.97964V31.2885H8.59176V32.3136Z" fill="#1F7A3A"/>
<path opacity="0.1" d="M0.875992 34.6283V35.8004H8.71448V34.6283H0.875992ZM1.57409 35.7269H0.998709V34.7018H1.57409V35.7269ZM2.27218 35.7269H1.6968V34.7018H2.27218V35.7269ZM2.97027 35.7269H2.3949V34.7018H2.97027V35.7269ZM3.66837 35.7269H3.09299V34.7018H3.66837V35.7269ZM4.36646 35.7269H3.79108V34.7018H4.36646V35.7269ZM5.06455 35.7269H4.48918V34.7018H5.06455V35.7269ZM5.76265 35.7269H5.18727V34.7018H5.76265V35.7269ZM6.46074 35.7269H5.88536V34.7018H6.46074V35.7269ZM7.15883 35.7269H6.58346V34.7018H7.15883V35.7269ZM7.85693 35.7269H7.28155V34.7018H7.85693V35.7269ZM8.59176 35.7269H7.97964V34.7018H8.59176V35.7269Z" fill="#1F7A3A"/>
<path opacity="0.1" d="M0.875992 38.0387V39.2144H8.71448V38.0387H0.875992ZM1.57409 39.1409H0.998709V38.1122H1.57409V39.1409ZM2.27218 39.1409H1.6968V38.1122H2.27218V39.1409ZM2.97027 39.1409H2.3949V38.1122H2.97027V39.1409ZM3.66837 39.1409H3.09299V38.1122H3.66837V39.1409ZM4.36646 39.1409H3.79108V38.1122H4.36646V39.1409ZM5.06455 39.1409H4.48918V38.1122H5.06455V39.1409ZM5.76265 39.1409H5.18727V38.1122H5.76265V39.1409ZM6.46074 39.1409H5.88536V38.1122H6.46074V39.1409ZM7.15883 39.1409H6.58346V38.1122H7.15883V39.1409ZM7.85693 39.1409H7.28155V38.1122H7.85693V39.1409ZM8.59176 39.1409H7.97964V38.1122H8.59176V39.1409Z" fill="#1F7A3A"/>
<path opacity="0.1" d="M0.90612 41.4549C0.934044 41.5652 0.965642 41.6754 0.99871 41.7841V41.5284H1.57409V42.5572H1.26692C1.27574 42.5814 1.2853 42.6064 1.29558 42.6307H8.71742V41.4549H0.90612ZM2.27218 42.5572H1.6968V41.5284H2.27218V42.5572ZM2.97027 42.5572H2.3949V41.5284H2.97027V42.5572ZM3.66837 42.5572H3.09299V41.5284H3.66837V42.5572ZM4.36646 42.5572H3.79108V41.5284H4.36646V42.5572ZM5.06455 42.5572H4.48918V41.5284H5.06455V42.5572ZM5.76265 42.5572H5.18727V41.5284H5.76265V42.5572ZM6.46074 42.5572H5.88536V41.5284H6.46074V42.5572ZM7.15883 42.5572H6.58346V41.5284H7.15883V42.5572ZM7.85693 42.5572H7.28155V41.5284H7.85693V42.5572ZM8.59176 42.5572H7.97965V41.5284H8.59176V42.5572Z" fill="#1F7A3A"/>
<path opacity="0.1" d="M2.53525 44.8683C2.55288 44.8925 2.57052 44.9175 2.58889 44.9417H2.97027V45.4348C3.01069 45.484 3.05184 45.5325 3.09299 45.5818V44.9425H3.66836V45.9712H3.43542C3.4582 45.9955 3.48098 46.0205 3.50523 46.0447H8.71448V44.869L2.53525 44.8683ZM4.36646 45.9705H3.79108V44.9417H4.36646V45.9705ZM5.06455 45.9705H4.48917V44.9417H5.06455V45.9705ZM5.76264 45.9705H5.18727V44.9417H5.76264V45.9705ZM6.46074 45.9705H5.88536V44.9417H6.46074V45.9705ZM7.15883 45.9705H6.58346V44.9417H7.15883V45.9705ZM7.85692 45.9705H7.28155V44.9417H7.85692V45.9705ZM8.59176 45.9705H7.97964V44.9417H8.59176V45.9705Z" fill="#1F7A3A"/>
<path opacity="0.1" d="M6.38284 48.2815C6.44898 48.319 6.51585 48.355 6.58345 48.391V48.355H7.15883V48.6798L7.28155 48.7357V48.355H7.85692V48.9789L7.97964 49.0259V48.355H8.59176V49.2368L8.71448 49.275V48.2815H6.38284Z" fill="#1F7A3A"/>
<path opacity="0.1" d="M30.5531 17.6227C30.5531 17.6227 28.8012 17.5169 29.0099 18.7441C28.9992 18.8065 29.0085 18.8706 29.0365 18.9274C29.0645 18.9842 29.1097 19.0306 29.1657 19.0601C29.1657 19.0601 29.1657 18.969 29.345 18.9998C29.4079 19.0102 29.4717 19.0131 29.5353 19.0086C29.6213 19.003 29.7031 18.9695 29.7682 18.9131V18.9131C29.7682 18.9131 30.2606 18.7096 30.4524 17.9049C30.4524 17.9049 30.5935 17.7293 30.5883 17.6845L30.2944 17.8109C30.2944 17.8109 30.3958 18.024 30.3164 18.2011C30.3164 18.2011 30.3069 17.8189 30.2496 17.8278C30.2385 17.8278 30.096 17.9013 30.096 17.9013C30.096 17.9013 30.2701 18.2731 30.1386 18.5428C30.1386 18.5428 30.1886 18.0857 30.0423 17.9284L29.8292 18.0512C29.8292 18.0512 30.0328 18.4347 29.8946 18.7478C29.8946 18.7478 29.9306 18.2679 29.7859 18.0813L29.597 18.2283C29.597 18.2283 29.7881 18.606 29.6705 18.8661C29.6705 18.8661 29.6551 18.3069 29.5551 18.2643C29.4834 18.3247 29.4195 18.3938 29.3648 18.47C29.3648 18.47 29.4956 18.7441 29.4148 18.8889C29.4148 18.8889 29.3648 18.517 29.3237 18.5148C29.3237 18.5148 29.1598 18.7617 29.1429 18.9308C29.1505 18.774 29.1991 18.6219 29.284 18.4899C29.1893 18.5078 29.102 18.553 29.0327 18.6199C29.0327 18.6199 29.0584 18.4458 29.3266 18.4303C29.3266 18.4303 29.4626 18.2437 29.4993 18.2319C29.4993 18.2319 29.234 18.2099 29.0731 18.2812C29.0731 18.2812 29.2149 18.1166 29.5478 18.1915L29.7337 18.0394C29.7337 18.0394 29.3847 17.9916 29.237 18.0445C29.237 18.0445 29.4067 17.8976 29.7837 18.0049L29.9865 17.8836C29.8307 17.8495 29.6711 17.8357 29.5118 17.8425C29.5118 17.8425 29.6984 17.7418 30.046 17.8513L30.193 17.7859C30.193 17.7859 29.9725 17.7433 29.9115 17.7366C29.8505 17.73 29.8439 17.7124 29.8439 17.7124C29.982 17.6894 30.1237 17.7052 30.2532 17.758C30.2532 17.758 30.5582 17.6419 30.5531 17.6227Z" fill="#1F7A3A"/>
<path opacity="0.1" d="M25.9544 23.5948C25.9544 23.5948 25.3556 25.2437 26.5915 25.3944C26.6481 25.4222 26.7121 25.4315 26.7743 25.4208C26.8364 25.4101 26.8936 25.38 26.9377 25.3349C26.9377 25.3349 26.8517 25.3062 26.931 25.1453C26.9588 25.0881 26.98 25.0279 26.9942 24.966C27.0128 24.8818 27.0035 24.7938 26.9678 24.7154V24.7154C26.9678 24.7154 26.9127 24.1856 26.1955 23.7733C26.1955 23.7733 26.0676 23.5874 26.0228 23.5801L26.0595 23.8997C26.0595 23.8997 26.2925 23.863 26.4402 23.9894C26.4402 23.9894 26.0728 23.8902 26.0632 23.9475C26.0632 23.9585 26.0904 24.1158 26.0904 24.1158C26.0904 24.1158 26.496 24.054 26.7172 24.2568C26.7172 24.2568 26.2925 24.079 26.1007 24.1753L26.158 24.409C26.158 24.409 26.5835 24.3237 26.8443 24.5442C26.8443 24.5442 26.3946 24.3744 26.1742 24.4597L26.2616 24.6801C26.2616 24.6801 26.6783 24.6066 26.8943 24.7896C26.8943 24.7896 26.3535 24.6426 26.2851 24.7293C26.3228 24.8149 26.3706 24.8956 26.4277 24.9696C26.4277 24.9696 26.7282 24.9226 26.8436 25.0431C26.8436 25.0431 26.4725 24.9851 26.4593 25.0233C26.4593 25.0233 26.6496 25.2511 26.8069 25.3172C26.6592 25.265 26.5277 25.175 26.4255 25.0563C26.4157 25.1524 26.4344 25.2493 26.4791 25.3349C26.4791 25.3349 26.3189 25.2614 26.3799 25.0005C26.3799 25.0005 26.2388 24.8175 26.2388 24.7801C26.2388 24.7801 26.1418 25.0277 26.1653 25.2026C26.1653 25.2026 26.0478 25.0196 26.2138 24.722L26.1213 24.5015C26.1213 24.5015 25.9743 24.8227 25.9846 24.9799C25.9846 24.9799 25.8935 24.7749 26.1021 24.4435L26.0441 24.215C25.9672 24.3538 25.9087 24.502 25.8699 24.6559C25.8699 24.6559 25.8259 24.4479 26.0294 24.1459L26.0081 23.9886C26.0081 23.9886 25.9052 24.1856 25.881 24.2451C25.8567 24.3046 25.8383 24.3024 25.8383 24.3024C25.8553 24.1634 25.9105 24.0319 25.9978 23.9225C25.9978 23.9225 25.9743 23.5948 25.9544 23.5948Z" fill="#1F7A3A"/>
<path opacity="0.1" d="M37.5671 22.2045C37.5671 22.2045 36.9689 23.8564 38.2042 24.0033C38.2609 24.0311 38.3251 24.0403 38.3874 24.0295C38.4496 24.0187 38.5069 23.9884 38.551 23.9431C38.551 23.9431 38.4643 23.9144 38.5444 23.7542C38.5724 23.697 38.5934 23.6365 38.6068 23.5742C38.6257 23.4901 38.6166 23.4021 38.5811 23.3236C38.5811 23.3236 38.526 22.7938 37.8088 22.3816C37.8088 22.3816 37.6802 22.1964 37.6354 22.189L37.6729 22.5079C37.6729 22.5079 37.9058 22.4719 38.0535 22.5983C38.0535 22.5983 37.6861 22.4991 37.6758 22.5557C37.6758 22.5675 37.703 22.724 37.703 22.724C37.703 22.724 38.1086 22.663 38.3305 22.8651C38.3305 22.8651 37.9058 22.688 37.7133 22.7835L37.7713 23.0179C37.7713 23.0179 38.1968 22.9319 38.4577 23.1531C38.4577 23.1531 38.0072 22.9826 37.7868 23.0679L37.8742 23.2883C37.8742 23.2883 38.2909 23.2149 38.5069 23.3978C38.5069 23.3978 37.9668 23.2509 37.8977 23.3383C37.9365 23.4242 37.9859 23.5049 38.0447 23.5786C38.0447 23.5786 38.3445 23.5308 38.4606 23.6521C38.4606 23.6521 38.0895 23.594 38.0763 23.633C38.0763 23.633 38.2659 23.86 38.4231 23.9269C38.2756 23.8749 38.1443 23.7849 38.0425 23.666C38.0327 23.762 38.0511 23.8588 38.0954 23.9445C38.0954 23.9445 37.9359 23.8711 37.9969 23.6109C37.9969 23.6109 37.8558 23.4272 37.8551 23.3905C37.8551 23.3905 37.7588 23.6389 37.7816 23.813C37.7816 23.813 37.6641 23.6308 37.8301 23.3324L37.7375 23.112C37.7375 23.112 37.5906 23.4331 37.6009 23.5896C37.6009 23.5896 37.5097 23.3853 37.7184 23.0539L37.6596 22.8247C37.5827 22.9635 37.5242 23.1117 37.4855 23.2656C37.4855 23.2656 37.4421 23.0576 37.6457 22.7556L37.6244 22.5983C37.6244 22.5983 37.5215 22.7953 37.4965 22.8548C37.4715 22.9143 37.4539 22.9121 37.4539 22.9121C37.4713 22.7731 37.5267 22.6417 37.6141 22.5322C37.6141 22.5322 37.5876 22.2052 37.5671 22.2045Z" fill="#1F7A3A"/>
<path opacity="0.1" d="M20.9671 35.6872C20.9671 35.6872 20.3682 37.3369 21.6042 37.4875C21.6609 37.5154 21.7249 37.5246 21.7871 37.5138C21.8493 37.5029 21.9064 37.4727 21.9503 37.4273C21.9503 37.4273 21.8644 37.3986 21.9437 37.2384C21.972 37.1812 21.9932 37.1207 22.0069 37.0584C22.0259 36.9742 22.0166 36.8862 21.9805 36.8078V36.8078C21.9805 36.8078 21.9253 36.278 21.2081 35.8665C21.2081 35.8665 21.0803 35.6806 21.0355 35.6732L21.0722 35.9922C21.0722 35.9922 21.3059 35.9562 21.4528 36.0825C21.4528 36.0825 21.0854 35.9833 21.0759 36.0399C21.0759 36.0517 21.1031 36.2082 21.1031 36.2082C21.1031 36.2082 21.5087 36.1472 21.7299 36.3493C21.7299 36.3493 21.3051 36.1722 21.1133 36.2677L21.1707 36.5021C21.1707 36.5021 21.5961 36.4162 21.857 36.6373C21.857 36.6373 21.4073 36.4669 21.1868 36.5521L21.2743 36.7726C21.2743 36.7726 21.6909 36.6991 21.907 36.882C21.907 36.882 21.3669 36.7351 21.2978 36.8225C21.3354 36.9081 21.3833 36.9888 21.4404 37.0628C21.4404 37.0628 21.7409 37.015 21.857 37.1363C21.857 37.1363 21.4852 37.0782 21.4719 37.1172C21.4719 37.1172 21.6623 37.3443 21.8195 37.4111C21.6718 37.3593 21.5403 37.2696 21.4381 37.151C21.4284 37.2468 21.4471 37.3434 21.4918 37.4288C21.4918 37.4288 21.3316 37.3553 21.3926 37.0951C21.3926 37.0951 21.2522 36.9114 21.2515 36.8747C21.2515 36.8747 21.1545 37.1231 21.178 37.2972C21.178 37.2972 21.0604 37.115 21.2265 36.8166L21.1339 36.5962C21.1339 36.5962 20.987 36.9173 20.998 37.0738C20.998 37.0738 20.9069 36.8696 21.1156 36.5381L21.0568 36.3096C20.9797 36.4483 20.9212 36.5966 20.8826 36.7505C20.8826 36.7505 20.8385 36.5418 21.0421 36.2405L21.0208 36.0825C21.0208 36.0825 20.9179 36.2795 20.8936 36.339C20.8694 36.3985 20.851 36.3963 20.851 36.3963C20.868 36.2572 20.9235 36.1257 21.0112 36.0164C21.0112 36.0164 20.987 35.6872 20.9671 35.6872Z" fill="#1F7A3A"/>
<path opacity="0.1" d="M18.5907 20.1388C18.5907 20.1388 17.9925 21.7878 19.2278 21.9384C19.2845 21.9662 19.3486 21.9754 19.4108 21.9648C19.4731 21.9541 19.5304 21.924 19.5746 21.8789C19.5746 21.8789 19.4879 21.8503 19.568 21.6893C19.5957 21.6319 19.6167 21.5715 19.6305 21.5093C19.6493 21.4254 19.6402 21.3377 19.6047 21.2595C19.6047 21.2595 19.5496 20.7296 18.8317 20.3174C18.8317 20.3174 18.7038 20.1315 18.659 20.1241L18.6965 20.4438C18.6965 20.4438 18.9294 20.407 19.0764 20.5334C19.0764 20.5334 18.709 20.4342 18.6994 20.4915C18.6994 20.5026 18.7266 20.6598 18.7266 20.6598C18.7266 20.6598 19.1322 20.5981 19.3542 20.8009C19.3542 20.8009 18.9294 20.6231 18.7369 20.7193L18.7942 20.953C18.7942 20.953 19.2197 20.867 19.4813 21.0882C19.4813 21.0882 19.0308 20.9178 18.8104 21.0037L18.8978 21.2242C18.8978 21.2242 19.3145 21.1507 19.5305 21.3344C19.5305 21.3344 18.9904 21.1874 18.9213 21.2741C18.959 21.3597 19.0069 21.4404 19.0639 21.5144C19.0639 21.5144 19.3645 21.4674 19.4806 21.5879C19.4806 21.5879 19.1095 21.5299 19.0962 21.5681C19.0962 21.5681 19.2858 21.7959 19.4431 21.862C19.2955 21.8096 19.1641 21.7197 19.0617 21.6011C19.052 21.6972 19.0706 21.7941 19.1153 21.8797C19.1153 21.8797 18.9551 21.8062 19.0169 21.5453C19.0169 21.5453 18.8758 21.3623 18.8751 21.3249C18.8751 21.3249 18.7788 21.5725 18.8016 21.7474C18.8016 21.7474 18.6833 21.5644 18.8501 21.2668L18.7567 21.0463C18.7567 21.0463 18.6098 21.3675 18.6208 21.5247C18.6208 21.5247 18.5297 21.3197 18.7384 20.9883L18.6796 20.7598C18.6027 20.8986 18.5441 21.0468 18.5054 21.2007C18.5054 21.2007 18.4621 20.9927 18.6649 20.6907L18.6443 20.5334C18.6443 20.5334 18.5407 20.7304 18.5165 20.7892C18.4922 20.8479 18.4738 20.8472 18.4738 20.8472C18.4908 20.7081 18.5463 20.5766 18.634 20.4673C18.634 20.4673 18.6112 20.1388 18.5907 20.1388Z" fill="#1F7A3A"/>
<path opacity="0.1" d="M23.032 29.1185C23.032 29.1185 23.4942 30.8086 24.5906 30.2208C24.6529 30.2109 24.7105 30.1815 24.7551 30.1369C24.7997 30.0923 24.8291 30.0347 24.839 29.9724C24.839 29.9724 24.7523 29.9989 24.7251 29.8218C24.7147 29.7589 24.697 29.6975 24.6722 29.6388C24.6396 29.559 24.5814 29.4923 24.5068 29.4492C24.5068 29.4492 24.1563 29.048 23.3311 29.1244C23.3311 29.1244 23.1195 29.0472 23.0783 29.0671L23.2929 29.3059C23.2929 29.3059 23.4626 29.142 23.6559 29.1589C23.6559 29.1589 23.2966 29.2912 23.323 29.3419C23.3289 29.3522 23.4421 29.4639 23.4421 29.4639C23.4421 29.4639 23.736 29.1795 24.0358 29.217C24.0358 29.217 23.5868 29.3169 23.4854 29.5065L23.6669 29.6645C23.6669 29.6645 23.9653 29.3493 24.3062 29.3787C24.3062 29.3787 23.8396 29.4992 23.7088 29.6961L23.9087 29.8276C23.9087 29.8276 24.2026 29.5256 24.4892 29.5528C24.4892 29.5528 23.9645 29.7461 23.9564 29.8548C24.0367 29.9031 24.1226 29.9414 24.2122 29.9687C24.2122 29.9687 24.4326 29.7571 24.5935 29.7872C24.5935 29.7872 24.2562 29.954 24.268 29.993C24.268 29.993 24.5546 30.0665 24.7199 30.0312C24.5694 30.0739 24.4103 30.0764 24.2585 30.0385C24.3057 30.1226 24.3768 30.1909 24.4627 30.2347C24.4627 30.2347 24.2893 30.2663 24.1894 30.0187C24.1894 30.0187 23.9689 29.9504 23.9454 29.9195C23.9454 29.9195 24.0101 30.1782 24.1291 30.3075C24.1291 30.3075 23.9278 30.2259 23.8918 29.8864L23.6882 29.7593C23.6882 29.7593 23.7551 30.1054 23.8521 30.2281C23.8521 30.2281 23.6596 30.1135 23.639 29.7226L23.4597 29.5697C23.4771 29.7283 23.5152 29.8839 23.5729 30.0327C23.5729 30.0327 23.4178 29.8857 23.4097 29.5242L23.3017 29.4073C23.3017 29.4073 23.3311 29.6278 23.3451 29.6902C23.359 29.7527 23.3451 29.7637 23.3451 29.7637C23.2789 29.6403 23.2483 29.5008 23.2569 29.361C23.2569 29.361 23.0489 29.1075 23.032 29.1185Z" fill="#1F7A3A"/>
<path opacity="0.1" d="M35.5712 30.6279C35.5712 30.6279 36.0335 32.318 37.1291 31.7301C37.1916 31.7205 37.2494 31.6912 37.2941 31.6466C37.3389 31.6019 37.3684 31.5442 37.3782 31.4817C37.3782 31.4817 37.2908 31.5082 37.2636 31.3348C37.2538 31.2719 37.2363 31.2104 37.2114 31.1518C37.1783 31.0721 37.12 31.0055 37.0453 30.9622V30.9622C37.0453 30.9622 36.6948 30.561 35.8696 30.6382C35.8696 30.6382 35.658 30.5603 35.6175 30.5801L35.8314 30.8189C35.8314 30.8189 36.0011 30.6551 36.1944 30.672C36.1944 30.672 35.835 30.8042 35.8622 30.8549C35.8674 30.8652 35.9813 30.9769 35.9813 30.9769C35.9813 30.9769 36.2752 30.6925 36.575 30.73C36.575 30.73 36.1253 30.8299 36.0239 31.0195L36.2061 31.1775C36.2061 31.1775 36.5001 30.8623 36.8447 30.8917C36.8447 30.8917 36.3788 31.0122 36.248 31.2091L36.4479 31.3407C36.4479 31.3407 36.7418 31.0386 37.0277 31.0658C37.0277 31.0658 36.503 31.2591 36.4957 31.3678C36.5757 31.4161 36.6613 31.4544 36.7507 31.4817C36.7507 31.4817 36.9711 31.2701 37.132 31.3002C37.132 31.3002 36.7955 31.467 36.8065 31.506C36.8065 31.506 37.0931 31.5795 37.2592 31.5442C37.1084 31.5868 36.949 31.5894 36.7969 31.5516C36.8445 31.6355 36.9155 31.7037 37.0012 31.7478C37.0012 31.7478 36.8278 31.7794 36.7279 31.5317C36.7279 31.5317 36.5074 31.4634 36.4846 31.4325C36.4846 31.4325 36.5486 31.6912 36.6676 31.8205C36.6676 31.8205 36.4663 31.7389 36.4303 31.3994L36.2267 31.2708C36.2267 31.2708 36.2936 31.617 36.3913 31.7397C36.3913 31.7397 36.1988 31.625 36.1782 31.2341L35.9982 31.0813C36.0156 31.2399 36.0539 31.3956 36.1121 31.5442C36.1121 31.5442 35.9563 31.3972 35.9482 31.0357L35.8402 30.9189C35.8402 30.9189 35.8696 31.1393 35.8835 31.2018C35.8975 31.2642 35.8835 31.2753 35.8835 31.2753C35.8174 31.1518 35.7868 31.0124 35.7954 30.8726C35.7954 30.8726 35.5881 30.6168 35.5712 30.6279Z" fill="#1F7A3A"/>
<path d="M30.8668 47.6011C30.8668 47.6011 34.6791 46.3173 33.8899 41.7687L29.0474 40.5114L27.9231 44.2436L30.8668 47.6011Z" fill="#CED7E7"/>
<path opacity="0.1" d="M27.9231 44.2436L30.8661 47.6011C30.8661 47.6011 34.6784 46.3174 33.8892 41.7687L27.9231 44.2436Z" fill="black"/>
<path d="M11.9037 10.6396C11.9037 10.6396 12.418 11.4766 13.1213 11.0585C13.8245 10.6403 13.1499 9.48519 13.1499 9.48519C13.1499 9.48519 11.803 9.30074 11.9037 10.6396Z" fill="#FED253"/>
<path opacity="0.1" d="M13.1213 11.0585C13.0383 11.1122 12.9453 11.1483 12.8479 11.1647C12.7504 11.1812 12.6507 11.1775 12.5547 11.154C12.2968 11.0886 12.0984 10.8902 11.9918 10.7601C11.9601 10.722 11.9306 10.682 11.9037 10.6404C11.8677 10.1627 12.0161 9.87833 12.2219 9.71079C12.5048 9.48079 12.8964 9.47123 13.0654 9.47858C13.1176 9.47858 13.1477 9.48593 13.1477 9.48593L13.1617 9.50945C13.1815 9.54692 13.2249 9.62996 13.2712 9.74092C13.4284 10.1047 13.6158 10.7638 13.1213 11.0585Z" fill="black"/>
<path d="M31.2416 41.5549L33.887 41.7687L38.8104 41.8091L34.9312 46.5855C34.9312 46.5855 33.7003 46.6524 33.4468 46.8258C33.1933 46.9993 29.6338 46.9067 29.6338 46.9067L29.0591 44.4582L31.2416 41.5549Z" fill="#FFA2A2"/>
<path opacity="0.05" d="M31.2416 41.5549L33.887 41.7687L38.8104 41.8091L34.9312 46.5855C34.9312 46.5855 33.7003 46.6524 33.4468 46.8258C33.1933 46.9993 29.6338 46.9067 29.6338 46.9067L29.0591 44.4582L31.2416 41.5549Z" fill="black"/>
<path d="M28.5661 28.7129L29.1811 29.7563L29.3149 31.5758C29.3149 31.5758 29.7433 33.127 30.0644 33.5819C30.3855 34.0368 30.5192 35.2412 30.5192 35.2412C30.5192 35.2412 30.653 36.3647 30.8132 36.605C30.9734 36.8453 31.1879 38.5891 31.1879 38.5891C31.1879 38.5891 32.6062 41.4248 33.8899 41.7724C33.8899 41.7724 27.5226 43.8593 30.8668 47.6048C30.8668 47.6048 28.486 48.1926 27.9238 47.5247C27.3617 46.8567 25.8905 36.957 25.8905 36.957L26.3454 28.6093L28.5661 28.7129Z" fill="#CED7E7"/>
<path opacity="0.05" d="M28.5661 28.7129L29.1811 29.7563L29.3149 31.5758C29.3149 31.5758 29.7433 33.127 30.0644 33.5819C30.3855 34.0368 30.5192 35.2412 30.5192 35.2412C30.5192 35.2412 30.653 36.3647 30.8132 36.605C30.9734 36.8453 31.1879 38.5891 31.1879 38.5891C31.1879 38.5891 32.6062 41.4248 33.8899 41.7724C33.8899 41.7724 27.5226 43.8593 30.8668 47.6048C30.8668 47.6048 28.486 48.1926 27.9238 47.5247C27.3617 46.8567 25.8905 36.957 25.8905 36.957L26.3454 28.6093L28.5661 28.7129Z" fill="black"/>
<path d="M20.8407 18.5435C20.6621 19.4704 20.7151 20.4271 20.995 21.3285L20.0045 24.1643C20.0045 24.1643 12.4599 19.9639 13.1022 18.9469C13.4659 18.3701 13.5122 16.8438 13.4828 15.6313C13.4615 14.7099 13.3961 13.9706 13.3961 13.9706C13.3961 13.9706 22.655 14.8811 21.4227 16.9945C21.1438 17.4748 20.9471 17.9984 20.8407 18.5435V18.5435Z" fill="#FFA2A2"/>
<path opacity="0.1" d="M21.4227 16.9945C21.1438 17.4748 20.9471 17.9984 20.8407 18.5435C19.4667 18.9831 17.9828 18.9332 16.6414 18.4023C15.3 17.8713 14.1839 16.8922 13.4828 15.6313C13.4615 14.7099 13.3961 13.9706 13.3961 13.9706C13.3961 13.9706 22.6528 14.8811 21.4227 16.9945Z" fill="black"/>
<path d="M25.1682 12.4458C25.1688 13.4267 24.938 14.394 24.4944 15.2689C24.0509 16.1438 23.4072 16.9017 22.6156 17.481C21.824 18.0603 20.9069 18.4446 19.9388 18.6027C18.9707 18.7608 17.979 18.6883 17.0442 18.391C16.1095 18.0937 15.258 17.58 14.5592 16.8917C13.8603 16.2034 13.3337 15.3598 13.0222 14.4297C12.7107 13.4996 12.6231 12.5091 12.7664 11.5387C12.9098 10.5683 13.2801 9.64546 13.8473 8.84514C13.9355 8.7212 14.0283 8.6002 14.1258 8.48213C14.6813 7.80698 15.3725 7.25619 16.1547 6.8655V6.8655C16.579 6.6532 17.0266 6.49094 17.4884 6.38197C18.3223 6.18443 19.1879 6.16058 20.0313 6.31191C20.8748 6.46324 21.6781 6.78651 22.3913 7.26162C23.1044 7.73672 23.7122 8.35349 24.1768 9.07356C24.6414 9.79363 24.9528 10.6016 25.0918 11.4472C25.1437 11.7775 25.1692 12.1115 25.1682 12.4458Z" fill="#FFA2A2"/>
<path d="M27.6291 38.0776C27.5358 38.5759 27.6527 39.4863 27.8298 40.4129C27.8371 40.4534 27.8452 40.4938 27.8533 40.5342C27.8613 40.5746 27.8731 40.6371 27.8834 40.6878C27.965 41.0861 28.0539 41.4807 28.1406 41.8393C28.2273 42.1979 28.3052 42.505 28.3713 42.7578C28.4713 43.1362 28.5396 43.3743 28.5396 43.3743C28.5396 43.3743 28.5484 43.608 28.5602 43.9798C28.5668 44.1944 28.5741 44.456 28.5815 44.7448C28.5815 44.8286 28.5866 44.9138 28.5888 45.002C28.5925 45.1556 28.5962 45.315 28.5999 45.4782C28.5999 45.5311 28.5999 45.584 28.6035 45.6376C28.6035 45.8133 28.6101 45.9926 28.6131 46.1711C28.6168 46.4166 28.6197 46.662 28.6212 46.9001C28.6212 46.9912 28.6212 47.0808 28.6212 47.169C28.6212 47.3968 28.6212 47.6151 28.6212 47.8157C28.6131 48.3852 28.5903 48.8151 28.5418 48.9392C28.5249 48.9819 28.5095 49.0282 28.4948 49.0767C28.4311 49.3048 28.3849 49.5374 28.3566 49.7725L28.2317 49.6704C27.9929 49.4735 27.7563 49.2721 27.516 49.0767C27.1166 48.7421 26.6926 48.438 26.2477 48.1669C26.2175 48.1493 26.1874 48.1317 26.1565 48.1148C26.0742 48.067 25.9905 48.0222 25.9052 47.9795C25.7296 47.891 25.5496 47.8116 25.3658 47.7415C24.5171 47.4181 23.6081 47.3006 22.6866 47.3204C22.3192 47.4608 22.0804 47.5614 22.0804 47.5614L21.613 47.7025L21.5352 47.726C21.0288 47.8803 20.3168 48.0993 20.0603 48.1904C19.6459 48.3374 16.0474 49.0862 16.0474 49.0862C15.7187 49.1759 15.3828 49.2374 15.0436 49.2699C14.426 49.4437 13.7972 49.5753 13.1617 49.6638C11.7176 49.8484 10.2508 49.7303 8.85483 49.3169C8.81317 49.3194 8.77136 49.3182 8.72991 49.3133C8.75563 49.3133 8.78061 49.3074 8.80339 49.303L8.71374 49.2765L8.59103 49.2383C8.38527 49.1737 8.18123 49.1029 7.97891 49.026L7.85619 48.9789C7.66024 48.9035 7.46844 48.8224 7.28082 48.7357L7.1581 48.6798C6.96214 48.5887 6.77035 48.4925 6.58272 48.3911C6.51512 48.3558 6.44825 48.3176 6.38211 48.2816C6.18224 48.1699 5.98628 48.0528 5.79424 47.9303C5.76191 47.6533 5.74501 47.4681 5.74501 47.4681L5.45842 46.0411L5.44373 45.9676L5.23797 44.9388L5.22328 44.8653L4.77576 42.627L4.76107 42.5535L4.55531 41.5248L4.54062 41.4513L4.08722 39.2144L4.07253 39.1409L3.86677 38.1122L3.85207 38.0387L3.40236 35.7974L3.38766 35.724L3.1819 34.6989L3.16721 34.6254L3.08564 34.2212L2.96292 33.6091C2.96292 33.6091 2.57126 33.0492 2.13036 32.3871L2.08112 32.3136C1.95547 32.1277 1.82613 31.9344 1.70048 31.7448C1.65859 31.6824 1.61818 31.6206 1.57776 31.5596C1.51652 31.4671 1.45725 31.3767 1.39993 31.2885L1.36025 31.2275L1.35217 31.215C0.718737 30.2347 1.14274 29.8085 1.14274 29.8085C1.14274 29.8085 1.40875 29.4485 1.75192 28.9723C1.76882 28.948 1.78645 28.9238 1.80482 28.8988C1.95179 28.6931 2.11345 28.4682 2.27218 28.2433L2.3949 28.0684C2.44119 28.003 2.48675 27.9376 2.53084 27.873C2.54848 27.8487 2.56538 27.8237 2.58154 27.7995C2.9203 27.3101 3.19954 26.8832 3.25686 26.7318C3.34651 26.493 3.91821 25.7868 4.48771 25.1673C4.93669 24.6779 5.38347 24.2429 5.58408 24.1385C6.03894 23.8983 6.22633 23.1215 6.22633 23.1215C6.22633 23.1215 7.21615 22.7747 7.34989 22.5072C7.48363 22.2397 9.35673 21.0375 9.35673 21.0375C9.35673 21.0375 10.1143 20.5496 10.4208 20.2557C10.4641 20.2172 10.502 20.173 10.5332 20.1241C10.6397 19.9331 11.3356 19.7758 11.6185 19.7192C11.692 19.7046 11.7376 19.6965 11.7376 19.6965C11.8518 19.4889 11.9962 19.2995 12.166 19.1343C12.2814 19.0322 12.4254 18.6802 12.5466 18.3392C12.6782 17.9674 12.7803 17.6095 12.7803 17.6095C12.9949 16.8872 13.4226 17.101 13.4226 17.101C13.422 17.1997 13.4313 17.2982 13.4505 17.395C13.6291 18.2768 14.599 18.6442 15.1083 19.0564C15.6704 19.5106 16.553 20.6885 17.2489 20.9288C17.825 21.1279 18.4929 21.8789 18.7046 22.1295L18.7207 22.1486C18.756 22.1898 18.7736 22.2133 18.7736 22.2133C18.7736 22.2133 19.1682 22.1927 19.4085 22.1883H19.496C19.5449 22.1834 19.5913 22.1645 19.6297 22.1339C19.8685 21.9715 20.2242 21.4953 20.3793 21.3859C20.5659 21.2514 20.754 19.0844 20.754 19.0844L20.7636 19.0799C21.4301 18.7676 22.1451 21.8936 22.1451 21.8936C22.1451 21.8936 23.4024 22.2684 23.5097 22.5359C23.5302 22.5888 23.625 22.6828 23.7676 22.7967C24.4167 23.2928 25.1076 23.7317 25.8325 24.1084C25.8486 24.1165 25.8641 24.1246 25.8802 24.1312C25.8948 24.1391 25.9098 24.1462 25.9251 24.1525C25.9522 24.1657 25.9787 24.1775 26.0037 24.1885C26.0434 24.2062 26.0801 24.2208 26.1139 24.2326L26.158 24.248C26.2633 24.2831 26.3625 24.3344 26.4519 24.4001C26.4784 24.4193 26.5048 24.4391 26.5306 24.4604C26.6306 24.5437 26.7226 24.6362 26.8054 24.7367C26.8179 24.7514 26.8296 24.7668 26.8414 24.7815C26.8972 24.8513 26.9472 24.9204 26.9884 24.9843C27.0559 25.083 27.1175 25.1855 27.1728 25.2915C27.1728 25.2915 28.2692 27.1646 28.6175 27.3777C28.9658 27.5908 29.1796 29.7593 29.1796 29.7593L28.0039 34.1176C28.0039 34.1176 27.9488 35.2199 27.8459 36.3442C27.7886 36.9747 27.7158 37.6162 27.6291 38.0776Z" fill="#CED7E7"/>
<path d="M18.7736 22.3455C18.7736 22.3455 17.9852 22.7732 17.3694 22.8136C17.2888 22.8174 17.208 22.8127 17.1283 22.7997C16.4832 22.7019 15.5367 22.1714 15.5367 22.1714L16.647 20.9538L17.9977 21.6232L18.4944 22.0854L18.7736 22.3455Z" fill="#63667E"/>
<path opacity="0.1" d="M25.0888 11.4472C25.0609 11.4867 25.0291 11.5234 24.994 11.5567C24.6075 11.9241 23.9212 11.772 23.3943 11.6867C22.9364 11.6119 22.4892 11.4826 22.062 11.3017C21.6902 11.143 21.2442 10.949 20.9098 11.1768C20.7812 11.2635 20.693 11.4024 20.5593 11.4788C20.4255 11.5552 20.2551 11.5604 20.0971 11.5626C19.5827 11.5626 19.0683 11.5684 18.5664 11.4523C17.8176 11.2774 17.0431 10.8373 16.331 11.1275C15.774 11.3539 15.472 11.9601 15.3214 12.5428C15.2479 12.8287 15.1935 13.1307 15.0274 13.3732C14.8614 13.6157 14.5403 13.7876 14.2669 13.6737C13.8635 13.5055 13.8039 12.8206 13.3175 12.7861C12.7833 12.7486 12.7899 13.3004 12.9457 13.6995C13.1764 14.2873 13.4784 14.8752 13.4916 15.4881C12.9175 14.4597 12.6462 13.2898 12.7091 12.1137C12.7721 10.9376 13.1667 9.8034 13.8473 8.8422C13.9657 8.76885 14.0585 8.66048 14.1126 8.5321C14.118 8.51474 14.1224 8.49707 14.1258 8.47919C14.1662 8.27417 14.0523 8.05887 14.0457 7.8443C14.02 7.32036 14.5873 6.95514 15.1075 6.88901C15.4537 6.84492 15.8078 6.87872 16.1547 6.8677C16.3294 6.86385 16.5031 6.84068 16.6727 6.79862C16.9654 6.71094 17.2393 6.57021 17.4811 6.38344C18.3149 6.1859 19.1805 6.16205 20.024 6.31338C20.8674 6.46471 21.6707 6.78798 22.3839 7.26309C23.0971 7.73819 23.7049 8.35496 24.1694 9.07503C24.634 9.7951 24.9455 10.6031 25.0844 11.4487L25.0888 11.4472Z" fill="black"/>
<path d="M25.2145 11.0144C25.1778 11.1597 25.1015 11.292 24.994 11.3965C24.6075 11.7639 23.9212 11.6111 23.3943 11.5258C22.9364 11.4526 22.4891 11.3243 22.062 11.1437C21.6902 10.9857 21.2442 10.7917 20.9098 11.0195C20.7812 11.1062 20.693 11.2451 20.5593 11.3215C20.4256 11.398 20.2551 11.4031 20.0971 11.4046C19.5827 11.4083 19.0683 11.4112 18.5664 11.2951C17.8176 11.1195 17.0431 10.68 16.331 10.9696C15.774 11.1959 15.472 11.8029 15.3214 12.3856C15.2479 12.6714 15.1935 12.9735 15.0275 13.2152C14.8614 13.457 14.5403 13.6304 14.2669 13.5165C13.8635 13.3482 13.804 12.6634 13.3175 12.6288C12.7833 12.5913 12.7899 13.1432 12.9457 13.5422C13.219 14.2381 13.5908 14.9303 13.4689 15.6681C13.3476 15.6681 13.147 15.6637 13.028 15.6607C13.1206 15.5028 12.9442 15.3146 12.7686 15.261C12.5929 15.2074 12.3879 15.2081 12.2542 15.0802C12.1204 14.9524 12.1197 14.7547 12.1337 14.5776C12.1642 14.1991 12.2568 13.8282 12.4078 13.4798C12.504 13.2593 12.6282 13.0205 12.5547 12.7897C12.5106 12.6852 12.4575 12.5846 12.396 12.4892C12.2432 12.1953 12.2792 11.8278 12.41 11.5244C12.4658 11.395 12.5062 11.273 12.5525 11.1569C12.611 10.9919 12.6956 10.8373 12.8031 10.6991C12.9714 10.4897 13.136 10.1745 12.9501 9.97974C12.903 9.9305 12.9971 9.8967 12.967 9.83277C12.9616 9.82185 12.9579 9.81022 12.956 9.79823C12.9473 9.72083 12.966 9.64284 13.0089 9.57778C13.0175 9.56088 13.0271 9.54444 13.0375 9.52855C13.046 9.51176 13.0555 9.49555 13.0662 9.48005C13.2289 9.20837 13.4452 8.97261 13.7018 8.7871C13.8613 8.67173 14.0479 8.56077 14.1111 8.37412C14.1846 8.15367 14.0553 7.91926 14.0442 7.68632C14.0185 7.16238 14.5858 6.79717 15.1061 6.73103C15.6263 6.6649 16.1657 6.77439 16.6727 6.63991C17.3922 6.45033 17.8977 5.81543 18.551 5.45903C18.9084 5.26794 19.3047 5.16106 19.7097 5.14654C20.1147 5.13202 20.5176 5.21025 20.8878 5.37526C21.6505 5.72357 22.2259 6.42754 23.0225 6.69209C23.3046 6.78614 23.6103 6.82362 23.8646 6.97941C24.1585 7.16018 24.3371 7.47615 24.4899 7.78772C24.7229 8.26022 24.7699 8.73493 24.9308 9.23535C25.0587 9.63216 25.2358 10.151 25.2505 10.608C25.2587 10.7445 25.2466 10.8815 25.2145 11.0144V11.0144Z" fill="#896363"/>
<g opacity="0.1">
<path d="M13.0454 10.0931C13.0572 10.0461 13.0583 9.99718 13.0488 9.94975C13.0393 9.90231 13.0193 9.85759 12.9904 9.81881C13.0095 9.87601 12.9266 9.90901 12.9721 9.95667C13.0083 9.99475 13.0336 10.0419 13.0454 10.0931Z" fill="black"/>
<path d="M12.9881 9.65052C12.9795 9.67589 12.9744 9.70228 12.9728 9.729C12.9867 9.70575 13.0055 9.68177 12.9881 9.65052Z" fill="black"/>
<path d="M25.0146 11.2172C24.6273 11.5846 23.9417 11.4325 23.4134 11.3465C22.9559 11.2729 22.509 11.1438 22.0826 10.9622C21.71 10.8035 21.2647 10.6095 20.9296 10.8373C20.8018 10.924 20.7136 11.0629 20.5791 11.1393C20.4447 11.2157 20.2749 11.2209 20.1169 11.2223C19.6025 11.2223 19.0881 11.229 18.5855 11.1121C17.8375 10.9372 17.0629 10.4985 16.3509 10.7873C15.7939 11.0144 15.4919 11.6206 15.3412 12.2033C15.2677 12.4892 15.2141 12.7912 15.0473 13.0337C14.8805 13.2762 14.5594 13.4482 14.2867 13.335C13.8833 13.166 13.8238 12.4818 13.3373 12.4473C12.9574 12.4201 12.8516 12.692 12.8773 12.994C12.8994 12.7633 13.0243 12.5855 13.3373 12.6075C13.8238 12.642 13.8833 13.3269 14.2867 13.4952C14.5594 13.6091 14.8812 13.4379 15.0473 13.1939C15.2134 12.9499 15.2677 12.6494 15.3412 12.3643C15.4919 11.7815 15.7939 11.1746 16.3509 10.9482C17.0629 10.6587 17.8375 11.0952 18.5855 11.273C19.0852 11.3899 19.604 11.3862 20.1169 11.3825C20.2749 11.3825 20.4417 11.3781 20.5791 11.3002C20.7165 11.2223 20.7996 11.0849 20.9296 10.9975C21.2647 10.7704 21.71 10.9644 22.0826 11.1224C22.5091 11.3039 22.9559 11.4332 23.4134 11.5075C23.9417 11.5927 24.6273 11.7463 25.0146 11.3774C25.2248 11.1768 25.288 10.8865 25.274 10.5691C25.2622 10.8211 25.1888 11.0497 25.0146 11.2172Z" fill="black"/>
<path d="M14.07 7.55331C14.0659 7.58991 14.0644 7.62674 14.0655 7.66354C14.0729 7.81639 14.1309 7.96923 14.1493 8.1184C14.1765 7.93543 14.092 7.74437 14.07 7.55331Z" fill="black"/>
<path d="M12.5768 12.767C12.5828 12.7889 12.5875 12.8113 12.5907 12.8338C12.6026 12.758 12.5979 12.6805 12.5768 12.6068C12.533 12.5018 12.4798 12.401 12.418 12.3055C12.3628 12.1968 12.3301 12.0781 12.3218 11.9564C12.3068 12.132 12.3401 12.3084 12.418 12.4664C12.48 12.5616 12.5331 12.6622 12.5768 12.767Z" fill="black"/>
<path d="M13.4887 15.4844L13.0588 15.4778C13.0689 15.5038 13.0729 15.5317 13.0706 15.5594C13.0683 15.5871 13.0598 15.614 13.0456 15.638C13.1668 15.638 13.3682 15.6424 13.4865 15.6453C13.5071 15.5196 13.5142 15.392 13.5078 15.2647C13.5061 15.3383 13.4998 15.4116 13.4887 15.4844Z" fill="black"/>
<path d="M12.7855 15.078C12.6098 15.0251 12.4056 15.0244 12.2748 14.8958C12.1978 14.8116 12.1544 14.702 12.1528 14.5879C12.1418 14.7569 12.1528 14.9391 12.2748 15.0567C12.4056 15.1853 12.6098 15.186 12.7855 15.2389C12.8426 15.2556 12.8957 15.2837 12.9416 15.3216C12.9875 15.3595 13.0251 15.4064 13.0522 15.4594C13.1264 15.3073 12.9559 15.1287 12.7855 15.078Z" fill="black"/>
</g>
<path opacity="0.1" d="M26.1543 48.1147C26.072 48.067 25.9882 48.0222 25.903 47.9795C25.7274 47.891 25.5474 47.8115 25.3636 47.7415C24.5149 47.4181 23.6059 47.3006 22.6844 47.3204C22.317 47.4607 22.0782 47.5614 22.0782 47.5614L21.6108 47.7025L21.5329 47.726C21.5278 47.6746 21.5219 47.6231 21.5168 47.571C21.5116 47.5188 21.5058 47.4688 21.4999 47.4174C21.3353 45.8588 21.2059 44.2576 21.2059 44.2576V42.8746V42.7137L21.1971 38.639L21.1236 37.2958L21.0891 36.7013L21.0825 36.5881L21.0693 36.3559L21.0619 36.2178C21.0457 36.174 21.032 36.1293 21.0208 36.084C21.0156 36.0657 21.0105 36.0451 21.0061 36.0238C20.9877 35.9503 20.9679 35.8555 20.9473 35.7526C20.8128 35.0766 20.6445 33.9368 20.6342 33.7054C20.621 33.3967 20.3535 31.5508 20.3535 31.5508C20.3263 30.5346 19.4717 28.621 19.2564 28.2602C19.0411 27.8994 18.8008 25.7317 18.8817 25.6148C18.9235 25.5524 18.9507 25.1827 18.9676 24.8418C18.9676 24.8028 18.9713 24.7646 18.9728 24.7271C18.9838 24.4604 18.9889 24.2377 18.9889 24.2377L19.8296 24.0717L20.0552 24.0276L20.0728 24.0239L20.0802 24.0386C20.1044 24.0834 20.1801 24.2267 20.269 24.4148C20.2793 24.4347 20.2889 24.456 20.2992 24.4773C20.3036 24.4876 20.3087 24.4979 20.3139 24.5082C20.4785 24.8682 20.6688 25.3422 20.6607 25.6148C20.6475 26.0969 21.1964 27.2609 21.1964 27.2609C21.2493 27.5283 22.4133 30.1899 22.4133 30.1899C22.4133 30.1899 23.3634 32.7986 23.3098 33.227C23.2561 33.6554 23.7646 36.4911 23.7646 36.4911L24.2864 39.4077C24.5399 39.9823 24.8742 41.3065 24.8742 41.3065L25.0014 42.0575L25.0256 42.2008L25.3644 44.2047L25.5304 45.1864C25.5304 45.1864 25.6003 45.7082 25.7061 46.2887C25.7149 46.3409 25.7252 46.3938 25.7355 46.4467C25.8007 46.8288 25.8932 47.2058 26.0125 47.5746C26.0716 47.7514 26.119 47.9318 26.1543 48.1147V48.1147Z" fill="black"/>
<path d="M26.2454 48.1669C26.2153 48.1493 26.1852 48.1316 26.1543 48.1147C26.072 48.067 25.9883 48.0222 25.903 47.9795C25.7274 47.891 25.5474 47.8115 25.3636 47.7415C24.5149 47.4181 23.6059 47.3006 22.6844 47.3204C22.317 47.4607 22.0782 47.5614 22.0782 47.5614L21.6108 47.7025C21.605 47.6511 21.5998 47.5996 21.5939 47.5475C21.5881 47.4953 21.5837 47.4534 21.5792 47.4064C21.4146 45.8515 21.2853 44.2576 21.2853 44.2576V42.8614V42.7005L21.2765 38.6361L21.203 37.3531L21.1883 37.0871L21.178 36.907L21.1648 36.669L21.1516 36.4272L21.142 36.253V36.2148C21.142 36.2112 21.142 36.2067 21.1369 36.2023C21.1229 36.1627 21.106 36.1024 21.0876 36.026L21.0788 35.9892C21.0751 35.9723 21.0707 35.954 21.0671 35.9356C20.9289 35.3088 20.7261 33.9574 20.7151 33.7039C20.7018 33.3953 20.4344 31.5494 20.4344 31.5494C20.4072 30.5331 19.5526 28.6196 19.3373 28.2588C19.122 27.898 18.8824 25.7302 18.9625 25.6134C19.0088 25.5399 19.036 25.0938 19.0536 24.7257C19.0536 24.6963 19.0536 24.6676 19.0536 24.6404C19.0632 24.4134 19.0668 24.2363 19.0668 24.2363L19.8487 24.082L20.0471 24.043L20.078 24.0371L20.1515 24.0224C20.1515 24.0224 20.2477 24.2003 20.3631 24.445L20.3778 24.4758C20.5461 24.8388 20.7452 25.3326 20.7393 25.6134C20.7261 26.0954 21.275 27.2594 21.275 27.2594C21.3279 27.5269 22.4919 30.1884 22.4919 30.1884C22.4919 30.1884 23.4421 32.7971 23.3884 33.2255C23.3348 33.6539 23.8433 36.4897 23.8433 36.4897L24.365 39.4062C24.6185 39.9809 24.9529 41.305 24.9529 41.305L25.0712 42.0046L25.0954 42.1464L25.3622 43.7278L25.6083 45.185C25.6083 45.185 25.6818 45.7045 25.7832 46.2872C25.7928 46.3401 25.8023 46.393 25.8126 46.4467C25.8777 46.8305 25.9703 47.2092 26.0897 47.5798C26.1548 47.7718 26.2069 47.9679 26.2454 48.1669V48.1669Z" fill="#63667E"/>
<path d="M25.5826 10.4265C25.5826 10.4265 25.3019 10.7881 25.0484 10.7881C24.7949 10.7881 23.808 10.7476 23.2936 10.5874C22.7792 10.4272 20.2573 10.306 20.2573 10.306C20.2573 10.306 16.686 10.3192 16.5655 10.1987C16.4449 10.0782 14.3448 9.43595 14.131 9.47637C14.0861 9.48519 13.9766 9.50429 13.8304 9.52854L13.6629 9.55573C13.4093 9.59615 13.0926 9.64318 12.8031 9.67771C12.4452 9.7196 12.1307 9.74091 12.0308 9.70417V9.39627C12.0308 9.39627 12.4452 8.79371 12.4717 8.62102C12.4981 8.44833 12.8465 5.94475 13.7562 5.04899C14.132 4.33054 14.7402 3.76067 15.4816 3.43235C16.7124 2.89665 17.9433 2.44252 17.9433 2.44252L18.1586 2.41166L18.853 2.30878C18.8741 2.28777 18.897 2.2686 18.9213 2.25147C19.1139 2.1045 19.6973 1.78485 20.4579 2.47192L20.5924 2.68649C20.5924 2.68649 22.9328 3.23468 24.016 5.14745C25.0991 7.06023 25.1535 8.93333 25.2336 9.78941C25.2336 9.78941 25.1799 10.0304 25.2872 10.1238C25.3261 10.1581 25.3631 10.1944 25.3982 10.2325C25.4077 10.2421 25.4173 10.2516 25.4261 10.2619C25.457 10.2928 25.4856 10.3251 25.5091 10.3516C25.5119 10.3536 25.5144 10.3561 25.5165 10.3589C25.5222 10.3659 25.5284 10.3725 25.5349 10.3787L25.5826 10.4265Z" fill="#FED253"/>
<path opacity="0.05" d="M25.5826 10.4265C25.5826 10.4265 25.3019 10.788 25.0484 10.788C24.7949 10.788 23.808 10.7476 23.2936 10.5874C22.7792 10.4272 20.2573 10.306 20.2573 10.306C20.2573 10.306 16.686 10.3192 16.5655 10.1987C16.4449 10.0782 14.3448 9.43594 14.1309 9.47636C14.0861 9.48518 13.9766 9.50428 13.8304 9.52853L13.7922 9.29339L13.7826 9.23533C13.7826 9.23533 17.836 8.36602 20.538 8.82162C23.24 9.27722 25.2336 9.78426 25.2336 9.78426C25.2336 9.78426 25.1799 10.0253 25.2872 10.1186C25.3261 10.1529 25.3631 10.1892 25.3982 10.2274C25.4077 10.2369 25.4173 10.2465 25.4261 10.2568C25.457 10.2876 25.4856 10.32 25.5091 10.3464C25.5119 10.3485 25.5144 10.3509 25.5165 10.3538C25.5222 10.3607 25.5284 10.3673 25.5349 10.3736L25.5826 10.4265Z" fill="black"/>
<path opacity="0.1" d="M25.2145 11.0144C24.7141 11.0533 23.7918 10.9313 23.3884 10.8718C23.2738 10.8549 23.1613 10.8343 23.0482 10.8094C22.6154 10.7153 21.2846 10.4515 20.4763 10.5735C19.4997 10.7204 16.744 10.453 16.744 10.453C16.744 10.453 15.0451 10.1054 14.3624 9.82468C14.1118 9.72106 13.693 9.68873 13.2763 9.74017C13.1701 9.75342 13.0646 9.77231 12.9604 9.79675C12.3916 9.93123 11.9117 10.2377 11.9948 10.7601C11.963 10.722 11.9335 10.682 11.9066 10.6403C11.8706 10.1627 12.019 9.87832 12.2248 9.71078L12.2733 9.69094C12.5246 9.61952 12.7804 9.56477 13.039 9.52707C13.0794 9.52045 13.1213 9.51457 13.1639 9.50943C13.8951 9.41096 14.9525 9.38892 15.8446 9.8379C15.8446 9.8379 16.6735 10.2266 17.2356 10.2266C17.7978 10.2266 22.3721 10.267 23.4428 10.5742C23.6559 10.6358 23.8733 10.6817 24.0931 10.7116C24.4835 10.7619 24.8801 10.7245 25.2542 10.6021C25.2618 10.7408 25.2484 10.8798 25.2145 11.0144V11.0144Z" fill="black"/>
<path opacity="0.1" d="M25.5826 10.4265C25.5826 10.4265 25.3019 10.7881 25.0484 10.7881C24.7949 10.7881 23.808 10.7476 23.2936 10.5874C22.7792 10.4272 20.2573 10.306 20.2573 10.306C20.2573 10.306 16.686 10.3192 16.5655 10.1987C16.4449 10.0782 14.3448 9.43596 14.131 9.47637C14.0861 9.48519 13.9766 9.5043 13.8304 9.52855L13.6629 9.55573C13.3719 9.55425 13.0822 9.59534 12.8031 9.67772C12.4452 9.7196 12.1307 9.74091 12.0308 9.70417V9.64318C12.1078 9.59846 12.1882 9.55965 12.2711 9.52708C12.767 9.38822 13.2776 9.30879 13.7922 9.29046C14.4337 9.26694 15.184 9.3419 15.8431 9.67404C15.8431 9.67404 16.672 10.0628 17.2342 10.0628C17.7963 10.0628 22.3707 10.1025 23.4413 10.4103C23.6546 10.4713 23.8719 10.517 24.0916 10.547C24.5738 10.6078 25.0635 10.5375 25.5091 10.3435C25.5119 10.3455 25.5144 10.348 25.5165 10.3508C25.5222 10.3578 25.5284 10.3644 25.5349 10.3707L25.5826 10.4265Z" fill="black"/>
<path d="M12.0051 10.7476C12.0051 10.7476 11.1086 10.065 12.2726 9.61011C12.2726 9.61011 14.3058 8.98182 15.8446 9.75707C15.8446 9.75707 16.6735 10.1443 17.2356 10.1443C17.7978 10.1443 22.3721 10.1847 23.4428 10.4926C23.656 10.5537 23.8733 10.5994 24.0931 10.6293C24.6627 10.6984 25.2397 10.5887 25.7443 10.3155C25.8178 10.2751 25.8839 10.2546 25.9037 10.2781C25.9706 10.3589 25.9177 10.827 25.3291 10.9203C24.8698 10.9938 23.8264 10.8549 23.3877 10.791C23.2738 10.7741 23.1606 10.7528 23.0482 10.7285C22.6154 10.6345 21.2846 10.3707 20.4726 10.4926C19.4967 10.6396 16.7404 10.3721 16.7404 10.3721C16.7404 10.3721 15.0421 10.0246 14.3595 9.74311C13.6768 9.46167 11.7508 9.70417 12.0051 10.7476Z" fill="#FED253"/>
<path opacity="0.1" d="M19.5629 3.57491C19.4894 3.46909 18.5451 2.71295 18.1601 2.40726L18.8545 2.30438C18.8756 2.28337 18.8984 2.26419 18.9228 2.24706C19.4276 2.77688 19.5629 3.57491 19.5629 3.57491Z" fill="black"/>
<path opacity="0.1" d="M16.5001 7.63047L16.1922 8.08533L17.3694 8.04565L17.3958 7.53714L16.5001 7.63047Z" fill="black"/>
<path opacity="0.1" d="M23.6831 8.17938L23.8168 8.59383L24.5663 8.71434L24.2452 8.21906L23.6831 8.17938Z" fill="black"/>
<path opacity="0.1" d="M10.8146 22.0928C10.8947 22.2265 13.5299 25.6935 14.2257 25.5972C14.9216 25.5009 10.8146 22.0928 10.8146 22.0928Z" fill="black"/>
<path opacity="0.1" d="M19.6437 25.2614C19.6437 25.2614 20.2859 25.8772 20.1919 26.1175C20.0978 26.3577 19.6437 25.2614 19.6437 25.2614Z" fill="black"/>
<path opacity="0.1" d="M12.6341 29.4889C12.6341 29.4889 12.0719 32.124 12.3666 32.2078C12.6613 32.2915 12.6341 29.4889 12.6341 29.4889Z" fill="black"/>
<path opacity="0.1" d="M19.8575 39.7222C19.9509 39.9897 20.7268 41.729 20.901 41.8224C21.0752 41.9157 19.8575 39.7222 19.8575 39.7222Z" fill="black"/>
<path opacity="0.1" d="M28.8739 32.5789C28.8468 32.6722 28.1781 33.2211 28.325 33.4217C28.472 33.6223 28.8739 32.5789 28.8739 32.5789Z" fill="black"/>
<path opacity="0.1" d="M23.6831 37.4611C23.6698 37.5287 23.5361 38.9308 23.7904 39.2004C24.0446 39.4701 23.6831 37.4611 23.6831 37.4611Z" fill="black"/>
<path opacity="0.1" d="M30.5376 44.7448C30.3436 44.8528 30.143 44.9572 29.9387 45.0571C29.7183 45.1644 29.4978 45.2665 29.273 45.3628C29.1833 45.4017 29.0937 45.4399 29.0048 45.4767C28.8695 45.5325 28.7358 45.5862 28.6035 45.6376C28.2016 45.7949 27.8143 45.9315 27.4697 46.0469C27.3359 46.0917 27.2081 46.1329 27.089 46.1711C26.4894 46.3614 26.0911 46.465 26.0911 46.465C26.0002 46.4456 25.907 46.4379 25.8141 46.4423C25.7884 46.4423 25.7619 46.4423 25.7347 46.4423C25.6103 46.4513 25.4864 46.467 25.3636 46.4893C24.5428 46.6363 23.3833 47.0485 22.6844 47.3182C22.317 47.4585 22.0782 47.5592 22.0782 47.5592L21.6108 47.7003L21.5329 47.7238C21.0266 47.8781 20.3146 48.0971 20.0581 48.1882C19.6437 48.3352 16.0452 49.084 16.0452 49.084C15.7164 49.1737 15.3806 49.2352 15.0414 49.2677C14.2055 49.3444 13.3653 49.3636 12.5268 49.325C11.6847 49.3794 10.3223 49.1942 9.52941 49.0693L9.40302 49.0495C9.09659 48.9995 8.90186 48.9635 8.90186 48.9635L9.00474 48.8217L11.1145 45.911L11.1269 45.8933L13.0926 43.1825L13.1661 43.0841L13.3447 42.8379C13.3447 42.8379 13.452 42.6909 13.8649 42.6814C13.9134 42.6814 13.9663 42.6814 14.0244 42.6814C14.3713 42.7093 14.7135 42.7791 15.0436 42.8893L15.1391 42.918C16.5625 43.3258 18.7626 43.2237 18.7626 43.2237C18.7626 43.2237 20.1316 43.0032 21.2074 42.871L21.2875 42.8607C21.6391 42.811 21.993 42.7803 22.3479 42.7688C23.0034 42.782 24.4216 42.4345 24.4216 42.4345C24.7265 42.3691 24.8551 42.314 25.0271 42.1912C25.0499 42.1751 25.0741 42.1574 25.1006 42.1383C25.1741 42.0832 25.2586 42.0156 25.3673 41.9318C25.5657 41.7797 25.8442 41.5732 26.2822 41.2837C26.3204 41.2587 26.3608 41.2337 26.4042 41.2102C26.4475 41.1867 26.5026 41.1551 26.5555 41.1287C26.9797 40.9278 27.4269 40.7797 27.8871 40.6878C28.2688 40.6057 28.6562 40.5524 29.0459 40.5283H29.104C30.2062 40.4695 31.332 40.6584 31.9904 41.2778C32.1055 41.3867 32.2058 41.5102 32.2887 41.6453C32.329 41.7094 32.3648 41.7762 32.396 41.8451C32.4561 41.9767 32.5007 42.1148 32.529 42.2566C32.5344 42.2831 32.5388 42.3095 32.5422 42.336C32.5422 42.3441 32.5422 42.3514 32.5422 42.3595C32.5422 42.3808 32.5467 42.4021 32.5481 42.4234C32.6069 43.303 31.6942 44.0981 30.5376 44.7448Z" fill="black"/>
<path d="M8.90186 48.8055C8.90186 48.8055 11.2827 49.2464 12.5268 49.1663C12.5268 49.1663 14.8143 49.2868 16.0452 48.926C16.0452 48.926 19.6459 48.1765 20.0581 48.0295C20.4704 47.8825 22.0782 47.4005 22.0782 47.4005C22.0782 47.4005 25.2086 46.0895 26.0911 46.3034C26.0911 46.3034 33.0206 44.5111 32.5254 42.0898C32.0301 39.6686 27.6563 40.2175 26.2793 41.1265C24.9022 42.0355 25.1035 42.1303 24.4201 42.2772C24.4201 42.2772 23.0019 42.6248 22.3464 42.6116C21.6909 42.5983 18.7611 43.0664 18.7611 43.0664C18.7611 43.0664 16.4604 43.1737 15.0429 42.7321C13.6254 42.2904 13.3439 42.6784 13.3439 42.6784L8.90186 48.8055Z" fill="#FFA2A2"/>
<path opacity="0.1" d="M14.0648 42.5212C14.0652 42.5241 14.0652 42.5271 14.0648 42.53C14.0597 42.5846 14.0455 42.638 14.0229 42.688C13.7408 43.3802 12.1388 45.2474 12.1388 45.2474C12.0658 45.4692 11.9776 45.6858 11.875 45.8955C11.6543 46.3439 11.4 46.775 11.1145 47.1852C10.6911 47.7988 10.229 48.3847 9.73076 48.9392H9.72708C9.66369 48.9863 9.59769 49.0297 9.52941 49.0693C9.35673 49.1722 9.09733 49.2993 8.85263 49.3147C8.81096 49.3172 8.76916 49.316 8.72771 49.3111C8.75343 49.3111 8.77841 49.3052 8.80119 49.3008L8.71154 49.2743L8.58882 49.2361C8.38307 49.1714 8.17903 49.1006 7.97671 49.0237L7.85399 48.9767C7.65803 48.9013 7.46624 48.8202 7.27861 48.7335L7.1559 48.6776C6.95994 48.5865 6.76815 48.4902 6.58052 48.3888C6.51291 48.3536 6.44604 48.3153 6.37991 48.2793C6.18003 48.1676 5.98408 48.0506 5.79204 47.9281C5.58825 47.7983 5.38886 47.6628 5.19389 47.5217C5.04692 47.2491 4.92567 47.0073 4.85954 46.8773C4.73902 46.6355 4.72873 46.2894 4.74343 46.0388C4.74343 46.0131 4.74343 45.9889 4.74784 45.9653C4.76033 45.8081 4.77944 45.7001 4.77944 45.7001C4.67055 45.5545 4.57232 45.4013 4.4855 45.2415C4.43563 45.1622 4.40726 45.0713 4.4032 44.9777C4.40653 44.9402 4.40304 44.9023 4.39291 44.866C4.33633 44.6338 4.0931 44.2348 3.86824 43.9842C3.7007 43.7998 3.69041 43.1105 3.70658 42.6218C3.71613 42.3279 3.7345 42.1119 3.7345 42.1119C3.70157 42.0906 3.67693 42.0587 3.66469 42.0215C3.60561 41.8607 3.56565 41.6934 3.54565 41.5233C3.54565 41.499 3.53904 41.4748 3.53536 41.4498C3.48833 41.1125 3.46702 40.7737 3.46702 40.7737C2.92324 40.3777 2.66458 39.7597 2.54407 39.2085L2.52864 39.1351C2.46245 38.7963 2.43435 38.4513 2.44487 38.1063C2.44487 38.0732 2.44487 38.0482 2.44487 38.0328C2.44487 38.0174 2.44487 38.0144 2.44487 38.0144C2.44487 38.0144 2.51688 36.422 2.71823 35.8004C2.72631 35.7739 2.73513 35.7497 2.74394 35.7269C2.75878 35.6878 2.77801 35.6506 2.80126 35.6159C2.87474 35.5182 2.92692 35.3337 2.97027 35.1155C3.0004 34.9641 3.02539 34.7959 3.04376 34.6283C3.06066 34.4887 3.07389 34.3498 3.08417 34.2212C3.11283 33.8773 3.12165 33.6091 3.12165 33.6091L2.98571 32.9389C2.94823 32.7559 2.91957 32.5715 2.89973 32.3871C2.89973 32.3628 2.89385 32.3386 2.89091 32.3136C2.85654 31.973 2.8504 31.6301 2.87254 31.2885C2.87254 31.2635 2.87254 31.2392 2.87695 31.215C2.93433 30.4369 3.13775 29.6766 3.47658 28.9738L3.51332 28.9003C3.56231 28.8023 3.61374 28.706 3.66763 28.6115C3.70658 28.5417 3.74773 28.4726 3.79035 28.4043C3.90334 28.2213 4.02598 28.0444 4.15777 27.8744C4.17687 27.8495 4.19671 27.8252 4.21655 27.801C4.44585 27.5167 4.70068 27.254 4.97784 27.0161C5.72003 26.3783 6.40122 26.1013 7.01995 26.08C9.72561 25.9844 11.243 30.7697 11.4885 31.6081C11.512 31.689 11.5238 31.7331 11.5238 31.7331C11.5238 31.7331 12.6201 32.8302 12.299 33.3115C12.2367 33.4174 12.1988 33.5359 12.188 33.6583C12.0999 34.3057 12.3526 35.372 12.3526 35.372C12.3526 35.372 12.4423 35.6659 12.7039 36.3699L12.7811 36.5756C12.9449 37.0165 12.9831 37.7565 12.8891 38.4193C12.7987 39.0542 12.5863 39.6156 12.2461 39.7597C11.5502 40.0536 11.7376 40.3475 11.8978 40.5893C11.993 40.7626 12.0724 40.9441 12.1351 41.1316C12.2358 41.4028 12.3291 41.6879 12.3644 41.7988C12.3747 41.8297 12.3798 41.8466 12.3798 41.8466C12.4773 41.8089 12.5786 41.7818 12.6819 41.7658C12.8134 41.7474 12.9435 41.7606 12.9684 41.873C12.9817 41.9333 13.0574 42.0046 13.1639 42.0759C13.4799 42.2934 14.0648 42.5212 14.0648 42.5212Z" fill="black"/>
<path d="M13.9046 42.5212C13.9001 42.5771 13.886 42.6318 13.8627 42.6828C13.582 43.3758 11.9786 45.2474 11.9786 45.2474C11.9053 45.4691 11.8171 45.6856 11.7148 45.8955C11.5375 46.2576 11.3369 46.6079 11.1144 46.9442C10.6538 47.639 10.1435 48.2997 9.58746 48.9209L9.57056 48.9392C9.57056 48.9392 9.50589 48.9885 9.40302 49.0517C9.21919 49.169 9.01664 49.254 8.80412 49.303L8.71447 49.2765L8.59176 49.2383C8.386 49.1736 8.18196 49.1029 7.97964 49.0259L7.85692 48.9789C7.66096 48.9035 7.46917 48.8224 7.28155 48.7357L7.15883 48.6798C6.96287 48.5887 6.77108 48.4925 6.58345 48.391C6.51585 48.3558 6.44898 48.3176 6.38284 48.2816C6.18297 48.1699 5.98701 48.0528 5.79497 47.9303C5.59118 47.8005 5.39179 47.665 5.19682 47.5239C5.10668 47.4593 5.01752 47.3929 4.92934 47.3248C4.83013 47.1367 4.75077 46.978 4.70154 46.8795C4.58103 46.6377 4.57074 46.2916 4.58543 46.041C4.58543 46.0153 4.58543 45.9911 4.58984 45.9676C4.60234 45.8103 4.62144 45.7023 4.62144 45.7023C4.62144 45.7023 4.56192 45.6222 4.48991 45.5134C4.44949 45.4532 4.40613 45.3834 4.36719 45.3143C4.2937 45.185 4.23639 45.0542 4.24741 44.9799C4.2489 44.9673 4.2489 44.9544 4.24741 44.9417C4.24631 44.9169 4.24261 44.8923 4.23639 44.8682C4.17981 44.636 3.93584 44.237 3.71098 43.9864C3.54344 43.802 3.53315 43.1127 3.54858 42.6241C3.54858 42.5991 3.54858 42.5748 3.54858 42.5506C3.55887 42.2971 3.5743 42.1141 3.5743 42.1141C3.49126 42.0781 3.42733 41.8113 3.38618 41.5262L3.37516 41.4527C3.32813 41.1154 3.30682 40.7767 3.30682 40.7767C2.76304 40.3806 2.50438 39.7626 2.3846 39.2115C2.30116 38.8255 2.26904 38.4302 2.28907 38.0358C2.28907 38.024 2.28907 38.0174 2.28907 38.0174C2.28907 38.0174 2.35227 36.4169 2.55361 35.7945C2.5617 35.768 2.57052 35.7438 2.57933 35.721C2.59697 35.6829 2.61891 35.6469 2.64473 35.6137C2.75643 35.4579 2.83065 35.0832 2.87915 34.6996L2.88796 34.6261C2.94896 34.1117 2.96586 33.6069 2.96586 33.6069L2.82918 32.9367C2.79195 32.753 2.76329 32.5691 2.7432 32.3849C2.73953 32.3606 2.73732 32.3356 2.73438 32.3114C2.70002 31.9708 2.69388 31.6279 2.71601 31.2863C2.71601 31.2613 2.71601 31.2371 2.72116 31.2128C2.77819 30.4346 2.98162 29.6742 3.32078 28.9716C3.33254 28.9466 3.3443 28.9223 3.35752 28.8981C3.45201 28.7072 3.557 28.5218 3.67203 28.3425C3.71172 28.2801 3.75213 28.2183 3.79475 28.1574C3.86162 28.0604 3.93143 27.9648 4.00418 27.8722L4.06297 27.7988C4.2903 27.5156 4.5429 27.2536 4.81764 27.0162C5.62596 26.3232 6.3608 26.0557 7.02215 26.08C9.62714 26.1733 11.0895 30.7866 11.3298 31.6081C11.3533 31.689 11.365 31.7331 11.365 31.7331C11.365 31.7331 12.4621 32.8302 12.141 33.3115C12.0787 33.4174 12.0408 33.5359 12.0301 33.6583C11.9411 34.3057 12.1947 35.372 12.1947 35.372C12.1947 35.372 12.2843 35.6659 12.5459 36.3699C12.5694 36.4353 12.5951 36.5036 12.6194 36.5756C12.7833 37.0165 12.8215 37.7565 12.7274 38.4193C12.637 39.055 12.4254 39.6156 12.0844 39.7597C11.3893 40.0536 11.5759 40.3475 11.7369 40.5893C11.832 40.7626 11.9115 40.9441 11.9742 41.1316C12.1013 41.4777 12.2182 41.8466 12.2182 41.8466C12.2663 41.828 12.3153 41.8121 12.3651 41.7988C12.4674 41.7652 12.5756 41.7539 12.6826 41.7658C12.7122 41.7681 12.7403 41.7797 12.7629 41.799C12.7855 41.8182 12.8013 41.8442 12.8082 41.8731C12.8281 41.9612 12.9802 42.0707 13.1646 42.1743C13.4041 42.3047 13.6512 42.4205 13.9046 42.5212V42.5212Z" fill="#CED7E7"/>
<path opacity="0.1" d="M4.23272 35.455C4.48697 35.4418 7.21615 34.3851 7.7783 34.7459C8.34045 35.1067 11.8199 37.4479 11.8199 37.4479C11.8199 37.4479 9.63964 34.5989 7.74009 33.9302C5.84054 33.2615 4.23272 35.455 4.23272 35.455Z" fill="black"/>
<path opacity="0.1" d="M8.156 39.7626C8.156 39.7626 10.8852 40.3108 11.2996 40.6856L8.156 39.7626Z" fill="black"/>
<path opacity="0.1" d="M7.6306 43.8439C7.59092 43.8843 6.60183 46.1042 6.68119 46.1042C6.76055 46.1042 7.60414 44.7815 7.60414 44.7815L7.6306 43.8439Z" fill="black"/>
<path opacity="0.1" d="M9.49046 41.1801C9.49046 41.1801 8.68802 41.4616 8.78135 41.488C8.87467 41.5145 9.46328 41.3006 9.49046 41.1801Z" fill="black"/>
<path opacity="0.1" d="M8.68802 44.5383C8.82176 44.819 9.24943 45.6619 9.34349 45.5281C9.43755 45.3944 8.68802 44.5383 8.68802 44.5383Z" fill="black"/>
<path opacity="0.1" d="M18.7053 22.289L18.5907 22.4521C18.5907 22.4521 17.6802 21.8106 17.3062 21.4895C16.9321 21.1683 16.0489 22.6395 15.353 23.0407C14.6571 23.4419 13.4806 23.5492 13.4806 23.5492C13.4806 23.5492 12.5709 22.6395 12.5988 22.3735C12.6267 22.1075 12.1711 22.0259 12.144 21.8385C12.1168 21.6511 11.9566 21.1162 11.7427 20.8487C11.6296 20.7076 11.6134 20.266 11.6237 19.8816C11.6972 19.8669 11.7427 19.8589 11.7427 19.8589C11.857 19.6513 12.0013 19.4619 12.1711 19.2967C12.4122 19.0829 12.7862 17.7719 12.7862 17.7719C13 17.0496 13.4277 17.2634 13.4277 17.2634C13.4277 18.3605 14.552 18.7617 15.1134 19.2166C15.6748 19.6715 16.5581 20.8487 17.254 21.0897C17.825 21.2844 18.4929 22.0376 18.7053 22.289Z" fill="black"/>
<path d="M18.7053 22.128L18.5907 22.2919C18.5907 22.2919 17.6765 21.6519 17.3025 21.3285C16.9285 21.0052 16.0452 22.4785 15.3493 22.8798C14.6534 23.281 13.4769 23.389 13.4769 23.389C13.4769 23.389 12.5672 22.4786 12.5951 22.2133C12.6231 21.948 12.1675 21.8657 12.1403 21.6776C12.1131 21.4895 11.9529 20.9552 11.7391 20.6878C11.6259 20.5467 11.6097 20.105 11.62 19.7207L11.7391 19.6987C11.8533 19.4911 11.9976 19.3017 12.1675 19.1365C12.4085 18.9219 12.7825 17.6117 12.7825 17.6117C12.9964 16.8894 13.424 17.1025 13.424 17.1025C13.424 18.1996 14.5483 18.6016 15.1097 19.0564C15.6712 19.5113 16.5544 20.6878 17.2503 20.9288C17.825 21.1265 18.4929 21.8767 18.7053 22.128Z" fill="#CED7E7"/>
<path opacity="0.1" d="M18.7736 22.3455C18.7736 22.3455 17.9852 22.7732 17.3694 22.8136C17.2888 22.8174 17.208 22.8127 17.1283 22.7997C17.1283 22.7997 17.8081 22.2919 18.4393 22.1883L18.7736 22.3455Z" fill="black"/>
<path opacity="0.1" d="M20.3793 24.5258C20.3793 24.5258 19.385 24.1385 19.0565 24.7213C19.0676 24.4538 19.072 24.2319 19.072 24.2319L20.1559 24.0173C20.1559 24.0173 20.2602 24.2105 20.3822 24.4707C20.3793 24.5052 20.3793 24.5258 20.3793 24.5258Z" fill="black"/>
<path d="M17.1283 22.7997C17.1283 22.7997 18.3195 22.0847 18.8919 22.1449C19.4923 22.2074 20.6556 22.2515 20.6556 22.2515C20.6556 22.2515 20.2543 23.1612 20.308 23.3486C20.3616 23.536 20.3748 24.4457 20.3748 24.4457C20.3748 24.4457 19.1712 23.9776 18.9706 24.8469C18.9706 24.8469 18.3151 23.8703 17.8735 23.5756C17.5804 23.3639 17.328 23.1011 17.1283 22.7997Z" fill="#63667E"/>
<path opacity="0.1" d="M23.8572 23.63C23.5097 23.63 22.2788 22.8533 22.0113 22.3455C21.7438 21.8378 21.3691 22.3985 21.0215 22.5866C20.801 22.7071 19.9273 22.455 19.4563 22.2721C19.6951 22.1097 20.2242 21.6526 20.3793 21.5431C20.5659 21.4086 20.754 19.2416 20.754 19.2416C21.4227 18.894 22.1451 22.0509 22.1451 22.0509C22.1451 22.0509 23.4031 22.4256 23.5097 22.6931C23.5302 22.746 23.625 22.8401 23.7676 22.954C23.9145 23.3243 23.9954 23.63 23.8572 23.63Z" fill="black"/>
<path d="M23.8572 23.4691C23.5096 23.4691 22.2788 22.6931 22.0113 22.1854C21.7438 21.6776 21.3691 22.2383 21.0215 22.4256C20.801 22.5462 20.1007 22.3132 19.6297 22.1317C19.8685 21.97 20.2242 21.4939 20.3792 21.3836C20.5659 21.2499 20.754 19.0829 20.754 19.0829C21.4227 18.7353 22.1451 21.8921 22.1451 21.8921C22.1451 21.8921 23.4031 22.2669 23.5096 22.5344C23.5302 22.5873 23.625 22.6814 23.7676 22.7953C23.9145 23.1634 23.9954 23.4691 23.8572 23.4691Z" fill="#CED7E7"/>
<path d="M28.6109 46.9081L40.2441 37.2083C40.3601 37.1102 40.5081 37.058 40.66 37.0613L44.9999 37.1752C44.9999 37.1752 45.3005 37.3957 44.8596 37.8777L33.8855 46.8831C33.7669 46.9801 33.6198 47.0354 33.4667 47.0404L28.7211 47.1977C28.687 47.1987 28.6535 47.1891 28.6251 47.1702C28.5967 47.1513 28.575 47.124 28.5628 47.0922C28.5507 47.0603 28.5488 47.0255 28.5574 46.9925C28.566 46.9595 28.5847 46.93 28.6109 46.9081Z" fill="#1F7A3A"/>
<path d="M34.2383 45.7148C34.2383 45.7148 36.7793 49.3537 39.6025 45.969C42.4258 42.5844 41.6094 40.8061 40.7533 40.712C39.8972 40.6179 35.0804 44.3237 34.2383 45.7148Z" fill="#FFA2A2"/>
<path opacity="0.1" d="M51.3768 5.01519C51.3768 5.01519 54.652 -1.34114 58.5231 1.93696C58.5231 1.93696 59.3682 2.24486 59.3042 3.13842C59.3042 3.13842 58.9787 2.95985 58.72 3.64252C58.625 3.88474 58.5017 4.11488 58.3526 4.32812C58.1545 4.61618 57.8683 4.83225 57.5369 4.94391V4.94391C57.5369 4.94391 55.7998 6.2453 52.5819 5.24152C52.5819 5.24152 51.6722 5.37232 51.5253 5.25915L52.5827 4.48611C52.5827 4.48611 53.1198 5.2834 53.9054 5.37452C53.9054 5.37452 52.5827 4.54416 52.7341 4.36412C52.7649 4.32738 53.3131 3.97981 53.3131 3.97981C53.3131 3.97981 54.253 5.36203 55.4713 5.46417C55.4713 5.46417 53.7643 4.68598 53.5196 3.84754L54.3771 3.36916C54.3771 3.36916 55.2986 4.87924 56.6823 5.04826C56.6823 5.04826 54.9261 4.17307 54.5719 3.2773L55.4794 2.92311C55.4794 2.92311 56.4075 4.37809 57.559 4.51109C57.559 4.51109 55.6323 3.29494 55.6925 2.85551C55.6925 2.85551 56.5456 2.58068 56.8073 2.61669C56.8073 2.61669 57.4973 3.64546 58.1733 3.66383C58.1733 3.66383 56.9719 2.71442 57.0512 2.56819C57.0512 2.56819 58.2578 2.50573 58.8883 2.79746C58.8883 2.79746 57.9918 2.2985 57.0512 2.37933C57.0512 2.37933 57.4767 1.87891 58.0315 1.76869C58.0315 1.76869 57.3665 1.49533 56.7587 2.39771C56.7587 2.39771 55.8204 2.48368 55.7043 2.58803C55.7043 2.58803 56.179 1.61217 56.7632 1.19698C56.7632 1.19698 55.8924 1.35057 55.461 2.67327L54.541 3.00909C54.541 3.00909 55.1002 1.68638 55.5933 1.27782C55.5933 1.27782 54.7291 1.57175 54.3162 3.1149L53.4696 3.57491C53.4696 3.57491 53.8642 2.39917 54.3147 1.82527C54.3147 1.82527 53.5718 2.27058 53.2315 3.71527L52.7025 4.08783C52.7025 4.08783 53.0059 3.23395 53.1154 2.9966C53.2249 2.75924 53.1698 2.71001 53.1698 2.71001C52.802 3.14483 52.5621 3.67319 52.4769 4.23626C52.4769 4.23626 51.4378 5.07398 51.3768 5.01519Z" fill="#1F7A3A"/>
<path opacity="0.1" d="M64.922 8.41453C64.922 8.41453 66.402 5.54206 68.1509 7.02349C68.1509 7.02349 68.533 7.16237 68.5036 7.5658C68.5036 7.5658 68.3566 7.4857 68.2398 7.79433C68.1975 7.90365 68.1422 8.00751 68.0752 8.1037C67.9858 8.23354 67.857 8.33118 67.7078 8.3822V8.3822C67.7078 8.3822 66.9222 8.97007 65.468 8.51667C65.468 8.51667 65.0572 8.57546 64.9911 8.52476L65.4687 8.17498C65.4687 8.17498 65.7112 8.53578 66.0669 8.5762C66.0669 8.5762 65.4702 8.20143 65.5378 8.11986C65.551 8.1037 65.7987 7.94644 65.7987 7.94644C65.7987 7.94644 66.2234 8.57105 66.7745 8.61735C66.7745 8.61735 66.003 8.26536 65.8927 7.88251L66.2807 7.6672C66.2807 7.6672 66.6967 8.34987 67.322 8.42629C67.322 8.42629 66.5284 8.03095 66.3667 7.62605L66.7768 7.46586C66.7768 7.46586 67.1956 8.12354 67.7159 8.18379C67.7159 8.18379 66.8451 7.63414 66.873 7.43573C66.873 7.43573 67.2581 7.31154 67.3764 7.32771C67.3764 7.32771 67.6879 7.79286 67.9936 7.80021C67.9936 7.80021 67.4506 7.3718 67.4866 7.30567C67.4866 7.30567 68.0318 7.27774 68.3155 7.40928C68.3155 7.40928 67.9106 7.18368 67.4866 7.22042C67.6036 7.0874 67.7568 6.99138 67.9275 6.94413C67.9275 6.94413 67.627 6.82067 67.3521 7.22851C67.3521 7.22851 66.9281 7.26745 66.876 7.31448C66.876 7.31448 67.0905 6.87358 67.3543 6.6862C67.3543 6.6862 66.9605 6.75527 66.7665 7.35343L66.355 7.50775C66.355 7.50775 66.607 6.91032 66.8304 6.72514C66.8304 6.72514 66.4395 6.85815 66.2528 7.55477L65.8707 7.762C65.8707 7.762 66.0485 7.22998 66.2521 6.97132C66.2521 6.97132 65.9163 7.17266 65.7634 7.82519L65.5239 7.99347C65.5239 7.99347 65.6613 7.60768 65.7105 7.5004C65.7597 7.39311 65.7348 7.37107 65.7348 7.37107C65.5686 7.56823 65.4602 7.80757 65.4217 8.06255C65.4217 8.06255 64.9477 8.44099 64.922 8.41453Z" fill="#1F7A3A"/>
<path opacity="0.1" d="M48.8857 11.7566C48.8857 11.7566 50.3657 8.8841 52.119 10.3655C52.119 10.3655 52.5004 10.5044 52.4717 10.9086C52.4717 10.9086 52.3248 10.8277 52.2079 11.1364C52.1653 11.2456 52.1101 11.3494 52.0433 11.4457C51.9529 11.5762 51.8227 11.6739 51.6722 11.7242V11.7242C51.6722 11.7242 50.8874 12.3121 49.4332 11.8587C49.4332 11.8587 49.0224 11.9182 48.9563 11.8668L49.4339 11.517C49.4339 11.517 49.6764 11.8778 50.0313 11.919C50.0313 11.919 49.4346 11.5435 49.5023 11.4619C49.5162 11.4457 49.7639 11.2885 49.7639 11.2885C49.7639 11.2885 50.1886 11.9131 50.739 11.9594C50.739 11.9594 49.9681 11.6074 49.8572 11.2245L50.2452 11.01C50.2452 11.01 50.6618 11.6919 51.2872 11.7683C51.2872 11.7683 50.4935 11.373 50.3319 10.9681L50.7419 10.8079C50.7419 10.8079 51.1615 11.4656 51.6818 11.5258C51.6818 11.5258 50.811 10.9762 50.8382 10.7778C50.8382 10.7778 51.224 10.6536 51.3423 10.6697C51.3423 10.6697 51.6538 11.1349 51.9595 11.143C51.9595 11.143 51.4165 10.7138 51.4525 10.6477C51.4525 10.6477 51.997 10.6198 52.2814 10.7513C52.2814 10.7513 51.8758 10.5257 51.4518 10.5625C51.5687 10.4294 51.722 10.3334 51.8927 10.2862C51.8927 10.2862 51.5929 10.1627 51.318 10.5705C51.318 10.5705 50.894 10.6095 50.8419 10.6565C50.8419 10.6565 51.0557 10.2156 51.3202 10.0282C51.3202 10.0282 50.9264 10.0973 50.7324 10.6955L50.3157 10.8498C50.3157 10.8498 50.5685 10.2524 50.7912 10.0679C50.7912 10.0679 50.401 10.2002 50.2143 10.8968L49.8315 11.104C49.8315 11.104 50.01 10.572 50.2136 10.3134C50.2136 10.3134 49.8778 10.5147 49.7242 11.1672L49.4846 11.3355C49.4846 11.3355 49.622 10.9497 49.6713 10.8424C49.7205 10.7351 49.6962 10.7131 49.6962 10.7131C49.5297 10.9101 49.4213 11.1495 49.3832 11.4046C49.3832 11.4046 48.9114 11.783 48.8857 11.7566Z" fill="#1F7A3A"/>
</g>
<defs>
<clipPath id="clip0_8_336">
<rect width="78.7993" height="57.3274" fill="white" transform="translate(0.427734 0.997864)"/>
</clipPath>
</defs>
</svg>
