<svg width="53" height="53" viewBox="0 0 53 53" fill="none" xmlns="http://www.w3.org/2000/svg">
<path d="M37.1181 13.4825C39.4955 13.4825 41.4227 11.5553 41.4227 9.17794C41.4227 6.80058 39.4955 4.87335 37.1181 4.87335C34.7408 4.87335 32.8135 6.80058 32.8135 9.17794C32.8135 11.5553 34.7408 13.4825 37.1181 13.4825Z" fill="#404040"/>
<path d="M34.4859 24.1773C34.98 24.9135 35.6887 25.4799 36.5157 25.7995C37.3428 26.1191 38.2482 26.1764 39.109 25.9637L46.246 24.1795L45.2064 20.004L38.0694 21.7883L35.1014 17.3395C34.4673 16.3894 33.4831 15.7286 32.3637 15.5014L24.086 13.8441C23.1599 13.6583 22.1985 13.7825 21.3501 14.1976C20.5016 14.6126 19.8135 15.2955 19.3918 16.1406L15.8233 23.2776L19.6738 25.2039L23.2423 18.0648L27.4758 18.9128L16.5293 37.1578H6.98602V41.4624H16.5293C18.0316 41.4624 19.4456 40.6617 20.2205 39.3725L24.3486 32.4938L35.4738 34.7192L39.3823 46.4471L43.4631 45.0847L39.5567 33.359C39.3156 32.6391 38.889 31.9954 38.32 31.4929C37.7509 30.9903 37.0595 30.6466 36.3153 30.4964L29.7745 29.19L33.5884 22.8321L34.4859 24.1773Z" fill="#404040"/>
</svg>
