<svg width="26" height="24" viewBox="0 0 26 24" fill="none" xmlns="http://www.w3.org/2000/svg">
<path d="M23.0509 18.4351V9.2447C11.9948 5.0382 2.23416 9.2447 2.23416 9.2447L2.23406 18.4351H23.0508" fill="#006838"/>
<path d="M7.33023 1.05927C7.33023 1.05927 5.45427 3.38024 7.33023 3.80472C9.20619 3.38802 7.33023 1.05927 7.33023 1.05927Z" fill="#006838"/>
<path d="M17.6954 1.05927C17.6954 1.05927 15.8194 3.38024 17.6954 3.80472C19.5713 3.38802 17.6954 1.05927 17.6954 1.05927Z" fill="#006838"/>
<path d="M12.5128 0.692389C12.5128 0.692389 10.6368 3.01356 12.5128 3.43784C14.3888 3.02134 12.5128 0.692389 12.5128 0.692389Z" fill="#006838"/>
<path d="M23.0509 9.2447C11.9948 5.0382 2.23416 9.2447 2.23416 9.2447L2.23406 10.9753H15.0152C15.0116 11.007 15.0095 11.0393 15.0095 11.0725V15.6655C15.0095 16.1481 15.4006 16.5387 15.8828 16.5387C16.3649 16.5387 16.756 16.1481 16.756 15.6655V11.0725C16.756 11.0393 16.7539 11.007 16.7504 10.9753H17.6953V14.113C17.6953 14.5952 18.0863 14.9862 18.5685 14.9862C19.0512 14.9862 19.4422 14.5952 19.4422 14.113V10.9753H23.0508V9.2447" fill="#EFF0F2"/>
<path d="M0.247432 18.691H4.88574H14.5773H22.9851H24.7786C25.1088 18.691 25.1088 18.1792 24.7786 18.1792H20.1401H10.4491H2.04134H0.247585C-0.0825276 18.1792 -0.0825276 18.691 0.24758 18.691" fill="#006838"/>
<path d="M7.33022 23.0741H14.8863H17.6954C18.1903 23.0741 18.1903 22.3063 17.6954 22.3063H10.1398H7.33022C6.83526 22.3063 6.83526 23.0741 7.33022 23.0741Z" fill="#006838"/>
<path d="M12.2569 18.4771V22.6902C12.2569 23.0203 12.7687 23.0203 12.7687 22.6902V18.4771C12.7687 18.1469 12.2569 18.1469 12.2569 18.4771Z" fill="#006838"/>
<path d="M12.1289 4.28142V7.21774C12.1289 7.71322 12.8967 7.71322 12.8967 7.21774V4.28142C12.8967 3.78635 12.1289 3.78635 12.1289 4.28142Z" fill="#006838"/>
<path d="M6.94633 4.64831V7.58474C6.94633 8.07971 7.71411 8.07971 7.71411 7.58474V4.64831C7.71411 4.15304 6.94633 4.15304 6.94633 4.64831Z" fill="#006838"/>
<path d="M17.3115 4.64831V7.58474C17.3115 8.07971 18.0792 8.07971 18.0792 7.58474V4.64831C18.0792 4.15304 17.3115 4.15304 17.3115 4.64831Z" fill="#006838"/>
<path d="M23.3069 18.4351V10.7777V9.2447C23.3069 9.12288 23.227 9.03893 23.119 8.99799C17.9549 7.04371 12.3081 6.65521 6.89464 7.67023C5.27819 7.97325 3.62212 8.37147 2.10492 9.02409C2.02512 9.05839 1.97813 9.16332 1.97813 9.2447V16.9021V18.4351C1.97813 18.5749 2.09453 18.691 2.23406 18.691H7.46526H17.318H23.0309H23.0508C23.381 18.691 23.381 18.1792 23.0508 18.1792H17.8196H7.96688H2.25403H2.23396C2.31934 18.2647 2.40451 18.3502 2.48989 18.4351V10.7777V9.2447C2.44771 9.31841 2.40533 9.39212 2.36315 9.46582C2.25515 9.5124 2.41495 9.44484 2.46292 9.4259C2.61007 9.36755 2.75862 9.31278 2.90762 9.25903C3.45587 9.06197 4.01308 8.88998 4.57413 8.73336C6.50399 8.1959 8.49 7.86217 10.4871 7.71373C14.7263 7.39894 19.0044 7.98604 22.9826 9.49142C22.9202 9.40952 22.8572 9.32711 22.7948 9.2447V16.9021V18.4351C22.7948 18.7653 23.3066 18.7653 23.3066 18.4351" fill="#006838"/>
<path d="M7.14953 0.747171C6.81017 1.16845 6.52507 1.64789 6.3495 2.16036C6.23689 2.4901 6.18673 2.87717 6.31981 3.20808C6.46928 3.57959 6.9151 3.92965 7.33022 3.92965C7.71616 3.92965 8.15687 3.61296 8.31504 3.27227C8.47167 2.93516 8.42969 2.55285 8.32527 2.20694C8.16557 1.67747 7.8559 1.17703 7.51142 0.747171C7.30463 0.489629 6.94479 0.854303 7.14953 1.10926C7.1869 1.15625 7.11626 1.06468 7.17359 1.14146C7.22938 1.21542 7.28211 1.29158 7.33432 1.36836C7.49094 1.6011 7.62966 1.84623 7.7438 2.10257C7.8472 2.3349 7.94138 2.62702 7.90299 2.88474C7.85692 3.19467 7.60509 3.33502 7.3251 3.41201C7.25447 3.4312 7.01696 3.29065 6.93916 3.22405C6.84396 3.14272 6.79379 3.04035 6.76513 2.92078C6.70268 2.66065 6.81222 2.36193 6.90691 2.12376C7.00877 1.86783 7.15619 1.62613 7.30719 1.39657C7.36042 1.31538 7.41673 1.23605 7.47457 1.15783C7.48634 1.14186 7.55237 1.05628 7.49402 1.13086C7.49965 1.12364 7.50579 1.11627 7.51142 1.10926C7.71616 0.854508 7.35633 0.490013 7.14953 0.747155" fill="#006838"/>
<path d="M17.5147 0.747171C17.1753 1.16845 16.8902 1.64789 16.7146 2.16036C16.602 2.4901 16.5519 2.87717 16.6849 3.20808C16.8339 3.57959 17.2802 3.92965 17.6954 3.92965C18.0813 3.92965 18.522 3.61296 18.6802 3.27227C18.8368 2.93516 18.7943 2.55285 18.6904 2.20694C18.5307 1.67747 18.221 1.17703 17.8766 0.747171C17.6698 0.489629 17.3099 0.854303 17.5147 1.10926C17.552 1.15625 17.4814 1.06468 17.5387 1.14146C17.5945 1.21542 17.6472 1.29158 17.6995 1.36836C17.8561 1.6011 17.9948 1.84623 18.1089 2.10257C18.2123 2.3349 18.3065 2.62702 18.2681 2.88474C18.2221 3.19467 17.9702 3.33502 17.6902 3.41201C17.6196 3.4312 17.3821 3.29065 17.3038 3.22405C17.2091 3.14272 17.1589 3.04035 17.1303 2.92078C17.0678 2.66065 17.1774 2.36193 17.272 2.12376C17.3739 1.86783 17.5213 1.62613 17.6723 1.39657C17.7256 1.31538 17.7819 1.23605 17.8397 1.15783C17.8515 1.14186 17.917 1.05628 17.8592 1.13086C17.8648 1.12364 17.8709 1.11627 17.8766 1.10926C18.0813 0.854508 17.7215 0.490013 17.5147 0.747155" fill="#006838"/>
<path d="M12.3321 0.380477C11.9927 0.801757 11.7076 1.28119 11.5321 1.79367C11.4195 2.1232 11.3693 2.51027 11.5024 2.84119C11.6518 3.21269 12.0977 3.5628 12.5128 3.5628C12.8987 3.5628 13.3394 3.24627 13.4976 2.90558C13.6542 2.56826 13.6118 2.18616 13.5078 1.84025C13.3481 1.31063 13.0385 0.810131 12.694 0.380477C12.4872 0.122931 12.1274 0.48743 12.3321 0.742361C12.3695 0.789345 12.2988 0.697973 12.3562 0.774552C12.412 0.848725 12.4647 0.924685 12.5169 1.00167C12.6735 1.23441 12.8122 1.47934 12.9264 1.73567C13.0298 1.96821 13.124 2.26012 13.0856 2.51805C13.0395 2.82777 12.7877 2.96833 12.5077 3.04511C12.437 3.06451 12.1995 2.92375 12.1212 2.85716C12.0265 2.77597 11.9764 2.67345 11.9477 2.55408C11.8853 2.29375 11.9948 1.99524 12.0895 1.75707C12.1913 1.50094 12.3388 1.25924 12.4898 1.02967C12.543 0.948691 12.5993 0.869302 12.6571 0.791147C12.6689 0.775151 12.7349 0.689374 12.6766 0.764156C12.6822 0.756755 12.6884 0.749558 12.694 0.742361C12.8987 0.487829 12.5389 0.123115 12.3321 0.380462" fill="#006838"/>
<path d="M23.119 8.99799C17.9549 7.04371 12.3081 6.65521 6.89464 7.67023C5.27819 7.97325 3.62212 8.37147 2.10492 9.02409C2.02512 9.05787 1.97813 9.16332 1.97813 9.2447V10.9753C1.97813 11.1145 2.09453 11.2312 2.23406 11.2312H9.26239H15.0152L14.7592 10.9753C14.7306 11.4636 14.7536 11.9591 14.7536 12.4484V14.8598C14.7536 15.4397 14.662 16.0729 15.1334 16.5095C15.5767 16.9205 16.2559 16.8581 16.6813 16.464C16.9331 16.2305 17.0119 15.8922 17.0119 15.5631V13.0381C17.0119 12.3537 17.0462 11.6591 17.0063 10.9753C16.9213 11.0608 16.8358 11.1457 16.7504 11.2312H17.6953L17.4393 10.9753V12.7484V13.831C17.4393 14.1181 17.445 14.3735 17.5719 14.6433C17.8202 15.1725 18.5255 15.3793 19.0379 15.1388C19.4555 14.9422 19.6982 14.5322 19.6982 14.0746V12.0405V10.9753C19.6127 11.0608 19.5272 11.1457 19.4422 11.2312H23.0508C23.1901 11.2312 23.3068 11.1145 23.3068 10.9753V9.2447C23.3068 8.91455 22.7949 8.91455 22.7949 9.2447V10.9753C22.8799 10.8898 22.9654 10.8048 23.0508 10.7194H19.4422C19.3025 10.7194 19.1863 10.8356 19.1863 10.9753V12.7484V13.831C19.1863 14.1232 19.1945 14.374 18.956 14.5952C18.5511 14.9698 17.9512 14.5691 17.9512 14.0859V13.3293V11.1217V10.9753C17.9512 10.8356 17.835 10.7194 17.6953 10.7194H16.7504C16.6168 10.7194 16.4862 10.8356 16.4944 10.9753C16.5231 11.4641 16.5001 11.9591 16.5001 12.4484V14.8598C16.5001 15.3788 16.6419 16.252 15.8828 16.2828C15.1242 16.3135 15.2655 15.3394 15.2655 14.8598V12.4484C15.2655 11.9591 15.2424 11.4636 15.2711 10.9753C15.2793 10.8356 15.1483 10.7194 15.0152 10.7194H7.98633H2.23406C2.31934 10.8048 2.40451 10.8898 2.48989 10.9753V9.2447C2.44771 9.31841 2.40533 9.39212 2.36315 9.46582C2.25515 9.51189 2.41495 9.44484 2.46292 9.4259C2.61007 9.36755 2.75862 9.31278 2.90762 9.25903C3.45587 9.06197 4.01308 8.88998 4.57413 8.73336C6.50399 8.1959 8.49 7.86217 10.4871 7.71373C14.7263 7.39894 19.0044 7.98604 22.9826 9.49142C23.2918 9.60863 23.4243 9.11367 23.1188 8.99799" fill="#006838"/>
</svg>
