<svg width="33" height="33" viewBox="0 0 33 33" fill="none" xmlns="http://www.w3.org/2000/svg">
<path d="M31.1667 0H1.83333C1.3471 0 0.880788 0.193154 0.536971 0.536971C0.193154 0.880788 0 1.3471 0 1.83333V31.1667C0 31.6529 0.193154 32.1192 0.536971 32.463C0.880788 32.8068 1.3471 33 1.83333 33H31.1667C31.6529 33 32.1192 32.8068 32.463 32.463C32.8068 32.1192 33 31.6529 33 31.1667V1.83333C33 1.3471 32.8068 0.880788 32.463 0.536971C32.1192 0.193154 31.6529 0 31.1667 0V0ZM9.78817 28.1178H4.8895V12.3695H9.78817V28.1178ZM7.33883 10.219C6.58615 10.219 5.86429 9.92 5.33206 9.38777C4.79984 8.85554 4.50083 8.13368 4.50083 7.381C4.50083 6.62832 4.79984 5.90646 5.33206 5.37423C5.86429 4.842 6.58615 4.543 7.33883 4.543C8.09152 4.543 8.81337 4.842 9.3456 5.37423C9.87783 5.90646 10.1768 6.62832 10.1768 7.381C10.1768 8.13368 9.87783 8.85554 9.3456 9.38777C8.81337 9.92 8.09152 10.219 7.33883 10.219V10.219ZM28.1197 28.1178H23.2265V20.46C23.2265 18.634 23.1935 16.2855 20.6818 16.2855C18.1335 16.2855 17.7467 18.2765 17.7467 20.3317V28.1197H12.8572V12.3713H17.5505V14.5237H17.6183C18.2692 13.2862 19.8678 11.9808 22.2457 11.9808C27.203 11.9808 28.1178 15.2405 28.1178 19.4828V28.1178H28.1197Z" fill="white"/>
</svg>
