<svg width="134" height="100" viewBox="0 0 134 100" fill="none" xmlns="http://www.w3.org/2000/svg">
<g clip-path="url(#clip0_71_2426)">
<path opacity="0.1" d="M69.527 100C92.997 100 112.023 98.9702 112.023 97.7C112.023 96.4297 92.997 95.3999 69.527 95.3999C46.057 95.3999 27.0308 96.4297 27.0308 97.7C27.0308 98.9702 46.057 100 69.527 100Z" fill="#1F7A3A"/>
<path d="M93.5983 88.6825L93.2328 89.2185L90.973 92.5809L89.0542 93.1595L87.6228 91.7585L87.6922 90.8339L88.0492 86.0328C88.0492 86.0328 79.1925 80.8223 78.4006 79.8477C77.6088 78.8731 74.5632 77.9899 74.5632 77.9899C74.5632 77.9899 69.9034 75.8275 68.1674 72.0509C66.4313 68.2743 71.0607 67.6957 71.0607 67.6957L88.4512 84.3272L93.5983 88.6825Z" fill="#FFC1C7"/>
<path d="M95.7302 90.6317L90.2177 95.7788C90.2177 95.7788 87.0502 96.3879 84.2178 95.9615C82.4075 95.6886 82.7559 94.6957 83.2322 94.0123L83.2407 94.0001C83.526 93.6092 83.9432 93.3349 84.4151 93.2278C86.759 92.6625 87.568 90.9655 87.568 90.9655L89.2735 92.4274L92.2278 88.9846L94.4121 90.0104L95.7302 90.6317Z" fill="#575988"/>
<path opacity="0.1" d="M94.4121 90.0128L93.1147 89.4037L93.2365 89.2185L93.602 88.6825L88.4512 84.3272L71.0607 67.6981C71.0607 67.6981 66.4313 68.2743 68.1674 72.0509C69.9034 75.8275 74.5632 77.9899 74.5632 77.9899C74.5632 77.9899 77.6088 78.8731 78.4006 79.8477C79.1925 80.8223 88.0553 86.0303 88.0553 86.0303L87.6983 90.8315L87.6813 91.0605L87.568 90.9642C87.568 90.9642 86.7591 92.6613 84.4151 93.2265C83.9432 93.3337 83.526 93.608 83.2407 93.9989L83.2322 94.0111C82.7449 94.6933 82.4075 95.6862 84.2178 95.9603C87.0502 96.3867 90.2177 95.7775 90.2177 95.7775L95.7302 90.6304L94.4121 90.0128Z" fill="black"/>
<path opacity="0.1" d="M1.44385 52.3823C3.55873 61.4217 8.03579 69.2356 15.1102 73.0255C29.8157 80.8979 62.9776 76.8374 87.7264 72.1728C100.233 69.8241 111.585 63.3346 119.954 53.7492L1.44385 52.3823Z" fill="#1F7A3A"/>
<path opacity="0.1" d="M131.23 9.83371H117.65C117.345 9.82389 117.056 9.69592 116.844 9.47687C116.632 9.25781 116.513 8.96485 116.513 8.65993C116.513 8.35501 116.632 8.06204 116.844 7.84299C117.056 7.62393 117.345 7.49596 117.65 7.48615H119.997C119.686 7.48615 119.388 7.36254 119.168 7.14253C118.948 6.92252 118.824 6.62412 118.824 6.31297C118.824 6.00183 118.948 5.70342 119.168 5.48341C119.388 5.2634 119.686 5.1398 119.997 5.1398H118.321C118.016 5.12998 117.727 5.00201 117.515 4.78295C117.303 4.5639 117.184 4.27093 117.184 3.96601C117.184 3.66109 117.303 3.36813 117.515 3.14907C117.727 2.93002 118.016 2.80205 118.321 2.79223H125.409C123.836 2.06128 121.998 1.54109 119.879 1.2682C100.553 -1.21337 93.6527 0.427608 91.2186 2.12097C88.2157 4.20418 84.8655 5.73674 81.285 6.475C69.3608 8.93464 47.0608 11.8938 26.8488 5.5272C16.8031 2.35975 9.33767 7.7103 4.86182 16.6474H133.587C133.419 14.0501 132.916 11.6526 131.992 9.5523C131.78 9.73418 131.509 9.834 131.23 9.83371Z" fill="#1F7A3A"/>
<path opacity="0.1" d="M0.291357 33.514C-0.230236 38.7714 -0.0532694 44.0746 0.817641 49.2855L120.045 53.6456C123.365 49.8281 126.151 45.5784 128.329 41.0124L0.291357 33.514ZM47.4474 44.7621H45.0998C45.2571 44.7571 45.4139 44.7837 45.5607 44.8404C45.7075 44.8971 45.8415 44.9827 45.9545 45.0922C46.0676 45.2017 46.1575 45.3328 46.219 45.4778C46.2804 45.6227 46.312 45.7785 46.312 45.9359C46.312 46.0933 46.2804 46.2491 46.219 46.3941C46.1575 46.539 46.0676 46.6701 45.9545 46.7796C45.8415 46.8891 45.7075 46.9747 45.5607 47.0315C45.4139 47.0882 45.2571 47.1148 45.0998 47.1097H31.52C31.2152 47.0999 30.9262 46.9719 30.7141 46.7529C30.502 46.5338 30.3834 46.2408 30.3834 45.9359C30.3834 45.631 30.502 45.338 30.7141 45.119C30.9262 44.8999 31.2152 44.772 31.52 44.7621H33.8675C33.5564 44.7621 33.258 44.6385 33.038 44.4185C32.818 44.1985 32.6944 43.9001 32.6944 43.589C32.6944 43.2778 32.818 42.9794 33.038 42.7594C33.258 42.5394 33.5564 42.4158 33.8675 42.4158H32.1912C31.8865 42.406 31.5975 42.278 31.3854 42.0589C31.1732 41.8399 31.0546 41.5469 31.0546 41.242C31.0546 40.9371 31.1732 40.6441 31.3854 40.4251C31.5975 40.206 31.8865 40.078 32.1912 40.0682H45.771C46.0758 40.078 46.3648 40.206 46.5769 40.4251C46.789 40.6441 46.9076 40.9371 46.9076 41.242C46.9076 41.5469 46.789 41.8399 46.5769 42.0589C46.3648 42.278 46.0758 42.406 45.771 42.4158H47.4474C47.7585 42.4158 48.0569 42.5394 48.2769 42.7594C48.4969 42.9794 48.6205 43.2778 48.6205 43.589C48.6205 43.9001 48.4969 44.1985 48.2769 44.4185C48.0569 44.6385 47.7585 44.7621 47.4474 44.7621Z" fill="#1F7A3A"/>
<path opacity="0.1" d="M133.593 16.7253L3.42561 19.8928C1.84189 23.963 0.797847 28.5594 0.310547 33.3337H131.313C132.168 30.532 132.8 27.6671 133.204 24.7658C133.594 21.9626 133.75 19.2508 133.593 16.7253ZM26.7368 27.0975H24.3892C24.5466 27.0924 24.7033 27.1191 24.8501 27.1758C24.997 27.2325 25.1309 27.3181 25.244 27.4276C25.3571 27.5371 25.447 27.6682 25.5084 27.8132C25.5698 27.9581 25.6015 28.1139 25.6015 28.2713C25.6015 28.4287 25.5698 28.5845 25.5084 28.7294C25.447 28.8744 25.3571 29.0055 25.244 29.115C25.1309 29.2245 24.997 29.3101 24.8501 29.3668C24.7033 29.4235 24.5466 29.4502 24.3892 29.4451H10.8094C10.5047 29.4353 10.2157 29.3073 10.0036 29.0882C9.79144 28.8692 9.67285 28.5762 9.67285 28.2713C9.67285 27.9664 9.79144 27.6734 10.0036 27.4544C10.2157 27.2353 10.5047 27.1073 10.8094 27.0975H13.157C12.8458 27.0975 12.5474 26.9739 12.3274 26.7539C12.1074 26.5339 11.9838 26.2355 11.9838 25.9243C11.9838 25.6132 12.1074 25.3148 12.3274 25.0948C12.5474 24.8748 12.8458 24.7512 13.157 24.7512H11.4807C11.1759 24.7414 10.8869 24.6134 10.6748 24.3943C10.4627 24.1753 10.3441 23.8823 10.3441 23.5774C10.3441 23.2725 10.4627 22.9795 10.6748 22.7604C10.8869 22.5414 11.1759 22.4134 11.4807 22.4036H25.0605C25.3653 22.4134 25.6543 22.5414 25.8664 22.7604C26.0785 22.9795 26.1971 23.2725 26.1971 23.5774C26.1971 23.8823 26.0785 24.1753 25.8664 24.3943C25.6543 24.6134 25.3653 24.7414 25.0605 24.7512H26.7368C27.048 24.7512 27.3464 24.8748 27.5664 25.0948C27.7864 25.3148 27.91 25.6132 27.91 25.9243C27.91 26.2355 27.7864 26.5339 27.5664 26.7539C27.3464 26.9739 27.048 27.0975 26.7368 27.0975Z" fill="#1F7A3A"/>
<g opacity="0.1">
<path d="M97.1323 60.1352C97.1323 60.1352 100.568 51.6684 106.983 48.5278C109.683 47.2278 111.887 45.0869 113.266 42.4268C113.91 41.1591 114.438 39.835 114.841 38.4711" stroke="#535461" stroke-width="2" stroke-miterlimit="10"/>
<path d="M118.872 36.4683C118.203 37.3089 114.742 38.5393 114.742 38.5393C114.742 38.5393 115.158 34.8907 115.827 34.0501C115.98 33.8322 116.175 33.6479 116.402 33.5085C116.628 33.369 116.881 33.2774 117.144 33.2392C117.407 33.2011 117.675 33.2172 117.932 33.2865C118.189 33.3559 118.429 33.4771 118.637 33.6426C118.845 33.8082 119.017 34.0145 119.143 34.2491C119.268 34.4836 119.344 34.7413 119.366 35.0063C119.388 35.2714 119.356 35.5381 119.271 35.7902C119.186 36.0422 119.051 36.2742 118.873 36.472L118.872 36.4683Z" fill="#1F7A3A"/>
<path d="M117.684 43.126C116.666 43.4684 113.094 42.6168 113.094 42.6168C113.094 42.6168 115.427 39.7807 116.445 39.4384C116.692 39.3373 116.957 39.2879 117.223 39.2932C117.49 39.2985 117.752 39.3585 117.995 39.4693C118.237 39.5802 118.454 39.7396 118.633 39.9377C118.811 40.1359 118.947 40.3685 119.032 40.6212C119.117 40.8739 119.149 41.1414 119.127 41.4071C119.104 41.6727 119.027 41.9309 118.901 42.1657C118.774 42.4005 118.601 42.6068 118.392 42.772C118.183 42.9372 117.942 43.0577 117.684 43.126Z" fill="#1F7A3A"/>
<path d="M111.244 50.9971C110.193 50.7779 107.539 48.2402 107.539 48.2402C107.539 48.2402 110.985 46.9696 112.036 47.1877C112.515 47.3185 112.925 47.6269 113.184 48.0499C113.443 48.473 113.531 48.9788 113.43 49.4645C113.33 49.9502 113.047 50.3791 112.641 50.6638C112.235 50.9486 111.735 51.0678 111.244 50.9971Z" fill="#1F7A3A"/>
<path d="M105.031 55.8543C103.958 55.8178 100.912 53.7638 100.912 53.7638C100.912 53.7638 104.094 51.9291 105.167 51.9669C105.434 51.9585 105.7 52.0051 105.948 52.1036C106.196 52.2021 106.421 52.3504 106.609 52.5395C106.798 52.7285 106.945 52.9543 107.043 53.2026C107.14 53.451 107.186 53.7168 107.176 53.9835C107.167 54.2502 107.103 54.5121 106.988 54.7531C106.874 54.994 106.711 55.2088 106.509 55.3842C106.308 55.5596 106.073 55.6918 105.819 55.7727C105.565 55.8535 105.296 55.8813 105.031 55.8543Z" fill="#1F7A3A"/>
<path d="M109.768 40.2376C109.904 41.3035 112.231 44.1445 112.231 44.1445C112.231 44.1445 113.764 40.8065 113.626 39.7417C113.531 39.2563 113.255 38.8252 112.853 38.5359C112.452 38.2466 111.956 38.1207 111.465 38.1838C110.974 38.2468 110.526 38.4941 110.211 38.8755C109.896 39.2569 109.737 39.7438 109.768 40.2376Z" fill="#1F7A3A"/>
<path d="M102.573 46.0109C103.022 46.9855 106.094 49.0017 106.094 49.0017C106.094 49.0017 106.555 45.3591 106.106 44.3833C105.87 43.9488 105.477 43.6204 105.008 43.4646C104.538 43.3088 104.027 43.3373 103.578 43.5442C103.129 43.7511 102.775 44.1211 102.588 44.5791C102.402 45.0371 102.396 45.5489 102.573 46.0109Z" fill="#1F7A3A"/>
<path d="M96.35 52.5821C96.629 53.62 99.314 56.1248 99.314 56.1248C99.314 56.1248 100.386 52.6125 100.108 51.5746C99.9506 51.1042 99.6193 50.7116 99.1822 50.4769C98.745 50.2422 98.2348 50.1831 97.7555 50.3116C97.2763 50.4401 96.8641 50.7465 96.6029 51.1683C96.3417 51.5902 96.2513 52.0958 96.35 52.5821Z" fill="#1F7A3A"/>
<path opacity="0.25" d="M118.872 36.4683C118.203 37.3089 114.742 38.5393 114.742 38.5393C114.742 38.5393 115.158 34.8907 115.827 34.0501C115.98 33.8322 116.175 33.6479 116.402 33.5085C116.628 33.369 116.881 33.2774 117.144 33.2392C117.407 33.2011 117.675 33.2172 117.932 33.2865C118.189 33.3559 118.429 33.4771 118.637 33.6426C118.845 33.8082 119.017 34.0145 119.143 34.2491C119.268 34.4836 119.344 34.7413 119.366 35.0063C119.388 35.2714 119.356 35.5381 119.271 35.7902C119.186 36.0422 119.051 36.2742 118.873 36.472L118.872 36.4683Z" fill="black"/>
<path opacity="0.25" d="M117.684 43.126C116.666 43.4684 113.094 42.6168 113.094 42.6168C113.094 42.6168 115.427 39.7807 116.445 39.4384C116.692 39.3373 116.957 39.2879 117.223 39.2932C117.49 39.2985 117.752 39.3585 117.995 39.4693C118.237 39.5802 118.454 39.7396 118.633 39.9377C118.811 40.1359 118.947 40.3685 119.032 40.6212C119.117 40.8739 119.149 41.1414 119.127 41.4071C119.104 41.6727 119.027 41.9309 118.901 42.1657C118.774 42.4005 118.601 42.6068 118.392 42.772C118.183 42.9372 117.942 43.0577 117.684 43.126Z" fill="black"/>
<path opacity="0.25" d="M111.244 50.9971C110.193 50.7779 107.539 48.2402 107.539 48.2402C107.539 48.2402 110.985 46.9696 112.036 47.1877C112.515 47.3185 112.925 47.6269 113.184 48.0499C113.443 48.473 113.531 48.9788 113.43 49.4645C113.33 49.9502 113.047 50.3791 112.641 50.6638C112.235 50.9486 111.735 51.0678 111.244 50.9971Z" fill="black"/>
<path opacity="0.25" d="M105.031 55.8543C103.958 55.8178 100.912 53.7638 100.912 53.7638C100.912 53.7638 104.094 51.9291 105.167 51.9669C105.434 51.9585 105.7 52.0051 105.948 52.1036C106.196 52.2021 106.421 52.3504 106.609 52.5395C106.798 52.7285 106.945 52.9543 107.043 53.2026C107.14 53.451 107.186 53.7168 107.176 53.9835C107.167 54.2502 107.103 54.5121 106.988 54.7531C106.874 54.994 106.711 55.2088 106.509 55.3842C106.308 55.5596 106.073 55.6918 105.819 55.7727C105.565 55.8535 105.296 55.8813 105.031 55.8543Z" fill="black"/>
<path opacity="0.25" d="M109.768 40.2376C109.904 41.3035 112.231 44.1445 112.231 44.1445C112.231 44.1445 113.764 40.8065 113.626 39.7417C113.531 39.2563 113.255 38.8252 112.853 38.5359C112.452 38.2466 111.956 38.1207 111.465 38.1838C110.974 38.2468 110.526 38.4941 110.211 38.8755C109.896 39.2569 109.737 39.7438 109.768 40.2376Z" fill="black"/>
<path opacity="0.25" d="M102.573 46.0109C103.022 46.9855 106.094 49.0017 106.094 49.0017C106.094 49.0017 106.555 45.3591 106.106 44.3833C105.87 43.9488 105.477 43.6204 105.008 43.4646C104.538 43.3088 104.027 43.3373 103.578 43.5442C103.129 43.7511 102.775 44.1211 102.588 44.5791C102.402 45.0371 102.396 45.5489 102.573 46.0109Z" fill="black"/>
<path opacity="0.25" d="M96.35 52.5821C96.629 53.62 99.314 56.1248 99.314 56.1248C99.314 56.1248 100.386 52.6125 100.108 51.5746C99.9506 51.1042 99.6193 50.7116 99.1822 50.4769C98.745 50.2422 98.2348 50.1831 97.7555 50.3116C97.2763 50.4401 96.8641 50.7465 96.6029 51.1683C96.3417 51.5902 96.2513 52.0958 96.35 52.5821Z" fill="black"/>
</g>
<g opacity="0.1">
<path d="M91.6621 46.5895C91.6621 46.5895 92.0958 37.4624 97.1065 32.3713C99.2218 30.2499 100.592 27.4995 101.011 24.5331C101.198 23.122 101.255 21.6968 101.182 20.2753" stroke="#535461" stroke-width="2" stroke-miterlimit="10"/>
<path d="M104.324 17.047C103.972 18.063 101.114 20.3679 101.114 20.3679C101.114 20.3679 100.297 16.7875 100.648 15.7727C100.84 15.3166 101.199 14.9508 101.651 14.7494C102.103 14.548 102.615 14.5262 103.083 14.6883C103.55 14.8505 103.939 15.1844 104.169 15.6224C104.4 16.0605 104.455 16.5697 104.324 17.047Z" fill="#1F7A3A"/>
<path d="M105.411 23.723C104.559 24.3833 100.911 24.7658 100.911 24.7658C100.911 24.7658 102.172 21.3157 103.019 20.6554C103.428 20.3766 103.928 20.264 104.417 20.3405C104.907 20.4171 105.349 20.677 105.653 21.0675C105.958 21.458 106.102 21.9498 106.057 22.443C106.012 22.9363 105.781 23.3939 105.411 23.723Z" fill="#1F7A3A"/>
<path d="M101.946 33.2838C100.882 33.4263 97.5352 31.912 97.5352 31.912C97.5352 31.912 100.365 29.5706 101.434 29.428C101.927 29.3942 102.416 29.5496 102.799 29.8627C103.183 30.1758 103.433 30.6232 103.499 31.1139C103.564 31.6046 103.441 32.1019 103.153 32.5049C102.866 32.9079 102.436 33.1864 101.95 33.2838H101.946Z" fill="#1F7A3A"/>
<path d="M97.6949 39.9269C96.6703 40.2485 93.1167 39.3178 93.1167 39.3178C93.1167 39.3178 95.5093 36.5329 96.5351 36.2125C96.7842 36.1152 97.0506 36.0702 97.3178 36.0802C97.585 36.0903 97.8472 36.1553 98.0883 36.271C98.3293 36.3868 98.5439 36.5509 98.7188 36.7532C98.8937 36.9555 99.0251 37.1915 99.1048 37.4468C99.1846 37.702 99.211 37.9709 99.1823 38.2367C99.1537 38.5026 99.0707 38.7597 98.9384 38.9921C98.8062 39.2245 98.6276 39.4272 98.4136 39.5876C98.1997 39.748 97.955 39.8627 97.6949 39.9245V39.9269Z" fill="#1F7A3A"/>
<path d="M96.9845 23.6231C97.4718 24.583 100.605 26.492 100.605 26.492C100.605 26.492 100.943 22.8373 100.46 21.8761C100.209 21.4495 99.8059 21.1342 99.3312 20.9942C98.8566 20.8542 98.3465 20.9 97.9044 21.1222C97.4623 21.3444 97.1212 21.7265 96.9504 22.1909C96.7796 22.6553 96.7918 23.1673 96.9845 23.6231Z" fill="#1F7A3A"/>
<path d="M92.1118 31.4564C92.8598 32.2276 96.4244 33.1108 96.4244 33.1108C96.4244 33.1108 95.6532 29.5194 94.9052 28.7482C94.5384 28.4147 94.0584 28.2334 93.5627 28.2413C93.067 28.2492 92.5929 28.4457 92.237 28.7908C91.881 29.1358 91.6699 29.6036 91.6467 30.0988C91.6234 30.594 91.7897 31.0795 92.1118 31.4564Z" fill="#1F7A3A"/>
<path d="M88.4204 39.7186C89.0295 40.6055 92.3919 42.0783 92.3919 42.0783C92.3919 42.0783 92.2372 38.409 91.6317 37.5221C91.3255 37.1357 90.8842 36.8796 90.3968 36.8056C89.9093 36.7315 89.412 36.8449 89.0048 37.123C88.5976 37.401 88.311 37.823 88.2025 38.3039C88.0941 38.7849 88.1719 39.2891 88.4204 39.7149V39.7186Z" fill="#1F7A3A"/>
</g>
<path opacity="0.1" d="M52.5077 10.416C52.5077 10.416 49.6046 10.2418 49.9493 12.2763C49.9317 12.3795 49.9472 12.4857 49.9936 12.5796C50.04 12.6735 50.1149 12.7503 50.2076 12.7989C50.2076 12.7989 50.2076 12.6479 50.5049 12.699C50.609 12.7171 50.715 12.7225 50.8204 12.7149C50.963 12.705 51.0986 12.649 51.2066 12.5553C51.2066 12.5553 52.0228 12.2178 52.3395 10.8838C52.3395 10.8838 52.5747 10.5927 52.5649 10.5184L52.0776 10.7279C52.0776 10.7279 52.2445 11.0812 52.113 11.3748C52.113 11.3748 52.0971 10.7401 52.0033 10.7547C51.9838 10.7547 51.7487 10.8765 51.7487 10.8765C51.7487 10.8765 52.0374 11.493 51.8194 11.9401C51.8194 11.9401 51.9022 11.1811 51.6585 10.9216L51.3138 11.1226C51.3138 11.1226 51.65 11.7585 51.4222 12.2775C51.4222 12.2775 51.4807 11.482 51.2419 11.1713L50.9288 11.415C50.9288 11.415 51.2456 12.0424 51.0506 12.4724C51.0506 12.4724 51.0263 11.5454 50.8594 11.4759C50.7412 11.576 50.6357 11.6902 50.5451 11.8158C50.5451 11.8158 50.7607 12.2714 50.6267 12.5114C50.6267 12.5114 50.5451 11.8938 50.4768 11.8913C50.4768 11.8913 50.204 12.3007 50.1759 12.5809C50.1891 12.3208 50.2701 12.0688 50.4111 11.8499C50.2538 11.8797 50.1086 11.9546 49.9932 12.0655C49.9932 12.0655 50.0358 11.7768 50.4805 11.7512C50.4805 11.7512 50.7059 11.4406 50.7656 11.4223C50.7656 11.4223 50.3258 11.3845 50.0602 11.5039C50.0602 11.5039 50.2941 11.231 50.846 11.3541L51.1554 11.1031C51.1554 11.1031 50.5767 11.0239 50.3307 11.1104C50.3307 11.1104 50.6133 10.8668 51.2383 11.0459L51.5745 10.8449C51.3159 10.7876 51.0509 10.7647 50.7863 10.7766C50.7863 10.7766 51.0969 10.6097 51.6732 10.79L51.9168 10.6828C51.9168 10.6828 51.5513 10.6122 51.449 10.6C51.3467 10.5878 51.3381 10.5598 51.3381 10.5598C51.567 10.5216 51.8019 10.5478 52.0167 10.6353C52.0167 10.6353 52.5174 10.4489 52.5077 10.416Z" fill="#1F7A3A"/>
<path opacity="0.1" d="M44.8841 20.3167C44.8841 20.3167 43.8924 23.0517 45.9403 23.3015C46.0344 23.3476 46.1407 23.3627 46.244 23.3448C46.3473 23.3268 46.4422 23.2767 46.5153 23.2016C46.5153 23.2016 46.3716 23.154 46.5044 22.8885C46.5496 22.7934 46.5831 22.6932 46.6042 22.59C46.6354 22.4506 46.6205 22.3048 46.5616 22.1746C46.5616 22.1746 46.4702 21.2962 45.2812 20.614C45.2812 20.614 45.068 20.3058 44.9937 20.2936L45.0559 20.8223C45.0559 20.8223 45.442 20.7626 45.6869 20.9722C45.6869 20.9722 45.0778 20.8077 45.0607 20.9015C45.0607 20.921 45.1058 21.1805 45.1058 21.1805C45.1058 21.1805 45.7783 21.0794 46.1462 21.4144C46.1462 21.4144 45.442 21.1208 45.1241 21.2792L45.2191 21.6678C45.2191 21.6678 45.9245 21.5252 46.3569 21.8919C46.3569 21.8919 45.6102 21.6093 45.2447 21.7506L45.3897 22.1161C45.3897 22.1161 46.0804 21.9943 46.4386 22.2976C46.4386 22.2976 45.5432 22.054 45.4286 22.1989C45.4911 22.341 45.5709 22.4748 45.6662 22.5973C45.6662 22.5973 46.1632 22.5193 46.3557 22.7191C46.3557 22.7191 45.7405 22.6229 45.7186 22.6875C45.7186 22.6875 46.0329 23.0651 46.2936 23.1748C46.0492 23.0886 45.8316 22.9399 45.6625 22.7435C45.6477 22.9008 45.6786 23.059 45.7515 23.1991C45.7515 23.1991 45.4871 23.0773 45.5882 22.646C45.5882 22.646 45.3543 22.3415 45.3531 22.2806C45.3531 22.2806 45.1935 22.6923 45.2313 22.9811C45.2313 22.9811 45.0364 22.6789 45.3117 22.1843L45.1582 21.8188C45.1582 21.8188 44.9145 22.3512 44.9316 22.6107C44.9316 22.6107 44.7805 22.272 45.1265 21.7226L45.0291 21.3437C44.9019 21.574 44.8048 21.8197 44.7403 22.0747C44.7403 22.0747 44.6684 21.7287 45.0059 21.2292L44.9706 20.9673C44.9706 20.9673 44.8 21.2938 44.7586 21.3925C44.7172 21.4911 44.6879 21.4875 44.6879 21.4875C44.7168 21.2571 44.8087 21.0391 44.9535 20.8576C44.9535 20.8576 44.9182 20.318 44.8841 20.3167Z" fill="#1F7A3A"/>
<path opacity="0.1" d="M64.137 18.013C64.137 18.013 63.1441 20.7468 65.1932 20.9965C65.287 21.0427 65.393 21.058 65.4961 21.0403C65.5992 21.0226 65.694 20.9727 65.767 20.8979C65.767 20.8979 65.6245 20.8503 65.756 20.5835C65.8029 20.4886 65.838 20.3884 65.8608 20.2851C65.8922 20.146 65.8768 20.0003 65.8169 19.8709C65.8169 19.8709 65.7256 18.9925 64.5366 18.3091C64.5366 18.3091 64.3246 18.0009 64.2503 17.9887L64.3112 18.5186C64.3112 18.5186 64.6986 18.4577 64.9422 18.6672C64.9422 18.6672 64.3331 18.5028 64.3173 18.5978C64.3173 18.6161 64.3623 18.8768 64.3623 18.8768C64.3623 18.8768 65.0348 18.7744 65.4015 19.1107C65.4015 19.1107 64.6986 18.8159 64.3794 18.9755L64.4744 19.3629C64.4744 19.3629 65.1798 19.2203 65.6135 19.587C65.6135 19.587 64.8667 19.3044 64.5012 19.4469L64.6462 19.8124C64.6462 19.8124 65.3369 19.6906 65.6951 19.9939C65.6951 19.9939 64.7997 19.7503 64.6852 19.894C64.7476 20.0359 64.8269 20.1696 64.9215 20.2924C64.9215 20.2924 65.4198 20.2144 65.6123 20.4142C65.6123 20.4142 64.9958 20.318 64.9751 20.3813C64.9751 20.3813 65.2894 20.759 65.5501 20.8686C65.3053 20.782 65.0874 20.6329 64.9179 20.4361C64.9017 20.5954 64.9326 20.756 65.0068 20.8979C65.0068 20.8979 64.7412 20.776 64.8423 20.3436C64.8423 20.3436 64.6096 20.0402 64.6084 19.9781C64.6084 19.9781 64.4476 20.3886 64.4866 20.6786C64.4866 20.6786 64.2917 20.3752 64.5682 19.8818L64.4135 19.5164C64.4135 19.5164 64.1699 20.0487 64.1881 20.3094C64.1881 20.3094 64.0371 19.9696 64.3831 19.4201L64.2856 19.0412C64.1581 19.2714 64.0611 19.5171 63.9969 19.7722C63.9969 19.7722 63.9238 19.4274 64.2612 18.9267L64.2259 18.666C64.2259 18.666 64.0553 18.9925 64.0151 19.09C63.9749 19.1874 63.9445 19.1862 63.9445 19.1862C63.9726 18.9556 64.0646 18.7375 64.2101 18.5564C64.2101 18.5564 64.1699 18.013 64.137 18.013Z" fill="#1F7A3A"/>
<path opacity="0.1" d="M32.6785 14.5873C32.6785 14.5873 31.6856 17.3223 33.7347 17.5708C33.8284 17.6174 33.9346 17.6329 34.0377 17.6151C34.1408 17.5974 34.2357 17.5473 34.3085 17.4721C34.3085 17.4721 34.166 17.4246 34.2975 17.159C34.3438 17.0639 34.379 16.9638 34.4023 16.8606C34.4331 16.721 34.4177 16.5752 34.3584 16.4452C34.3584 16.4452 34.2671 15.5668 33.0781 14.8834C33.0781 14.8834 32.8661 14.5764 32.7918 14.5642L32.8527 15.0929C32.8527 15.0929 33.2389 15.0332 33.4837 15.2427C33.4837 15.2427 32.8746 15.0771 32.8588 15.1721C32.8588 15.1916 32.9039 15.4511 32.9039 15.4511C32.9039 15.4511 33.5763 15.35 33.943 15.685C33.943 15.685 33.2389 15.3902 32.9209 15.5497L33.0159 15.9384C33.0159 15.9384 33.7213 15.7958 34.1538 16.1625C34.1538 16.1625 33.4082 15.8799 33.0427 16.0212L33.1877 16.3867C33.1877 16.3867 33.8785 16.2649 34.2366 16.5682C34.2366 16.5682 33.34 16.3245 33.2267 16.4683C33.289 16.6106 33.3684 16.7447 33.463 16.8679C33.463 16.8679 33.9613 16.7887 34.1526 16.9897C34.1526 16.9897 33.5373 16.8935 33.5154 16.958C33.5154 16.958 33.8309 17.3345 34.0916 17.4453C33.8466 17.3592 33.6285 17.21 33.4594 17.0129C33.4432 17.1722 33.4741 17.3327 33.5483 17.4746C33.5483 17.4746 33.2827 17.3528 33.3838 16.9215C33.3838 16.9215 33.1499 16.6169 33.1499 16.556C33.1499 16.556 32.9891 16.9678 33.0281 17.2565C33.0281 17.2565 32.8332 16.9544 33.1085 16.4598L32.955 16.0943C32.955 16.0943 32.7114 16.6279 32.7284 16.8874C32.7284 16.8874 32.5774 16.5487 32.9233 15.9993L32.8271 15.6192C32.6996 15.8493 32.6026 16.095 32.5384 16.3501C32.5384 16.3501 32.4653 16.0054 32.8027 15.5047L32.7674 15.244C32.7674 15.244 32.5969 15.5705 32.5566 15.6691C32.5164 15.7678 32.486 15.7642 32.486 15.7642C32.514 15.5338 32.6056 15.3157 32.7504 15.1343C32.7504 15.1343 32.7162 14.5885 32.6785 14.5873Z" fill="#1F7A3A"/>
<path opacity="0.1" d="M63.1782 33.1388C63.1782 33.1388 63.9445 35.9408 65.7621 34.9662C65.8654 34.9498 65.9609 34.9011 66.0348 34.8271C66.1088 34.7532 66.1575 34.6577 66.1739 34.5544C66.1739 34.5544 66.0301 34.5971 65.9839 34.3035C65.9673 34.1993 65.9383 34.0974 65.8974 34.0001C65.8423 33.8685 65.7461 33.7583 65.6233 33.6858C65.6233 33.6858 65.0421 33.0219 63.6741 33.1486C63.6741 33.1486 63.3232 33.0194 63.255 33.0523L63.6107 33.4495C63.6107 33.4495 63.8909 33.1778 64.2113 33.2058C64.2113 33.2058 63.6156 33.4239 63.6607 33.508C63.6692 33.525 63.858 33.7102 63.858 33.7102C63.858 33.7102 64.3453 33.2399 64.8424 33.3021C64.8424 33.3021 64.098 33.4678 63.9287 33.7808L64.2308 34.044C64.2308 34.044 64.7254 33.5201 65.2895 33.5701C65.2895 33.5701 64.5171 33.7699 64.3002 34.0964L64.6316 34.3144C64.6316 34.3144 65.1189 33.8137 65.5928 33.8576C65.5928 33.8576 64.7242 34.1792 64.7108 34.3583C64.8439 34.4386 64.9862 34.5024 65.1347 34.5483C65.1347 34.5483 65.5002 34.1975 65.7658 34.2474C65.7658 34.2474 65.2078 34.5228 65.2273 34.5885C65.2273 34.5885 65.7012 34.7104 65.9765 34.6519C65.7269 34.7225 65.4631 34.7263 65.2115 34.6629C65.2898 34.8022 65.4071 34.9157 65.5489 34.9893C65.5489 34.9893 65.2614 35.0417 65.0957 34.6312C65.0957 34.6312 64.7303 34.5179 64.6925 34.4667C64.6925 34.4667 64.7985 34.8943 64.9971 35.1087C64.9971 35.1087 64.6633 34.9747 64.6036 34.4119L64.2686 34.2036C64.2686 34.2036 64.3782 34.7774 64.5402 34.982C64.5402 34.982 64.221 34.792 64.1869 34.1439L63.8885 33.8905C63.9181 34.1534 63.9816 34.4113 64.0773 34.658C64.0773 34.658 63.819 34.4143 63.8068 33.8137L63.6265 33.6213C63.6265 33.6213 63.6753 33.9867 63.6996 34.0903C63.724 34.1938 63.6996 34.2121 63.6996 34.2121C63.5896 34.0075 63.5386 33.7764 63.5522 33.5445C63.5522 33.5445 63.2062 33.1193 63.1782 33.1388Z" fill="#1F7A3A"/>
<path d="M99.3469 48.9444C99.6126 49.2515 99.9058 49.5337 100.223 49.7874L102.596 51.8097C103.019 52.1691 103.449 52.5407 103.985 52.71C104.302 52.8097 104.638 52.8353 104.966 52.7848C105.295 52.7343 105.608 52.6091 105.88 52.4188L105.84 52.4054L105.88 52.3786C105.48 52.2495 105.069 52.1155 104.739 51.856C104.603 51.7542 104.489 51.6264 104.402 51.48C104.316 51.3336 104.26 51.1715 104.237 51.0032C104.237 50.9862 104.237 50.9703 104.237 50.9533C104.238 50.9071 104.242 50.8611 104.25 50.8156C104.762 50.772 105.254 50.5989 105.679 50.3125L105.638 50.2979L105.679 50.2723C104.415 49.8666 103.539 48.68 103.142 47.424C102.745 46.168 102.743 44.8304 102.701 43.5159C102.658 42.2014 102.561 40.8503 101.993 39.6613C101.78 39.2154 101.506 38.7915 101.402 38.3091C101.374 38.1659 101.36 38.0201 101.362 37.8742C101.37 37.4051 101.507 36.9337 101.632 36.4756C101.911 35.4526 102.134 34.4151 102.3 33.3678C102.365 32.9956 102.402 32.6188 102.408 32.241C102.42 31.8722 102.361 31.5046 102.234 31.1579C101.676 29.7082 99.7368 29.0248 99.4407 27.5032C99.406 27.2984 99.3913 27.0907 99.3969 26.8831C99.3969 26.7686 99.3969 26.6553 99.3969 26.542C99.3969 26.4287 99.3969 26.2983 99.3871 26.1863C99.3031 25.1154 98.6404 24.1859 98.0008 23.3173C97.2308 22.272 96.417 21.1854 95.2341 20.6286C94.3156 20.1937 93.0876 20.0499 91.9924 20.1474C91.5009 19.7234 90.9621 19.3575 90.3867 19.0571C89.5498 18.5917 88.6812 18.1336 87.7541 18.0313C86.5785 17.9022 85.4163 18.3529 84.237 18.4285C82.6338 18.532 81.0598 17.9412 79.4566 17.8193C77.8534 17.6975 76.0077 18.2372 75.2914 19.8514C75.1235 20.2433 75.0214 20.6603 74.9893 21.0855C74.9819 21.1671 74.9771 21.2475 74.9734 21.3291V21.3376C74.9615 21.6672 74.9709 21.9972 75.0014 22.3256V22.3634C75.0014 22.4292 75.0136 22.495 75.0209 22.5608C75.0209 22.5802 75.0209 22.5985 75.027 22.618C75.027 22.6789 75.0404 22.7398 75.0477 22.8008L75.055 22.858C75.0648 22.9348 75.0757 23.0115 75.0855 23.0883C75.104 23.2463 75.1379 23.4022 75.1866 23.5536C75.2165 23.6412 75.2601 23.7234 75.3157 23.7973C75.49 24.019 75.7519 24.0848 76.0223 24.1262L76.2355 24.1567C76.2136 24.2005 76.1904 24.2444 76.1697 24.2895C75.6863 25.3085 75.4366 26.4228 75.4388 27.5507C75.4388 31.3833 78.2761 34.5605 81.9832 35.138L82.2062 35.4157C83.573 37.1286 85.2883 39.4152 86.1046 41.0611C85.1616 42.2318 84.0579 44.3077 83.7436 47.7895L83.277 48.8786C82.2988 50.2857 82.0466 52.3153 82.2988 54.2036C82.0234 55.2245 81.7091 56.5073 81.4911 57.5684C79.8696 57.209 74.3351 56.3197 73.0267 55.4559L69.1892 53.648C69.1892 53.648 64.1943 50.159 61.5069 51.3236C60.4799 50.0615 58.9303 48.7397 58.2627 48.2402C57.1175 47.3814 54.2693 44.0263 54.2693 44.0263L49.8068 38.1032C49.7946 37.4173 49.7215 36.8313 49.5339 36.5792C49.0076 35.875 46.2215 34.312 45.6648 34.6494C45.108 34.9869 44.6427 33.9185 44.6427 33.9185L44.6 33.8953C44.4953 33.8344 44.198 33.6663 43.785 33.4446C43.7633 32.9501 43.7755 32.4548 43.8216 31.962C43.8301 31.8791 43.8411 31.7963 43.8532 31.7183C45.3324 31.6649 46.7537 31.1298 47.9008 30.1943C49.0478 29.2588 49.8579 27.9742 50.2076 26.5359C50.2271 26.4592 50.2405 26.38 50.2564 26.302C50.4561 26.3484 50.6643 26.3427 50.8612 26.2856C51.0581 26.2284 51.237 26.1216 51.3808 25.9755C51.7706 25.5564 51.7877 24.912 51.6634 24.3565C51.5392 23.8009 51.298 23.2686 51.237 22.7009C51.1603 21.9273 51.4332 21.1171 51.1822 20.3862C50.9715 19.7624 50.4159 19.3093 49.8239 19.0132C49.2318 18.7172 48.5837 18.5442 47.9782 18.275C47.4008 18.0191 46.8635 17.6756 46.2642 17.4733C45.4869 17.2114 44.6512 17.2017 43.8277 17.2212C43.3111 17.0128 42.7848 16.8143 42.2317 16.7521C41.6226 16.6827 40.9526 16.8009 40.4884 17.2066C40.123 17.5306 39.8257 18.0508 39.3299 18.0679C39.0862 18.0764 38.8669 17.9558 38.6501 17.8522C38.0349 17.5574 37.2564 17.3905 36.7009 17.7816C36.255 18.0934 36.0918 18.6672 36.015 19.202C35.9383 19.7369 35.9249 20.2985 35.6666 20.7772C35.507 21.0721 35.2646 21.3121 35.0636 21.5801C34.5548 22.2604 34.3149 23.1046 34.3899 23.9508V23.9751C34.3606 23.8533 34.3326 23.74 34.3119 23.6206C34.3119 23.7108 34.3119 23.7997 34.3241 23.8899C34.377 24.3078 34.468 24.7201 34.5958 25.1215L35.1001 26.888C35.3559 27.7846 35.6179 28.6946 36.1052 29.4926C36.2953 29.807 36.525 30.0956 36.7886 30.3515C37.2039 30.7875 37.7352 31.0957 38.3199 31.2396C38.5253 31.2856 38.7367 31.2984 38.9461 31.2773C38.9461 31.3029 38.94 31.3273 38.9352 31.3529C38.8901 31.3443 38.8438 31.3346 38.8012 31.3285C38.6032 31.2872 38.3984 31.2927 38.203 31.3443C37.2406 31.6867 36.9482 32.7283 36.8629 33.1376C36.8434 33.2424 36.8373 33.3057 36.8373 33.3057C36.8373 33.3057 36.8532 33.3666 36.8714 33.4702L36.8629 33.5055C36.8434 33.6091 36.8373 33.6736 36.8373 33.6736C36.8373 33.6736 36.8532 33.7345 36.8714 33.8405L36.6205 33.8466L32.4236 34.3948C31.4649 34.329 30.5524 34.3132 30.0639 34.4302C30.0225 34.4393 29.9818 34.4511 29.942 34.4655C29.3329 34.6763 26.5419 36.6023 24.0372 38.3749C24.0372 38.3261 24.0372 38.2786 24.0299 38.2323L23.3172 38.7391C23.3172 38.7866 23.3172 38.8366 23.3172 38.8865C23.1393 39.0083 22.9627 39.1375 22.7921 39.2605C22.0259 39.8087 21.3302 40.3033 20.8125 40.6822C20.1814 41.1354 19.7904 41.4217 19.7904 41.4217C19.7904 41.4217 19.5589 41.4972 19.4054 41.8542C19.2081 42.311 19.1398 43.2296 19.8525 45.0375C21.1219 48.2549 21.3997 50.4307 21.3997 50.4307C21.0553 50.4666 20.7173 50.5486 20.3946 50.6743C19.9548 50.8497 19.4956 51.147 19.3043 51.6489C19.1815 51.9994 19.1785 52.3807 19.2958 52.7331C19.883 54.8163 29.6034 66.6456 29.6034 66.6456L29.7252 66.6565C30.2237 66.7004 30.7251 66.7004 31.2236 66.6565C31.6781 66.609 32.1032 66.5006 32.2981 66.2715C32.2981 66.2715 34.4532 69.0382 37.6182 67.1536C37.5963 69.6632 37.533 71.5039 37.9313 72.431C38.5514 73.871 38.5514 77.1493 38.5514 77.1493L39.141 77.17C39.1094 77.2918 39.074 77.4137 39.0363 77.5355C38.7646 78.4333 38.3638 79.5188 37.9399 79.7783C37.226 80.2168 37.5646 87.7554 37.5939 88.4059C37.5939 88.4315 37.5939 88.4449 37.5939 88.4449L37.5525 91.4905V91.7342C37.464 91.6152 37.3845 91.4898 37.3149 91.359C37.3149 91.359 36.1673 92.4554 36.1466 94.7701C36.1259 97.0847 36.1673 97.1627 36.1673 97.1627C36.1673 97.1627 40.7966 96.9836 41.6653 97.3028C42.5339 97.622 49.7983 97.025 49.7983 97.025C49.7983 97.025 50.0675 96.3258 49.2927 95.7885C50.528 95.6996 51.8754 95.4632 52.6648 94.8907C54.4008 93.6371 49.1624 92.66 48.7969 92.4615C48.4314 92.2629 46.6211 90.6658 45.8731 90.0676C45.647 89.9025 45.3797 89.803 45.1007 89.7801L45.1945 87.05C46.3092 85.794 47.5165 78.8683 47.5165 78.8683C47.9112 78.5393 48.083 77.7389 48.1537 77.2504C48.2979 77.2026 48.4239 77.1116 48.5148 76.9898C48.6056 76.868 48.6569 76.7213 48.6617 76.5694C49.9372 76.6121 51.5416 76.6023 51.8498 76.2965C52.3761 75.7751 52.314 73.9977 52.314 73.9977L51.5708 55.183L51.5221 55.1112C51.645 54.2499 51.6474 53.3758 51.5294 52.5139C53.1984 52.9902 54.4971 53.3143 54.4971 53.3143C54.4971 53.3143 57.0091 53.7772 58.7719 54.167C58.4834 54.4735 58.2655 54.8394 58.1336 55.2391C56.5498 59.7466 65.532 59.5602 65.532 59.5602L69.7727 61.5216L79.755 64.7841C76.5474 63.8375 72.8829 62.724 70.3891 61.9602C70.1436 61.885 69.8938 61.8244 69.6411 61.7786C67.3533 61.3644 64.9765 62.1977 63.5194 64.0361C63.5024 64.0592 63.4865 64.0799 63.4683 64.1018C63.1194 64.5558 62.925 65.1095 62.9136 65.6819C62.9022 66.2542 63.0744 66.8153 63.4049 67.2827C63.7862 67.8224 64.2967 68.5399 64.8948 69.3744C63.6291 69.757 61.5349 70.8229 62.808 73.564C64.572 77.3637 69.3073 79.5334 69.3073 79.5334C69.3073 79.5334 72.4029 80.4227 73.2057 81.4034C73.4311 81.6787 74.3022 82.2891 75.4412 83.0249C76.1722 83.7985 76.7448 84.3041 77.0846 84.4162C78.4418 84.8633 81.0842 87.0086 82.9432 88.6179L82.6642 92.4627L82.646 92.6942L82.5314 92.5967C82.5314 92.5967 81.7091 94.3023 79.3262 94.8736C78.8483 94.9811 78.4249 95.257 78.1336 95.6508L78.125 95.6618L78.0544 95.7642L78.0008 95.7239C77.5135 96.4098 77.2869 97.4088 79.1264 97.6841C82.0052 98.1129 85.2177 97.5002 85.2177 97.5002L88.0879 94.8468C88.4068 95.1152 88.7813 95.3095 89.1843 95.4157C91.3296 95.903 97.3551 98.2348 97.3551 98.2348C97.3551 97.5806 102.68 89.1649 102.68 89.1649C109.868 75.5595 102.051 65.392 101.188 64.3333L101.111 64.2407L101.044 63.1102L101.029 62.8507C101.029 62.8507 104.908 61.1354 103.422 60.3192C101.936 59.503 101.107 55.579 99.7075 53.9453C98.6111 52.671 98.6745 49.7131 98.5587 47.1925C98.6844 47.8149 98.9544 48.3991 99.3469 48.8981C99.3555 48.9091 99.3652 48.9176 99.3737 48.9286L99.2702 48.8384C99.2958 48.8774 99.3201 48.9115 99.3469 48.9444ZM51.5514 47.8991C52.0508 48.4364 52.9231 49.1235 53.5006 49.5596C52.8086 49.2221 52.2701 48.9371 51.8547 48.7068C51.7572 48.4364 51.6549 48.1659 51.5514 47.8991ZM36.7752 35.1501C36.6559 35.5078 36.4385 35.8248 36.1478 36.0651L35.9042 35.0137C36.2233 35.0649 36.5206 35.1124 36.7752 35.1501ZM85.4662 64.0361C85.5624 63.829 85.6623 63.6255 85.7635 63.4269C86.1906 63.2879 86.5674 63.0261 86.8465 62.6741C87.0588 63.411 87.216 64.1627 87.3167 64.9229C87.3167 64.9583 87.3167 64.9778 87.3167 64.9778C87.3115 65.2843 87.2652 65.5887 87.1791 65.8829C87.067 66.2387 86.8623 66.5737 86.4907 66.6139C86.336 66.6297 85.5746 66.4458 84.4356 66.1351C84.1054 66.045 83.7424 65.9438 83.355 65.8342C83.9629 65.794 84.8083 65.4517 85.4662 64.0361ZM94.999 38.331C94.7712 37.9655 94.2961 37.7316 93.715 37.594C93.609 37.5233 93.4445 37.4112 93.235 37.2589C92.2116 36.5097 90.1686 34.8224 89.2318 32.6674C89.493 32.5945 89.7479 32.5013 89.9944 32.3884C90.3771 32.2129 90.7384 31.9943 91.0714 31.7366C91.1834 31.6489 91.2931 31.5575 91.3979 31.4625C91.6663 31.2204 91.9111 30.9532 92.1288 30.6646C92.2153 30.5427 92.2994 30.427 92.3725 30.2991C92.4919 30.1116 92.6001 29.9171 92.6965 29.7168C92.9183 29.2491 93.0894 28.759 93.207 28.2549C93.2545 28.0526 93.2959 27.8467 93.3288 27.6396C93.3617 27.4325 93.3933 27.2242 93.4165 27.0147C93.4922 26.2753 93.5211 25.5319 93.503 24.7889C93.503 24.7536 93.503 24.7171 93.503 24.6817C93.503 24.6683 93.503 24.6549 93.503 24.6427C93.4995 23.8895 93.4178 23.1387 93.2593 22.4024C93.3142 22.4231 93.369 22.4438 93.4214 22.4682C93.5094 22.5113 93.5934 22.5623 93.6723 22.6205C93.6528 22.5924 93.6309 22.5644 93.6102 22.5364C93.9635 22.7654 94.2266 23.1224 94.463 23.4781C95.5456 25.166 96.2371 27.0746 96.4867 29.0642C96.7362 31.0539 96.5376 33.0742 95.9054 34.9772C95.7275 35.4998 95.5143 36.02 95.4668 36.5694C95.295 38.532 97.1724 40.0292 97.8704 41.8737C98.2201 42.7983 98.2749 43.8229 98.3212 44.8364C97.7949 42.2696 95.8713 39.7429 95.0027 38.3359L94.999 38.331Z" fill="url(#paint0_linear_71_2426)"/>
<path d="M48.4315 77.1395C48.4315 77.1395 48.3401 78.6624 47.7615 79.1497C47.7615 79.1497 46.5737 86.0328 45.4772 87.2815L45.2945 87.982L40.7261 87.4642L41.6398 81.373L42.4925 75.769L48.4315 77.1395Z" fill="#FFC1C8"/>
<path opacity="0.03" d="M48.4315 77.1395C48.4315 77.1395 48.3401 78.6624 47.7615 79.1497C47.7615 79.1497 46.5737 86.0328 45.4772 87.2815L45.2945 87.982L40.7261 87.4642L41.6398 81.373L42.4925 75.769L48.4315 77.1395Z" fill="black"/>
<path d="M43.5087 87.3668L45.4774 87.2803L45.3726 90.3795L43.8656 91.3894L41.1514 90.7949L42.1418 86.6529L43.5087 87.3668Z" fill="#FF748F"/>
<path opacity="0.03" d="M43.5087 87.3668L45.4774 87.2803L45.3726 90.3795L43.8656 91.3894L41.1514 90.7949L42.1418 86.6529L43.5087 87.3668Z" fill="black"/>
<path d="M43.8655 90.1419C43.8655 90.1419 45.4114 89.6863 46.1448 90.2808C46.8782 90.8753 48.6617 92.4603 49.0187 92.6588C49.3756 92.8574 54.5227 93.8284 52.8232 95.0758C51.1238 96.3233 46.76 95.9676 46.76 95.9676C46.76 95.9676 43.9057 95.1343 43.8265 95.0953C43.7473 95.0563 41.9991 94.2036 41.9443 94.1439C41.8895 94.0842 42.4389 90.1237 42.4389 90.1237L43.8655 90.1419Z" fill="#5D618C"/>
<path opacity="0.03" d="M43.8655 90.1419C43.8655 90.1419 45.4114 89.6863 46.1448 90.2808C46.8782 90.8753 48.6617 92.4603 49.0187 92.6588C49.3756 92.8574 54.5227 93.8284 52.8232 95.0758C51.1238 96.3233 46.76 95.9676 46.76 95.9676C46.76 95.9676 43.9057 95.1343 43.8265 95.0953C43.7473 95.0563 41.9991 94.2036 41.9443 94.1439C41.8895 94.0842 42.4389 90.1237 42.4389 90.1237L43.8655 90.1419Z" fill="black"/>
<path d="M39.3859 48.9675L39.2946 54.63L39.0875 66.7089L38.9656 66.8149C35.3414 69.9519 32.783 66.6322 32.783 66.6322C32.5905 66.86 32.1739 66.9684 31.7256 67.0147C31.2352 67.0586 30.7419 67.0586 30.2515 67.0147L30.1297 67.0037C30.1297 67.0037 20.564 55.2391 19.9853 53.1681C19.8705 52.8178 19.8735 52.4395 19.9938 52.0911C20.1827 51.5965 20.6346 51.3017 21.0671 51.1275C21.3844 51.0021 21.7171 50.9201 22.0563 50.8838C22.0563 50.8838 21.7822 48.7214 20.5335 45.5235C19.8318 43.7266 19.9 42.8142 20.0937 42.3561C20.2448 42.0016 20.4726 41.9261 20.4726 41.9261C20.4726 41.9261 20.8576 41.6422 21.4777 41.1951C21.993 40.8187 22.6716 40.3265 23.4269 39.7819L24.1274 39.28C26.7113 37.4258 29.8251 35.2427 30.4623 35.0161C30.502 35.0016 30.5427 34.9898 30.5841 34.9808C31.8913 34.6653 36.2782 35.3207 36.2782 35.3207L39.3859 48.9675Z" fill="#1F7A3A"/>
<path opacity="0.1" d="M39.3859 48.9675L39.2945 54.63C34.9612 53.352 30.9325 44.884 30.4013 44.2164C29.9469 43.6365 30.4135 37.1785 30.5853 34.9833C31.8924 34.6677 36.2794 35.3231 36.2794 35.3231L39.3859 48.9675Z" fill="black"/>
<path d="M89.1212 37.9399C89.1212 37.9399 85.7406 39.676 85.3142 46.4981C85.3142 46.4981 84.766 49.9702 84.4614 50.5793C84.1569 51.1884 82.695 56.9446 82.8777 57.6451C82.8777 57.6451 82.5732 58.3456 81.4463 58.0411C80.3194 57.7365 74.2281 56.7924 72.8576 55.8787L69.081 54.0818C69.081 54.0818 61.7106 48.8737 60.1574 53.3508C58.6041 57.8279 67.4364 57.6476 67.4364 57.6476L71.6089 59.5968L84.2482 63.7668C84.2482 63.7668 85.9233 64.5282 87.0502 62.0917C87.7712 60.5569 88.6274 59.0892 89.6085 57.706C89.6085 57.706 92.1669 50.5184 92.1364 49.3001C92.106 48.0819 94.8775 45.1885 94.8775 45.1885C94.8775 45.1885 95.4257 37.5136 90.9182 37.6658L89.1212 37.9399Z" fill="#FFC1C7"/>
<path opacity="0.03" d="M89.1212 37.9399C89.1212 37.9399 85.7406 39.676 85.3142 46.4981C85.3142 46.4981 84.766 49.9702 84.4614 50.5793C84.1569 51.1884 82.695 56.9446 82.8777 57.6451C82.8777 57.6451 82.5732 58.3456 81.4463 58.0411C80.3194 57.7365 74.2281 56.7924 72.8576 55.8787L69.081 54.0818C69.081 54.0818 61.7106 48.8737 60.1574 53.3508C58.6041 57.8279 67.4364 57.6476 67.4364 57.6476L71.6089 59.5968L84.2482 63.7668C84.2482 63.7668 85.9233 64.5282 87.0502 62.0917C87.7712 60.5569 88.6274 59.0892 89.6085 57.706C89.6085 57.706 92.1669 50.5184 92.1364 49.3001C92.106 48.0819 94.8775 45.1885 94.8775 45.1885C94.8775 45.1885 95.4257 37.5136 90.9182 37.6658L89.1212 37.9399Z" fill="black"/>
<path d="M53.3656 43.8655C53.5483 44.0787 54.4011 44.5185 54.4011 44.5185C54.4011 44.5185 57.2031 47.8528 58.3299 48.7056C59.4568 49.5584 63.142 52.8172 62.3965 54.0513C61.6509 55.2854 60.8127 55.0101 60.8127 55.0101L54.2183 50.4416C54.2183 50.4416 51.9037 48.7824 51.4322 47.9905C50.9607 47.1986 50.3809 45.5406 50.3809 45.5406L53.3656 43.8655Z" fill="#FFC1C8"/>
<path opacity="0.03" d="M53.3656 43.8655C53.5483 44.0787 54.4011 44.5185 54.4011 44.5185C54.4011 44.5185 57.2031 47.8528 58.3299 48.7056C59.4568 49.5584 63.142 52.8172 62.3965 54.0513C61.6509 55.2854 60.8127 55.0101 60.8127 55.0101L54.2183 50.4416C54.2183 50.4416 51.9037 48.7824 51.4322 47.9905C50.9607 47.1986 50.3809 45.5406 50.3809 45.5406L53.3656 43.8655Z" fill="black"/>
<path d="M49.6656 38.1702L54.4009 44.5197L50.1371 46.1802L48.3706 40.865L49.6656 38.1702Z" fill="#DCE6F2"/>
<path opacity="0.03" d="M49.6656 38.1702L54.4009 44.5197L50.1371 46.1802L48.3706 40.865L49.6656 38.1702Z" fill="black"/>
<path d="M50.8987 54.3583L51.7515 55.607L52.4824 74.3071C52.4824 74.3071 52.5433 76.0736 52.0256 76.5913C51.5078 77.1091 47.2744 76.7741 47.2744 76.7741C47.2744 76.7741 47.4267 57.7085 47.4876 57.343C47.5485 56.9775 50.8987 54.3583 50.8987 54.3583Z" fill="#575988"/>
<path opacity="0.1" d="M50.8987 54.3583L51.7515 55.607L52.4824 74.3071C52.4824 74.3071 52.5433 76.0736 52.0256 76.5913C51.5078 77.1091 47.2744 76.7741 47.2744 76.7741C47.2744 76.7741 47.4267 57.7085 47.4876 57.343C47.5485 56.9775 50.8987 54.3583 50.8987 54.3583Z" fill="black"/>
<path d="M45.196 77.9972C44.9187 78.679 44.593 79.3402 44.2214 79.9756C44.2214 79.9756 43.4296 84.4941 43.0921 84.9108C42.8485 85.2153 42.7364 87.4886 42.6962 88.6739C42.6816 89.1028 42.6755 89.3891 42.6755 89.3891L38.0193 91.6087L37.9986 88.6752C37.9986 88.6752 37.9986 88.6618 37.9986 88.6362C37.9694 87.9893 37.6331 80.497 38.3385 80.0609C38.7527 79.8039 39.1474 78.7208 39.4142 77.8327C39.6177 77.1469 39.7456 76.5731 39.7456 76.5731C39.7456 76.5731 44.9183 76.2368 45.3495 76.7911C45.5079 76.9885 45.3982 77.4685 45.196 77.9972Z" fill="#FFC1C8"/>
<path opacity="0.1" d="M45.1959 77.9972C43.098 77.9533 40.4691 77.8644 39.4067 77.8266C39.6102 77.1408 39.7381 76.567 39.7381 76.567C39.7381 76.567 44.9108 76.2307 45.3421 76.785C45.5077 76.9885 45.3981 77.4685 45.1959 77.9972Z" fill="black"/>
<path d="M39.0814 50.2772C39.0814 50.2772 37.6499 57.8912 37.924 62.7947C38.1981 67.6981 37.7108 71.32 38.32 72.7539C38.9291 74.1877 38.9291 77.4441 38.9291 77.4441C38.9291 77.4441 47.2132 77.7487 48.066 77.6269C48.9187 77.505 48.8883 76.8655 48.8883 76.8655C48.8883 76.8655 48.3096 71.8073 48.8578 70.2236C49.406 68.6398 49.3147 63.7973 49.3147 63.7973L51.6293 56.0005C51.6293 56.0005 52.3298 52.498 50.8679 51.0666C49.406 49.6351 39.0814 50.2772 39.0814 50.2772Z" fill="#575988"/>
<path d="M88.238 90.5098L87.8725 91.0459L85.6126 94.4082L83.6939 94.9869L82.2624 93.5859L82.3319 92.6613L82.6888 87.8601C82.6888 87.8601 73.8322 82.6497 73.0403 81.6751C72.2484 80.7005 69.2028 79.8173 69.2028 79.8173C69.2028 79.8173 64.543 77.6549 62.807 73.8783C61.071 70.1017 65.7003 69.5231 65.7003 69.5231L83.0909 86.1546L88.238 90.5098Z" fill="#FFC1C7"/>
<path opacity="0.1" d="M87.8786 91.0447L85.6187 94.407L83.7 94.9857L82.2686 93.5847L82.338 92.66L83.9132 94.0111L86.8674 90.5695L87.8786 91.0447Z" fill="black"/>
<path d="M90.3699 92.459L84.8573 97.6061C84.8573 97.6061 81.6899 98.2153 78.8574 97.7889C77.0471 97.516 77.3955 96.5231 77.8719 95.8397L77.8804 95.8275C78.1657 95.4366 78.5829 95.1623 79.0548 95.0551C81.3987 94.4899 82.2076 92.7928 82.2076 92.7928L83.9132 94.2547L86.8674 90.812L89.0517 91.8377L90.3699 92.459Z" fill="#575988"/>
<path d="M90.3699 92.5175L84.8573 97.6671C84.8573 97.6671 81.6898 98.2762 78.8574 97.8498C77.0471 97.5769 77.2737 96.584 77.75 95.9006C78.2977 96.3348 78.9552 96.6085 79.6493 96.6912C81.2025 96.8435 83.5477 96.6912 83.5477 96.6912L89.0517 91.8999L90.3699 92.5175Z" fill="white"/>
<path d="M44.8581 30.8254C44.4098 31.0495 44.2039 31.7415 44.1211 32.5309C43.981 33.8783 44.2076 35.501 44.2076 35.501C44.2076 35.501 38.1163 33.8357 38.7669 33.5104C39.1409 33.324 39.3395 31.9669 39.4406 30.8497C39.5161 30.0238 39.538 29.3281 39.538 29.3281C39.538 29.3281 46.0764 30.2162 44.8581 30.8254Z" fill="#FFC1C8"/>
<path d="M93.3446 38.2165C93.3446 38.2165 85.9535 45.2007 86.1971 43.1711C86.2312 42.8885 86.1338 42.4974 85.9413 42.0357C85.2578 40.3886 83.3683 37.8315 81.8906 35.9615C80.8064 34.5898 79.9414 33.5871 79.9414 33.5871C79.9414 33.5871 89.1209 25.872 88.39 30.2577C88.2376 31.2577 88.3768 32.2804 88.7908 33.2034C89.7057 35.3573 91.7328 37.0518 92.7452 37.7998C93.1107 38.0691 93.3446 38.2165 93.3446 38.2165Z" fill="#FFC1C7"/>
<path opacity="0.1" d="M87.3752 31.5965C87.2424 31.761 86.7502 32.3384 86.604 32.4907C85.2152 33.9368 85.03 36.0236 82.8676 36.0236C82.5418 36.0239 82.2162 36.0031 81.893 35.9615C80.8088 34.5898 79.9438 33.5871 79.9438 33.5871C79.9438 33.5871 89.1209 25.872 88.39 30.2577C88.217 31.298 86.989 30.6853 87.3752 31.5965Z" fill="black"/>
<path d="M90.5015 28.1452C90.5017 29.6553 90.0541 31.1316 89.2153 32.3873C88.3765 33.643 87.1841 34.6218 85.789 35.1998C84.3938 35.7778 82.8586 35.9291 81.3775 35.6346C79.8964 35.34 78.5359 34.6128 77.4681 33.545C76.4003 32.4772 75.6731 31.1167 75.3786 29.6356C75.084 28.1545 75.2353 26.6193 75.8133 25.2242C76.3913 23.8291 77.3701 22.6367 78.6258 21.7979C79.8815 20.959 81.3578 20.5114 82.8679 20.5117C83.8715 20.5078 84.8658 20.7026 85.7937 21.0849C86.7216 21.4671 87.5647 22.0293 88.2743 22.7389C88.9839 23.4485 89.546 24.2915 89.9283 25.2194C90.3105 26.1473 90.5053 27.1417 90.5015 28.1452Z" fill="#FFC1C7"/>
<path opacity="0.1" d="M93.3447 38.2165C93.3447 38.2165 85.9536 45.2007 86.1972 43.1711C86.2313 42.8885 86.1339 42.4974 85.9414 42.0357L87.0098 39.5164C88.3188 38.3697 89.9976 37.7338 91.7378 37.7255C92.0545 37.7252 92.3707 37.7468 92.6844 37.7901L92.7453 37.7998C93.1108 38.0691 93.3447 38.2165 93.3447 38.2165Z" fill="black"/>
<path d="M102.034 89.383C102.034 89.383 96.7959 97.7475 96.7959 98.398C96.7959 98.398 90.8667 96.0833 88.7554 95.596C86.6442 95.1087 84.6536 90.6828 84.6536 90.6828C84.6536 90.6828 79.0496 85.4029 76.8568 84.672C74.9965 84.0519 66.057 71.4418 63.3939 67.6372C63.0679 67.1716 62.8983 66.6145 62.9097 66.0462C62.9211 65.4779 63.1129 64.928 63.4573 64.4759L63.5072 64.4113C64.212 63.5246 65.1453 62.8471 66.2066 62.4516C67.268 62.0562 68.4171 61.9579 69.5302 62.1673C69.7773 62.2127 70.0214 62.2729 70.2612 62.3476C74.0962 63.5329 80.7381 65.5698 84.0883 66.4896C85.2091 66.7978 85.9583 66.9769 86.1106 66.966C86.4761 66.9282 86.6771 66.6005 86.788 66.2411C86.8726 65.9487 86.918 65.6464 86.9232 65.342C86.9232 65.342 86.9232 65.3225 86.9232 65.2872C86.8205 64.5127 86.6592 63.747 86.4408 62.9969C86.0497 61.6568 85.3724 60.0841 84.2479 59.3324C83.3147 58.7099 82.5728 57.3369 82.1842 55.741C81.6616 53.5859 81.7822 51.0215 82.948 49.3428L84.0749 46.6845L85.9595 42.2379L87.0097 39.76C88.3187 38.6134 89.9975 37.9775 91.7377 37.9692C92.0543 37.9689 92.3706 37.9905 92.6843 38.0337C93.492 38.1458 94.19 38.3883 94.4812 38.8658C95.3742 40.3277 97.405 43.0079 97.8107 45.688C98.2164 48.3682 97.7303 52.7539 99.1106 54.379C100.491 56.0041 101.303 59.9013 102.765 60.7139C104.227 61.5265 100.41 63.2308 100.41 63.2308L100.425 63.4879L100.491 64.6123C100.491 64.6123 100.518 64.6428 100.566 64.7037C101.417 65.7562 109.1 75.8616 102.034 89.383Z" fill="#FF6584"/>
<path d="M100.572 64.7037C98.9716 65.0387 95.4703 65.7684 93.9085 66.0888L93.6344 66.1449C93.5431 66.1631 93.4407 66.1802 93.3299 66.196C91.7608 66.4116 88.357 66.3057 86.7988 66.2423C86.8834 65.9499 86.9289 65.6476 86.9341 65.3432C86.9341 65.3432 86.9341 65.3238 86.9341 65.2884C88.1194 65.2117 90.9287 64.9875 93.336 64.4929C93.5321 64.4527 93.7258 64.4101 93.9146 64.3711C94.1875 64.3077 94.4531 64.2407 94.7065 64.1701C96.8652 63.5609 99.1446 63.4805 100.432 63.4927L100.498 64.6172C100.498 64.6172 100.518 64.6428 100.572 64.7037Z" fill="#575988"/>
<path d="M93.9029 64.3662V66.0888L93.6288 66.1449C93.5374 66.1631 93.4351 66.1802 93.3242 66.196V64.4978C93.5204 64.4527 93.7141 64.4101 93.9029 64.3662Z" fill="#FF6584"/>
<path opacity="0.1" d="M95.3952 67.6652C95.3952 67.6652 92.1364 75.127 90.1567 75.8579C88.1771 76.5889 83.2432 79.1777 83.2432 79.1777C83.2432 79.1777 86.0756 81.6751 89.0298 78.934C91.9841 76.193 96.248 68.8835 95.3952 67.6652Z" fill="black"/>
<path opacity="0.1" d="M98.9585 66.6626C98.9585 66.6626 99.2631 69.495 98.8367 70.0128C98.4103 70.5306 98.9585 66.6626 98.9585 66.6626Z" fill="black"/>
<path opacity="0.1" d="M100.725 68.518C100.725 68.518 102.369 85.7562 94.207 85.8476C94.207 85.85 101.852 78.264 100.725 68.518Z" fill="black"/>
<path opacity="0.1" d="M102.796 72.66C102.796 72.66 105.141 81.7056 102.065 82.7411C102.065 82.7435 103.679 78.0532 102.796 72.66Z" fill="black"/>
<path opacity="0.1" d="M88.2073 70.3454C88.055 70.3454 81.8724 71.4113 83.2125 72.2641C84.5525 73.1169 88.2073 70.3454 88.2073 70.3454Z" fill="black"/>
<path opacity="0.1" d="M92.4712 58.1349C92.4712 58.1349 97.5269 62.6119 96.5523 63.0992L92.4712 58.1349Z" fill="black"/>
<path opacity="0.1" d="M92.0449 59.5663C92.0449 59.5663 94.9687 63.1602 94.6337 63.3733L92.0449 59.5663Z" fill="black"/>
<path opacity="0.1" d="M98.2886 59.0157C98.2886 59.0157 99.6286 60.6907 99.4155 61.0562L98.2886 59.0157Z" fill="black"/>
<path opacity="0.1" d="M99.6284 58.1349C99.6284 58.1349 101.547 59.6248 101.121 60.2059L99.6284 58.1349Z" fill="black"/>
<path d="M88.9686 39.9829C88.9686 39.9829 95.2122 40.4702 94.9381 45.4955C94.664 50.5208 90.0042 51.8 90.0042 51.8L83.9434 50.064C83.9434 50.064 86.654 40.318 88.9686 39.9829Z" fill="#FFC1C7"/>
<path opacity="0.1" d="M70.2661 62.3476C74.1011 63.5329 80.743 65.5698 84.0932 66.4896C83.8736 66.6015 83.6331 66.6663 83.3871 66.68C83.141 66.6936 82.8948 66.6557 82.6642 66.5688L70.0249 62.3987L69.5303 62.1673C69.7789 62.2125 70.0247 62.2727 70.2661 62.3476Z" fill="black"/>
<path opacity="0.1" d="M91.6548 49.9263C91.0615 50.7182 90.5388 51.5709 90.5583 52.1045C90.5681 52.4883 90.3147 53.4665 89.976 54.6251C89.1036 57.5349 87.9191 60.3418 86.4431 62.9969C86.052 61.6568 85.3747 60.0841 84.2502 59.3324C83.3171 58.7099 82.5751 57.3369 82.1865 55.741C82.4826 54.5861 82.764 53.6152 82.8797 53.3837C83.1843 52.7746 83.7325 49.3026 83.7325 49.3026C83.784 48.4227 83.8992 47.5477 84.0772 46.6845C84.5195 44.5733 85.2711 43.1516 85.9619 42.2379C86.7952 41.1269 87.5456 40.7444 87.5456 40.7444L89.3425 40.4702C91.4135 40.4008 92.4125 41.976 92.8937 43.7023C93.4833 45.8476 92.99 48.1428 91.6548 49.9263Z" fill="black"/>
<path d="M87.172 40.2546C87.172 40.2546 83.7914 41.9906 83.365 48.8128C83.365 48.8128 82.8168 52.2848 82.5122 52.894C82.2077 53.5031 80.7458 59.2593 80.9285 59.9598C80.9285 59.9598 80.6239 60.6603 79.4971 60.3557C78.3702 60.0512 72.2789 59.107 70.9084 58.1933L67.1318 56.3964C67.1318 56.3964 59.7614 51.1884 58.2081 55.6655C56.6549 60.1425 65.4872 59.9622 65.4872 59.9622L69.6597 61.9114L82.299 66.0815C82.299 66.0815 83.9741 66.8429 85.101 64.4064C85.3824 63.7973 85.6833 63.2186 85.9769 62.6923C87.4973 59.9842 88.7151 57.1171 89.6085 54.1427C89.9533 52.9841 90.2006 52.0059 90.1908 51.6221C90.1774 51.0885 90.7013 50.2345 91.2873 49.4439C92.6273 47.6604 93.1146 45.3652 92.5177 43.2186C92.0365 41.4924 91.0327 39.9172 88.9665 39.9878L87.172 40.2546Z" fill="#FFC1C7"/>
<path opacity="0.1" d="M44.8585 30.8254C44.4102 31.0495 44.2043 31.7415 44.1214 32.5309C44.0422 32.5309 43.9631 32.5309 43.8839 32.5309C42.246 32.534 40.6644 31.9338 39.4409 30.8449C39.5164 30.0189 39.5384 29.3233 39.5384 29.3233C39.5384 29.3233 46.0767 30.2162 44.8585 30.8254Z" fill="black"/>
<path d="M50.5843 25.5869C50.5843 26.9121 50.1914 28.2075 49.4551 29.3094C48.7189 30.4113 47.6724 31.2701 46.4481 31.7772C45.2238 32.2844 43.8765 32.4171 42.5768 32.1585C41.277 31.9 40.0832 31.2618 39.1461 30.3248C38.209 29.3877 37.5709 28.1938 37.3123 26.8941C37.0538 25.5943 37.1865 24.2471 37.6936 23.0228C38.2008 21.7984 39.0596 20.752 40.1614 20.0157C41.2633 19.2795 42.5588 18.8865 43.884 18.8865C45.6598 18.8904 47.3619 19.5976 48.6176 20.8533C49.8733 22.109 50.5805 23.811 50.5843 25.5869Z" fill="#FFC1C8"/>
<path opacity="0.1" d="M52.8476 51.828C52.8476 51.828 49.3452 53.229 48.2487 53.7163C47.1523 54.2036 40.8783 53.0767 40.8783 53.0767C40.8783 53.0767 37.6195 51.432 37.8936 49.7874C38.1677 48.1428 35.2744 42.7545 35.2744 42.7545C35.2744 42.7545 35.183 37.9728 36.4622 37.0591C37.7413 36.1455 37.254 34.2267 37.254 34.2267C37.254 34.2267 37.2601 34.1634 37.2796 34.0598C37.3588 33.6529 37.6451 32.6174 38.5941 32.2775C38.7862 32.2258 38.9879 32.2204 39.1825 32.2617C40.0926 32.3993 41.5873 33.0767 42.8239 33.7016C43.8472 34.2194 44.6939 34.7006 44.8876 34.8127L44.929 34.8358C44.929 34.8358 45.3858 35.9018 45.9341 35.5668C46.4823 35.2318 49.2233 36.785 49.7411 37.4855C50.2588 38.186 49.8934 41.4753 49.802 42.2976C49.7106 43.1199 50.3198 45.5564 50.9898 46.955C51.6598 48.3535 52.8476 51.828 52.8476 51.828Z" fill="black"/>
<path d="M52.8476 51.4625C52.8476 51.4625 49.3452 52.8635 48.2487 53.3508C47.1523 53.8381 40.8783 52.7112 40.8783 52.7112C40.8783 52.7112 37.6195 51.0666 37.8936 49.4219C38.1677 47.7773 35.2744 42.389 35.2744 42.389C35.2744 42.389 35.183 37.6074 36.4622 36.6937C37.7413 35.78 37.254 33.8612 37.254 33.8612C37.254 33.8612 37.2601 33.7979 37.2796 33.6943C37.3588 33.2874 37.6451 32.2519 38.5941 31.912C38.7862 31.8604 38.9879 31.8549 39.1825 31.8962C40.0926 32.0339 41.5873 32.7112 42.8239 33.3362C43.8472 33.8539 44.6939 34.3351 44.8876 34.4472L44.929 34.4704C44.929 34.4704 45.3858 35.5363 45.9341 35.2013C46.4823 34.8663 49.2233 36.4196 49.7411 37.1201C50.2588 37.8206 49.8934 41.1098 49.802 41.9321C49.7106 42.7545 50.3198 45.191 50.9898 46.5895C51.6598 47.9881 52.8476 51.4625 52.8476 51.4625Z" fill="#DCE6F2"/>
<path d="M41.5083 46.7844C41.5083 46.7844 38.5029 51.6574 38.0156 51.9218L38.1984 53.6273C38.1984 53.6273 42.4829 52.7331 42.7473 51.5356C43.0117 50.3381 42.8691 46.7235 42.8691 46.7235L41.5083 46.7844Z" fill="#575988"/>
<path opacity="0.2" d="M41.5083 46.7844C41.5083 46.7844 38.5029 51.6574 38.0156 51.9218L38.1984 53.6273C38.1984 53.6273 42.4829 52.7331 42.7473 51.5356C43.0117 50.3381 42.8691 46.7235 42.8691 46.7235L41.5083 46.7844Z" fill="black"/>
<path opacity="0.1" d="M45.7368 40.5762C45.7368 40.5762 46.2692 42.6326 47.1073 43.3331C47.9455 44.0336 45.7368 40.5762 45.7368 40.5762Z" fill="black"/>
<path d="M40.5127 45.9974C40.5894 46.1351 43.1624 49.6376 45.873 50.9314C48.5836 52.2251 54.6298 53.7492 54.6298 53.7492C54.6298 53.7492 59.5332 54.6629 60.3702 55.0125C61.2071 55.3621 62.2743 53.7942 57.02 51.5563C51.7657 49.3184 50.746 48.328 50.746 48.328C50.746 48.328 46.1776 46.1022 45.4466 45.0058C44.7157 43.9094 40.5127 45.9974 40.5127 45.9974Z" fill="#FFC1C8"/>
<path opacity="0.1" d="M42.4316 63.0359C42.523 62.975 44.7159 60.6298 44.99 61.6349C45.2641 62.6399 42.4316 63.0359 42.4316 63.0359Z" fill="black"/>
<path opacity="0.1" d="M43.7109 58.4065C43.6805 58.4979 43.3759 61.0867 42.4927 61.3912L43.7109 58.4065Z" fill="black"/>
<path opacity="0.1" d="M44.6246 59.1095C44.6246 59.1095 43.8327 61.881 42.8276 62.0613L44.6246 59.1095Z" fill="black"/>
<path opacity="0.1" d="M40.6045 67.4216C40.6045 67.4216 41.9446 67.452 42.1273 66.5993L40.6045 67.4216Z" fill="black"/>
<path opacity="0.1" d="M42.4316 72.967C42.6144 72.9975 45.4773 74.8249 44.7463 75.1903C44.0154 75.5558 42.4316 72.967 42.4316 72.967Z" fill="black"/>
<path opacity="0.1" d="M42.6912 88.3925V88.6739C42.6766 89.1028 42.6705 89.389 42.6705 89.389L38.0144 91.6087L37.9937 88.6752C37.9937 88.6752 37.9937 88.6618 37.9937 88.6362V88.4376L39.8576 88.4973L42.6912 88.3925Z" fill="black"/>
<path d="M43.5621 92.6576L39.6784 94.1439L37.9351 93.1132L37.9533 91.7025L37.9935 88.6739L39.8575 88.7336L42.6911 88.6349V90.7559L43.5621 92.6576Z" fill="#FF748F"/>
<path opacity="0.1" d="M43.5587 92.6588L39.675 94.1451L37.9316 93.1145L37.9499 91.7037C38.2029 92.0352 38.5261 92.3066 38.8964 92.4983C39.2667 92.6899 39.6749 92.7972 40.0916 92.8123C40.0916 92.8123 41.4585 91.1068 42.2905 90.6122C42.3496 90.5768 42.4153 90.5538 42.4836 90.5445C42.5519 90.5353 42.6213 90.5401 42.6877 90.5586V90.7571L43.5587 92.6588Z" fill="black"/>
<path d="M40.0949 93.0548C40.0949 93.0548 38.5112 93.0755 37.7169 91.5685C37.7169 91.5685 36.5875 92.6588 36.5668 94.9577C36.5461 97.2565 36.5875 97.3357 36.5875 97.3357C36.5875 97.3357 41.145 97.1578 41.9978 97.4746C42.8506 97.7913 50.0041 97.1968 50.0041 97.1968C50.0041 97.1968 50.4792 95.9481 48.3193 95.512C46.1593 95.0758 44.3758 92.777 44.3161 92.6783C44.2564 92.5797 43.1271 90.3637 42.295 90.851C41.463 91.3383 40.0949 93.0548 40.0949 93.0548Z" fill="#5D618C"/>
<path opacity="0.1" d="M44.2957 18.1848L43.8413 18.1227L44.1252 18.1154L44.2957 18.1848Z" fill="black"/>
<path opacity="0.1" d="M50.5843 25.5869C50.5846 26.1066 50.5245 26.6246 50.4053 27.1304C50.3036 27.1042 50.2063 27.0631 50.1165 27.0086C49.9862 26.9245 49.8558 26.8088 49.7023 26.8222C49.6123 26.8363 49.528 26.8751 49.4587 26.9343C48.7375 27.4618 48.2014 28.3292 47.3243 28.4973C47.4122 28.2405 47.424 27.9639 47.3584 27.7006C47.1724 27.8876 46.9442 28.0273 46.693 28.1078C46.4418 28.1884 46.1749 28.2075 45.9148 28.1635C45.9782 28.0114 45.9855 27.8417 45.9355 27.6847C45.3178 28.0306 44.6748 28.3292 44.0119 28.5777C43.9887 28.4559 43.9668 28.3438 43.9437 28.2268C43.0105 28.6825 43.0836 30.2284 42.1504 30.684C41.5949 30.9557 40.8103 30.7608 40.4266 31.2505C40.412 31.27 40.3986 31.2895 40.3851 31.3102C39.388 30.7003 38.5678 29.8401 38.0059 28.8151C37.4441 27.7901 37.1602 26.6359 37.1824 25.4672C37.2045 24.2986 37.5321 23.156 38.1324 22.1531C38.7328 21.1501 39.5851 20.3217 40.6046 19.75C41.6242 19.1784 42.7756 18.8834 43.9444 18.8944C45.1132 18.9053 46.2589 19.2219 47.2675 19.8126C48.2762 20.4033 49.1128 21.2475 49.6942 22.2616C50.2756 23.2756 50.5816 24.4241 50.5819 25.593L50.5843 25.5869Z" fill="black"/>
<path d="M44.2955 17.9399C43.7327 17.7073 43.1613 17.4733 42.5559 17.4039C41.9504 17.3345 41.2974 17.4526 40.8406 17.8559C40.4751 18.1775 40.1888 18.694 39.7015 18.7087C39.4639 18.7172 39.2447 18.5978 39.0315 18.4942C38.4223 18.2019 37.6609 18.0362 37.1115 18.4236C36.6729 18.7342 36.5085 19.3044 36.4366 19.8368C36.3647 20.3691 36.3477 20.9332 36.0943 21.4022C35.9371 21.6946 35.6983 21.9334 35.501 22.2002C34.9994 22.878 34.7636 23.7163 34.8383 24.5563C34.8891 24.9716 34.978 25.3815 35.1038 25.7806L35.6009 27.5361C35.8531 28.4278 36.1101 29.3318 36.5901 30.1249C37.0701 30.918 37.8083 31.6002 38.7099 31.8048C39.2532 31.9267 39.911 31.8268 40.2156 31.3602C40.2936 31.2383 40.3435 31.108 40.4288 30.9947C40.8065 30.5074 41.5971 30.7011 42.1526 30.4294C43.0858 29.9738 43.0127 28.4278 43.9459 27.9722L44.0153 28.3219C44.6775 28.073 45.3201 27.7749 45.9377 27.4301C45.9875 27.5871 45.9806 27.7565 45.9182 27.9089C46.1782 27.9523 46.4447 27.9329 46.6956 27.8523C46.9465 27.7718 47.1745 27.6325 47.3606 27.4459C47.4263 27.7093 47.4144 27.9859 47.3265 28.2427C48.2037 28.0733 48.7397 27.2059 49.4609 26.6784C49.5306 26.6202 49.6148 26.5819 49.7046 26.5676C49.8593 26.5542 49.9884 26.6699 50.1188 26.7528C50.3445 26.8898 50.6101 26.9463 50.8721 26.9129C51.1341 26.8794 51.377 26.7582 51.5612 26.5688C51.9449 26.1522 51.962 25.5114 51.8389 24.9583C51.7159 24.4052 51.4735 23.8777 51.4211 23.3136C51.3443 22.5449 51.6123 21.7421 51.3662 21.0111C51.1579 20.3911 50.6122 19.9415 50.0262 19.6467C49.4402 19.3519 48.8079 19.1801 48.2098 18.9158C47.6421 18.6611 47.1133 18.32 46.5237 18.119C45.6709 17.8279 44.7438 17.851 43.8436 17.8754" fill="#794F6A"/>
<path d="M44.4113 40.6323C44.4113 40.6323 45.3859 34.0744 37.0409 34.3985L32.8379 34.9577C32.8379 34.9577 36.8471 35.6789 37.812 35.7849L37.9143 35.7995C38.8073 35.9627 41.8944 35.7593 44.4113 40.6323Z" fill="#1F7A3A"/>
<path opacity="0.1" d="M39.0815 66.7844V66.7089C42.5036 63.7498 39.0815 66.7844 39.0815 66.7844Z" fill="black"/>
<path d="M31.7198 67.0147C31.2294 67.0586 30.7361 67.0586 30.2457 67.0147L19.9941 52.0936C20.183 51.599 20.6349 51.3041 21.0674 51.1299L31.7198 67.0147Z" fill="#575988"/>
<path d="M25.0715 51.0386L24.5842 51.6172C24.5842 51.6172 20.888 45.4773 20.0938 42.3585C20.2448 42.004 20.4726 41.9285 20.4726 41.9285C20.4726 41.9285 20.8576 41.6446 21.4777 41.1975C21.7079 42.6643 22.4937 46.2508 25.0715 51.0386Z" fill="#575988"/>
<path d="M27.7819 49.1478L26.8073 49.6961C24.1467 46.5822 23.9201 41.351 23.9445 39.2666L24.6462 38.7623C24.7412 41.4997 27.7819 49.1478 27.7819 49.1478Z" fill="#575988"/>
<path opacity="0.1" d="M30.3404 48.6021C30.3099 48.998 29.183 53.0182 30.8277 53.6882C32.4723 54.3583 30.3404 48.6021 30.3404 48.6021Z" fill="black"/>
<path opacity="0.1" d="M33.8735 55.5156C33.9344 55.7288 34.4827 62.6728 35.6705 62.1246C36.8582 61.5764 36.2187 53.6578 36.2187 53.6578L33.8735 55.5156Z" fill="black"/>
<path opacity="0.1" d="M90.5012 28.1452C90.5037 30.1171 89.7402 32.0128 88.3717 33.4324C87.8143 33.5505 87.2395 33.5604 86.6784 33.4617C86.3915 33.4253 86.1188 33.3158 85.8865 33.1437C85.6628 32.9373 85.4877 32.6839 85.3736 32.4018C84.9289 31.4455 84.7011 30.3405 84.0774 29.5218C83.4536 28.7032 82.1879 28.3438 81.5861 29.1832C81.2584 29.6388 81.2035 30.3393 80.7662 30.6548C80.2411 31.0349 79.5479 30.5878 79.1398 30.0457C77.9338 28.462 78.3467 25.3481 76.0467 24.9108L75.9541 24.8949C76.6917 23.3222 77.9435 22.0481 79.5029 21.2828C81.0623 20.5175 82.836 20.3069 84.5313 20.6857C86.2265 21.0644 87.7419 22.01 88.8273 23.3662C89.9127 24.7224 90.5032 26.4082 90.5012 28.1452Z" fill="black"/>
<path d="M76.1684 24.7975C75.7956 24.7256 75.3631 24.7353 75.1134 24.4137C74.966 24.2237 74.9233 23.9605 74.888 23.7108C74.7382 22.6314 74.6566 21.4729 75.0866 20.4946C75.792 18.8902 77.6072 18.3541 79.1848 18.4735C80.7624 18.5929 82.3108 19.1813 83.8884 19.0827C85.0482 19.0071 86.1922 18.5588 87.3483 18.6867C88.2632 18.7891 89.116 19.2435 89.9383 19.7076C90.7082 20.1413 91.4952 20.6079 92.041 21.3608C92.8426 22.4633 92.9936 23.9861 93.0156 25.4151C93.0424 27.0926 92.9242 28.8347 92.2201 30.3113C91.1992 32.4542 88.9223 33.7297 86.8001 33.3459C86.5132 33.3096 86.2405 33.2001 86.0082 33.028C85.7853 32.8212 85.6106 32.5679 85.4965 32.286C85.0507 31.3285 84.8228 30.2248 84.1991 29.4049C83.5754 28.585 82.3096 28.2281 81.7078 29.0674C81.3801 29.5218 81.3253 30.2235 80.8879 30.5391C80.3628 30.9179 79.6697 30.4709 79.2615 29.9299C78.0555 28.345 78.4685 25.2336 76.1684 24.7975Z" fill="#945B79"/>
<path d="M94.7081 21.256C95.8691 21.8103 96.6744 22.8897 97.4309 23.9289C98.0608 24.7926 98.7125 25.716 98.7953 26.7808C98.8282 27.2169 98.7637 27.6604 98.8465 28.0892C99.1377 29.6035 101.039 30.282 101.595 31.7244C101.853 32.4042 101.772 33.1608 101.658 33.8795C101.495 34.9193 101.276 35.9494 101.002 36.9653C100.837 37.5745 100.651 38.208 100.776 38.8268C100.872 39.3068 101.142 39.7283 101.356 40.1669C101.915 41.3498 102.012 42.6911 102.054 43.9983C102.097 45.3055 102.096 46.6358 102.487 47.8833C102.878 49.1308 103.74 50.31 104.984 50.7133C104.566 50.9981 104.082 51.1702 103.578 51.2128C103.504 51.6209 103.737 52.0363 104.065 52.2946C104.394 52.5528 104.796 52.6869 105.189 52.8148C104.921 53.0037 104.613 53.1279 104.289 53.1778C103.966 53.2277 103.635 53.2019 103.322 53.1023C102.802 52.9317 102.372 52.5662 101.957 52.2081L99.6213 50.1992C99.3093 49.9466 99.021 49.6661 98.76 49.361C97.2494 47.4837 98.1509 44.6391 97.3079 42.3841C96.6208 40.5507 94.7739 39.062 94.9432 37.1115C94.9895 36.5658 95.1991 36.0492 95.3745 35.5278C95.9967 33.6361 96.1922 31.6301 95.9468 29.6538C95.7014 27.6776 95.0212 25.7803 93.9552 24.0982C93.6884 23.684 93.379 23.2673 92.9344 23.0542C92.2582 22.7313 91.2922 22.8702 90.9084 22.2257C90.705 21.8858 90.6648 21.2877 90.6465 20.9064C91.8867 20.6225 93.5484 20.7017 94.7081 21.256Z" fill="#945B79"/>
<path opacity="0.1" d="M35.3804 41.8822C35.9505 38.1349 40.6347 36.7814 43.1212 39.6455C43.8399 40.4763 44.4771 41.3864 44.8377 42.2964C46.0559 45.3725 46.1473 45.6466 46.1473 45.6466C46.1473 45.6466 38.6246 47.1085 38.6855 48.2049L35.2744 42.7532C35.2744 42.7532 35.3 42.4121 35.3804 41.8822Z" fill="black"/>
<path d="M35.3804 41.5167C35.9505 37.7694 40.6347 36.4159 43.1212 39.28C43.8399 40.1109 44.4771 41.0209 44.8377 41.9309C46.0559 45.007 46.1473 45.2811 46.1473 45.2811C46.1473 45.2811 38.6246 46.743 38.6855 47.8394L35.2744 42.3878C35.2744 42.3878 35.3 42.0467 35.3804 41.5167Z" fill="#DCE6F2"/>
<path opacity="0.1" d="M37.4976 36.7083C37.5889 36.8606 41.1828 41.2463 43.071 41.8712C44.9593 42.4962 37.4976 36.7083 37.4976 36.7083Z" fill="black"/>
<path opacity="0.1" d="M22.0566 50.8863C22.0566 50.8863 31.559 62.0942 32.7772 66.6322L22.0566 50.8863Z" fill="black"/>
<path opacity="0.1" d="M22.4219 40.5312C22.4219 40.5312 24.4929 51.2518 28.5131 55.7593C32.5333 60.2668 36.6754 67.9418 36.6754 67.9418" stroke="black" stroke-width="2" stroke-miterlimit="10"/>
<g opacity="0.1">
<path d="M51.7829 24.9339C51.7911 25.2902 51.6679 25.6371 51.4369 25.9085C51.2528 26.0979 51.0099 26.2191 50.7478 26.2526C50.4858 26.286 50.2203 26.2295 49.9945 26.0925C49.8641 26.0096 49.735 25.8939 49.5803 25.9073C49.4906 25.9216 49.4064 25.9599 49.3366 26.0181C48.6508 26.5201 48.1318 27.329 47.3265 27.5519C47.355 27.7671 47.3334 27.986 47.2632 28.1915C48.1403 28.0222 48.6764 27.1548 49.3976 26.6273C49.4673 26.569 49.5515 26.5307 49.6412 26.5164C49.7959 26.503 49.9251 26.6187 50.0554 26.7016C50.2812 26.8387 50.5468 26.8951 50.8088 26.8617C51.0708 26.8283 51.3137 26.707 51.4978 26.5176C51.8743 26.1034 51.8974 25.4797 51.7829 24.9339Z" fill="black"/>
<path d="M51.2968 22.6485C51.3066 22.7484 51.3236 22.847 51.3431 22.9457C51.3431 22.3366 51.4881 21.7031 51.3431 21.1183C51.3456 21.6154 51.2457 22.1417 51.2968 22.6485Z" fill="black"/>
<path d="M47.239 26.7808C47.0529 26.9673 46.8249 27.1067 46.574 27.1872C46.3231 27.2677 46.0565 27.2871 45.7966 27.2437C45.859 27.0913 45.8659 26.9219 45.8161 26.7649C45.1985 27.1097 44.5559 27.4078 43.8937 27.6567L43.8243 27.3071C42.8911 27.7627 42.9642 29.3086 42.031 29.7643C41.4755 30.0359 40.6909 29.8398 40.3072 30.3295C40.2219 30.4404 40.172 30.5732 40.094 30.695C39.7894 31.1616 39.1316 31.2627 38.5882 31.1397C37.6843 30.935 36.9473 30.2528 36.4685 29.4597C35.9897 28.6666 35.7314 27.7627 35.4793 26.8709L34.9822 25.1154C34.9006 24.823 34.8178 24.5307 34.7642 24.2322C34.7642 24.3223 34.7642 24.4113 34.7776 24.5002C34.8284 24.9156 34.9173 25.3254 35.0431 25.7245L35.5402 27.48C35.7924 28.3718 36.0494 29.2757 36.5294 30.0688C37.0094 30.8619 37.7477 31.5441 38.6492 31.7488C39.1925 31.8706 39.8504 31.7707 40.1549 31.3041C40.2329 31.1823 40.2828 31.052 40.3681 30.9387C40.7458 30.4514 41.5364 30.6451 42.0919 30.3734C43.0251 29.9178 42.952 28.3718 43.8852 27.9162L43.9546 28.2658C44.6155 28.0168 45.2569 27.7187 45.8734 27.3741C45.9232 27.531 45.9163 27.7004 45.8539 27.8528C46.1011 27.8937 46.3543 27.8779 46.5945 27.8066C46.8347 27.7353 47.0555 27.6103 47.2403 27.4411C47.2922 27.224 47.2918 26.9977 47.239 26.7808Z" fill="black"/>
</g>
<path opacity="0.1" d="M44.8878 34.8127C44.2323 35.1903 42.7095 36.0309 42.4013 35.8872C42.0724 35.7349 38.4834 34.4789 37.2847 34.0598C37.3639 33.6529 37.6501 32.6174 38.5992 32.2775C38.7913 32.2258 38.9929 32.2204 39.1876 32.2617L42.8277 33.7016C43.8474 34.2194 44.6941 34.7006 44.8878 34.8127Z" fill="black"/>
<path d="M44.8878 34.4472C44.2323 34.8249 42.7095 35.6655 42.4013 35.5217C42.0724 35.3694 38.4834 34.1134 37.2847 33.6943C37.3639 33.2874 37.6501 32.2519 38.5992 31.912C38.7913 31.8604 38.9929 31.8549 39.1876 31.8962L42.8277 33.3362C43.8474 33.8539 44.6941 34.3351 44.8878 34.4472Z" fill="#DCE6F2"/>
<path opacity="0.1" d="M93.0193 25.2701C92.984 26.6431 92.7976 28.0161 92.2262 29.2161C91.2054 31.359 88.9284 32.6345 86.8063 32.2507C86.5194 32.2144 86.2467 32.1049 86.0144 31.9328C85.7914 31.726 85.6168 31.4727 85.5027 31.1908C85.0568 30.2333 84.829 29.1296 84.2053 28.3097C83.5816 27.4898 82.3158 27.1328 81.714 27.9722C81.3863 28.4266 81.3314 29.1283 80.8941 29.4439C80.369 29.8227 79.6758 29.3756 79.2677 28.8347C78.0617 27.251 78.4746 24.136 76.1746 23.6998C75.8018 23.6279 75.3693 23.6377 75.1196 23.3161C74.9722 23.126 74.9295 22.8629 74.8942 22.6131C74.8528 22.3195 74.8175 22.0199 74.7968 21.7189C74.7544 22.384 74.7871 23.0518 74.8942 23.7096C74.9295 23.9593 74.9722 24.2225 75.1196 24.4125C75.3693 24.7341 75.8018 24.7244 76.1746 24.7962C78.4746 25.2324 78.0617 28.3438 79.2677 29.9312C79.6746 30.466 80.3642 30.9131 80.8941 30.5403C81.3314 30.2248 81.3814 29.5231 81.714 29.0686C82.3158 28.2293 83.5816 28.5874 84.2053 29.4061C84.829 30.2248 85.0581 31.3297 85.5027 32.2873C85.6168 32.5691 85.7914 32.8224 86.0144 33.0292C86.2467 33.2013 86.5194 33.3108 86.8063 33.3471C88.9284 33.7309 91.2054 32.4554 92.2262 30.3125C92.9304 28.836 93.0486 27.0939 93.0218 25.4163C93.0193 25.3627 93.0193 25.314 93.0193 25.2701Z" fill="black"/>
<g opacity="0.1">
<path d="M100.985 31.1177C101.244 31.7975 101.162 32.5541 101.049 33.2728C100.886 34.3117 100.666 35.341 100.392 36.3562C100.228 36.9653 100.041 37.5988 100.167 38.2177C100.263 38.6977 100.532 39.1192 100.747 39.5578C101.306 40.7407 101.402 42.082 101.445 43.3892C101.487 44.6964 101.486 46.0267 101.877 47.2742C102.13 48.1243 102.615 48.8876 103.276 49.4792C102.926 49.0113 102.659 48.4872 102.486 47.9296C102.095 46.6821 102.095 45.3518 102.054 44.0446C102.012 42.7374 101.915 41.3961 101.356 40.2144C101.146 39.7722 100.868 39.3507 100.776 38.8743C100.654 38.2555 100.837 37.6208 101.001 37.0116C101.276 35.9937 101.495 34.9615 101.658 33.9197C101.771 33.201 101.853 32.4432 101.594 31.7634C101.386 31.2189 100.985 30.7888 100.55 30.371C100.733 30.5963 100.879 30.8481 100.985 31.1177Z" fill="black"/>
<path d="M104.983 50.762C104.658 50.6543 104.352 50.4947 104.077 50.2893C103.732 50.4686 103.356 50.5779 102.968 50.611C102.894 51.0191 103.127 51.4345 103.456 51.6928C103.521 51.7454 103.59 51.793 103.663 51.8353C103.578 51.6567 103.55 51.4566 103.581 51.2615C104.084 51.2172 104.566 51.0452 104.983 50.762Z" fill="black"/>
<path d="M92.3212 22.4548C91.857 22.2331 91.2564 22.2282 90.8008 22.0394C90.8266 22.124 90.8613 22.2057 90.9043 22.283C91.2881 22.9262 92.2542 22.7874 92.9303 23.1114C93.0157 23.1543 93.0972 23.2044 93.1739 23.2613C92.9626 22.9245 92.6692 22.647 92.3212 22.4548Z" fill="black"/>
<path d="M104.182 52.4371C103.715 52.6361 103.192 52.6607 102.709 52.5066C102.189 52.336 101.759 51.9705 101.343 51.6124L99.0079 49.6035C98.897 49.5084 98.7874 49.4122 98.6802 49.3147C98.7045 49.3476 98.7289 49.3817 98.7557 49.4146C99.0164 49.72 99.3047 50.0005 99.617 50.2528L101.952 52.2629C102.368 52.6199 102.798 52.9865 103.318 53.1571C103.63 53.2565 103.961 53.2822 104.285 53.2321C104.609 53.182 104.917 53.0575 105.184 52.8684C104.832 52.7718 104.494 52.6266 104.182 52.4371Z" fill="black"/>
<path d="M96.8212 23.3209C97.451 24.1847 98.1028 25.1081 98.1856 26.1729C98.2185 26.609 98.154 27.0524 98.2368 27.4813C98.3684 28.1671 98.8325 28.6825 99.3515 29.1734C99.1007 28.8725 98.9272 28.515 98.8459 28.1318C98.7631 27.7018 98.8277 27.2583 98.7948 26.8222C98.7119 25.7574 98.0638 24.834 97.4303 23.9715C96.9723 23.3417 96.4947 22.6984 95.9331 22.1648C96.2462 22.5352 96.5374 22.9299 96.8212 23.3209Z" fill="black"/>
</g>
<path opacity="0.1" d="M91.4772 20.7955C91.4772 20.7955 90.7463 22.0138 92.8173 23.0286L92.9391 22.7033L91.4772 20.7955Z" fill="black"/>
<path d="M91.3551 20.7955C91.3551 20.7955 90.6242 22.0138 92.6952 23.0286L92.817 22.7033L91.3551 20.7955Z" fill="#FF6584"/>
<path d="M120.193 89.7472C120.193 89.7472 120.863 90.6231 119.884 91.9401C118.906 93.257 118.1 94.3766 118.422 95.2013C118.422 95.2013 119.899 92.7465 121.103 92.7124C122.306 92.6783 121.514 91.2237 120.193 89.7472Z" fill="#1F7A3A"/>
<path opacity="0.1" d="M120.193 89.7472C120.251 89.8317 120.297 89.924 120.33 90.0213C121.502 91.3992 122.126 92.6844 120.999 92.7161C119.95 92.7466 118.692 94.6227 118.39 95.0966C118.399 95.1331 118.412 95.1684 118.425 95.205C118.425 95.205 119.902 92.7502 121.105 92.7161C122.309 92.682 121.514 91.2237 120.193 89.7472Z" fill="black"/>
<path d="M121.437 90.8631C121.437 91.1714 121.402 91.4211 121.359 91.4211C121.317 91.4211 121.283 91.1774 121.283 90.8631C121.283 90.5488 121.325 90.6999 121.368 90.6999C121.411 90.6999 121.437 90.5549 121.437 90.8631Z" fill="#FFD037"/>
<path d="M121.864 91.231C121.594 91.3784 121.357 91.4674 121.338 91.4296C121.318 91.3918 121.519 91.242 121.79 91.0946C122.06 90.9472 121.954 91.0544 121.975 91.0946C121.996 91.1348 122.136 91.0836 121.864 91.231Z" fill="#FFD037"/>
<path d="M116.654 89.7472C116.654 89.7472 115.984 90.6231 116.962 91.9401C117.94 93.257 118.747 94.3766 118.424 95.2013C118.424 95.2013 116.949 92.7465 115.744 92.7124C114.539 92.6783 115.337 91.2237 116.654 89.7472Z" fill="#1F7A3A"/>
<path opacity="0.1" d="M116.653 89.7472C116.595 89.8317 116.549 89.924 116.516 90.0213C115.344 91.3992 114.72 92.6844 115.847 92.7161C116.896 92.7466 118.154 94.6227 118.456 95.0966C118.446 95.1334 118.434 95.1696 118.42 95.205C118.42 95.205 116.945 92.7502 115.74 92.7161C114.535 92.682 115.337 91.2237 116.653 89.7472Z" fill="black"/>
<path d="M115.413 90.8631C115.413 91.1714 115.448 91.4211 115.491 91.4211C115.534 91.4211 115.568 91.1774 115.568 90.8631C115.568 90.5488 115.525 90.6999 115.483 90.6999C115.44 90.6999 115.413 90.5549 115.413 90.8631Z" fill="#FFD037"/>
<path d="M114.987 91.231C115.258 91.3784 115.493 91.4674 115.513 91.4296C115.534 91.3918 115.332 91.242 115.061 91.0946C114.791 90.9472 114.897 91.0544 114.876 91.0946C114.856 91.1348 114.717 91.0836 114.987 91.231Z" fill="#FFD037"/>
<path d="M115.626 95.0905C115.626 95.0905 117.498 95.032 118.063 94.6312C118.628 94.2304 120.942 93.7492 121.082 94.3875C121.222 95.0259 123.894 97.5903 121.781 97.6074C119.669 97.6244 116.873 97.2784 116.31 96.9361C115.747 96.5938 115.626 95.0905 115.626 95.0905Z" fill="#A8A8A8"/>
<path opacity="0.2" d="M121.818 97.3905C119.705 97.4076 116.909 97.0616 116.346 96.7193C115.918 96.4573 115.747 95.5205 115.69 95.0892H115.626C115.626 95.0892 115.748 96.5986 116.309 96.9422C116.869 97.2857 119.667 97.6305 121.78 97.6135C122.389 97.6135 122.6 97.3917 122.589 97.0701C122.501 97.2687 122.271 97.3905 121.818 97.3905Z" fill="black"/>
<path d="M31.9963 92.9427C32.2199 92.7608 32.3831 92.5152 32.4641 92.2385C32.5238 91.9583 32.4044 91.6221 32.1376 91.5198C31.8379 91.4053 31.5175 91.6136 31.2751 91.8231C31.0326 92.0326 30.7537 92.2726 30.4357 92.2276C30.5992 92.0795 30.7215 91.8916 30.7907 91.6821C30.8599 91.4726 30.8736 91.2488 30.8304 91.0325C30.8165 90.9428 30.7787 90.8586 30.7208 90.7888C30.5551 90.611 30.253 90.6877 30.0532 90.8278C29.4197 91.2725 29.243 92.1338 29.2406 92.9074C29.176 92.6284 29.2296 92.3372 29.2284 92.0546C29.2272 91.7719 29.148 91.4455 28.9068 91.2968C28.7578 91.2143 28.5898 91.1723 28.4195 91.175C28.1344 91.164 27.8177 91.1933 27.6228 91.4016C27.3791 91.6599 27.4437 92.0948 27.6544 92.3762C27.8652 92.6576 28.1844 92.8403 28.478 93.0365C28.7143 93.177 28.9158 93.3689 29.0676 93.5981C29.0854 93.6304 29.1 93.6642 29.1115 93.6992H30.8889C31.2905 93.4983 31.663 93.2438 31.9963 92.9427Z" fill="#1F7A3A"/>
<path d="M17.8119 94.8639C17.8119 94.8639 16.1064 89.0528 18.1323 84.7743C18.9961 82.9856 19.2568 80.9651 18.8755 79.0156C18.6862 78.0916 18.413 77.1867 18.0592 76.3123" stroke="#535461" stroke-width="2" stroke-miterlimit="10"/>
<path d="M19.3249 73.6091C19.3249 74.3205 18.0348 76.3867 18.0348 76.3867C18.0348 76.3867 16.7446 74.3156 16.7446 73.6091C16.7446 73.2669 16.8806 72.9388 17.1225 72.6968C17.3644 72.4549 17.6926 72.3189 18.0348 72.3189C18.3769 72.3189 18.7051 72.4549 18.947 72.6968C19.189 72.9388 19.3249 73.2669 19.3249 73.6091Z" fill="#1F7A3A"/>
<path d="M21.4572 77.5538C21.0698 78.1519 18.8647 79.185 18.8647 79.185C18.8647 79.185 18.9037 76.7485 19.2911 76.1528C19.4805 75.8736 19.7716 75.6797 20.1021 75.6126C20.4326 75.5455 20.7763 75.6105 21.0595 75.7936C21.3427 75.9768 21.5429 76.2636 21.6173 76.5926C21.6916 76.9216 21.6341 77.2666 21.4572 77.5538Z" fill="#1F7A3A"/>
<path d="M21.3632 84.2968C20.7273 84.6172 18.3018 84.3954 18.3018 84.3954C18.3018 84.3954 19.5663 82.3147 20.2022 81.9931C20.3539 81.9127 20.5201 81.8635 20.691 81.8482C20.8619 81.8329 21.0342 81.8518 21.1977 81.9039C21.3612 81.956 21.5127 82.0402 21.6433 82.1516C21.7738 82.263 21.8809 82.3993 21.9581 82.5526C22.0353 82.7058 22.0812 82.8729 22.0931 83.0441C22.1049 83.2154 22.0825 83.3872 22.0271 83.5496C21.9717 83.7121 21.8844 83.8618 21.7704 83.9901C21.6564 84.1184 21.518 84.2226 21.3632 84.2968Z" fill="#1F7A3A"/>
<path d="M20.1436 89.3817C19.571 89.8057 17.1431 89.9909 17.1431 89.9909C17.1431 89.9909 18.0373 87.7261 18.605 87.3022C18.7401 87.1914 18.8964 87.1092 19.0643 87.0607C19.2321 87.0121 19.4081 86.9981 19.5816 87.0196C19.755 87.0411 19.9223 87.0976 20.0732 87.1857C20.2241 87.2738 20.3556 87.3917 20.4596 87.5321C20.5636 87.6726 20.638 87.8327 20.6783 88.0027C20.7185 88.1728 20.7238 88.3493 20.6938 88.5215C20.6638 88.6936 20.5991 88.8579 20.5037 89.0043C20.4083 89.1507 20.2841 89.2762 20.1387 89.3732L20.1436 89.3817Z" fill="#1F7A3A"/>
<path d="M16.1566 79.3227C16.667 79.8197 19.0475 80.3338 19.0475 80.3338C19.0475 80.3338 18.4639 77.9692 17.951 77.4721C17.8306 77.3491 17.6868 77.2513 17.528 77.1847C17.3692 77.1181 17.1986 77.0839 17.0264 77.0843C16.8542 77.0846 16.6839 77.1194 16.5253 77.1866C16.3668 77.2538 16.2233 77.3521 16.1033 77.4756C15.9834 77.5992 15.8894 77.7455 15.8268 77.9059C15.7643 78.0664 15.7345 78.2377 15.7393 78.4099C15.744 78.582 15.7831 78.7514 15.8544 78.9082C15.9256 79.065 16.0276 79.2059 16.1541 79.3227H16.1566Z" fill="#1F7A3A"/>
<path d="M14.8079 85.2884C15.4439 85.6088 17.8694 85.3883 17.8694 85.3883C17.8694 85.3883 16.6061 83.3063 15.9689 82.9859C15.8178 82.9097 15.653 82.864 15.4842 82.8514C15.3153 82.8388 15.1457 82.8596 14.9849 82.9126C14.8241 82.9656 14.6753 83.0498 14.547 83.1603C14.4187 83.2708 14.3134 83.4055 14.2372 83.5567C14.161 83.7079 14.1153 83.8726 14.1027 84.0414C14.0901 84.2103 14.1109 84.3799 14.1639 84.5408C14.2169 84.7016 14.3011 84.8504 14.4116 84.9786C14.5221 85.1069 14.6568 85.2122 14.8079 85.2884Z" fill="#1F7A3A"/>
<path d="M14.2887 91.2676C14.8613 91.6903 17.2892 91.8767 17.2892 91.8767C17.2892 91.8767 16.395 89.6108 15.8273 89.1868C15.5518 89.003 15.2162 88.9322 14.8899 88.9891C14.5637 89.046 14.2718 89.2261 14.0747 89.4923C13.8776 89.7584 13.7903 90.0901 13.8311 90.4188C13.8718 90.7475 14.0374 91.0479 14.2936 91.2578L14.2887 91.2676Z" fill="#1F7A3A"/>
<path d="M19.3249 73.6091C19.3249 74.3205 18.0348 76.3867 18.0348 76.3867C18.0348 76.3867 16.7446 74.3156 16.7446 73.6091C16.7446 73.2669 16.8806 72.9388 17.1225 72.6968C17.3644 72.4549 17.6926 72.3189 18.0348 72.3189C18.3769 72.3189 18.7051 72.4549 18.947 72.6968C19.189 72.9388 19.3249 73.2669 19.3249 73.6091Z" fill="#1F7A3A"/>
<path d="M21.4572 77.5538C21.0698 78.1519 18.8647 79.185 18.8647 79.185C18.8647 79.185 18.9037 76.7485 19.2911 76.1528C19.4805 75.8736 19.7716 75.6797 20.1021 75.6126C20.4326 75.5455 20.7763 75.6105 21.0595 75.7936C21.3427 75.9768 21.5429 76.2636 21.6173 76.5926C21.6916 76.9216 21.6341 77.2666 21.4572 77.5538Z" fill="#1F7A3A"/>
<path d="M21.3632 84.2968C20.7273 84.6172 18.3018 84.3954 18.3018 84.3954C18.3018 84.3954 19.5663 82.3147 20.2022 81.9931C20.3539 81.9127 20.5201 81.8635 20.691 81.8482C20.8619 81.8329 21.0342 81.8518 21.1977 81.9039C21.3612 81.956 21.5127 82.0402 21.6433 82.1516C21.7738 82.263 21.8809 82.3993 21.9581 82.5526C22.0353 82.7058 22.0812 82.8729 22.0931 83.0441C22.1049 83.2154 22.0825 83.3872 22.0271 83.5496C21.9717 83.7121 21.8844 83.8618 21.7704 83.9901C21.6564 84.1184 21.518 84.2226 21.3632 84.2968Z" fill="#1F7A3A"/>
<path d="M20.1436 89.3817C19.571 89.8057 17.1431 89.9909 17.1431 89.9909C17.1431 89.9909 18.0373 87.7261 18.605 87.3022C18.7401 87.1914 18.8964 87.1092 19.0643 87.0607C19.2321 87.0121 19.4081 86.9981 19.5816 87.0196C19.755 87.0411 19.9223 87.0976 20.0732 87.1857C20.2241 87.2738 20.3556 87.3917 20.4596 87.5321C20.5636 87.6726 20.638 87.8327 20.6783 88.0027C20.7185 88.1728 20.7238 88.3493 20.6938 88.5215C20.6638 88.6936 20.5991 88.8579 20.5037 89.0043C20.4083 89.1507 20.2841 89.2762 20.1387 89.3732L20.1436 89.3817Z" fill="#1F7A3A"/>
<path d="M16.1566 79.3227C16.667 79.8197 19.0475 80.3338 19.0475 80.3338C19.0475 80.3338 18.4639 77.9692 17.951 77.4721C17.8306 77.3491 17.6868 77.2513 17.528 77.1847C17.3692 77.1181 17.1986 77.0839 17.0264 77.0843C16.8542 77.0846 16.6839 77.1194 16.5253 77.1866C16.3668 77.2538 16.2233 77.3521 16.1033 77.4756C15.9834 77.5992 15.8894 77.7455 15.8268 77.9059C15.7643 78.0664 15.7345 78.2377 15.7393 78.4099C15.744 78.582 15.7831 78.7514 15.8544 78.9082C15.9256 79.065 16.0276 79.2059 16.1541 79.3227H16.1566Z" fill="#1F7A3A"/>
<path d="M14.8079 85.2884C15.4439 85.6088 17.8694 85.3883 17.8694 85.3883C17.8694 85.3883 16.6061 83.3063 15.9689 82.9859C15.8178 82.9097 15.653 82.864 15.4842 82.8514C15.3153 82.8388 15.1457 82.8596 14.9849 82.9126C14.8241 82.9656 14.6753 83.0498 14.547 83.1603C14.4187 83.2708 14.3134 83.4055 14.2372 83.5567C14.161 83.7079 14.1153 83.8726 14.1027 84.0414C14.0901 84.2103 14.1109 84.3799 14.1639 84.5408C14.2169 84.7016 14.3011 84.8504 14.4116 84.9786C14.5221 85.1069 14.6568 85.2122 14.8079 85.2884Z" fill="#1F7A3A"/>
<path d="M14.2887 91.2676C14.8613 91.6903 17.2892 91.8767 17.2892 91.8767C17.2892 91.8767 16.395 89.6108 15.8273 89.1868C15.5518 89.003 15.2162 88.9322 14.8899 88.9891C14.5637 89.046 14.2718 89.2261 14.0747 89.4923C13.8776 89.7584 13.7903 90.0901 13.8311 90.4188C13.8718 90.7475 14.0374 91.0479 14.2936 91.2578L14.2887 91.2676Z" fill="#1F7A3A"/>
<path d="M13.7661 94.4984C13.7661 94.4984 15.8505 94.0842 16.4061 93.5323C16.9616 92.9805 19.4639 92.0144 19.7416 92.7039C20.0194 93.3934 23.4938 95.7398 21.1317 96.154C18.7695 96.5682 15.5728 96.7059 14.8772 96.4293C14.1815 96.1528 13.7661 94.4984 13.7661 94.4984Z" fill="#A8A8A8"/>
<path opacity="0.2" d="M21.1317 95.8969C18.7682 96.3111 15.5728 96.4488 14.8772 96.1735C14.3484 95.9627 13.9805 94.9552 13.8356 94.4838L13.7661 94.4984C13.7661 94.4984 14.1828 96.154 14.8772 96.4293C15.5716 96.7046 18.7682 96.5682 21.1317 96.154C21.8127 96.0322 22.0076 95.7532 21.9345 95.3987C21.8736 95.6301 21.6384 95.8068 21.1317 95.8969Z" fill="black"/>
</g>
<defs>
<linearGradient id="paint0_linear_71_2426" x1="62.5436" y1="98.2348" x2="62.5436" y2="16.7241" gradientUnits="userSpaceOnUse">
<stop stop-color="#808080" stop-opacity="0.25"/>
<stop offset="0.54" stop-color="#808080" stop-opacity="0.12"/>
<stop offset="1" stop-color="#808080" stop-opacity="0.1"/>
</linearGradient>
<clipPath id="clip0_71_2426">
<rect width="133.654" height="100" fill="white"/>
</clipPath>
</defs>
</svg>
