<svg width="127" height="100" viewBox="0 0 127 100" fill="none" xmlns="http://www.w3.org/2000/svg">
<g clip-path="url(#clip0_71_2390)">
<path d="M126.573 2.08104H50.6665V38.1001H126.573V2.08104Z" fill="#E6E6E6"/>
<path d="M124.403 5.16972H52.8372V35.2215H124.403V5.16972Z" fill="white"/>
<path d="M126.541 0H50.6343V3.22474H126.541V0Z" fill="#1F7A3A"/>
<path d="M53.0306 2.49391C53.3607 2.49391 53.6283 2.22632 53.6283 1.89622C53.6283 1.56612 53.3607 1.29852 53.0306 1.29852C52.7005 1.29852 52.4329 1.56612 52.4329 1.89622C52.4329 2.22632 52.7005 2.49391 53.0306 2.49391Z" fill="white"/>
<path d="M55.2994 2.49391C55.6295 2.49391 55.897 2.22632 55.897 1.89622C55.897 1.56612 55.6295 1.29852 55.2994 1.29852C54.9693 1.29852 54.7017 1.56612 54.7017 1.89622C54.7017 2.22632 54.9693 2.49391 55.2994 2.49391Z" fill="white"/>
<path d="M57.5679 2.49391C57.898 2.49391 58.1656 2.22632 58.1656 1.89622C58.1656 1.56612 57.898 1.29852 57.5679 1.29852C57.2378 1.29852 56.9702 1.56612 56.9702 1.89622C56.9702 2.22632 57.2378 2.49391 57.5679 2.49391Z" fill="white"/>
<path d="M107.555 10.0326H95.6562V30.3591H107.555V10.0326Z" fill="#F2F2F2"/>
<path d="M93.6849 10.0322H69.6853V15.6273H93.6849V10.0322Z" fill="#1F7A3A"/>
<path d="M93.6849 17.1854H69.6853V23.2055H93.6849V17.1854Z" fill="#F2F2F2"/>
<path d="M93.6849 24.7636H69.6853V30.3587H93.6849V24.7636Z" fill="#F2F2F2"/>
<path d="M36.215 60.1014C36.2173 59.6893 36.1325 59.2814 35.9662 58.9044C35.7998 58.5274 35.5557 58.1898 35.2498 57.9137C34.9439 57.6376 34.5832 57.4292 34.1911 57.3023C33.7991 57.1753 33.3847 57.1326 32.975 57.177C32.8454 57.1917 32.717 57.2153 32.5906 57.2478L22.6915 48.7627L23.2831 45.5742L18.404 43.993L16.9329 49.1028C16.7589 49.716 16.7872 50.369 17.0137 50.9649C17.2402 51.5608 17.6528 52.0677 18.1903 52.4105L30.3679 60.1127C30.368 60.2085 30.373 60.3042 30.3829 60.3995C30.4273 60.8092 30.5579 61.2049 30.7659 61.5606C30.974 61.9163 31.2548 62.2241 31.5901 62.4637C31.9254 62.7033 32.3075 62.8694 32.7115 62.951C33.1154 63.0327 33.5321 63.028 33.9341 62.9374C34.0509 62.9115 34.1661 62.8783 34.2787 62.8379C34.8423 62.6341 35.33 62.2626 35.6762 61.7734C36.0224 61.2842 36.2104 60.7007 36.215 60.1014Z" fill="#9F616A"/>
<path d="M11.6046 69.9421H24.3678C24.3678 70.309 37.5218 70.6068 37.5218 70.6068C37.7283 70.7622 37.9164 70.9406 38.0827 71.1384C38.5823 71.7343 38.8554 72.4876 38.8538 73.2652V73.7969C38.8534 74.6781 38.5032 75.5232 37.8801 76.1463C37.257 76.7694 36.4119 77.1196 35.5307 77.12H11.6046C10.7235 77.1192 9.87867 76.7689 9.25564 76.1458C8.63261 75.5228 8.28226 74.678 8.28149 73.7969V73.2652C8.28272 72.3843 8.63322 71.5397 9.25615 70.9168C9.87908 70.2939 10.7236 69.9434 11.6046 69.9421Z" fill="#3F3D56"/>
<path d="M25.488 76.988H22.032V99.319H25.488V76.988Z" fill="#3F3D56"/>
<path d="M35.3244 99.5968C35.3244 100.015 30.0873 99.7585 23.6271 99.7585C17.1669 99.7585 11.9299 100.015 11.9299 99.5968C11.9299 99.1787 17.1669 95.8631 23.6271 95.8631C30.0873 95.8631 35.3244 99.1787 35.3244 99.5968Z" fill="#3F3D56"/>
<path d="M32.2045 96.5803L35.4635 96.58L37.0141 88.1269L32.2039 88.1272L32.2045 96.5803Z" fill="#9F616A"/>
<path d="M31.3732 99.7395L41.8823 99.7391V99.6062C41.8823 99.069 41.7765 98.5371 41.5709 98.0409C41.3654 97.5446 41.0641 97.0937 40.6843 96.7139C40.3045 96.334 39.8535 96.0327 39.3573 95.8272C38.861 95.6216 38.3291 95.5158 37.792 95.5158H37.7916L31.373 95.5161L31.3732 99.7395Z" fill="#2F2E41"/>
<path d="M37.0793 91.3383L43.5768 76.7679C44.1193 75.5399 44.1793 74.1525 43.7448 72.8822C43.3104 71.612 42.4133 70.5519 41.2324 69.9133L27.139 62.3559L20.7079 61.8089L14.7757 61.2697L14.7329 61.3421C14.6782 61.4345 13.4027 63.6376 14.2649 66.0534C14.9188 67.8857 16.62 69.317 19.3209 70.3074C25.6253 72.619 32.9081 74.5947 35.7466 75.3367C35.872 75.3688 35.9893 75.427 36.0906 75.5077C36.1919 75.5883 36.275 75.6895 36.3344 75.8045C36.394 75.9182 36.4294 76.043 36.4384 76.1711C36.4473 76.2991 36.4297 76.4277 36.3866 76.5486L30.3502 90.1106C30.2871 90.2826 30.2644 90.4668 30.2838 90.649C30.3032 90.8311 30.3642 91.0064 30.462 91.1613C30.5599 91.3161 30.692 91.4465 30.8482 91.5422C31.0044 91.6379 31.1804 91.6965 31.3629 91.7135L35.8733 92.0419C35.9116 92.0455 35.9498 92.0473 35.9877 92.0473C36.2187 92.0473 36.4447 91.9802 36.6385 91.8544C36.8322 91.7286 36.9853 91.5493 37.0793 91.3383Z" fill="#CBCBCB"/>
<path d="M30.0776 96.5803L33.3366 96.58L34.8874 88.1269L30.0771 88.1272L30.0776 96.5803Z" fill="#9F616A"/>
<path d="M29.2465 99.7395L39.7556 99.7391V99.6062C39.7556 99.069 39.6498 98.5371 39.4442 98.0409C39.2387 97.5446 38.9374 97.0937 38.5576 96.7139C38.1778 96.334 37.7268 96.0327 37.2306 95.8272C36.7343 95.6216 36.2024 95.5158 35.6653 95.5158H35.6649L29.2463 95.5161L29.2465 99.7395Z" fill="#2F2E41"/>
<path d="M34.6866 92.1359L41.1841 77.5655C41.7266 76.3374 41.7866 74.9501 41.3521 73.6798C40.9177 72.4095 40.0206 71.3495 38.8397 70.7108L24.7463 63.1535L18.3152 62.6064L13.6688 62.2034L13.6694 62.1397C13.6147 62.2321 12.3392 64.4352 13.2014 66.8509C13.8554 68.6833 14.2272 70.1145 16.9282 71.1049C23.2326 73.4166 30.5154 75.3922 33.3539 76.1342C33.4793 76.1663 33.5965 76.2246 33.6979 76.3052C33.7992 76.3858 33.8823 76.487 33.9417 76.6021C34.0013 76.7158 34.0367 76.8406 34.0457 76.9686C34.0546 77.0967 34.037 77.2252 33.9939 77.3461L27.9575 90.9081C27.8944 91.0801 27.8717 91.2643 27.8911 91.4465C27.9105 91.6287 27.9715 91.8039 28.0693 91.9588C28.1672 92.1137 28.2993 92.244 28.4555 92.3397C28.6117 92.4355 28.7877 92.4941 28.9702 92.511L33.4806 92.8394C33.5189 92.8431 33.5571 92.8449 33.595 92.8449C33.826 92.8448 34.052 92.7778 34.2458 92.652C34.4395 92.5261 34.5926 92.3469 34.6866 92.1359Z" fill="#CBCBCB"/>
<path d="M22.4416 62.4692C22.7531 62.2489 27.2268 64.596 28.0244 62.7351C24.3025 53.4305 26.8673 49.4126 24.5874 44.0768C24.1859 43.1566 23.581 42.3392 22.8182 41.6863C22.0553 41.0334 21.1545 40.5619 20.1832 40.3072L14.2683 40.0087L14.2376 40.0235C12.9029 40.6772 11.8144 41.7437 11.1335 43.0648C10.4525 44.3859 10.2155 45.8913 10.4575 47.3577C10.4785 53.1646 13.953 57.5936 12.7381 61.8054C12.6871 61.9815 12.6723 62.1661 12.6944 62.348C12.7165 62.53 12.7751 62.7056 12.8667 62.8644C12.9556 63.0178 13.0749 63.1515 13.2173 63.2571C13.3598 63.3626 13.5224 63.4379 13.695 63.4783L21.5052 62.4364C21.6876 62.4798 21.8772 62.4838 22.0613 62.4482C22.2455 62.4126 22.4199 62.3381 22.573 62.2298L22.4416 62.4692Z" fill="#2F2E41"/>
<path d="M16.2423 37.7994C19.8484 37.7994 22.7718 34.8761 22.7718 31.27C22.7718 27.6639 19.8484 24.7405 16.2423 24.7405C12.6362 24.7405 9.71289 27.6639 9.71289 31.27C9.71289 34.8761 12.6362 37.7994 16.2423 37.7994Z" fill="#9F616A"/>
<path d="M14.1624 37.2632C14.5094 37.415 15.2198 34.6506 14.9016 34.0977C14.4283 33.2755 14.4563 33.2814 14.1421 32.7374C13.8279 32.1934 13.7576 31.4488 14.1645 30.9702C14.5713 30.4915 15.5128 30.555 15.6985 31.1552C15.5791 30.0153 16.7066 29.099 17.8234 28.8415C18.9402 28.584 20.1183 28.7438 21.2413 28.5147C22.5446 28.2488 23.9006 27.1563 23.3806 25.7231C23.2914 25.4845 23.1578 25.265 22.9869 25.076C22.3861 24.4005 21.5457 24.1121 20.724 23.8332C19.0146 23.253 17.2584 22.6655 15.4544 22.7296C12.4902 22.8348 9.68826 24.8839 8.68958 27.6768C8.56526 28.0252 8.46894 28.3831 8.40156 28.7469C7.78234 32.0764 9.71581 35.3606 12.8561 36.6284L14.1624 37.2632Z" fill="#2F2E41"/>
<path d="M48.4043 47.763L49.153 52.209C49.1614 52.2586 49.1559 52.3095 49.1372 52.3561L43.2629 67.0341C43.2397 67.0922 43.1972 67.1406 43.1426 67.1712C43.0879 67.2018 43.0245 67.2127 42.9627 67.2022C42.901 67.1916 42.8448 67.1602 42.8034 67.1132C42.7621 67.0662 42.7381 67.0065 42.7354 66.9439L42.4866 61.0456C42.4849 61.0064 42.4917 60.9673 42.5065 60.931L47.8808 47.7055C47.9033 47.6503 47.9431 47.6039 47.9942 47.5734C48.0454 47.5429 48.1051 47.5299 48.1643 47.5365C48.2235 47.543 48.279 47.5686 48.3223 47.6095C48.3656 47.6504 48.3944 47.7043 48.4043 47.763Z" fill="#3F3D56"/>
<path d="M47.9883 48.1043L48.6998 51.9239L43.4869 65.3179L42.8101 61.0093L47.9883 48.1043Z" fill="#1F7A3A"/>
<path d="M25.1806 66.9658C25.3089 67.4665 42.1484 68.0085 42.3231 67.857C42.4797 67.6629 42.6155 67.4529 42.7281 67.2304C42.9046 66.9152 43.068 66.5991 43.068 66.5991L42.7912 61.2734L26.203 59.5007C26.203 59.5007 25.4691 63.945 25.2387 65.9867C25.1867 66.3103 25.1672 66.6383 25.1806 66.9658Z" fill="#3F3D56"/>
<path opacity="0.1" d="M40.6208 61.8369L40.6223 66.4251L33.2854 65.9035L33.6101 61.3384L40.6208 61.8369Z" fill="black"/>
<path opacity="0.1" d="M31.0603 62.6318L31.1047 62.6262L30.7582 64.5767L26.6821 64.287L26.8213 62.3304L31.0603 62.6318Z" fill="black"/>
<path opacity="0.1" d="M25.1806 66.9658C25.3089 67.4665 42.1484 68.0084 42.3231 67.857C42.4797 67.6629 42.6155 67.4529 42.7281 67.2303L25.2387 65.9867C25.1867 66.3103 25.1672 66.6383 25.1806 66.9658Z" fill="black"/>
<path d="M18.419 59.0129L32.6239 61.6639C32.6595 61.7528 32.6995 61.8399 32.744 61.9247C32.937 62.2878 33.2043 62.6063 33.5284 62.8594C33.8526 63.1125 34.2263 63.2945 34.6254 63.3937C35.0261 63.4945 35.4437 63.5085 35.8502 63.4349C36.2567 63.3612 36.6429 63.2016 36.9827 62.9666C37.5983 62.544 38.029 61.9019 38.1863 61.1719C38.3437 60.4419 38.2159 59.6794 37.8292 59.0407C37.4424 58.4019 36.8259 57.9353 36.1062 57.7365C35.3864 57.5376 34.6178 57.6216 33.958 57.9713C33.8431 58.0329 33.7326 58.1025 33.6273 58.1795L21.2893 53.9647L20.6578 50.7839L15.54 51.1225L16.0703 56.4547C16.1347 57.077 16.3979 57.662 16.821 58.1228C17.2441 58.5836 17.8045 58.8958 18.419 59.0129Z" fill="#9F616A"/>
<path d="M15.3665 53.5008L22.803 51.0567L21.0683 46.0759C20.8379 45.4145 20.3812 44.8559 19.7788 44.4986C19.1764 44.1414 18.4672 44.0087 17.7763 44.1238C17.0775 44.2403 16.4434 44.6028 15.9884 45.1459C15.5335 45.689 15.2878 46.3768 15.2956 47.0852L15.3665 53.5008Z" fill="#2F2E41"/>
<path d="M62.5406 100H0.163719C0.120298 100 0.0786552 99.9827 0.047952 99.952C0.0172488 99.9213 0 99.8797 0 99.8363C0 99.7929 0.0172488 99.7512 0.047952 99.7205C0.0786552 99.6898 0.120298 99.6726 0.163719 99.6726H62.5406C62.584 99.6726 62.6256 99.6898 62.6563 99.7205C62.687 99.7512 62.7043 99.7929 62.7043 99.8363C62.7043 99.8797 62.687 99.9213 62.6563 99.952C62.6256 99.9827 62.584 100 62.5406 100Z" fill="#CBCBCB"/>
<path d="M86.8049 94.8418C89.7966 96.3901 91.1268 99.7614 91.1268 99.7614C91.1268 99.7614 87.6064 100.622 84.6146 99.0739C81.6229 97.5255 80.2927 94.1543 80.2927 94.1543C80.2927 94.1543 83.8131 93.2935 86.8049 94.8418Z" fill="#F1F1F1"/>
<path d="M85.8481 95.9571C87.6334 98.8138 91.1011 99.8669 91.1011 99.8669C91.1011 99.8669 91.6744 96.2883 89.8891 93.4317C88.1038 90.575 84.636 89.5219 84.636 89.5219C84.636 89.5219 84.0628 93.1004 85.8481 95.9571Z" fill="#F1F1F1"/>
<path d="M96.594 99.9351H77.9301C77.8867 99.9351 77.845 99.9178 77.8143 99.8871C77.7836 99.8564 77.7664 99.8148 77.7664 99.7714C77.7664 99.7279 77.7836 99.6863 77.8143 99.6556C77.845 99.6249 77.8867 99.6076 77.9301 99.6076H96.594C96.6374 99.6076 96.6791 99.6249 96.7098 99.6556C96.7405 99.6863 96.7577 99.7279 96.7577 99.7714C96.7577 99.8148 96.7405 99.8564 96.7098 99.8871C96.6791 99.9178 96.6374 99.9351 96.594 99.9351Z" fill="#CBCBCB"/>
</g>
<defs>
<clipPath id="clip0_71_2390">
<rect width="126.573" height="100" fill="white"/>
</clipPath>
</defs>
</svg>
