<svg width="96" height="100" viewBox="0 0 96 100" fill="none" xmlns="http://www.w3.org/2000/svg">
<g clip-path="url(#clip0_71_2325)">
<path d="M90.894 93.183C90.894 96.9477 70.5469 100 45.447 100C20.3471 100 0 96.9477 0 93.183C0 90.5177 10.1992 88.2087 25.0633 87.0887C31.1928 86.6254 38.1183 86.3659 45.447 86.3659C48.4597 86.3659 51.4035 86.4099 54.2505 86.4934C75.1371 87.1092 90.894 89.8697 90.894 93.183Z" fill="#3F3D56"/>
<path opacity="0.1" d="M39.583 94.5757C49.218 94.5757 57.0288 93.624 57.0288 92.4499C57.0288 91.2759 49.218 90.3242 39.583 90.3242C29.9479 90.3242 22.1372 91.2759 22.1372 92.4499C22.1372 93.624 29.9479 94.5757 39.583 94.5757Z" fill="black"/>
<path d="M39.5095 93.9893C48.6182 93.9893 56.0023 86.1129 56.0023 76.3969C56.0023 66.6809 48.6182 58.8045 39.5095 58.8045C30.4007 58.8045 23.0166 66.6809 23.0166 76.3969C23.0166 86.1129 30.4007 93.9893 39.5095 93.9893Z" fill="#3F3D56"/>
<path d="M44.7139 86.8057H34.4517V96.1883H44.7139V86.8057Z" fill="#1F7A3A"/>
<path d="M58.1279 89.0781L57.5415 92.3034L61.3532 92.8898L63.8454 91.4238L63.6988 89.0781H58.1279Z" fill="#575A89"/>
<path d="M38.923 28.531C38.923 28.531 38.6298 31.9028 37.8968 32.0494C37.1638 32.196 39.5094 38.0602 39.5094 38.0602H43.0279L45.8133 37.3272L44.4939 34.1019C44.4939 34.1019 42.7347 31.7562 44.0541 29.8504C45.3735 27.9446 38.923 28.531 38.923 28.531Z" fill="#A0616A"/>
<path opacity="0.1" d="M38.923 28.531C38.923 28.531 38.6298 31.9028 37.8968 32.0494C37.1638 32.196 39.5094 38.0602 39.5094 38.0602H43.0279L45.8133 37.3272L44.4939 34.1019C44.4939 34.1019 42.7347 31.7562 44.0541 29.8504C45.3735 27.9446 38.923 28.531 38.923 28.531Z" fill="black"/>
<path d="M31.5928 54.3331C31.5928 54.3331 27.7811 61.6633 30.8598 63.1293C33.9384 64.5953 34.6715 64.4487 34.6715 64.8885C34.6715 65.3284 34.085 65.1818 34.3782 65.9148C34.6715 66.6478 33.7918 69.5798 34.6715 71.3391C35.5511 73.0983 35.2579 74.4178 35.2579 74.4178C35.2579 74.4178 35.2579 74.5644 35.5511 75.1508C35.8443 75.7372 35.9909 76.177 35.8443 76.4702C35.6977 76.7634 34.8181 78.6692 35.6977 79.1091C36.5773 79.5489 41.122 79.8421 41.5618 79.1091C42.0016 78.376 41.122 77.9362 41.5618 77.4964C42.0016 77.0566 42.2948 76.91 42.0016 76.6168C41.7084 76.3236 41.4152 72.6585 41.4152 72.6585C41.4152 72.6585 42.1482 68.407 41.855 67.8206C41.5618 67.2342 41.122 66.6478 41.4152 66.208C41.7084 65.7682 42.0016 65.9148 42.1482 65.3284C42.2948 64.7419 42.588 63.4225 42.588 63.4225L44.2007 63.2759L48.0123 64.0089C48.0123 64.0089 52.2638 68.7002 56.9551 70.1663C56.9551 70.1663 58.2746 71.4857 58.7144 71.4857C59.1542 71.4857 59.1542 71.4857 59.0076 71.7789C58.861 72.0721 58.4212 72.0721 58.7144 72.3653C59.0076 72.6585 59.4474 72.2187 59.1542 72.6585C58.861 73.0983 58.5678 73.0983 58.861 73.3915C59.1542 73.6847 58.7144 75.2974 58.7144 75.444C58.7144 75.5906 57.3949 89.3713 57.8347 89.6645C58.2746 89.9577 64.4319 90.8373 64.8717 89.6645C65.3115 88.4917 64.5785 87.0256 64.5785 87.0256C64.5785 87.0256 66.7775 69.4332 66.1911 68.2604C65.6047 67.0876 63.5523 61.8099 52.557 58.438C52.557 58.438 49.4784 57.8516 49.4784 57.4118C49.4784 56.972 49.1852 54.1865 48.5988 54.0399C48.0123 53.8933 44.6405 53.7467 44.6405 53.7467L40.389 55.0661L34.5248 54.0399L31.5928 54.3331Z" fill="#2F2E41"/>
<path d="M36.7241 78.9625L35.9911 81.6013C35.9911 81.6013 35.4047 85.8528 36.1377 86.879C36.7135 87.6851 37.7415 88.6721 39.6481 88.8453C40.1824 88.8943 40.7174 88.7595 41.1647 88.4631C41.612 88.1667 41.9447 87.7266 42.1078 87.2154C42.1297 87.1542 42.1434 87.0904 42.1485 87.0256C42.1485 86.7324 41.7086 83.2139 41.7086 83.2139L40.9756 79.5489L40.829 78.5226L36.7241 78.9625Z" fill="#2F2E41"/>
<path d="M58.128 91.5703C58.128 91.5703 57.395 90.8373 57.2484 91.5703C57.1018 92.3033 56.5154 95.382 57.5416 95.5286C58.5678 95.6752 68.3902 97.1412 69.4164 96.5548C70.4427 95.9684 72.3485 95.0888 71.1757 94.649C70.0029 94.2092 66.631 92.8897 66.631 92.8897C66.631 92.8897 64.7251 90.3975 64.4319 90.2509C64.1387 90.1043 62.5261 90.3975 61.7931 90.9839C61.0601 91.5703 58.128 91.5703 58.128 91.5703Z" fill="#2F2E41"/>
<path d="M42.4417 31.6096C44.9516 31.6096 46.9864 29.5749 46.9864 27.0649C46.9864 24.555 44.9516 22.5202 42.4417 22.5202C39.9317 22.5202 37.897 24.555 37.897 27.0649C37.897 29.5749 39.9317 31.6096 42.4417 31.6096Z" fill="#A0616A"/>
<path d="M42.0019 37.3272L40.2427 35.4213L38.2926 31.6096C38.2926 31.6096 36.8708 31.1698 36.5776 31.9028C36.2844 32.6358 31.0067 34.9815 31.0067 34.9815C31.0067 34.9815 32.3261 47.2962 31.7397 48.469C31.1533 49.6418 30.1271 54.3331 31.0067 54.7729C31.8863 55.2127 35.9912 54.7729 37.3106 55.3593C38.63 55.9458 42.4417 55.9458 43.4679 55.2127C44.4942 54.4797 44.7874 53.8933 45.8136 54.3331C46.6872 54.7075 48.7296 41.9069 49.3176 38.0923C49.3672 37.7719 49.3261 37.444 49.1989 37.1458C49.0717 36.8476 48.8636 36.591 48.5981 36.4049C47.2827 35.4822 44.9136 33.8922 44.4942 34.1019C43.9078 34.3951 42.0019 37.3272 42.0019 37.3272Z" fill="#575A89"/>
<path d="M48.3059 36.7407C48.6502 36.8268 48.9599 37.0161 49.1934 37.2833C49.4269 37.5505 49.5731 37.8828 49.6122 38.2355L50.7982 48.9088C50.7982 48.9088 47.8661 55.2127 46.4001 50.9612C44.934 46.7098 48.3059 36.7407 48.3059 36.7407Z" fill="#575A89"/>
<path d="M48.0127 49.935L51.238 49.0554C51.238 49.0554 51.8244 53.1603 52.4108 53.1603C52.9972 53.1603 50.3583 55.5059 49.0389 55.2127C47.7195 54.9195 45.8136 53.8933 45.667 53.1603C45.5204 52.4273 46.9865 49.3486 46.9865 49.3486L48.0127 49.935Z" fill="#575A89"/>
<path d="M39.0107 29.0254C39.3197 28.344 39.266 27.5492 39.5215 26.846C39.6583 26.4694 39.8803 26.1296 40.1702 25.853C40.4601 25.5765 40.81 25.3707 41.1925 25.2517C41.5751 25.1328 41.98 25.1039 42.3756 25.1673C42.7712 25.2307 43.1467 25.3847 43.4729 25.6173C43.8016 25.8517 44.1311 26.1809 44.5322 26.1361C44.9642 26.088 45.3495 25.606 45.7467 25.7827C46.1869 25.9784 46.068 26.7674 46.514 26.9496C46.7488 27.0455 47.0262 26.8978 47.1616 26.6834C47.28 26.4581 47.3445 26.2084 47.3501 25.9539C47.4116 25.3286 47.4672 24.6668 47.1961 24.1001C47.082 23.908 46.9826 23.7075 46.8987 23.5005C46.8513 23.3071 46.8322 23.1079 46.8422 22.909C46.8397 22.1741 46.7861 21.4075 46.4162 20.7724C46.0058 20.0677 45.2471 19.617 44.4556 19.4204C43.6642 19.2238 42.8349 19.2539 42.0223 19.3227C40.679 19.4364 39.278 19.6802 38.2196 20.5153C38.0758 20.6204 37.952 20.7505 37.8541 20.8994C37.7612 21.0762 37.6956 21.2661 37.6594 21.4625C37.4306 22.3944 37.0875 23.2943 36.6379 24.142C36.4217 24.5014 36.2449 24.8831 36.1108 25.2805C35.9986 25.6843 36.0062 26.1445 36.2411 26.4915C36.4324 26.7741 36.7382 26.9247 36.9784 27.1557C37.2165 27.3846 37.3279 27.8249 37.5916 27.9982C37.8218 28.1495 38.0976 28.0427 38.3324 28.2031C38.6338 28.409 38.6556 28.8605 39.0107 29.0254Z" fill="#2F2E41"/>
<path d="M42.7349 39.5262L43.1747 38.6466C43.1747 38.6466 49.6252 40.5524 50.9446 42.3117C50.9446 42.3117 54.1699 40.2592 55.9291 40.5524L57.6884 40.8456L52.2641 45.6835L45.3737 45.0971L42.7349 39.5262Z" fill="#F2F2F2"/>
<path d="M42.4414 38.6466L36.4307 47.003L45.0802 51.2544C45.0802 51.2544 45.8889 51.6943 46.5108 51.2544L52.2638 48.6156L57.6881 40.8456L52.2638 43.6311C52.2638 43.6311 51.6774 42.4583 50.5046 43.0447L42.4414 38.6466Z" fill="#1F7A3A"/>
<path d="M51.6778 53.4535L52.8507 50.3748C52.8507 50.3748 55.4895 47.003 54.0235 45.3903C52.5575 43.7777 50.9448 50.0816 50.9448 50.0816L51.6778 53.4535Z" fill="#A0616A"/>
<path d="M38.146 52.9622L40.7051 50.8875C40.7051 50.8875 44.6795 49.2946 44.2205 47.1641C43.7614 45.0336 39.2036 49.6777 39.2036 49.6777L38.146 52.9622Z" fill="#A0616A"/>
<path opacity="0.1" d="M31.8131 38.1335H31.6665C31.6665 38.1335 29.3942 35.4213 28.9544 39.0864C28.5146 42.7515 27.0485 54.9195 30.8602 55.3593C34.6719 55.7991 37.384 53.5268 37.384 53.5268C37.384 53.5268 40.1695 49.2753 39.1433 49.2753C38.6468 49.2753 37.2963 49.0523 36.0646 49.1287C34.7507 49.2102 33.57 49.5804 33.6457 49.202C33.7923 48.469 35.918 39.1597 31.8131 38.1335Z" fill="black"/>
<path d="M31.5928 35.2747L31.0064 34.9815C31.0064 34.9815 28.6608 35.4213 28.221 39.0864C27.7812 42.7515 26.3151 54.9195 30.1268 55.3593C33.9385 55.7992 39.0696 54.7729 39.0696 54.7729C39.0696 54.7729 40.0958 49.202 39.0696 49.202C38.0434 49.202 32.7657 49.935 32.9123 49.202C33.0589 48.469 35.6977 36.3009 31.5928 35.2747Z" fill="#575A89"/>
<path d="M49.5518 51.7676L51.1684 49.2899L52.1906 53.3803L49.5518 54.5531V51.7676Z" fill="#575A89"/>
<path d="M16.3421 16.4362C18.5282 16.4362 20.3004 14.664 20.3004 12.4779C20.3004 10.2918 18.5282 8.51962 16.3421 8.51962C14.156 8.51962 12.3838 10.2918 12.3838 12.4779C12.3838 14.664 14.156 16.4362 16.3421 16.4362Z" fill="#F2F2F2"/>
<path d="M21.0335 41.9451H11.6509V51.3277H21.0335V41.9451Z" fill="#F2F2F2"/>
<path d="M54.5366 0L56.9114 4.11325L59.2861 8.22649H54.5366H49.7871L52.1618 4.11325L54.5366 0Z" fill="#F2F2F2"/>
<path d="M95.9129 24.6629C95.8562 26.4178 95.4288 27.8244 94.6309 28.8827C93.8328 29.9411 92.8847 30.4703 91.7865 30.4704C90.8921 30.4704 90.1081 29.9525 89.4347 28.9166C88.761 27.8808 88.4242 26.2874 88.4243 24.1365C88.4243 23.661 88.4356 23.2082 88.4583 22.778C88.4808 22.3479 88.5091 21.9404 88.5432 21.5554L89.1375 15.9686H85.2149C84.5357 23.0327 83.9781 27.2355 83.5423 28.577C83.1063 29.9185 82.3677 30.5893 81.3263 30.5893C80.8562 30.5777 80.4076 30.3898 80.0696 30.0629C79.8737 29.8892 79.7187 29.6743 79.6159 29.4335C79.5132 29.1927 79.4651 28.932 79.4753 28.6704C79.4753 28.1499 79.8857 27.4225 80.7064 26.4884C81.5271 25.5544 81.9828 24.7025 82.0734 23.9327L83.0922 15.9686H81.4451C80.9808 15.9714 80.5238 16.0849 80.1121 16.2997C79.7332 16.4738 79.4035 16.7393 79.1527 17.0724L78.4225 18.1592H77.8281C78.3827 16.4385 79.0648 15.1451 79.8744 14.279C80.6836 13.413 81.6147 12.9799 82.6677 12.9799H95.6413V15.9686H91.2601C91.1243 17.3271 91.0196 18.6856 90.946 20.044C90.8722 21.4025 90.8355 22.7667 90.8356 24.1365C90.8356 25.0649 91.0507 25.8177 91.4809 26.395C91.911 26.9723 92.4488 27.261 93.0941 27.261C93.4903 27.261 93.9063 27.0997 94.3422 26.777C94.5492 26.6318 94.7224 26.4436 94.8499 26.2252C94.9774 26.0069 95.0562 25.7636 95.0809 25.512C95.1149 25.2631 95.1403 25.0678 95.1573 24.9261C95.1743 24.7847 95.1828 24.6969 95.1828 24.6629L95.9129 24.6629Z" fill="#1F7A3A"/>
<path opacity="0.1" d="M95.9129 24.6629C95.8562 26.4178 95.4288 27.8244 94.6309 28.8827C93.8328 29.9411 92.8847 30.4703 91.7865 30.4704C90.8921 30.4704 90.1081 29.9525 89.4347 28.9166C88.761 27.8808 88.4242 26.2874 88.4243 24.1365C88.4243 23.661 88.4356 23.2082 88.4583 22.778C88.4808 22.3479 88.5091 21.9404 88.5432 21.5554L89.1375 15.9686H85.2149C84.5357 23.0327 83.9781 27.2355 83.5423 28.577C83.1063 29.9185 82.3677 30.5893 81.3263 30.5893C80.8562 30.5777 80.4076 30.3898 80.0696 30.0629C79.8737 29.8892 79.7187 29.6743 79.6159 29.4335C79.5132 29.1927 79.4651 28.932 79.4753 28.6704C79.4753 28.1499 79.8857 27.4225 80.7064 26.4884C81.5271 25.5544 81.9828 24.7025 82.0734 23.9327L83.0922 15.9686H81.4451C80.9808 15.9714 80.5238 16.0849 80.1121 16.2997C79.7332 16.4738 79.4035 16.7393 79.1527 17.0724L78.4225 18.1592H77.8281C78.3827 16.4385 79.0648 15.1451 79.8744 14.279C80.6836 13.413 81.6147 12.9799 82.6677 12.9799H95.6413V15.9686H91.2601C91.1243 17.3271 91.0196 18.6856 90.946 20.044C90.8722 21.4025 90.8355 22.7667 90.8356 24.1365C90.8356 25.0649 91.0507 25.8177 91.4809 26.395C91.911 26.9723 92.4488 27.261 93.0941 27.261C93.4903 27.261 93.9063 27.0997 94.3422 26.777C94.5492 26.6318 94.7224 26.4436 94.8499 26.2252C94.9774 26.0069 95.0562 25.7636 95.0809 25.512C95.1149 25.2631 95.1403 25.0678 95.1573 24.9261C95.1743 24.7847 95.1828 24.6969 95.1828 24.6629L95.9129 24.6629Z" fill="black"/>
<path d="M95.9129 24.1324C95.8562 25.8872 95.4288 27.2938 94.6309 28.3521C93.8328 29.4105 92.8847 29.9398 91.7865 29.9399C90.8921 29.9399 90.1081 29.4219 89.4347 28.3861C88.761 27.3502 88.4242 25.7569 88.4243 23.6059C88.4243 23.1305 88.4356 22.6776 88.4583 22.2475C88.4808 21.8174 88.5091 21.4098 88.5432 21.0248L89.1375 15.4381H85.2149C84.5357 22.5022 83.9781 26.705 83.5423 28.0465C83.1063 29.3879 82.3677 30.0587 81.3263 30.0587C80.8562 30.0472 80.4076 29.8593 80.0696 29.5323C79.8737 29.3587 79.7187 29.1437 79.6159 28.9029C79.5132 28.6621 79.4651 28.4015 79.4753 28.1399C79.4753 27.6193 79.8857 26.892 80.7064 25.9578C81.5271 25.0238 81.9828 24.172 82.0734 23.4022L83.0922 15.4381H81.4451C80.9808 15.4408 80.5238 15.5544 80.1121 15.7692C79.7332 15.9432 79.4035 16.2087 79.1527 16.5418L78.4225 17.6286H77.8281C78.3827 15.908 79.0648 14.6146 79.8744 13.7485C80.6836 12.8824 81.6147 12.4494 82.6677 12.4494H95.6413V15.4381H91.2601C91.1243 16.7966 91.0196 18.155 90.946 19.5135C90.8722 20.872 90.8355 22.2361 90.8356 23.6059C90.8356 24.5343 91.0507 25.2872 91.4809 25.8644C91.911 26.4418 92.4488 26.7305 93.0941 26.7304C93.4903 26.7304 93.9063 26.5691 94.3422 26.2465C94.5492 26.1013 94.7224 25.913 94.8499 25.6947C94.9774 25.4764 95.0562 25.233 95.0809 24.9814C95.1149 24.7325 95.1403 24.5372 95.1573 24.3956C95.1743 24.2541 95.1828 24.1664 95.1828 24.1324H95.9129Z" fill="#1F7A3A"/>
</g>
<defs>
<clipPath id="clip0_71_2325">
<rect width="95.9131" height="100" fill="white"/>
</clipPath>
</defs>
</svg>
