<svg width="288" height="81" viewBox="0 0 288 81" fill="none" xmlns="http://www.w3.org/2000/svg">
<path d="M54.9746 8.68889L54.8866 8.46134L52.1026 7.96267L52.2599 5.12623L52.0502 4.98579C51.5862 4.67023 51.0875 4.40801 50.5879 4.20623C50.0715 4.00445 49.5373 3.85601 48.9773 3.7689L48.7319 3.72534L46.9017 5.8969L44.5382 4.34756L44.3106 4.45245C43.2866 4.95112 42.4111 5.64356 41.7106 6.50134L41.5533 6.69423L42.5079 9.36445L39.9782 10.6516L39.9604 10.8969C39.8813 12.0089 40.0475 13.112 40.4511 14.1716L40.5382 14.408L43.3222 14.9067L43.1648 17.7342L43.3666 17.8747C43.8395 18.1902 44.3293 18.4524 44.8377 18.6542C45.3462 18.856 45.8884 19.0044 46.4395 19.1004L46.6839 19.1333L48.5142 16.9707L50.8866 18.52L51.1053 18.4062C52.1293 17.9156 53.0048 17.224 53.7142 16.3662L53.8715 16.1733L52.9088 13.5031L55.4475 12.216L55.4653 11.9707C55.5444 10.8596 55.3782 9.75645 54.9746 8.68889ZM47.5595 14.3884C45.9222 14.3884 44.5826 13.0489 44.5826 11.4116C44.5826 9.76534 45.9222 8.43467 47.5595 8.43467C49.2057 8.43467 50.5364 9.76534 50.5364 11.4116C50.5364 13.0489 49.2057 14.3884 47.5595 14.3884ZM47.5595 9.31023C46.4039 9.31023 45.4582 10.256 45.4582 11.4116C45.4582 12.5671 46.4039 13.5129 47.5595 13.5129C48.7151 13.5129 49.6608 12.5671 49.6608 11.4116C49.6608 10.256 48.7151 9.31023 47.5595 9.31023Z" fill="url(#paint0_linear_82_92)"/>
<path d="M66.6368 30.9183L66.5932 30.6294C66.4448 29.7885 66.1906 28.9743 65.8492 28.1867L65.7266 27.9236L61.6119 28.0027L62.4786 23.9752L62.2421 23.809C61.5506 23.3183 60.7888 22.9156 59.9923 22.6098L59.7212 22.505L56.867 25.473L54.6341 22.0063L54.3541 22.0587C53.5052 22.2072 52.6821 22.4614 51.9026 22.8027L51.6403 22.9254L51.7275 27.0401L47.6999 26.1645L47.5337 26.4009C47.043 27.1014 46.6315 27.8632 46.3257 28.6596L46.2208 28.9307L49.1977 31.7849L45.731 34.0089L45.7835 34.2978C45.9239 35.1387 46.1772 35.9609 46.5275 36.7405L46.6412 37.0116L50.7648 36.9245L49.8892 40.9521L50.1257 41.1183C50.8172 41.6001 51.5443 41.9938 52.2795 42.2827C52.3141 42.3005 52.3497 42.3094 52.3844 42.3174L52.6555 42.4223L55.5008 39.4543L57.7248 42.9129L58.0137 42.8605C58.8803 42.7032 59.7123 42.4578 60.4652 42.1254L60.7275 42.0116L60.6483 37.8881L64.6759 38.7636L64.8421 38.5272C65.3328 37.8267 65.7355 37.0649 66.0412 36.2685L66.1461 35.9974L63.1781 33.1432L66.6368 30.9183ZM52.5408 32.2134C52.5408 30.1912 54.1959 28.5361 56.2181 28.5361C58.2492 28.5361 59.9043 30.1912 59.9043 32.2134C59.9043 34.2445 58.2492 35.8996 56.2181 35.8996C54.1959 35.8996 52.5408 34.2445 52.5408 32.2134ZM59.0288 32.2134C59.0288 33.7627 57.7683 35.0241 56.2181 35.0241C54.6768 35.0241 53.4163 33.7636 53.4163 32.2134C53.4163 30.6721 54.6768 29.4116 56.2181 29.4116C57.7675 29.4116 59.0288 30.6729 59.0288 32.2134Z" fill="url(#paint1_linear_82_92)"/>
<path d="M33.1044 21.6551C32.667 21.1911 32.2555 20.7707 31.7648 20.3769L31.8173 19.3787L31.747 18.1351C32.6404 17.3476 33.5239 16.3929 34.2421 15.3076C34.1284 14.8089 33.9622 14.336 33.7782 13.8631C33.6208 13.3813 33.4101 12.9262 33.1826 12.4711C32.5613 12.296 31.9222 12.1733 31.283 12.1031C30.6528 12.024 30.0662 11.9627 29.4359 11.9805C29.2342 11.7182 29.0422 11.4373 28.8315 11.184C28.5426 10.8862 28.2795 10.5627 27.9826 10.2738C28.0697 9.68712 28.131 9.06579 28.1577 8.42668C28.1666 7.80534 28.1399 7.16623 28.0786 6.50046C27.2466 5.92268 26.371 5.42401 25.443 5.01246C24.2519 5.58135 23.1844 6.23823 22.2564 7.05246C21.9328 6.96535 21.6084 6.86846 21.2759 6.83379C20.8644 6.79023 20.4617 6.67646 20.0413 6.67646C19.7346 6.1689 19.3844 5.64357 18.9906 5.14401C18.5968 4.67112 18.1675 4.18935 17.6946 3.71735C16.6875 3.81335 15.6893 3.98846 14.7177 4.27735C14.4288 4.83735 14.2102 5.48535 14.0173 6.0809C13.8244 6.66757 13.6848 7.27201 13.5879 7.88446C13.2813 8.0329 12.9755 8.15557 12.6946 8.34845C12.3444 8.56712 11.9764 8.75112 11.6528 9.02223C10.4973 8.61068 9.2715 8.37423 7.94083 8.26046L6.92483 9.38134L6.01461 10.5982C6.2075 11.2373 6.41728 11.8498 6.64483 12.4285C6.87239 13.0062 7.17905 13.5751 7.47683 14.0916C7.31061 14.3893 7.21372 14.704 7.09194 15.0196L6.88216 15.6062L6.73372 16.2107C5.56927 16.6311 4.49283 17.2436 3.40661 18.0142C3.37994 18.5218 3.34528 19.0213 3.34528 19.5289C3.37194 20.0276 3.38883 20.536 3.42439 21.0347C4.53639 21.7876 5.63061 22.3742 6.78616 22.7769C6.85638 23.1093 6.97905 23.4249 7.09283 23.7316L7.3115 24.3182L7.57372 24.8782C6.96927 25.9467 6.52305 27.1191 6.19061 28.3982C6.77728 29.2213 7.43416 29.992 8.16039 30.6924C8.82616 30.6222 9.44749 30.5351 10.0599 30.4036C10.6902 30.2551 11.2857 30.08 11.8457 29.8782C12.1168 30.0711 12.4146 30.2373 12.6946 30.4124C13.0359 30.6489 13.4297 30.7893 13.7977 30.9813C13.9026 31.6027 14.0688 32.1636 14.2706 32.776C14.4635 33.3804 14.7079 33.984 15.0057 34.5618C15.4964 34.6844 15.9773 34.816 16.4857 34.8773C16.9844 34.9476 17.4839 35.0436 17.9826 35.0524C18.4466 34.5707 18.8759 34.1244 19.2519 33.608C19.6368 33.0916 19.979 32.5751 20.2848 32.0667C20.6173 32.032 20.9417 31.9707 21.2742 31.9262C21.6946 31.8827 22.0884 31.7422 22.491 31.6462C22.9639 32.0578 23.4626 32.3902 23.9968 32.7236C24.5399 33.056 25.1177 33.3716 25.7124 33.6169C26.1675 33.3982 26.6226 33.1876 27.0519 32.9164C27.4813 32.6542 27.9186 32.4 28.3124 32.0844C28.435 30.7796 28.3559 29.4933 28.1462 28.3111L28.8288 27.5671C29.0919 27.2516 29.3275 26.9102 29.5817 26.5778C30.7728 26.5511 32.059 26.3849 33.3026 26.0178C33.539 25.5716 33.7053 25.0898 33.8804 24.6169C34.0644 24.144 34.187 23.6542 34.3097 23.1636C33.9541 22.6267 33.5426 22.128 33.1044 21.6551ZM9.98261 19.0987C9.98261 14.0907 14.0626 10.0107 19.0706 10.0107C24.0875 10.0107 28.1586 14.0907 28.1586 19.0987C28.1586 24.1156 24.0875 28.1956 19.0706 28.1956C14.0626 28.1947 9.98261 24.1156 9.98261 19.0987ZM27.2822 19.0987C27.2822 14.5725 23.6048 10.8862 19.0697 10.8862C14.5435 10.8862 10.8573 14.5725 10.8573 19.0987C10.8573 23.6338 14.5435 27.32 19.0697 27.32C23.6057 27.3191 27.2822 23.6338 27.2822 19.0987ZM16.5577 19.0987C16.5577 17.7156 17.6875 16.5947 19.0706 16.5947C20.4537 16.5947 21.5835 17.7156 21.5835 19.0987C21.5835 20.4907 20.4537 21.6116 19.0706 21.6116C17.6866 21.6116 16.5577 20.4907 16.5577 19.0987ZM19.0706 20.736C18.1684 20.736 17.4333 20.0009 17.4333 19.0987C17.4333 18.2053 18.1684 17.4702 19.0706 17.4702C19.9719 17.4702 20.7079 18.2053 20.7079 19.0987C20.707 20 19.9719 20.736 19.0706 20.736Z" fill="url(#paint2_linear_82_92)"/>
<path d="M36.7852 32.3804C35.8732 31.616 34.7132 31.1956 33.523 31.1956C30.7203 31.1956 28.4412 33.4756 28.4412 36.2782C28.4412 37.1191 28.651 37.9511 29.0474 38.688C29.1817 38.936 29.4394 39.0898 29.7221 39.0898C29.8474 39.0898 29.9728 39.0578 30.0866 38.9982C30.4572 38.7964 30.5968 38.3316 30.3968 37.96C30.1194 37.4471 29.9737 36.8658 29.9737 36.2782C29.9737 34.32 31.5666 32.7271 33.5239 32.7271C34.3559 32.7271 35.1648 33.0213 35.803 33.5556C36.1274 33.8258 36.611 33.7822 36.883 33.4587C37.1506 33.1369 37.1079 32.6524 36.7852 32.3804Z" fill="url(#paint3_linear_82_92)"/>
<path d="M19.8377 37.44C19.8377 37.8622 19.4937 38.2062 19.0715 38.2062C18.315 38.2062 17.5488 38.1609 16.7959 38.0711C16.5924 38.0471 16.4102 37.9458 16.2839 37.7849C16.1577 37.624 16.1008 37.4231 16.1257 37.2205C16.1488 37.0178 16.2555 36.8285 16.4199 36.7014C16.5826 36.5769 16.779 36.5218 16.9844 36.552C17.675 36.632 18.3808 36.6747 19.0724 36.6747C19.4946 36.6738 19.8377 37.0178 19.8377 37.44ZM13.6359 35.8169C12.2795 35.376 10.979 34.7689 9.76838 34.0107C9.41104 33.7867 8.93638 33.8969 8.71238 34.2534C8.48927 34.6116 8.59771 35.0854 8.95504 35.3102C10.2742 36.1342 11.6893 36.7956 13.1613 37.2738C13.2377 37.2987 13.3168 37.3111 13.3977 37.3111C13.731 37.3111 14.0244 37.0978 14.1266 36.7814C14.2573 36.3805 14.0368 35.9476 13.6359 35.8169ZM19.9461 0.0204877C18.4324 -0.0515122 16.8342 0.0667097 15.3195 0.368043C14.9053 0.45071 14.6359 0.854265 14.7177 1.26849C14.7888 1.62582 15.1044 1.88538 15.4688 1.88538C15.5222 1.88538 15.571 1.88004 15.619 1.87115C16.9924 1.59738 18.4626 1.48715 19.8457 1.5476C20.0501 1.57071 20.2413 1.51471 20.3968 1.38315C20.5639 1.24271 20.6644 1.03738 20.6741 0.821376C20.6839 0.616932 20.6137 0.421376 20.4759 0.270265C20.3382 0.118265 20.1488 0.0293766 19.9461 0.0204877ZM12.3488 2.86404C12.5382 2.78582 12.6848 2.63826 12.7639 2.44893C12.8422 2.2596 12.8422 2.0516 12.7639 1.86226C12.6022 1.47293 12.155 1.28893 11.763 1.44715C10.3319 2.04093 8.97371 2.80804 7.7266 3.7316C7.38704 3.98315 7.31504 4.46315 7.5666 4.80271C7.71149 4.99649 7.94082 5.11293 8.1826 5.11293C8.34793 5.11293 8.50438 5.06137 8.63771 4.9636C9.78526 4.1156 11.0342 3.40804 12.3488 2.86404ZM70.1861 29.1485C70.2617 29.4978 70.5763 29.752 70.9346 29.752C70.9897 29.752 71.0448 29.7458 71.0972 29.7342C71.2981 29.6907 71.4688 29.5716 71.5799 29.3991C71.6901 29.2276 71.7266 29.0223 71.6821 28.8231C71.3479 27.2907 70.787 25.8214 70.0146 24.4534C69.9132 24.2738 69.7479 24.1449 69.5497 24.0907C69.3506 24.0347 69.1443 24.0623 68.9728 24.1618C68.7941 24.2631 68.6652 24.4267 68.6101 24.624C68.555 24.8205 68.5799 25.0276 68.6804 25.2045C69.3772 26.44 69.883 27.768 70.1861 29.1485ZM27.9399 2.30582C26.571 1.54582 25.1204 0.963598 23.6235 0.575154C23.1995 0.473821 22.7995 0.717376 22.6928 1.12538C22.587 1.53426 22.8333 1.95293 23.2421 2.0596C24.611 2.41426 25.9417 2.9476 27.1977 3.64626C27.3124 3.70849 27.4395 3.74137 27.5675 3.74137C27.8448 3.74137 28.1017 3.59115 28.2377 3.3476C28.443 2.9796 28.3097 2.51115 27.9399 2.30582ZM2.58082 11.0374C2.69282 11.0978 2.81905 11.1307 2.94705 11.1307C3.22705 11.1307 3.48571 10.9769 3.61994 10.7298C4.29993 9.47915 5.13371 8.30937 6.09727 7.25426C6.23504 7.10404 6.30705 6.9076 6.29727 6.70404C6.28838 6.4996 6.19949 6.31115 6.04927 6.17248C5.89816 6.03382 5.71593 5.96982 5.49905 5.9716C5.2946 5.98137 5.10616 6.06937 4.96749 6.22137C3.9186 7.36804 3.01194 8.63915 2.27416 9.99915C2.17549 10.1787 2.15416 10.3867 2.21282 10.5823C2.2706 10.7787 2.40127 10.9405 2.58082 11.0374ZM1.6626 21.4925C1.63416 21.2854 1.51949 21.096 1.34971 20.9716C1.1826 20.8507 0.984381 20.8036 0.800381 20.8365C0.382603 20.8934 0.0883817 21.28 0.145271 21.6996C0.355048 23.2391 0.752381 24.7494 1.3266 26.1885C1.44394 26.4809 1.72305 26.6703 2.03771 26.6703C2.13638 26.6703 2.23149 26.6516 2.32038 26.6151C2.5106 26.5396 2.65994 26.3956 2.74082 26.208C2.82171 26.0187 2.82438 25.8107 2.74882 25.6196C2.22083 24.2951 1.8546 22.9076 1.6626 21.4925ZM4.3186 28.6516C4.20749 28.48 4.03594 28.3618 3.83505 28.32C3.63238 28.2783 3.42971 28.3174 3.25994 28.4267C2.90616 28.6569 2.80482 29.1325 3.03505 29.4862C3.87949 30.7885 4.88216 31.9858 6.01371 33.0454C6.15682 33.1787 6.34171 33.2516 6.53638 33.2516C6.74793 33.2516 6.95149 33.1636 7.09549 33.0098C7.38349 32.7022 7.36838 32.216 7.06082 31.9262C6.01993 30.9502 5.09727 29.8489 4.3186 28.6516ZM0.708826 18.7947L0.765715 18.7974C1.17194 18.7974 1.50794 18.4791 1.53016 18.0747C1.61283 16.6463 1.86883 15.2338 2.29194 13.8765C2.35238 13.6818 2.33371 13.4738 2.23771 13.2925C2.1426 13.1111 1.9826 12.9778 1.78883 12.9183C1.59594 12.8569 1.38971 12.8747 1.20749 12.9689C1.02438 13.064 0.890159 13.2249 0.827937 13.4223C0.368381 14.8978 0.0901589 16.4347 0.0012701 17.9876C-0.0102855 18.192 0.0572706 18.3885 0.193271 18.5405C0.330159 18.6943 0.517715 18.7849 0.708826 18.7947ZM41.0795 30.9298C40.7977 29.4667 40.6413 28.1814 40.4706 26.7796L40.4448 26.5725C40.4208 26.3689 40.3124 26.1796 40.147 26.0534C39.9844 25.9289 39.7781 25.8747 39.5924 25.904C39.1737 25.9547 38.8733 26.3378 38.9248 26.7565L38.9497 26.9645C39.1195 28.3663 39.2795 29.6898 39.5746 31.2196C39.6439 31.5796 39.9595 31.8409 40.3257 31.8409C40.3737 31.8409 40.4208 31.8365 40.4715 31.8276C40.8866 31.7476 41.1586 31.3449 41.0795 30.9298ZM67.2421 22.7191C67.4341 22.7191 67.6199 22.6463 67.7648 22.5138C68.0732 22.2267 68.0901 21.7405 67.803 21.4303C66.9275 20.4916 65.9381 19.6587 64.8617 18.9547C64.6279 18.8036 64.3915 18.6569 64.1488 18.5147C63.7817 18.3049 63.3132 18.4267 63.1026 18.7903C62.9995 18.9663 62.9701 19.1734 63.0226 19.3707C63.0741 19.5689 63.1995 19.7351 63.3764 19.8383C63.5968 19.9671 63.8128 20.0996 64.0252 20.2383C64.9959 20.8729 65.8901 21.6249 66.6821 22.4747C66.827 22.6303 67.0315 22.7191 67.2421 22.7191ZM63.4386 44.8302C63.2412 44.7698 63.0341 44.7885 62.8564 44.8836C61.603 45.5414 60.2617 46.0062 58.8688 46.2676C58.6679 46.3049 58.4937 46.4178 58.3781 46.5876C58.2626 46.7556 58.2199 46.9591 58.2572 47.1609C58.3248 47.5227 58.6412 47.7858 59.0084 47.7858L59.1506 47.7725C60.691 47.4854 62.1781 46.9689 63.5675 46.2391C63.7488 46.144 63.8821 45.984 63.9426 45.7885C64.0039 45.5938 63.9844 45.3858 63.8892 45.2054C63.795 45.024 63.635 44.8907 63.4386 44.8302ZM55.4919 46.4925C54.0679 46.4214 52.6777 46.1378 51.3639 45.6507C51.1737 45.5778 50.9648 45.5867 50.779 45.6694C50.5924 45.7547 50.4501 45.9076 50.3781 46.1022C50.2315 46.4978 50.4341 46.9405 50.8297 47.0862C52.2919 47.6294 53.8341 47.9449 55.395 48.0214L55.4528 48.024C55.8626 48.024 56.1986 47.704 56.2172 47.2969C56.2288 47.0925 56.1595 46.8969 56.0217 46.7449C55.8857 46.5929 55.6972 46.5031 55.4919 46.4925ZM71.2795 31.768C70.8652 31.768 70.5221 32.104 70.5132 32.5182C70.4839 33.9405 70.2466 35.3405 69.8066 36.6791C69.7426 36.8738 69.7577 37.0809 69.8501 37.264C69.9426 37.4471 70.1008 37.5831 70.2919 37.6462C70.3692 37.672 70.451 37.6854 70.5337 37.6854C70.8661 37.6854 71.1586 37.4729 71.2617 37.1582C71.7497 35.6747 72.0128 34.1245 72.0457 32.5503C72.0546 32.128 71.7186 31.7769 71.2795 31.768ZM69.4297 39.4978C69.0697 39.2756 68.5986 39.3885 68.3764 39.7449C67.6288 40.9485 66.7097 42.0329 65.6439 42.9671C65.3284 43.2462 65.2964 43.7307 65.5737 44.048C65.7195 44.2142 65.9292 44.3085 66.1497 44.3085C66.3364 44.3085 66.5159 44.2409 66.6546 44.1182C67.8341 43.0818 68.8519 41.8827 69.6768 40.5529C69.9008 40.1947 69.7897 39.7209 69.4297 39.4978ZM39.3186 23.8871C39.7346 23.816 40.0155 23.4187 39.9435 23.0018C39.6928 21.5467 39.3693 20.1005 38.9533 18.5823C38.843 18.176 38.4261 17.9343 38.011 18.0445C37.8146 18.0987 37.6493 18.2258 37.5488 18.4036C37.4475 18.5823 37.4208 18.7885 37.475 18.9849C37.8768 20.4516 38.1897 21.8498 38.4333 23.2614C38.4964 23.6303 38.8137 23.8978 39.187 23.8978L39.3186 23.8871ZM30.9959 4.41515C30.8404 4.2836 30.6439 4.21249 30.4368 4.23915C30.2333 4.25693 30.0484 4.35293 29.9168 4.50938C29.7853 4.66582 29.723 4.86404 29.7399 5.0676C29.7577 5.27204 29.8546 5.45693 30.011 5.58849C31.0937 6.49782 32.0875 7.54315 32.9657 8.69426C33.1115 8.88626 33.3346 8.99737 33.5755 8.99737C33.7453 8.99737 33.907 8.94226 34.0386 8.84093C34.2021 8.71737 34.307 8.53693 34.3346 8.33426C34.3621 8.13071 34.3088 7.92982 34.1844 7.76715C33.2368 6.5236 32.1639 5.3956 30.9959 4.41515ZM37.8528 15.7165C37.9444 15.5325 37.9586 15.3245 37.8937 15.1298C37.7381 14.6667 37.5719 14.1867 37.395 13.6898C37.0528 12.7325 36.6413 11.7894 36.1693 10.8863C35.9737 10.5147 35.5106 10.3689 35.1355 10.5627C34.9541 10.6569 34.8199 10.8178 34.7595 11.0125C34.6981 11.208 34.7168 11.4151 34.8119 11.5965C35.2493 12.4338 35.6333 13.3111 35.9524 14.2045C36.1275 14.6925 36.2901 15.1618 36.4421 15.616C36.5453 15.9289 36.8368 16.1396 37.1684 16.1396C37.2546 16.1396 37.3373 16.1263 37.411 16.0996C37.6048 16.0347 37.7613 15.8987 37.8528 15.7165ZM45.259 41.224C45.131 41.0658 44.9479 40.9662 44.7453 40.9449C44.5373 40.9271 44.3399 40.9831 44.1817 41.112C44.0226 41.2409 43.9239 41.4249 43.9017 41.6285C43.8813 41.8329 43.9408 42.032 44.0697 42.1902C45.0706 43.4205 46.2253 44.488 47.5017 45.3609C47.6288 45.448 47.779 45.4942 47.9337 45.4942C48.1861 45.4942 48.4217 45.3707 48.5666 45.16C48.8048 44.8116 48.7141 44.3342 48.3666 44.0951C47.2128 43.3049 46.1666 42.3387 45.259 41.224ZM42.459 36.0969C42.251 35.4747 42.067 34.8862 41.9035 34.3254C41.7844 33.9191 41.3675 33.6862 40.9533 33.8045C40.5479 33.9236 40.3141 34.3494 40.4315 34.7547C40.6004 35.3325 40.7906 35.9414 41.0057 36.5831C41.2901 37.4347 41.6395 38.2694 42.0421 39.0631C42.1737 39.3209 42.435 39.4809 42.7257 39.4809C42.8448 39.4809 42.9613 39.4534 43.0733 39.3982C43.4493 39.208 43.6004 38.7449 43.4093 38.368C43.0395 37.6409 42.7195 36.8765 42.459 36.0969ZM58.8981 18.1805C59.323 18.2605 59.7452 18.3538 60.1577 18.4711C60.227 18.4916 60.299 18.5023 60.3719 18.5023C60.7124 18.5023 61.0155 18.2738 61.1079 17.9476C61.2244 17.5414 60.9888 17.1165 60.5826 17C60.0715 16.8534 59.5461 16.7423 59.0172 16.648L59.1141 15.4125L55.5675 17.1058L58.8075 19.3316L58.8981 18.1805Z" fill="url(#paint4_linear_82_92)"/>
<path d="M45.1142 70.2676H30.7835C29.3569 68.9956 27.876 66.856 27.0137 62.9236C26.8769 62.3004 26.7551 61.6924 26.6342 61.0969C26.0049 57.9769 25.4617 55.2827 23.364 52.5698C22.3097 51.2062 22.6484 50.4907 22.9444 50.184C23.6422 49.4658 25.3471 49.7405 26.8271 50.8107C28.1551 51.7716 29.9906 54.2747 31.0137 55.7547L31.6217 35.7831C31.6546 34.7769 32.4689 33.9885 33.4751 33.9885C34.4937 33.9885 35.3471 34.7849 35.42 35.8009L36.3835 50.1173C36.4849 50.0382 36.5853 49.9271 36.7071 49.7885C36.9969 49.4578 37.3577 49.0462 38.0111 49.0462C38.7044 49.0462 39.0946 49.5485 39.3782 49.9147C39.8306 50.4969 40.0111 50.4845 40.4946 49.9209C40.8057 49.5591 41.2324 49.0631 41.9497 49.0631C42.6937 49.0631 43.0822 49.5831 43.3666 49.9618C43.7533 50.4773 43.8617 50.4809 44.2617 49.9636C44.5613 49.576 44.9711 49.0462 45.7497 49.0462C47.2564 49.0462 47.8306 50.6018 47.9471 54.9885C48.0244 57.9324 48.2271 66.248 45.1142 70.2676ZM29.7284 71.1431V79.5627C29.7284 79.8044 29.924 80 30.1657 80H46.0493C46.2911 80 46.4866 79.8044 46.4866 79.5627V71.1431H29.7284Z" fill="url(#paint5_linear_82_92)"/>
<path d="M88 0.0020067V80.1241H100.15V46.0244H122.322V33.8744H100.15V12.15H128.875V0H88.0009L88 0.0020067ZM208.828 0.0020067L180.273 65.4006L152.053 0.0020067H139.343V80.1241H151.494V29.5637L173.386 80.1241H187.104L209.388 29.2283V80.1241H221.538V0.0020067H208.828ZM247.405 34.2106L264.818 34.2107C267.842 34.2107 270.436 33.1282 272.601 30.9633C274.729 28.8356 275.793 26.2601 275.793 23.2366C275.793 20.1758 274.729 17.5631 272.601 15.3978C270.436 13.2328 267.842 12.1504 264.818 12.1504H247.405V34.2107V34.2106ZM247.405 80.1242L235.255 80.1241V0.0020067H264.82C271.203 0.0020067 276.652 2.27899 281.169 6.83284C285.723 11.3494 288 16.8176 288 23.2383C288 29.6213 285.723 35.0707 281.169 39.5875C276.653 44.104 271.203 46.3624 264.82 46.3624H247.407V80.1238L247.405 80.1242Z" fill="#488C20"/>
<defs>
<linearGradient id="paint0_linear_82_92" x1="39.9412" y1="3.72534" x2="55.4844" y2="3.72534" gradientUnits="userSpaceOnUse">
<stop stop-color="#006838"/>
<stop offset="1" stop-color="#96CF24"/>
</linearGradient>
<linearGradient id="paint1_linear_82_92" x1="45.731" y1="22.0063" x2="66.6368" y2="22.0063" gradientUnits="userSpaceOnUse">
<stop stop-color="#006838"/>
<stop offset="1" stop-color="#96CF24"/>
</linearGradient>
<linearGradient id="paint2_linear_82_92" x1="3.34528" y1="3.71735" x2="34.3097" y2="3.71735" gradientUnits="userSpaceOnUse">
<stop stop-color="#006838"/>
<stop offset="1" stop-color="#96CF24"/>
</linearGradient>
<linearGradient id="paint3_linear_82_92" x1="28.4412" y1="31.1956" x2="37.0586" y2="31.1956" gradientUnits="userSpaceOnUse">
<stop stop-color="#006838"/>
<stop offset="1" stop-color="#96CF24"/>
</linearGradient>
<linearGradient id="paint4_linear_82_92" x1="0" y1="0" x2="72.0459" y2="0" gradientUnits="userSpaceOnUse">
<stop stop-color="#006838"/>
<stop offset="1" stop-color="#96CF24"/>
</linearGradient>
<linearGradient id="paint5_linear_82_92" x1="22.6474" y1="33.9885" x2="47.9811" y2="33.9885" gradientUnits="userSpaceOnUse">
<stop stop-color="#006838"/>
<stop offset="1" stop-color="#96CF24"/>
</linearGradient>
</defs>
</svg>


