<svg width="1201" height="854" viewBox="0 0 1201 854" fill="none" xmlns="http://www.w3.org/2000/svg">
<g opacity="0.08">
<g clip-path="url(#clip0_8_722)">
<path d="M664.72 396.643H361.689C356.853 396.637 352.217 394.625 348.797 391.048C345.378 387.471 343.454 382.62 343.449 377.561V238.603C343.454 233.544 345.378 228.694 348.797 225.116C352.217 221.539 356.853 219.527 361.689 219.521H664.72C669.556 219.527 674.192 221.539 677.611 225.116C681.031 228.694 682.954 233.544 682.96 238.603V377.561C682.954 382.62 681.031 387.471 677.611 391.048C674.192 394.625 669.556 396.637 664.72 396.643V396.643Z" fill="#E6E6E6"/>
<path d="M22.1113 55.7886C34.3231 55.7886 44.2227 45.4321 44.2227 32.6567C44.2227 19.8814 34.3231 9.5249 22.1113 9.5249C9.89958 9.5249 0 19.8814 0 32.6567C0 45.4321 9.89958 55.7886 22.1113 55.7886Z" fill="#1F7A3A"/>
<path d="M28.6146 48.9851C23.9841 48.9851 19.4577 47.5486 15.6076 44.8574C11.7575 42.1661 8.75672 38.3409 6.98472 33.8654C5.21272 29.39 4.74908 24.4654 5.65244 19.7143C6.5558 14.9632 8.78557 10.599 12.0598 7.1737C15.334 3.74836 19.5057 1.41568 24.0471 0.470627C28.5886 -0.474423 33.296 0.010616 37.574 1.8644C41.852 3.71818 45.5084 6.85744 48.081 10.8852C50.6535 14.913 52.0266 19.6484 52.0266 24.4925C52.0196 30.9861 49.5507 37.2116 45.1616 41.8033C40.7725 46.3949 34.8217 48.9777 28.6146 48.9851ZM28.6146 2.7214C24.4986 2.7214 20.4751 3.99825 17.0528 6.3905C13.6305 8.78274 10.9632 12.1829 9.38805 16.1611C7.81294 20.1393 7.40082 24.5167 8.2038 28.7399C9.00678 32.9631 10.9888 36.8423 13.8992 39.8871C16.8096 42.9318 20.5177 45.0053 24.5546 45.8454C28.5915 46.6854 32.7758 46.2543 36.5785 44.6065C40.3811 42.9587 43.6313 40.1682 45.918 36.588C48.2048 33.0077 49.4253 28.7985 49.4253 24.4925C49.419 18.7205 47.2244 13.1867 43.323 9.10529C39.4216 5.02383 34.132 2.72797 28.6146 2.7214V2.7214Z" fill="#3F3D56"/>
<path d="M291.349 346.978C303.561 346.978 313.461 336.621 313.461 323.846C313.461 311.07 303.561 300.714 291.349 300.714C279.138 300.714 269.238 311.07 269.238 323.846C269.238 336.621 279.138 346.978 291.349 346.978Z" fill="#E6E6E6"/>
<path d="M297.853 340.174C293.222 340.174 288.696 338.738 284.846 336.046C280.996 333.355 277.995 329.53 276.223 325.055C274.451 320.579 273.987 315.654 274.891 310.903C275.794 306.152 278.024 301.788 281.298 298.363C284.572 294.937 288.744 292.605 293.285 291.66C297.827 290.715 302.534 291.2 306.812 293.054C311.09 294.907 314.747 298.047 317.319 302.074C319.892 306.102 321.265 310.837 321.265 315.682C321.258 322.175 318.789 328.401 314.4 332.992C310.011 337.584 304.06 340.167 297.853 340.174V340.174ZM297.853 293.91C293.737 293.91 289.713 295.187 286.291 297.58C282.869 299.972 280.201 303.372 278.626 307.35C277.051 311.328 276.639 315.706 277.442 319.929C278.245 324.152 280.227 328.031 283.137 331.076C286.048 334.121 289.756 336.194 293.793 337.034C297.83 337.875 302.014 337.443 305.817 335.796C309.619 334.148 312.869 331.357 315.156 327.777C317.443 324.197 318.663 319.988 318.663 315.682C318.657 309.91 316.463 304.376 312.561 300.294C308.66 296.213 303.37 293.917 297.853 293.91V293.91Z" fill="#3F3D56"/>
<path d="M463.038 171.448C475.249 171.448 485.149 161.091 485.149 148.316C485.149 135.541 475.249 125.184 463.038 125.184C450.826 125.184 440.926 135.541 440.926 148.316C440.926 161.091 450.826 171.448 463.038 171.448Z" fill="#1F7A3A"/>
<path d="M469.541 164.644C464.91 164.644 460.384 163.208 456.534 160.517C452.684 157.825 449.683 154 447.911 149.525C446.139 145.049 445.675 140.125 446.579 135.373C447.482 130.622 449.712 126.258 452.986 122.833C456.26 119.408 460.432 117.075 464.973 116.13C469.515 115.185 474.222 115.67 478.5 117.524C482.778 119.377 486.435 122.517 489.007 126.544C491.58 130.572 492.953 135.308 492.953 140.152C492.946 146.645 490.477 152.871 486.088 157.463C481.699 162.054 475.748 164.637 469.541 164.644V164.644ZM469.541 118.381C465.425 118.381 461.401 119.657 457.979 122.05C454.557 124.442 451.889 127.842 450.314 131.82C448.739 135.798 448.327 140.176 449.13 144.399C449.933 148.622 451.915 152.502 454.825 155.546C457.736 158.591 461.444 160.665 465.481 161.505C469.518 162.345 473.702 161.913 477.505 160.266C481.307 158.618 484.558 155.827 486.844 152.247C489.131 148.667 490.352 144.458 490.352 140.152C490.345 134.38 488.151 128.846 484.249 124.764C480.348 120.683 475.058 118.387 469.541 118.381V118.381Z" fill="#3F3D56"/>
<path d="M370.982 262.812H67.9509C63.115 262.806 58.4788 260.794 55.0593 257.217C51.6398 253.639 49.7163 248.789 49.7108 243.73V104.772C49.7162 99.7132 51.6396 94.8628 55.0591 91.2855C58.4786 87.7081 63.1149 85.6958 67.9509 85.69H370.982C375.818 85.6958 380.454 87.7081 383.873 91.2855C387.293 94.8629 389.216 99.7132 389.222 104.772V243.73C389.216 248.789 387.293 253.639 383.873 257.217C380.454 260.794 375.817 262.806 370.982 262.812V262.812Z" fill="#1F7A3A"/>
<path d="M390.747 248.558H87.7164C82.7081 248.552 77.9066 246.469 74.3652 242.764C70.8238 239.059 68.8317 234.036 68.826 228.796V89.8379C68.8317 84.5985 70.8238 79.5753 74.3652 75.8705C77.9066 72.1657 82.7081 70.0818 87.7164 70.0759H390.747C395.755 70.0817 400.557 72.1657 404.098 75.8705C407.64 79.5753 409.632 84.5984 409.638 89.8379V228.796C409.632 234.036 407.64 239.059 404.098 242.764C400.557 246.469 395.755 248.552 390.747 248.558V248.558ZM87.7164 72.7973C83.3978 72.8024 79.2575 74.5994 76.2038 77.794C73.1501 80.9886 71.4323 85.32 71.4274 89.8379V228.796C71.4323 233.314 73.1501 237.646 76.2038 240.84C79.2575 244.035 83.3978 245.832 87.7164 245.837H390.747C395.066 245.832 399.206 244.035 402.26 240.84C405.314 237.646 407.031 233.314 407.036 228.796V89.8379C407.031 85.32 405.314 80.9886 402.26 77.794C399.206 74.5994 395.066 72.8024 390.747 72.7973H87.7164Z" fill="#3F3D56"/>
<path d="M684.485 382.39H381.454C376.446 382.384 371.644 380.3 368.103 376.595C364.561 372.89 362.569 367.867 362.564 362.627V223.669C362.569 218.43 364.562 213.407 368.103 209.702C371.644 205.997 376.446 203.913 381.454 203.907H684.485C689.493 203.913 694.295 205.997 697.836 209.702C701.378 213.407 703.37 218.43 703.375 223.669V362.627C703.37 367.867 701.378 372.89 697.836 376.595C694.295 380.3 689.493 382.384 684.485 382.39V382.39ZM381.454 206.629C377.136 206.634 372.995 208.431 369.942 211.625C366.888 214.82 365.17 219.151 365.165 223.669V362.627C365.17 367.145 366.888 371.477 369.941 374.671C372.995 377.866 377.136 379.663 381.454 379.668H684.485C688.804 379.663 692.944 377.866 695.998 374.671C699.051 371.477 700.769 367.145 700.774 362.627V223.669C700.769 219.151 699.051 214.82 695.998 211.625C692.944 208.431 688.803 206.634 684.485 206.629H381.454Z" fill="#3F3D56"/>
<path d="M873.669 575.493C871.524 575.49 869.461 574.634 867.898 573.099C866.334 571.564 865.386 569.465 865.245 567.227L863.991 547.186C863.844 544.846 864.592 542.54 866.071 540.776C867.549 539.013 869.637 537.936 871.874 537.782L1021.96 527.5C1026.73 527.173 1031.44 528.844 1035.04 532.147C1038.64 535.45 1040.84 540.114 1041.15 545.112C1041.46 550.11 1039.86 555.034 1036.71 558.8C1033.55 562.565 1029.09 564.865 1024.31 565.192L874.234 575.474C874.045 575.487 873.857 575.493 873.669 575.493Z" fill="#1F7A3A"/>
<path d="M903.263 578.077C901.076 578.073 898.976 577.185 897.402 575.597C895.828 574.01 894.902 571.847 894.818 569.562L893.748 539.629C893.707 538.469 893.884 537.311 894.27 536.222C894.657 535.133 895.244 534.134 896 533.283C896.755 532.432 897.663 531.744 898.672 531.26C899.681 530.776 900.772 530.504 901.881 530.461L1025.3 525.636C1027.54 525.548 1029.72 526.395 1031.36 527.991C1033.01 529.586 1033.98 531.8 1034.06 534.144L1035.13 564.077C1035.17 565.237 1034.99 566.395 1034.61 567.484C1034.22 568.573 1033.63 569.572 1032.88 570.423C1032.12 571.274 1031.22 571.962 1030.21 572.446C1029.2 572.93 1028.11 573.201 1027 573.245L903.582 578.07C903.475 578.075 903.368 578.077 903.263 578.077Z" fill="#2F2E41"/>
<path d="M1047.89 854H1028.69C1026.45 853.997 1024.3 853.065 1022.71 851.407C1021.13 849.749 1020.24 847.5 1020.23 845.156V677.771C1020.24 675.426 1021.13 673.178 1022.71 671.519C1024.3 669.861 1026.45 668.929 1028.69 668.926H1047.89C1050.13 668.929 1052.28 669.861 1053.86 671.519C1055.45 673.178 1056.34 675.426 1056.34 677.771V845.156C1056.34 847.5 1055.45 849.749 1053.86 851.407C1052.28 853.065 1050.13 853.997 1047.89 854Z" fill="#2F2E41"/>
<path d="M1009.92 854H990.719C988.477 853.997 986.328 853.065 984.743 851.407C983.158 849.749 982.267 847.5 982.264 845.156V677.771C982.267 675.426 983.158 673.178 984.743 671.519C986.328 669.861 988.477 668.929 990.719 668.926H1009.92C1012.16 668.929 1014.31 669.861 1015.89 671.519C1017.48 673.178 1018.37 675.426 1018.37 677.771V845.156C1018.37 847.5 1017.48 849.749 1015.89 851.407C1014.31 853.065 1012.16 853.997 1009.92 854V854Z" fill="#2F2E41"/>
<path d="M1018.73 494.241C1055.36 494.241 1085.06 463.172 1085.06 424.846C1085.06 386.52 1055.36 355.45 1018.73 355.45C982.093 355.45 952.394 386.52 952.394 424.846C952.394 463.172 982.093 494.241 1018.73 494.241Z" fill="#1F7A3A"/>
<path d="M989.548 455.412C987.303 455.461 985.073 455.006 983.01 454.079C981.616 453.387 980.385 452.385 979.4 451.143C978.416 449.901 977.704 448.449 977.312 446.888C977.014 445.783 976.965 444.621 977.167 443.493C977.369 442.365 977.818 441.301 978.479 440.384C980.211 438.059 983.203 436.952 986.722 437.235L978.011 411.723L980.46 410.808L990.702 440.8L988.393 440.252C985.716 439.619 982.244 439.758 980.531 442.057C980.116 442.651 979.838 443.336 979.718 444.061C979.597 444.785 979.639 445.529 979.838 446.234C980.135 447.394 980.668 448.474 981.4 449.4C982.132 450.325 983.046 451.075 984.08 451.598C987.7 453.308 991.938 452.699 996.7 451.797L997.164 454.474C994.657 455.024 992.108 455.338 989.548 455.412Z" fill="#2F2E41"/>
<path d="M965.993 416.731L952.282 419.744L952.816 422.407L966.527 419.394L965.993 416.731Z" fill="#2F2E41"/>
<path d="M1009.27 407.218L995.559 410.231L996.094 412.894L1009.8 409.881L1009.27 407.218Z" fill="#2F2E41"/>
<path d="M816.538 580.773L891.313 623.741C891.746 624.043 892.237 624.241 892.752 624.322C893.267 624.403 893.792 624.366 894.291 624.212C894.79 624.058 895.251 623.791 895.641 623.431C896.031 623.07 896.341 622.625 896.549 622.126L914.866 582.07C915.213 580.928 915.157 579.694 914.707 578.592C914.258 577.49 913.445 576.594 912.416 576.066L850.335 542.589C849.57 542.108 848.662 541.939 847.786 542.114C846.909 542.29 846.126 542.797 845.584 543.539L814.574 574.103C813.976 575.217 813.826 576.534 814.157 577.764C814.488 578.994 815.272 580.037 816.337 580.662C816.403 580.701 816.47 580.738 816.538 580.773Z" fill="#3F3D56"/>
<path d="M821.527 574.855L891.628 616.773L910.282 581.599L850.146 547.387L821.527 574.855Z" fill="white"/>
<path d="M881.68 562.979C882.054 562.654 882.06 562.018 881.695 561.561C881.33 561.103 880.731 560.996 880.358 561.321C879.985 561.647 879.979 562.282 880.344 562.74C880.709 563.198 881.307 563.305 881.68 562.979Z" fill="#F2F2F2"/>
<path d="M855.433 598.688C855.681 598.471 855.686 598.047 855.442 597.742C855.199 597.437 854.8 597.365 854.551 597.583C854.302 597.8 854.298 598.223 854.541 598.528C854.785 598.833 855.184 598.905 855.433 598.688Z" fill="#F2F2F2"/>
<path d="M1074.12 722.68H962.26C959.329 722.677 956.519 721.457 954.446 719.289C952.374 717.121 951.208 714.181 951.205 711.114L974.622 523.25C974.641 520.198 975.813 517.277 977.884 515.127C979.954 512.976 982.755 511.77 985.672 511.772H1025.37C1041.22 511.791 1056.43 518.389 1067.64 530.118C1078.85 541.847 1085.16 557.75 1085.17 574.337V711.114C1085.17 714.181 1084 717.121 1081.93 719.289C1079.86 721.457 1077.05 722.677 1074.12 722.68V722.68Z" fill="#2F2E41"/>
<path d="M997.716 511.092L967.463 580.487L972.665 522.195C972.652 520.751 972.91 519.319 973.425 517.979C973.941 516.64 974.703 515.42 975.669 514.388C976.636 513.357 977.787 512.536 979.057 511.97C980.327 511.404 981.691 511.106 983.071 511.092H997.716Z" fill="#CCCCCC"/>
<path d="M899.441 644.242C897.809 644.243 896.211 643.75 894.84 642.823C893.469 641.897 892.384 640.575 891.714 639.018L883.857 620.694C883.402 619.634 883.152 618.491 883.12 617.33C883.088 616.169 883.274 615.013 883.669 613.927C884.064 612.842 884.66 611.848 885.422 611.003C886.184 610.159 887.097 609.479 888.11 609.004L1025.34 544.603C1029.71 542.553 1034.67 542.402 1039.15 544.184C1043.62 545.966 1047.24 549.534 1049.2 554.104C1051.16 558.674 1051.3 563.871 1049.6 568.553C1047.89 573.234 1044.48 577.015 1040.11 579.065L902.889 643.467C901.805 643.978 900.63 644.242 899.441 644.242V644.242Z" fill="#1F7A3A"/>
<path d="M939.468 634.782C937.835 634.783 936.238 634.29 934.867 633.363C933.496 632.436 932.41 631.115 931.741 629.557L918.32 598.259C917.405 596.118 917.339 593.685 918.136 591.494C918.934 589.302 920.529 587.531 922.573 586.569L1035.26 533.687C1036.27 533.211 1037.36 532.949 1038.47 532.915C1039.58 532.882 1040.69 533.077 1041.72 533.49C1042.76 533.903 1043.71 534.526 1044.52 535.324C1045.33 536.121 1045.98 537.077 1046.43 538.136L1059.85 569.434C1060.31 570.494 1060.56 571.637 1060.59 572.798C1060.62 573.959 1060.43 575.115 1060.04 576.201C1059.64 577.286 1059.05 578.28 1058.29 579.124C1057.52 579.969 1056.61 580.648 1055.6 581.124L942.915 634.007C941.831 634.517 940.656 634.781 939.468 634.782V634.782Z" fill="#2F2E41"/>
<path d="M1004.01 381.336C993.21 377.174 984.332 388.14 974.545 390.65C965.182 393.052 955.096 387.402 950.095 379.166C944.26 369.559 945.706 357.085 951.013 347.6C956.826 337.212 967.178 330.838 978.15 328.054C990.725 324.863 1003.83 326.432 1016.24 329.673C1028.14 332.589 1039.68 336.937 1050.63 342.628C1060.53 347.987 1069.91 355.319 1075.7 365.474C1080.95 374.702 1083.55 386.188 1080.95 396.762C1079.52 402.22 1076.77 407.2 1072.96 411.221C1069.04 415.56 1064.55 419.321 1060.9 423.923C1055.37 430.882 1051.66 442.287 1057.11 450.518C1058.29 452.32 1059.88 453.79 1061.73 454.8C1063.95 456.012 1065.93 452.49 1063.7 451.275C1059.78 449.14 1058.36 444.809 1058.46 440.392C1058.67 435.38 1060.51 430.591 1063.66 426.81C1067.48 421.999 1072.22 418.104 1076.26 413.505C1080.16 409.22 1083.03 404.009 1084.6 398.317C1087.47 387.309 1085.22 375.319 1080.14 365.401C1074.64 354.668 1065.42 346.564 1055.39 340.675C1044.47 334.265 1032.33 329.969 1020.29 326.558C1007.36 322.898 993.785 320.837 980.483 323.37C968.951 325.566 957.681 331.389 950.429 341.243C943.66 350.441 940.426 362.978 943.7 374.296C945.253 379.421 948.085 384.02 951.901 387.62C955.718 391.22 960.383 393.691 965.416 394.778C970.534 395.763 975.817 395.042 980.522 392.717C985.591 390.341 990.194 386.647 995.585 385.067C998.004 384.293 1000.6 384.366 1002.97 385.273C1005.33 386.182 1006.35 382.238 1004.01 381.336V381.336Z" fill="#2F2E41"/>
<path d="M1199.45 853.898H782.855C782.445 853.897 782.053 853.726 781.763 853.422C781.474 853.118 781.311 852.707 781.311 852.278C781.311 851.849 781.474 851.438 781.763 851.134C782.053 850.83 782.445 850.659 782.855 850.658H1199.45C1199.86 850.658 1200.26 850.829 1200.55 851.133C1200.84 851.436 1201 851.848 1201 852.278C1201 852.708 1200.84 853.12 1200.55 853.424C1200.26 853.728 1199.86 853.898 1199.45 853.898Z" fill="#3F3D56"/>
</g>
</g>
<defs>
<clipPath id="clip0_8_722">
<rect width="1201" height="854" fill="white"/>
</clipPath>
</defs>
</svg>
